<?xml version="1.0" encoding="UTF-8"?>
<svg width="44px" height="46px" viewBox="0 0 44 46" version="1.1" xmlns="http://www.w3.org/2000/svg" xmlns:xlink="http://www.w3.org/1999/xlink">
    <!-- Generator: Sketch 64 (93537) - https://sketch.com -->
    <title>Beepcateg-dessert</title>
    <desc>Created with Sketch.</desc>
    <defs>
        <linearGradient x1="31.644086%" y1="-4.57473118%" x2="70.8924731%" y2="113.17043%" id="linearGradient-1">
            <stop stop-color="#F47D62" offset="0.5025126%"></stop>
            <stop stop-color="#F17461" offset="17.48%"></stop>
            <stop stop-color="#EC645F" offset="58.49%"></stop>
            <stop stop-color="#EA5E5E" offset="89.95%"></stop>
        </linearGradient>
    </defs>
    <g id="Symbols" stroke="none" stroke-width="1" fill="none" fill-rule="evenodd">
        <g id="Molecules/Beep/Collection-Bar/Default" transform="translate(-222.000000, -4.000000)" fill-rule="nonzero">
            <g id="Sub-Navigation">
                <g id="Desserts" transform="translate(208.000000, 0.000000)">
                    <g id="Beepcateg-dessert" transform="translate(14.000000, 4.000000)">
                        <g id="Group" transform="translate(0.000000, 2.655172)">
                            <g>
                                <circle id="Oval" fill="#EFAD9C" cx="22.0189655" cy="21.2793103" r="21.2413793"></circle>
                                <ellipse id="Oval" fill="#CC5050" cx="22" cy="35.1241379" rx="13.8258621" ry="1.34655172"></ellipse>
                                <path d="M0.512068966,28.9224138 L43.4689655,28.9224138 C43.9431034,28.9224138 44.0189655,29.6051724 43.5637931,29.7189655 L33.8344828,32.1086207 C33.1327586,32.2793103 32.5637931,32.7534483 32.2603448,33.4172414 L32.2603448,33.4172414 C31.9568966,34.1 31.2741379,34.5362069 30.5344828,34.5362069 L13.1431034,34.5362069 C12.5362069,34.5362069 11.9482759,34.2327586 11.6068966,33.7396552 L11.0568966,32.962069 C10.7344828,32.5068966 10.2603448,32.1844828 9.72931034,32.0517241 L0.436206897,29.7189655 C-0.0379310345,29.6051724 0.0379310345,28.9224138 0.512068966,28.9224138 Z" id="Path" fill="#FFFFFF"></path>
                            </g>
                            <g id="Flat_4_" transform="translate(9.672414, 4.931034)">
                                <path d="M24.8827586,20.4448276 L24.8827586,23.8586207 C24.8827586,24.5603448 24.3137931,25.1482759 23.5931034,25.1482759 L1.36551724,25.1482759 C0.663793103,25.1482759 0.075862069,24.5793103 0.075862069,23.8586207 L0.075862069,20.4448276 L24.8827586,20.4448276 Z" id="Path" fill="#EEDABF"></path>
                                <path d="M24.8827586,15.7413793 L24.8827586,20.4448276 L22.9672414,20.4448276 C22.3793103,20.4448276 21.9051724,20.9189655 21.9051724,21.5068966 C21.9051724,21.5068966 21.9051724,21.5068966 21.9051724,21.5068966 L21.9051724,21.9431034 C21.9051724,22.5310345 21.4310345,23.0051724 20.8431034,23.0051724 C20.2551724,23.0051724 19.7810345,22.5310345 19.7810345,21.9431034 L19.7810345,21.5068966 C19.7810345,20.9189655 19.3068966,20.4448276 18.7189655,20.4448276 C18.1310345,20.4448276 17.6568966,20.9189655 17.6568966,21.5068966 L17.6568966,23.4413793 C17.6568966,24.0293103 17.1827586,24.5034483 16.5948276,24.5034483 C16.0068966,24.5034483 15.5327586,24.0293103 15.5327586,23.4413793 L15.5327586,21.5068966 C15.5327586,20.9189655 15.0586207,20.4448276 14.4706897,20.4448276 C14.4706897,20.4448276 14.4706897,20.4448276 14.4706897,20.4448276 L0.0948275862,20.4448276 L0.0948275862,15.7413793 L24.8827586,15.7413793 Z" id="Path" fill="#572B19"></path>
                                <path d="M0.0948275862,11.0568966 L0.0948275862,15.7413793 L2.88275862,15.7413793 C3.47068966,15.7413793 3.94482759,16.2155172 3.94482759,16.8034483 L3.94482759,17.6568966 C3.94482759,18.2448276 4.41896552,18.7189655 5.00689655,18.7189655 C5.59482759,18.7189655 6.06896552,18.2448276 6.06896552,17.6568966 L6.06896552,16.8034483 C6.06896552,16.2155172 6.54310345,15.7413793 7.13103448,15.7413793 L24.8637931,15.7413793 L24.8637931,11.0568966 L0.0948275862,11.0568966 Z" id="Path" fill="#6E3C26"></path>
                                <path d="M0.0948275862,11.0568966 L16.3482759,2.93965517 L16.7844828,2.93965517 C21.2793103,2.93965517 24.9017241,6.58103448 24.9017241,11.0568966 L0.0948275862,11.0568966 Z" id="Path" fill="#7A432A"></path>
                                <g id="Group" transform="translate(9.103448, 5.120690)" fill="#4F2816">
                                    <polygon id="Path" points="6.50517241 3.05344828 7.79482759 1.7637931 8.40172414 2.37068966 7.11206897 3.66034483"></polygon>
                                    <polygon id="Path" points="3.92586207 0.682758621 4.53275862 0.075862069 5.82241379 1.36551724 5.21551724 1.97241379"></polygon>
                                    <polygon id="Path" points="0.0948275862 3.24310345 0.701724138 2.6362069 1.99137931 3.92586207 1.38448276 4.53275862"></polygon>
                                    <polygon id="Path" points="2.21896552 2.6362069 3.50862069 1.34655172 4.11551724 1.95344828 2.82586207 3.24310345"></polygon>
                                </g>
                                <path d="M23.2896552,3.66034483 C23.2896552,5.6137931 21.7155172,7.18793103 19.762069,7.18793103 C17.8086207,7.18793103 16.2344828,5.6137931 16.2344828,3.66034483 C16.2344828,1.70689655 17.8086207,0.132758621 19.762069,0.132758621 C20.387931,0.132758621 21.0137931,0.303448276 21.5448276,0.625862069 C22.6258621,1.25172414 23.2896552,2.40862069 23.2896552,3.66034483 Z" id="Path" fill="url(#linearGradient-1)"></path>
                                <polygon id="Path" fill="#4F2816" points="21.5827586 9.9 22.8724138 8.61034483 23.4793103 9.21724138 22.1896552 10.5068966"></polygon>
                                <polygon id="Path" fill="#4F2816" points="17.6189655 8.9137931 19.3258621 8.9137931 19.3258621 9.76724138 17.6189655 9.76724138"></polygon>
                                <polygon id="Path" fill="#4F2816" points="6.50517241 8.9137931 8.21206897 8.9137931 8.21206897 9.76724138 6.50517241 9.76724138"></polygon>
                                <polygon id="Path" fill="#4F2816" points="13.3327586 8.9137931 15.0396552 8.9137931 15.0396552 9.76724138 13.3327586 9.76724138"></polygon>
                            </g>
                        </g>
                        <path d="M11.5310345,7.49137931 C11.5310345,7.49137931 11.8534483,10.0327586 9.76724138,10.5068966 C7.68103448,10.9810345 11.0948276,10.6017241 11.55,14.0534483 C12.0051724,17.5051724 12.4603448,12.5741379 14.2051724,11.2465517 C15.95,9.91896552 12.9155172,10.7913793 12.5741379,8.83793103 C12.2137931,6.90344828 11.6068966,6.22068966 11.5310345,7.49137931 Z" id="Path" fill="#FFFFFF"></path>
                        <path d="M18.6051724,0.777586207 C18.6051724,0.777586207 18.9275862,3.31896552 16.8413793,3.79310345 C14.7551724,4.26724138 18.1689655,3.88793103 18.6241379,7.33965517 C19.0793103,10.7913793 19.5344828,5.86034483 21.2793103,4.53275862 C23.0241379,3.20517241 19.9896552,4.07758621 19.6482759,2.12413793 C19.3068966,0.170689655 18.6810345,-0.493103448 18.6051724,0.777586207 Z" id="Path" fill="#FFFFFF"></path>
                        <path d="M39.1637931,14.7741379 C39.1637931,14.7741379 39.5431034,17.7327586 37.1155172,18.2827586 C34.687931,18.8327586 38.6517241,18.3775862 39.1827586,22.3982759 C39.7137931,26.4189655 40.2448276,20.6724138 42.2741379,19.1362069 C44.3034483,17.6 40.7758621,18.6051724 40.3775862,16.3482759 C39.9793103,14.0913793 39.2586207,13.2758621 39.1637931,14.7741379 Z" id="Path" fill="#FFFFFF"></path>
                    </g>
                </g>
            </g>
        </g>
    </g>
</svg>