<?xml version="1.0" encoding="UTF-8"?>
<svg width="44px" height="46px" viewBox="0 0 44 46" version="1.1" xmlns="http://www.w3.org/2000/svg" xmlns:xlink="http://www.w3.org/1999/xlink">
    <!-- Generator: Sketch 64 (93537) - https://sketch.com -->
    <title>Beepcateg-western</title>
    <desc>Created with Sketch.</desc>
    <g id="Symbols" stroke="none" stroke-width="1" fill="none" fill-rule="evenodd">
        <g id="Molecules/Beep/Collection-Bar/Default" transform="translate(-324.000000, -4.000000)" fill-rule="nonzero">
            <g id="Sub-Navigation">
                <g id="Western" transform="translate(310.000000, 0.000000)">
                    <g id="Beepcateg-western" transform="translate(14.000000, 4.000000)">
                        <circle id="Oval" fill="#AEE4ED" cx="22" cy="23.1375" r="22"></circle>
                        <ellipse id="Oval" fill="#8FCAD1" cx="22.6875" cy="37.575" rx="8.01428571" ry="1"></ellipse>
                        <g id="Group" transform="translate(6.089286, 4.928571)">
                            <path d="M16.5,0.0392857143 L11.6678571,0.4125 C4.71428571,0.9625 -0.491071429,7.03214286 0.0392857143,14.0053571 L0.0392857143,14.0053571 C0.0982142857,14.85 0.825,15.4589286 1.66964286,15.4 L28.6982143,13.2982143 C29.5428571,13.2392857 30.1517857,12.5125 30.0928571,11.6678571 L30.0928571,11.6678571 C29.5428571,4.69464286 23.4535714,-0.510714286 16.5,0.0392857143 Z" id="Path" fill="#FF9419"></path>
                            <path d="M26.8125,26.6357143 L5.79464286,28.2660714 C3.90892857,28.4035714 2.25892857,27.0089286 2.12142857,25.1232143 L2.10178571,24.8285714 C2.0625,24.2 2.51428571,23.65 3.14285714,23.6107143 L28.6982143,21.6071429 C29.3267857,21.5678571 29.8767857,22.0196429 29.9160714,22.6482143 L29.9357143,22.9428571 C30.0928571,24.8482143 28.6785714,26.4785714 26.8125,26.6357143 Z" id="Path" fill="#FF9419"></path>
                            <path d="M28.5214286,21.6267857 L3.31964286,23.5910714 C1.86607143,23.7089286 0.608928571,22.6285714 0.491071429,21.175 L0.491071429,21.175 C0.373214286,19.7214286 1.45357143,18.4642857 2.90714286,18.3464286 L28.1089286,16.3821429 C29.5625,16.2642857 30.8196429,17.3446429 30.9375,18.7982143 L30.9375,18.7982143 C31.0553571,20.2517857 29.975,21.5089286 28.5214286,21.6267857 Z" id="Path" fill="#2F2922"></path>
                            <path d="M27.6375,13.3767857 L2.73035714,15.3214286 C2.14107143,15.3607143 1.70892857,15.8714286 1.74821429,16.4607143 L1.82678571,17.3839286 C1.86607143,17.9732143 2.37678571,18.4053571 2.96607143,18.3660714 L5.14642857,18.1892857 C5.51964286,18.15 5.9125,18.2875 6.1875,18.5625 L11.2357143,23.4928571 C11.5892857,23.8464286 12.1785714,23.8071429 12.4928571,23.4142857 L17.0696429,17.6785714 C17.3053571,17.3839286 17.6392857,17.2071429 18.0125,17.1875 L27.8928571,16.4214286 C28.4821429,16.3821429 28.9142857,15.8714286 28.875,15.2821429 L28.7964286,14.3589286 C28.7178571,13.7696429 28.2071429,13.3178571 27.6375,13.3767857 Z" id="Path" fill="#FFE02F"></path>
                            <circle id="Oval" fill="#FFFFFF" cx="6.83571429" cy="9.9" r="1"></circle>
                            <circle id="Oval" fill="#FFFFFF" cx="5.06785714" cy="7.40535714" r="1"></circle>
                            <circle id="Oval" fill="#FFFFFF" cx="8.13214286" cy="26.4196429" r="1"></circle>
                            <circle id="Oval" fill="#FFFFFF" cx="9.35" cy="4.14464286" r="1"></circle>
                            <circle id="Oval" fill="#FFFFFF" cx="5.06785714" cy="25.8892857" r="1"></circle>
                            <circle id="Oval" fill="#FFFFFF" cx="10.6464286" cy="7.03214286" r="1"></circle>
                            <circle id="Oval" fill="#FFFFFF" cx="18.8964286" cy="3.025" r="1.08035714"></circle>
                            <path d="M3.77142857,17.1875 C2.59285714,17.1875 1.88571429,16.6178571 1.375,16.1857143 C0.883928571,15.7928571 0.667857143,15.6357143 0.157142857,15.6553571 L0,13.5732143 C1.375,13.475 2.14107143,14.1035714 2.69107143,14.575 C3.18214286,14.9678571 3.37857143,15.125 3.88928571,15.0857143 C4.38035714,15.0464286 4.57678571,14.85 4.98928571,14.3982143 C5.48035714,13.8482143 6.12857143,13.1017857 7.50357143,13.0035714 C8.85892857,12.9053571 9.64464286,13.5339286 10.1946429,14.0053571 C10.6857143,14.3982143 10.8821429,14.5553571 11.3928571,14.5160714 C11.8839286,14.4767857 12.0803571,14.2803571 12.4928571,13.8285714 C12.9839286,13.2785714 13.6321429,12.5321429 15.0071429,12.4339286 C16.3821429,12.3357143 17.1482143,12.9642857 17.6982143,13.4357143 C18.1892857,13.8285714 18.4053571,13.9857143 18.8964286,13.9464286 C19.4071429,13.9071429 19.5839286,13.7107143 20.0160714,13.2589286 C20.5071429,12.7089286 21.175,11.9821429 22.5107143,11.8642857 C23.8857143,11.7660714 24.6517857,12.3946429 25.2017857,12.8660714 C25.6928571,13.2589286 25.9089286,13.4160714 26.4,13.3767857 C26.9107143,13.3375 27.0875,13.1410714 27.5196429,12.6892857 C28.0107143,12.1392857 28.6785714,11.4125 30.0142857,11.2946429 L30.1714286,13.3964286 C29.6803571,13.4357143 29.5035714,13.6125 29.0910714,14.0839286 C28.6,14.6339286 27.9321429,15.3803571 26.5571429,15.4785714 C25.2017857,15.5767857 24.4357143,14.9482143 23.8857143,14.4964286 C23.3946429,14.1035714 23.1785714,13.9267857 22.6678571,13.9660714 C22.1767857,14.0053571 22,14.1821429 21.5875,14.6535714 C21.0964286,15.2035714 20.4285714,15.95 19.0535714,16.0482143 C17.6982143,16.1464286 16.9321429,15.5178571 16.3821429,15.0660714 C15.8910714,14.6732143 15.675,14.4964286 15.1642857,14.5357143 C14.6732143,14.575 14.4767857,14.7714286 14.0642857,15.2232143 C13.5732143,15.7732143 12.925,16.5196429 11.55,16.6178571 C10.1946429,16.7160714 9.42857143,16.0875 8.87857143,15.6357143 C8.3875,15.2428571 8.17142857,15.0660714 7.66071429,15.1053571 C7.16964286,15.1446429 6.97321429,15.3410714 6.56071429,15.7928571 C6.06964286,16.3428571 5.42142857,17.0892857 4.04642857,17.1875 C3.94821429,17.1875 3.85,17.1875 3.77142857,17.1875 Z" id="Path" fill="#82D6A4"></path>
                        </g>
                        <polygon id="Path" fill="#FFFFFF" points="37.6946429 20.1321429 38.775 22.175 40.4642857 20.7607143 39.325 17.9125"></polygon>
                        <polygon id="Path" fill="#FFFFFF" points="1.35535714 14.2392857 4.125 17.2642857 2.75 18.4035714 0.216071429 17.2642857"></polygon>
                        <polygon id="Path" fill="#FFFFFF" points="4.16428571 29.0303571 2.0625 29.875 2.82857143 31.1125 5.0875 29.9339286"></polygon>
                    </g>
                </g>
            </g>
        </g>
    </g>
</svg>