<?xml version="1.0" encoding="UTF-8"?>
<svg width="44px" height="46px" viewBox="0 0 44 46" version="1.1" xmlns="http://www.w3.org/2000/svg" xmlns:xlink="http://www.w3.org/1999/xlink">
    <!-- Generator: Sketch 64 (93537) - https://sketch.com -->
    <title>Beepcateg-pickup</title>
    <desc>Created with Sketch.</desc>
    <g id="Symbols" stroke="none" stroke-width="1" fill="none" fill-rule="evenodd">
        <g id="Molecules/Beep/Collection-Bar/Default" transform="translate(-14.000000, -4.000000)" fill-rule="nonzero">
            <g id="Sub-Navigation">
                <g id="Self-Pickup">
                    <g id="Beepcateg-pickup" transform="translate(14.000000, 4.000000)">
                        <g id="Group" transform="translate(0.000000, 2.000000)">
                            <g id="Oval">
                                <circle fill="#FFE3CC" cx="22" cy="22.1375" r="22"></circle>
                                <ellipse fill="#BA6145" cx="22.6875" cy="36.4571429" rx="6.61964286" ry="1"></ellipse>
                            </g>
                            <g transform="translate(6.678571, 9.232143)">
                                <g transform="translate(8.250000, 0.392857)">
                                    <polygon id="Path" fill="#BA6145" points="13.5339286 24.8089286 20.7625 24.8089286 17.1482143 0.157142857 17.1482143 0.157142857"></polygon>
                                    <polygon id="Path" fill="#D88850" points="17.1482143 0.157142857 17.8160714 24.8089286 20.7625 24.8089286"></polygon>
                                    <polygon id="Path" fill="#EBB88D" points="15.1839286 24.8089286 0.0589285714 24.8089286 3.025 0.157142857 17.1482143 0.157142857"></polygon>
                                    <polygon id="Path" fill="#BA6145" points="15.1839286 24.8089286 17.4821429 22.5107143 20.7625 24.8089286"></polygon>
                                    <path d="M8.48571429,8.85892857 C9.50714286,8.9375 10.4696429,9.19285714 11.0982143,10.0375 C11.6285714,10.7446429 11.8053571,11.5892857 11.8446429,12.4928571 C11.8642857,13.0232143 11.7857143,13.5732143 11.7464286,14.1035714 C11.6482143,15.1053571 11.0196429,15.7732143 10.2535714,16.3428571 C9.23214286,17.1089286 8.05357143,17.3642857 6.91428571,17.1875 C6.30535714,17.0892857 5.73571429,16.6178571 5.24464286,16.2053571 C3.90892857,15.0267857 3.81071429,13.2589286 4.65535714,11.4910714 C5.00892857,10.7446429 5.5,10.1160714 6.14821429,9.625 C6.875,9.09464286 7.64107143,8.91785714 8.48571429,8.85892857 Z M9.7625,12.0803571 L9.7625,12.0803571 C9.91964286,11.825 10.0767857,11.5696429 10.2535714,11.2946429 C10.2535714,11.2946429 10.2732143,11.275 10.2732143,11.2553571 C10.2732143,11.2553571 10.2535714,11.275 10.2535714,11.2946429 C10.0571429,11.3732143 9.86071429,11.4714286 9.58571429,11.5892857 C9.74285714,11.2553571 9.88035714,11 10.0178571,10.7446429 C9.99821429,10.725 9.97857143,10.7053571 9.95892857,10.6857143 C9.66428571,10.8821429 9.35,11.0982143 9.01607143,11.3142857 C9.13392857,10.9803571 9.23214286,10.725 9.33035714,10.4696429 C9.27142857,10.4107143 9.19285714,10.3714286 9.13392857,10.3321429 C8.9375,10.5482143 8.78035714,10.8232143 8.56428571,10.9803571 C8.07321429,11.3732143 7.975,11.8642857 7.99464286,12.4142857 C7.99464286,12.5321429 7.93571429,12.6696429 7.89642857,12.7875 C7.77857143,12.7285714 7.62142857,12.7089286 7.5625,12.6107143 C7.24821429,12.2178571 6.97321429,11.7857143 6.65892857,11.3928571 C6.44285714,11.1178571 6.1875,10.8625 5.95178571,10.6071429 C5.9125,10.6464286 5.85357143,10.6857143 5.81428571,10.7053571 C5.75535714,11.4125 5.97142857,12.0607143 6.26607143,12.6696429 C6.30535714,12.7482143 6.48214286,12.7482143 6.58035714,12.7678571 C6.69821429,12.8071429 6.81607143,12.8464286 6.91428571,12.9053571 C7.05178571,13.0035714 7.18928571,13.1214286 7.32678571,13.2392857 C5.95178571,14.7321429 5.73571429,15.0267857 6.01071429,15.5571429 C6.6,15.0660714 7.15,14.5946429 7.77857143,14.0839286 C8.07321429,14.4178571 8.36785714,14.7910714 8.68214286,15.1446429 C8.97678571,14.9482143 9.075,14.7910714 8.87857143,14.5160714 C8.72142857,14.3 8.60357143,14.0839286 8.44642857,13.8678571 C8.26964286,13.6125 8.26964286,13.3964286 8.56428571,13.2196429 C8.74107143,13.1214286 8.91785714,13.0625 9.11428571,12.9839286 C9.38928571,12.8660714 9.68392857,12.8071429 9.93928571,12.6303571 C10.4303571,12.2964286 10.6071429,11.8642857 10.5089286,11.55 C10.2339286,11.7464286 9.99821429,11.9035714 9.7625,12.0803571 Z" id="Shape" fill="#BA6145"></path>
                                    <path d="M11.1375,5.04821429 L6.24642857,5.04821429 C5.79464286,5.04821429 5.42142857,4.675 5.42142857,4.22321429 L5.42142857,4.22321429 C5.42142857,3.77142857 5.79464286,3.39821429 6.24642857,3.39821429 L11.1375,3.39821429 C11.5892857,3.39821429 11.9625,3.77142857 11.9625,4.22321429 L11.9625,4.22321429 C11.9428571,4.675 11.5892857,5.04821429 11.1375,5.04821429 Z" id="Path" fill="#BA6145"></path>
                                </g>
                                <polygon id="Path" fill="#BA6145" points="12.0803571 25.2017857 12.1982143 12.7285714 12.1982143 11.1964286 11.6678571 9.38928571 9.95892857 11 7.71964286 25.2017857"></polygon>
                                <g transform="translate(0.000000, 7.464286)" id="Path">
                                    <g>
                                        <path d="M0.903571429,3.4375 L2.53392857,18.5821429 C2.59285714,19.0732143 3.00535714,19.4464286 3.49642857,19.4464286 L8.42678571,19.4464286 C8.91785714,19.4464286 9.33035714,19.0732143 9.38928571,18.6017857 L11.2357143,3.10357143 L0.903571429,3.4375 Z" fill="#EDB98E"></path>
                                        <polygon fill="#322C25" points="0.176785714 3.73214286 12.1982143 3.73214286 11.7464286 1.41428571 10.4892857 1.41428571 9.93928571 0.117857143 2.12142857 0.117857143 1.76785714 1.41428571 0.589285714 1.41428571"></polygon>
                                        <polygon fill="#BA6145" points="0.923214286 3.73214286 11.3339286 3.73214286 11.1964286 7.20892857 0.982142857 4.20357143"></polygon>
                                        <polygon fill="#BA6145" points="1.80714286 11.9232143 10.1946429 12.5125 10.2339286 11.4910714"></polygon>
                                    </g>
                                    <polygon fill="#322C25" points="1.17857143 6.85535714 11 6.85535714 10.3714286 11.4910714 1.41428571 11.9428571"></polygon>
                                </g>
                                <path d="M11.275,0.55 L10.7053571,5.26428571 C10.7053571,5.26428571 11.275,2.475 16.4410714,5.18571429 C16.5589286,5.24464286 16.6767857,5.0875 16.5785714,4.98928571 L13.5928571,2.18035714 L17.5214286,0.530357143 L11.275,0.530357143 L11.275,0.55 Z" id="Path" fill="#BA6145"></path>
                                <path d="M13.2196429,2.51428571 C13.2196429,2.51428571 16.0875,2.29821429 17.6196429,2.67142857 C19.1517857,3.06428571 17.8553571,2.29821429 17.8553571,2.29821429 L14.8892857,1.13928571 L13.2196429,2.51428571 Z" id="Path" fill="#BA6145"></path>
                                <path d="M15.4982143,1.39464286 C15.5767857,1.375 17.3839286,1.08035714 18.6410714,1.43392857 L16.4017857,0.1375 L15.4982143,1.39464286 Z" id="Path" fill="#BA6145"></path>
                            </g>
                        </g>
                        <path d="M26.0267857,10.7607143 C25.7714286,10.5839286 25.0053571,9.975 24.475,9.73928571 C24.2392857,9.64107143 23.9053571,9.50357143 23.5125,9.36607143 C23.6892857,9.38571429 23.8267857,9.40535714 23.8660714,9.40535714 C24.1214286,9.40535714 21.8625,7.87321429 21.2928571,7.69642857 C20.9392857,7.57857143 17.9732143,6.96964286 15.7928571,6.51785714 C15.0857143,6.36071429 14.4178571,6.00714286 13.9267857,5.47678571 C13.4946429,5.025 13.0035714,4.49464286 12.5125,3.96428571 L10.2339286,4.80892857 L8.87857143,6.36071429 L8.87857143,6.36071429 C10.0375,7.20535714 10.6464286,7.69642857 11.0392857,8.20714286 C11.4321429,8.71785714 11.6089286,10.1125 11.825,10.7607143 C12.1589286,11.7625 12.6892857,12.6660714 13.0035714,13.1178571 C13.5142857,13.8839286 13.9660714,14.8464286 13.9071429,15.6910714 C13.9071429,15.6910714 15.7928571,16.1821429 15.1642857,13.825 C14.9285714,12.9607143 14.7910714,12.3910714 14.6928571,11.9982143 C14.5357143,11.3303571 14.5357143,11.2517857 14.5357143,11.2517857 C14.5357143,11.2517857 18.7196429,13.0982143 19.7017857,13.5892857 C20.6839286,14.0803571 25.0642857,16.4571429 24.2196429,15.2 C23.3946429,13.9428571 18.2875,10.7607143 18.9160714,10.8982143 C19.1714286,10.9571429 20.3303571,11.0357143 21.5482143,11.4482143 C22.5696429,11.8017857 23.5714286,12.5482143 24.2982143,12.8232143 C24.4946429,12.9017857 24.8678571,12.9607143 25.0642857,12.9017857 C25.2607143,12.8428571 25.3196429,12.6857143 25.3196429,12.6857143 C25.4964286,12.4107143 24.4357143,11.9196429 23.2767857,11.2321429 C22.1767857,10.5642857 20.9,9.85714286 21.0178571,9.89642857 C21.2732143,9.95535714 23.2964286,10.4857143 23.2964286,10.4857143 C23.2964286,10.4857143 24.8285714,11.1535714 25.3,11.35 C25.6535714,11.4285714 26.95,11.3696429 26.0267857,10.7607143 Z" id="Path" fill="#FFFFFF"></path>
                    </g>
                </g>
            </g>
        </g>
    </g>
</svg>