<?xml version="1.0" encoding="UTF-8"?>
<svg width="44px" height="46px" viewBox="0 0 44 46" version="1.1" xmlns="http://www.w3.org/2000/svg" xmlns:xlink="http://www.w3.org/1999/xlink">
    <!-- Generator: Sketch 64 (93537) - https://sketch.com -->
    <title>Beepcateg-halal</title>
    <desc>Created with Sketch.</desc>
    <g id="Symbols" stroke="none" stroke-width="1" fill="none" fill-rule="evenodd">
        <g id="Molecules/Beep/Collection-Bar/Default" transform="translate(-118.000000, -4.000000)" fill-rule="nonzero">
            <g id="Sub-Navigation">
                <g id="lftarWithBeep" transform="translate(104.000000, 0.000000)">
                    <g id="Beepcateg-halal" transform="translate(14.000000, 4.000000)">
                        <g id="Group" transform="translate(0.000000, 3.000000)">
                            <circle id="Oval" fill="#CFE5D8" cx="22.037931" cy="21.3741379" r="21.2413793"></circle>
                            <ellipse id="Oval" fill="#91C9A8" cx="22.037931" cy="35.5982759" rx="13.8258621" ry="1.34655172"></ellipse>
                            <path d="M0.55,29.4155172 L43.5068966,29.4155172 C43.9810345,29.4155172 44.0568966,30.0982759 43.6017241,30.212069 L33.8724138,32.6017241 C33.1706897,32.7724138 32.6017241,33.2465517 32.2982759,33.9103448 L32.2982759,33.9103448 C31.9948276,34.5931034 31.312069,35.0293103 30.5724138,35.0293103 L13.1810345,35.0293103 C12.5741379,35.0293103 11.9862069,34.7258621 11.6448276,34.2327586 L11.0948276,33.4551724 C10.7724138,33 10.2982759,32.6775862 9.76724138,32.5448276 L0.474137931,30.212069 C0,30.0982759 0.075862069,29.4155172 0.55,29.4155172 Z" id="Path" fill="#FFFFFF"></path>
                            <path d="M15.1724138,10.4310345 C15.5517241,11.0948276 15.9310345,11.7206897 16.2724138,12.3465517 C16.3103448,12.4224138 16.2913793,12.5741379 16.2534483,12.6689655 C15.9310345,13.2758621 15.8741379,13.9206897 15.8931034,14.5844828 C15.9310345,16.3482759 15.9310345,18.112069 15.95,19.8758621 C15.9689655,21.5637931 15.0775862,22.9672414 13.5224138,23.65 C12.7448276,23.9913793 11.9293103,24.0862069 11.0948276,23.9344828 C9.93793103,23.7258621 9.10344828,22.7586207 9.02758621,21.5068966 C8.93275862,20.0465517 9.42586207,18.737931 10.0517241,17.4672414 C10.0706897,17.4103448 10.1465517,17.3724138 10.2603448,17.3534483 C10.1655172,17.8275862 10.0137931,18.3017241 9.97586207,18.7948276 C9.91896552,19.3068966 9.86206897,19.837931 9.93793103,20.3310345 C10.0896552,21.2603448 10.6965517,21.8103448 11.6448276,21.9241379 C12.4224138,22.0189655 13.2,21.9241379 13.9206897,21.5258621 C14.4137931,21.2603448 14.6793103,20.9 14.6603448,20.2741379 C14.6034483,18.112069 14.6224138,15.95 14.5844828,13.787931 C14.5655172,13.2189655 14.4706897,12.6310345 14.337931,12.0810345 C14.2431034,11.6827586 14.262069,11.3982759 14.5844828,11.1137931 C14.7931034,10.9241379 14.9827586,10.6586207 15.1724138,10.4310345 Z" id="Path" fill="#2F2922"></path>
                            <g transform="translate(8.913793, 24.465517)" fill="#5E7767">
                                <path d="M0.0568965517,5.6137931 C0.0189655172,5.57586207 0,5.51896552 0,5.46206897 L0,0.227586207 C0,0.170689655 0.0189655172,0.113793103 0.0568965517,0.075862069 C0.0948275862,0.0379310345 0.151724138,0.0189655172 0.20862069,0.0189655172 L1.30862069,0.0189655172 C1.36551724,0.0189655172 1.42241379,0.0379310345 1.46034483,0.075862069 C1.49827586,0.113793103 1.51724138,0.170689655 1.51724138,0.227586207 L1.51724138,2.14310345 L3.4137931,2.14310345 L3.4137931,0.227586207 C3.4137931,0.170689655 3.43275862,0.113793103 3.47068966,0.075862069 C3.50862069,0.0379310345 3.56551724,0.0189655172 3.62241379,0.0189655172 L4.72241379,0.0189655172 C4.77931034,0.0189655172 4.8362069,0.0379310345 4.87413793,0.075862069 C4.91206897,0.113793103 4.93103448,0.170689655 4.93103448,0.227586207 L4.93103448,5.46206897 C4.93103448,5.51896552 4.91206897,5.57586207 4.87413793,5.6137931 C4.8362069,5.65172414 4.77931034,5.67068966 4.72241379,5.67068966 L3.62241379,5.67068966 C3.56551724,5.67068966 3.50862069,5.65172414 3.47068966,5.6137931 C3.43275862,5.57586207 3.4137931,5.51896552 3.4137931,5.46206897 L3.4137931,3.48965517 L1.51724138,3.48965517 L1.51724138,5.46206897 C1.51724138,5.51896552 1.49827586,5.57586207 1.46034483,5.6137931 C1.42241379,5.65172414 1.36551724,5.67068966 1.30862069,5.67068966 L0.20862069,5.67068966 C0.151724138,5.67068966 0.0948275862,5.65172414 0.0568965517,5.6137931 Z" id="Path"></path>
                                <path d="M5.6137931,5.6137931 C5.57586207,5.57586207 5.55689655,5.53793103 5.55689655,5.5 C5.55689655,5.46206897 5.55689655,5.44310345 5.55689655,5.42413793 L7.43448276,0.265517241 C7.49137931,0.113793103 7.60517241,0.0379310345 7.75689655,0.0379310345 L9.00862069,0.0379310345 C9.17931034,0.0379310345 9.27413793,0.113793103 9.33103448,0.265517241 L11.2086207,5.42413793 C11.2086207,5.44310345 11.2086207,5.46206897 11.2086207,5.5 C11.2086207,5.53793103 11.1896552,5.57586207 11.1517241,5.6137931 C11.1137931,5.65172414 11.0758621,5.67068966 11.037931,5.67068966 L9.99482759,5.67068966 C9.86206897,5.67068966 9.76724138,5.6137931 9.72931034,5.5 L9.44482759,4.72241379 L7.33965517,4.72241379 L7.05517241,5.5 C6.99827586,5.6137931 6.90344828,5.67068966 6.78965517,5.67068966 L5.74655172,5.67068966 C5.67068966,5.67068966 5.63275862,5.65172414 5.6137931,5.6137931 Z M7.68103448,3.50862069 L9.12241379,3.50862069 L8.40172414,1.46034483 L7.68103448,3.50862069 Z" id="Shape"></path>
                                <path d="M11.8913793,5.6137931 C11.8534483,5.57586207 11.8344828,5.51896552 11.8344828,5.48103448 L11.8344828,0.246551724 C11.8344828,0.189655172 11.8534483,0.132758621 11.8913793,0.0948275862 C11.9293103,0.0568965517 11.9862069,0.0379310345 12.0241379,0.0379310345 L13.162069,0.0379310345 C13.2189655,0.0379310345 13.2758621,0.0568965517 13.3137931,0.0948275862 C13.3517241,0.132758621 13.3706897,0.189655172 13.3706897,0.246551724 L13.3706897,4.41896552 L15.7982759,4.41896552 C15.8551724,4.41896552 15.912069,4.43793103 15.95,4.47586207 C15.987931,4.5137931 16.0068966,4.57068966 16.0068966,4.62758621 L16.0068966,5.48103448 C16.0068966,5.53793103 15.987931,5.59482759 15.95,5.63275862 C15.912069,5.67068966 15.8551724,5.68965517 15.7982759,5.68965517 L12.0431034,5.68965517 C11.9862069,5.67068966 11.9482759,5.65172414 11.8913793,5.6137931 Z" id="Path"></path>
                                <path d="M16.2534483,5.6137931 C16.2155172,5.57586207 16.1965517,5.53793103 16.1965517,5.5 C16.1965517,5.46206897 16.1965517,5.44310345 16.1965517,5.42413793 L18.0741379,0.265517241 C18.1310345,0.113793103 18.2448276,0.0379310345 18.3965517,0.0379310345 L19.6482759,0.0379310345 C19.8189655,0.0379310345 19.9137931,0.113793103 19.9706897,0.265517241 L21.8482759,5.42413793 C21.8482759,5.44310345 21.8482759,5.46206897 21.8482759,5.5 C21.8482759,5.53793103 21.8293103,5.57586207 21.7913793,5.6137931 C21.7534483,5.65172414 21.7155172,5.67068966 21.6775862,5.67068966 L20.6344828,5.67068966 C20.5017241,5.67068966 20.4068966,5.6137931 20.3689655,5.5 L20.0844828,4.72241379 L17.9793103,4.72241379 L17.6948276,5.5 C17.637931,5.6137931 17.5431034,5.67068966 17.4293103,5.67068966 L16.3862069,5.67068966 C16.3103448,5.67068966 16.2724138,5.65172414 16.2534483,5.6137931 Z M18.3206897,3.50862069 L19.762069,3.50862069 L19.0413793,1.46034483 L18.3206897,3.50862069 Z" id="Shape"></path>
                                <path d="M22.55,5.6137931 C22.512069,5.57586207 22.4931034,5.51896552 22.4931034,5.48103448 L22.4931034,0.246551724 C22.4931034,0.189655172 22.512069,0.132758621 22.55,0.0948275862 C22.587931,0.0568965517 22.6448276,0.0379310345 22.6827586,0.0379310345 L23.8206897,0.0379310345 C23.8775862,0.0379310345 23.9344828,0.0568965517 23.9724138,0.0948275862 C24.0103448,0.132758621 24.0293103,0.189655172 24.0293103,0.246551724 L24.0293103,4.41896552 L26.4568966,4.41896552 C26.5137931,4.41896552 26.5706897,4.43793103 26.6086207,4.47586207 C26.6465517,4.5137931 26.6655172,4.57068966 26.6655172,4.62758621 L26.6655172,5.48103448 C26.6655172,5.53793103 26.6465517,5.59482759 26.6086207,5.63275862 C26.5706897,5.67068966 26.5137931,5.68965517 26.4568966,5.68965517 L22.7017241,5.68965517 C22.6258621,5.67068966 22.587931,5.65172414 22.55,5.6137931 Z" id="Path"></path>
                            </g>
                            <path d="M38.1586207,17.4482759 L37.0396552,16.8982759 C39.2396552,12.3275862 37.3241379,6.84655172 32.7724138,4.64655172 L31.8810345,4.21034483 L32.3551724,3.20517241 C32.6965517,2.52241379 32.3931034,1.68793103 31.7103448,1.34655172 C31.0275862,1.00517241 30.1931034,1.30862069 29.8517241,1.99137931 L29.3775862,2.99655172 C24.8068966,0.796551724 19.3258621,2.71206897 17.1258621,7.2637931 L16.0068966,6.7137931 C15.4568966,6.44827586 14.7741379,6.39137931 14.5086207,6.96034483 C14.2431034,7.51034483 14.4706897,7.90862069 15.0396552,8.17413793 L37.2293103,18.8896552 C37.7793103,19.1551724 38.462069,19.212069 38.7275862,18.6431034 C38.9931034,18.0741379 38.7275862,17.7327586 38.1586207,17.4482759 Z" id="Path" fill="#FFFFFF"></path>
                        </g>
                        <path d="M21.1275862,23.5775862 C22.0189655,22.6482759 22.4172414,21.5293103 22.587931,20.3155172 C22.7965517,18.7982759 22.7017241,17.3 22.55,15.7827586 C22.512069,15.4793103 22.5310345,15.2137931 22.7396552,14.9672414 C22.8913793,14.7586207 23.0241379,14.5310345 23.2137931,14.2275862 C23.2896552,14.7775862 23.3275862,15.2517241 23.4034483,15.7258621 C23.65,17.4706897 23.8586207,19.2534483 24.5224138,20.9034483 C25.2051724,22.5724138 26.3810345,23.7672414 28.2206897,24.1275862 C29.187931,24.3172414 30.1172414,24.0706897 31.0655172,23.9 C31.387931,23.8431034 31.7293103,23.7293103 32.0896552,23.6344828 C31.387931,22.6862069 30.6482759,21.8706897 29.6241379,21.3775862 C29.0741379,21.112069 28.5241379,21.1310345 27.9741379,21.3017241 C27.6517241,21.4155172 27.3293103,21.5293103 27.0068966,21.6431034 C27.6327586,19.9551724 29.2068966,19.0448276 30.9137931,20.1448276 C31.5206897,20.5241379 32.0327586,21.0551724 32.5637931,21.5293103 C32.962069,21.8896552 33.3413793,22.287931 33.7586207,22.6482759 C34.1758621,22.9896552 34.6310345,23.2931034 35.1051724,23.6534483 C34.8965517,24.2034483 34.687931,24.7724138 34.4603448,25.3603448 C34.4413793,25.4172414 34.3465517,25.4741379 34.2896552,25.4741379 C32.7913793,25.4551724 31.3310345,25.8344828 29.8896552,26.1758621 C27.2724138,26.8017241 24.8827586,24.8862069 24.2568966,23.1034483 C23.9724138,22.25 23.7637931,21.3586207 23.5172414,20.4862069 C23.5172414,20.4672414 23.4982759,20.4482759 23.4793103,20.4293103 C23.4413793,24.6586207 20.5396552,27.4275862 16.3293103,26.2896552 C16.7844828,26.137931 17.2206897,25.9862069 17.6189655,25.8344828 C18.6431034,25.4551724 19.6293103,24.9810345 20.4448276,24.2603448 C20.5586207,24.1655172 20.6913793,23.9948276 20.6724138,23.862069 C20.6534483,23.0275862 20.6534483,22.1741379 20.5206897,21.3586207 C20.4448276,20.8655172 20.1413793,20.4103448 19.8758621,19.9551724 C19.6103448,19.5 19.1551724,19.3103448 18.6431034,19.2344828 C17.7896552,19.1206897 16.9931034,18.0965517 17.1068966,17.2431034 C17.1637931,16.8068966 17.3155172,16.3706897 17.4672414,15.9534483 C17.637931,15.5362069 17.7896552,15.5172414 18.187931,15.7448276 C18.9655172,16.2189655 19.4965517,16.9206897 20.0275862,17.6224138 C21.1844828,19.1775862 21.45,20.9224138 21.2034483,22.8 C21.2034483,23.0655172 21.1655172,23.3310345 21.1275862,23.5775862 Z" id="Path" fill="#2F2922"></path>
                    </g>
                </g>
            </g>
        </g>
    </g>
</svg>