<svg xmlns="http://www.w3.org/2000/svg" width="73" height="100"><path d="M46.446 54.922c.908 0 1.644.738 1.644 1.648v34.876c0 4.716-3.827 8.553-8.53 8.553H8.566c-4.704 0-8.53-3.837-8.53-8.553V29.303c0-4.716 3.827-8.553 8.53-8.553h6.45c.908 0 1.644.738 1.644 1.648s-.736 1.648-1.644 1.648h-6.45c-2.89 0-5.243 2.358-5.243 5.256v6.982h18.49c.908 0 1.644.738 1.644 1.648s-.736 1.648-1.644 1.648H3.323v41.587h41.48V56.57c0-.9.736-1.648 1.644-1.648zm-6.887 41.78c2.89 0 5.243-2.358 5.243-5.256v-6.982H3.323v6.982c0 2.898 2.352 5.256 5.243 5.256H39.56zM46.446 0c14.623 0 26.52 9.625 26.52 21.455 0 10.147-8.665 18.802-20.777 20.95-1.385 6.302-6.972 10.913-13.47 10.913-.664 0-1.262-.4-1.517-1.014a1.65 1.65 0 0 1 .349-1.795c2.12-2.146 3.226-5.114 3.067-8.12-12.068-2.174-20.69-10.813-20.69-20.936C19.926 9.625 31.823 0 46.446 0zM50.5 39.334c11.106-1.537 19.167-9.056 19.167-17.88 0-10.012-10.422-18.158-23.232-18.158s-23.23 8.146-23.23 18.158c0 8.82 8.06 16.34 19.162 17.878a1.65 1.65 0 0 1 1.416 1.731 14.14 14.14 0 0 1-1.4 8.284c3.457-1.314 6.092-4.428 6.702-8.274a1.65 1.65 0 0 1 1.416-1.74zM37.677 19.696a1.76 1.76 0 0 1 1.754 1.758 1.76 1.76 0 0 1-1.754 1.758 1.76 1.76 0 0 1-1.754-1.758 1.76 1.76 0 0 1 1.754-1.758zm17.538 0a1.76 1.76 0 0 1 1.754 1.758 1.76 1.76 0 0 1-1.754 1.758 1.76 1.76 0 0 1-1.754-1.758 1.76 1.76 0 0 1 1.754-1.758zm-8.77 0a1.76 1.76 0 0 1 1.754 1.758 1.76 1.76 0 0 1-1.754 1.758 1.76 1.76 0 0 1-1.754-1.758 1.76 1.76 0 0 1 1.754-1.758z" fill="#f5c85c" fill-rule="evenodd"/></svg>