<svg xmlns="http://www.w3.org/2000/svg" width="78" height="100" fill="#f5c85c" fill-rule="evenodd"><path d="M46.923 62.9c-.915 0-1.657.738-1.657 1.648v16.6H3.457V39.58h12.758c.915 0 1.657-.738 1.657-1.648s-.742-1.648-1.657-1.648H3.457v-6.982c0-2.898 2.37-5.256 5.285-5.256h2.386c.915 0 1.657-.738 1.657-1.648s-.742-1.648-1.657-1.648H8.742c-4.742 0-8.6 3.837-8.6 8.553v62.144C.142 96.163 4 100 8.742 100h31.24c4.742 0 8.6-3.837 8.6-8.553V64.56a1.66 1.66 0 0 0-1.657-1.648zM39.98 96.703H8.742c-2.914 0-5.285-2.358-5.285-5.256v-6.982h41.8v6.982c0 2.898-2.37 5.256-5.285 5.256zm-8.036-73.555c-2.4-.392-2.5-.626-2.5-1.118 0-.87 1.468-1.1 2.245-1.1 1.247 0 2.052.418 2.202.83a1.66 1.66 0 0 0 2.123.988c.86-.3 1.305-1.255.994-2.1-.675-1.853-2.713-3.005-5.32-3.005-3.273 0-5.56 1.808-5.56 4.397 0 3.5 3.312 4.05 5.3 4.372 2.4.392 2.513.627 2.513 1.12 0 .87-1.47 1.1-2.245 1.1-1.247 0-2.052-.418-2.202-.83a1.66 1.66 0 0 0-2.122-.989c-.86.3-1.306 1.255-.995 2.1.675 1.855 2.713 3.007 5.32 3.007 3.273 0 5.56-1.808 5.56-4.397 0-3.513-3.313-4.052-5.292-4.374zm30.492 0c-2.4-.392-2.5-.626-2.5-1.118 0-.87 1.468-1.1 2.245-1.1 1.247 0 2.052.418 2.203.83a1.66 1.66 0 0 0 2.123.988c.86-.3 1.305-1.256.993-2.1-.675-1.853-2.713-3.004-5.318-3.004-3.273 0-5.56 1.808-5.56 4.397 0 3.5 3.312 4.05 5.3 4.372 2.4.392 2.513.627 2.513 1.12 0 .87-1.47 1.1-2.245 1.1-1.248 0-2.052-.418-2.203-.832a1.66 1.66 0 0 0-2.122-.989c-.86.3-1.306 1.255-.994 2.1.675 1.855 2.713 3.006 5.32 3.006 3.273 0 5.56-1.808 5.56-4.397 0-3.513-3.313-4.052-5.292-4.374zM52.2 17.735a1.66 1.66 0 0 0-1.834.476l-3.455 4.026-3.455-4.026c-.45-.525-1.183-.715-1.834-.476a1.65 1.65 0 0 0-1.084 1.547v11a1.66 1.66 0 0 0 1.657 1.648c.915 0 1.657-.738 1.657-1.648v-6.52l1.798 2.095a1.66 1.66 0 0 0 2.521 0l1.798-2.095v6.52a1.66 1.66 0 0 0 1.657 1.648c.915 0 1.657-.738 1.657-1.648V19.28a1.65 1.65 0 0 0-1.084-1.547zM68.656 7.13C62.834 2.533 55.116 0 46.923 0S31 2.533 25.2 7.13c-5.934 4.687-9.202 10.954-9.202 17.644 0 11.744 10.157 21.76 24.34 24.212.258 3.662-1.073 7.296-3.677 9.9a1.64 1.64 0 0 0-.352 1.795c.257.614.86 1.014 1.53 1.014 7.58 0 14.087-5.38 15.62-12.707 14.22-2.43 24.4-12.46 24.4-24.224 0-6.7-3.268-12.957-9.202-17.644zm-16.9 38.795a1.65 1.65 0 0 0-1.427 1.746c0 .008.001.015.002.023-.763 4.853-4.246 8.734-8.747 10.143a16.12 16.12 0 0 0 1.949-10.157c.06-.874-.563-1.637-1.426-1.755-13.207-1.816-22.793-10.7-22.793-21.15 0-11.844 12.4-21.48 27.62-21.48s27.62 9.635 27.62 21.48c0 10.44-9.588 19.337-22.8 21.15z"/></svg>