<?xml version="1.0" encoding="UTF-8"?>
<svg width="80px" height="80px" viewBox="0 0 80 80" version="1.1" xmlns="http://www.w3.org/2000/svg" xmlns:xlink="http://www.w3.org/1999/xlink">
    <!-- Generator: sketchtool 54.1 (76490) - https://sketchapp.com -->
    <title>C497FD20-22D6-44A6-A327-20ECA3FD683F</title>
    <desc>Created with sketchtool.</desc>
    <defs>
        <linearGradient x1="74.2603037%" y1="7.00994215%" x2="26.1608821%" y2="92.2453001%" id="linearGradient-1">
            <stop stop-color="#FEFEFE" offset="0%"></stop>
            <stop stop-color="#F6F6F6" offset="100%"></stop>
        </linearGradient>
        <circle id="path-2" cx="28.36" cy="27.77" r="27.66"></circle>
        <filter x="-22.6%" y="-13.6%" width="138.0%" height="138.0%" filterUnits="objectBoundingBox" id="filter-3">
            <feOffset dx="-2" dy="3" in="SourceAlpha" result="shadowOffsetOuter1"></feOffset>
            <feGaussianBlur stdDeviation="3" in="shadowOffsetOuter1" result="shadowBlurOuter1"></feGaussianBlur>
            <feColorMatrix values="0 0 0 0 0.960784314   0 0 0 0 0.8   0 0 0 0 0.509803922  0 0 0 1 0" type="matrix" in="shadowBlurOuter1"></feColorMatrix>
        </filter>
        <linearGradient x1="27.2175743%" y1="99.0433168%" x2="84.3636139%" y2="-23.9658416%" id="linearGradient-4">
            <stop stop-color="#EAEAEA" offset="0%"></stop>
            <stop stop-color="#FDFDFD" offset="88.13%"></stop>
        </linearGradient>
        <linearGradient x1="63.1960265%" y1="10.7013245%" x2="37.6231788%" y2="86.6682119%" id="linearGradient-5">
            <stop stop-color="#E56353" offset="0%"></stop>
            <stop stop-color="#CC483E" offset="100%"></stop>
        </linearGradient>
        <filter x="-26.7%" y="-25.0%" width="153.3%" height="150.0%" filterUnits="objectBoundingBox" id="filter-6">
            <feOffset dx="-2" dy="2" in="SourceAlpha" result="shadowOffsetOuter1"></feOffset>
            <feGaussianBlur stdDeviation="1" in="shadowOffsetOuter1" result="shadowBlurOuter1"></feGaussianBlur>
            <feColorMatrix values="0 0 0 0 0.961710989   0 0 0 0 0.65036732   0 0 0 0 0.138542295  0 0 0 0.1 0" type="matrix" in="shadowBlurOuter1" result="shadowMatrixOuter1"></feColorMatrix>
            <feMerge>
                <feMergeNode in="shadowMatrixOuter1"></feMergeNode>
                <feMergeNode in="SourceGraphic"></feMergeNode>
            </feMerge>
        </filter>
        <linearGradient x1="100.972279%" y1="72.0823794%" x2="33.8179253%" y2="24.1277508%" id="linearGradient-7">
            <stop stop-color="#FFAD40" offset="0%"></stop>
            <stop stop-color="#FFB042" offset="4.54%"></stop>
            <stop stop-color="#FFC44D" offset="35.42%"></stop>
            <stop stop-color="#FFCF54" offset="66.97%"></stop>
            <stop stop-color="#FFD356" offset="100%"></stop>
        </linearGradient>
        <linearGradient x1="-0.818665715%" y1="40.632928%" x2="95.5709452%" y2="51.5565625%" id="linearGradient-8">
            <stop stop-color="#5C7F12" offset="0%"></stop>
            <stop stop-color="#84B41F" offset="97.99%"></stop>
        </linearGradient>
    </defs>
    <g id="Table-Ordering-mk5" stroke="none" stroke-width="1" fill="none" fill-rule="evenodd">
        <g id="Home---Paxed" transform="translate(-10.000000, -129.000000)" fill-rule="nonzero">
            <g id="item-placeholder" transform="translate(10.000000, 129.000000)">
                <g id="Group-5">
                    <rect id="Rectangle" fill="#FFEAC0" x="0" y="0" width="80" height="80"></rect>
                    <g id="Group-4" transform="translate(11.000000, 12.000000)">
                        <g id="Group">
                            <g id="Oval">
                                <use fill="black" fill-opacity="1" filter="url(#filter-3)" xlink:href="#path-2"></use>
                                <use fill="url(#linearGradient-1)" xlink:href="#path-2"></use>
                            </g>
                            <circle id="Oval" stroke="#FFFFFF" stroke-width="0.5522" fill="url(#linearGradient-4)" cx="28.36" cy="27.77" r="20.2"></circle>
                        </g>
                        <g id="Group" transform="translate(38.000000, 17.000000)">
                            <circle id="Oval" fill="url(#linearGradient-5)" cx="7.69" cy="7.79" r="7.55"></circle>
                            <g transform="translate(1.000000, 1.000000)" fill="#C14C40" id="Path">
                                <path d="M7.2,5.67 L6.16,5.67 C6.16,5.67 3.4,2.25 4.07,1.31 C4.82,0.24 8.54,0.24 9.3,1.31 C9.97,2.25 7.2,5.67 7.2,5.67 Z"></path>
                                <path d="M7.2,7.91 L6.16,7.91 C6.16,7.91 3.4,11.33 4.07,12.27 C4.82,13.34 8.54,13.34 9.3,12.27 C9.97,11.32 7.2,7.91 7.2,7.91 Z"></path>
                                <path d="M7.8,7.31 L7.8,6.27 C7.8,6.27 11.22,3.51 12.16,4.18 C13.23,4.93 13.23,8.65 12.16,9.41 C11.22,10.07 7.8,7.31 7.8,7.31 Z"></path>
                                <path d="M5.57,7.31 L5.57,6.27 C5.57,6.27 2.15,3.51 1.21,4.18 C0.14,4.93 0.14,8.65 1.21,9.41 C2.15,10.07 5.57,7.31 5.57,7.31 Z"></path>
                            </g>
                            <g transform="translate(1.000000, 2.000000)" id="Path">
                                <path d="M6.91,0.81 C6.91,0.94 6.81,1.04 6.68,1.04 C6.55,1.04 6.45,0.94 6.45,0.81 C6.45,0.68 6.68,0.23 6.68,0.23 C6.68,0.23 6.91,0.68 6.91,0.81 Z" fill="#FCD462"></path>
                                <path d="M5.27,1.07 C5.27,1.2 5.17,1.3 5.04,1.3 C4.91,1.3 4.81,1.2 4.81,1.07 C4.81,0.94 5.04,0.49 5.04,0.49 C5.04,0.49 5.27,0.94 5.27,1.07 Z" fill="#FCD462"></path>
                                <path d="M8.36,1.99 C8.36,2.12 8.26,2.22 8.13,2.22 C8,2.22 7.9,2.12 7.9,1.99 C7.9,1.86 8.13,1.41 8.13,1.41 C8.13,1.41 8.36,1.87 8.36,1.99 Z" fill="#FCD462"></path>
                                <path d="M6.91,10.47 C6.91,10.34 6.81,10.24 6.68,10.24 C6.55,10.24 6.45,10.34 6.45,10.47 C6.45,10.6 6.68,11.05 6.68,11.05 C6.68,11.05 6.91,10.59 6.91,10.47 Z" fill="#FCD462"></path>
                                <path d="M5.79,9.84 C5.79,9.71 5.69,9.61 5.56,9.61 C5.43,9.61 5.33,9.71 5.33,9.84 C5.33,9.97 5.56,10.42 5.56,10.42 C5.56,10.42 5.79,9.96 5.79,9.84 Z" fill="#FCD462"></path>
                                <path d="M8.03,9.84 C8.03,9.71 7.93,9.61 7.8,9.61 C7.67,9.61 7.57,9.71 7.57,9.84 C7.57,9.97 7.8,10.42 7.8,10.42 C7.8,10.42 8.03,9.96 8.03,9.84 Z" fill="#FCD462"></path>
                                <path d="M11.66,6.02 C11.53,6.02 11.43,5.92 11.43,5.79 C11.43,5.66 11.53,5.56 11.66,5.56 C11.79,5.56 12.24,5.79 12.24,5.79 C12.24,5.79 11.79,6.02 11.66,6.02 Z" fill="#FCD462"></path>
                                <path d="M10.74,4.9 C10.61,4.9 10.51,4.8 10.51,4.67 C10.51,4.54 10.61,4.44 10.74,4.44 C10.87,4.44 11.32,4.67 11.32,4.67 C11.32,4.67 10.86,4.9 10.74,4.9 Z" fill="#FCD462"></path>
                                <path d="M10.61,7.59 C10.48,7.59 10.38,7.49 10.38,7.36 C10.38,7.23 10.48,7.13 10.61,7.13 C10.74,7.13 11.19,7.36 11.19,7.36 C11.19,7.36 10.74,7.59 10.61,7.59 Z" fill="#FCD462"></path>
                                <path d="M1.71,6.02 C1.84,6.02 1.94,5.92 1.94,5.79 C1.94,5.66 1.84,5.56 1.71,5.56 C1.58,5.56 1.13,5.79 1.13,5.79 C1.13,5.79 1.58,6.02 1.71,6.02 Z" fill="#FCD462"></path>
                                <path d="M1.64,4.67 C1.77,4.67 1.87,4.57 1.87,4.44 C1.87,4.31 1.77,4.21 1.64,4.21 C1.51,4.21 1.06,4.44 1.06,4.44 C1.06,4.44 1.52,4.67 1.64,4.67 Z" fill="#FCD462"></path>
                                <path d="M1.94,8.05 C2.07,8.05 2.17,7.95 2.17,7.82 C2.17,7.69 2.07,7.59 1.94,7.59 C1.81,7.59 1.36,7.82 1.36,7.82 C1.36,7.82 1.81,8.05 1.94,8.05 Z" fill="#AF985F"></path>
                            </g>
                        </g>
                        <g id="Group" filter="url(#filter-6)" transform="translate(11.000000, 10.000000)">
                            <path d="M29.78,30.89 L24.71,10.25 C23.71,10.82 22.45,10.94 21.28,10.41 C19.69,9.69 18.8,7.92 19.16,6.22 C19.56,4.36 21.22,3.17 22.98,3.24 L22.54,1.45 C22.36,0.73 21.62,0.29 20.91,0.5 C18.59,1.15 13.6,2.84 9.31,6.25 C5.53,9.24 2.41,14.1 1.13,16.28 C0.78,16.88 1,17.64 1.62,17.96 L7.26,20.84 C7.26,20.84 9.75,20.84 11.33,22.92 L23.45,29.1 C23.44,28.93 23.46,28.76 23.52,28.6 C23.76,27.87 24.55,27.48 25.27,27.72 C26,27.96 26.39,28.75 26.15,29.47 C26.05,29.78 25.84,30.02 25.59,30.19 L28.7,31.78 C29.28,32.04 29.93,31.52 29.78,30.89 Z" id="Path" fill="#FFAD40"></path>
                            <path d="M23.45,29.07 C23.45,29.07 25.12,28.33 25.59,30.16 C25.59,30.16 26.42,29.98 26.54,29.86 C26.65,29.75 27.15,28.92 27.15,28.92 L26.5,26.88 L24.25,25.77 L22.38,26.76 L22.34,28.09 L23.45,29.07 Z" id="Path" fill="#FFAD40"></path>
                            <path d="M22.99,3.23 C22.99,3.23 21.96,6.89 24.71,10.25 L24.31,11.09 L22.16,11.69 L18.94,11.09 L17.55,8.92 L17.81,6.51 L18.64,4.88 L19.24,3.85 L20.24,3.24 L21.59,2.53 L22.99,3.23 Z" id="Path" fill="#FFAD40"></path>
                            <path d="M20.92,0.49 C18.6,1.14 13.61,2.83 9.32,6.24 C5.54,9.23 2.42,14.1 1.14,16.27 C0.79,16.87 1.01,17.63 1.63,17.95 L7.79,21.09 C7.73,20.56 7.82,19.99 8.14,19.46 C8.66,18.59 9.68,18.1 10.68,18.25 C12.31,18.49 13.26,20.11 12.76,21.6 C12.55,22.23 12.12,22.72 11.58,23.02 L23.46,29.08 C23.45,28.91 23.47,28.74 23.53,28.58 C23.77,27.85 24.56,27.46 25.28,27.7 C26.01,27.94 26.4,28.73 26.16,29.45 C26.06,29.76 25.85,30 25.6,30.17 L28.71,31.76 C29.29,32.06 29.95,31.53 29.79,30.9 L27.58,21.91 C27.05,21.98 26.49,21.9 25.97,21.6 C25.01,21.06 24.5,19.93 24.73,18.85 C24.93,17.93 25.57,17.26 26.37,16.97 L24.72,10.26 C23.72,10.83 22.46,10.95 21.29,10.42 C19.7,9.7 18.81,7.93 19.17,6.23 C19.57,4.37 21.23,3.18 22.99,3.25 L22.55,1.46 C22.37,0.72 21.63,0.28 20.92,0.49 Z M18.18,22.48 C17.99,23.03 17.4,23.33 16.84,23.15 C16.29,22.96 15.99,22.37 16.17,21.81 C16.36,21.26 16.95,20.96 17.51,21.14 C18.07,21.32 18.37,21.92 18.18,22.48 Z M13.37,9.5 C13.25,9.86 12.86,10.06 12.5,9.94 C12.14,9.82 11.94,9.43 12.06,9.07 C12.18,8.71 12.57,8.51 12.93,8.63 C13.29,8.75 13.49,9.14 13.37,9.5 Z" id="Shape" fill="url(#linearGradient-7)"></path>
                            <circle id="Oval" fill="#FFAD40" cx="18.95" cy="14.69" r="1.96"></circle>
                            <circle id="Oval" fill="#FFAD40" cx="4.58" cy="15.01" r="1"></circle>
                        </g>
                        <g id="Group" transform="translate(15.000000, 5.000000)">
                            <path d="M12.74,10.04 L12,7.58 C12,7.58 6.71,10.41 1.87,5.72 C-2.97,1.03 4.63,2.07 6.04,2.52 C7.46,2.97 10.81,4.75 12,7.06 C12,7.06 10.36,4.38 10.66,3.63 C10.96,2.88 12.45,4.4 12.75,6.06 C12.75,6.06 13.72,0.5 17.14,0.8 C17.14,0.8 18.56,5.34 13.19,7.35 L13.49,10.03 L12.74,10.03 L12.74,10.04 Z" id="Path" fill="#84B41F"></path>
                            <path d="M17.13,0.8 C13.7,0.5 12.74,6.06 12.74,6.06 C12.44,4.4 10.95,2.88 10.65,3.63 C10.35,4.37 11.99,7.06 11.99,7.06 C10.8,4.75 7.45,2.96 6.03,2.52 C5.66,2.4 4.88,2.25 4.01,2.16 L4.01,2.16 C4.01,2.16 4.21,2.22 4.56,2.35 C5.77,2.84 8.69,4.39 10.34,8.16 C11.36,7.91 12,7.58 12,7.58 L12.74,10.04 L13.48,10.04 L13.18,7.36 C18.55,5.35 17.13,0.8 17.13,0.8 Z" id="Path" fill="url(#linearGradient-8)"></path>
                        </g>
                    </g>
                </g>
            </g>
        </g>
    </g>
</svg>