<svg width="343" height="170" viewBox="0 0 343 170" fill="none" xmlns="http://www.w3.org/2000/svg">
<path d="M287.918 169.702C293.5 135.5 267 141 264.83 119.582C262.659 98.164 286.639 83.7739 276.57 62.137C266.5 40.5 246.261 61.3527 224.574 30.6897C199.332 -5 178 1.27268 146.009 23.4521C109.349 48.8688 103 6 67.3451 20.6388C32.5005 37 79.1181 105.428 44.4205 125.336C17.5005 147.5 44.4205 169.702 44.4205 169.702H287.915H287.918Z" fill="#FFD4BD"/>
<path d="M189.775 0.402405H77.3106C76.2588 0.402405 75.4062 1.25501 75.4062 2.30676V167.535C75.4062 168.587 76.2588 169.439 77.3106 169.439H189.775C190.827 169.439 191.679 168.587 191.679 167.535V2.30676C191.679 1.25501 190.827 0.402405 189.775 0.402405Z" fill="white"/>
<path d="M187.831 169.842H79.247C76.9044 169.842 75 167.937 75 165.595V4.24694C75 1.90435 76.9044 0 79.247 0H187.831C190.173 0 192.078 1.90435 192.078 4.24694V165.591C192.078 167.933 190.173 169.838 187.831 169.838V169.842ZM79.2509 0.804767C77.3506 0.804767 75.8088 2.35056 75.8088 4.24694V165.591C75.8088 167.491 77.3545 169.033 79.2509 169.033H187.835C189.735 169.033 191.277 167.487 191.277 165.591V4.24694C191.277 2.34657 189.731 0.804767 187.835 0.804767H79.2509Z" fill="#8D9396"/>
<path d="M183.468 151.005H86.7207V154.954H183.468V151.005Z" fill="#E0E0E0"/>
<path d="M183.468 156.902H86.7207V160.85H183.468V156.902Z" fill="#E0E0E0"/>
<path d="M183.468 67.8953H86.7207V137.906H183.468V67.8953Z" fill="#F5F5F5"/>
<line x1="87.377" y1="79.0203" x2="180.14" y2="79.0203" stroke="#8C8C8C" stroke-width="0.5"/>
<line x1="99.4336" y1="69.1506" x2="99.4336" y2="136.615" stroke="#8C8C8C" stroke-width="0.5"/>
<line x1="143.285" y1="69" x2="143.285" y2="136.464" stroke="#8C8C8C" stroke-width="0.5"/>
<line x1="165.285" y1="69" x2="165.285" y2="136.464" stroke="#8C8C8C" stroke-width="0.5"/>
<path d="M95.736 72.4609H90.0986V76.6003H95.736V72.4609Z" fill="#E0E0E0"/>
<path d="M95.736 87.2256H90.0986V91.365H95.736V87.2256Z" fill="#E0E0E0"/>
<path d="M95.736 96.5841H90.0986V100.723H95.736V96.5841Z" fill="#E0E0E0"/>
<path d="M95.736 104.771H90.0986V108.911H95.736V104.771Z" fill="#E0E0E0"/>
<path d="M159.764 72.4609H147.804V76.6003H159.764V72.4609Z" fill="#E0E0E0"/>
<path d="M157.93 83.9428H149.684V88.0822H157.93V83.9428Z" fill="#E0E0E0"/>
<path d="M157.93 96.4964H149.684V100.636H157.93V96.4964Z" fill="#E0E0E0"/>
<path d="M178.806 96.4964H170.56V100.636H178.806V96.4964Z" fill="#E0E0E0"/>
<path d="M157.93 104.843H149.684V108.982H157.93V104.843Z" fill="#E0E0E0"/>
<path d="M178.743 104.452H170.496V108.592H178.743V104.452Z" fill="#E0E0E0"/>
<path d="M178.743 84.2137H170.496V88.3531H178.743V84.2137Z" fill="#E0E0E0"/>
<path d="M178.747 72.4609H169.193V76.6003H178.747V72.4609Z" fill="#E0E0E0"/>
<path d="M136.19 72.4609H104.907V76.6003H136.19V72.4609Z" fill="#E0E0E0"/>
<path d="M123.505 86.3531H104.907V90.4925H123.505V86.3531Z" fill="#E0E0E0"/>
<path d="M136.19 96.1935H104.907V100.333H136.19V96.1935Z" fill="#E0E0E0"/>
<path d="M121.509 104.452H104.907V108.592H121.509V104.452Z" fill="#E0E0E0"/>
<path d="M183.464 137.906H164.728V147.436H183.464V137.906Z" fill="#FF941A"/>
<path d="M130.601 18.175H89V22.1232H130.601V18.175Z" fill="#E0E0E0"/>
<path d="M99.3225 30.4657H89.1514V34.4138H99.3225V30.4657Z" fill="#E0E0E0"/>
<path d="M116.003 37.0751H88.8564V41.0232H116.003V37.0751Z" fill="#E0E0E0"/>
<path d="M88.9998 27.9481H99.1709V24H88.9998V27.9481Z" fill="#E0E0E0"/>
<path d="M153.126 41.0272H180.273V37.0791H153.126V41.0272Z" fill="#E0E0E0"/>
<path d="M116.003 49.278H88.8564V53.2262H116.003V49.278Z" fill="#FF941A"/>
<path d="M158.154 56.1385H88.8564V60.0866H158.154V56.1385Z" fill="#E0E0E0"/>
<path d="M83.2274 6.46197C83.2274 7.44203 82.4346 8.23484 81.4545 8.23484C80.4745 8.23484 79.6816 7.44203 79.6816 6.46197C79.6816 5.4819 80.4745 4.68909 81.4545 4.68909C82.4346 4.68909 83.2274 5.4819 83.2274 6.46197Z" fill="#E66262"/>
<path d="M87.7889 6.46197C87.7889 7.44203 86.9961 8.23484 86.016 8.23484C85.036 8.23484 84.2432 7.44203 84.2432 6.46197C84.2432 5.4819 85.036 4.68909 86.016 4.68909C86.9961 4.68909 87.7889 5.4819 87.7889 6.46197Z" fill="#A5A9AB"/>
<path d="M92.3504 6.46197C92.3504 7.44203 91.5576 8.23484 90.5776 8.23484C89.5975 8.23484 88.8047 7.44203 88.8047 6.46197C88.8047 5.4819 89.5975 4.68909 90.5776 4.68909C91.5576 4.68909 92.3504 5.4819 92.3504 6.46197Z" fill="#55C659"/>
<path d="M161.323 31.5594C161.323 31.5753 161.317 31.5896 161.304 31.6024C161.295 31.6119 161.282 31.6167 161.266 31.6167H159.698C159.682 31.6167 159.674 31.6247 159.674 31.6406V32.3817C159.674 32.3976 159.682 32.4056 159.698 32.4056H160.726C160.742 32.4056 160.755 32.4119 160.764 32.4247C160.777 32.4342 160.783 32.447 160.783 32.4629V32.9267C160.783 32.9426 160.777 32.9569 160.764 32.9697C160.755 32.9792 160.742 32.984 160.726 32.984H159.698C159.682 32.984 159.674 32.992 159.674 33.0079V33.7824C159.674 33.7984 159.682 33.8063 159.698 33.8063H161.266C161.282 33.8063 161.295 33.8127 161.304 33.8255C161.317 33.835 161.323 33.8478 161.323 33.8637V34.3274C161.323 34.3434 161.317 34.3577 161.304 34.3705C161.295 34.38 161.282 34.3848 161.266 34.3848H159.057C159.041 34.3848 159.027 34.38 159.014 34.3705C159.005 34.3577 159 34.3434 159 34.3274V31.0956C159 31.0797 159.005 31.0669 159.014 31.0574C159.027 31.0446 159.041 31.0382 159.057 31.0382H161.266C161.282 31.0382 161.295 31.0446 161.304 31.0574C161.317 31.0669 161.323 31.0797 161.323 31.0956V31.5594Z" fill="black"/>
<path d="M161.696 33.2613C161.68 33.2613 161.666 33.2565 161.653 33.247C161.644 33.2342 161.639 33.2199 161.639 33.2039V32.7402C161.639 32.7243 161.644 32.7115 161.653 32.702C161.666 32.6892 161.68 32.6828 161.696 32.6828H163.26C163.276 32.6828 163.288 32.6892 163.298 32.702C163.311 32.7115 163.317 32.7243 163.317 32.7402V33.2039C163.317 33.2199 163.311 33.2342 163.298 33.247C163.288 33.2565 163.276 33.2613 163.26 33.2613H161.696Z" fill="black"/>
<path d="M163.805 34.3848C163.79 34.3848 163.775 34.38 163.762 34.3705C163.753 34.3577 163.748 34.3434 163.748 34.3274V31.0956C163.748 31.0797 163.753 31.0669 163.762 31.0574C163.775 31.0446 163.79 31.0382 163.805 31.0382H164.365C164.381 31.0382 164.394 31.0446 164.403 31.0574C164.416 31.0669 164.422 31.0797 164.422 31.0956V34.3274C164.422 34.3434 164.416 34.3577 164.403 34.3705C164.394 34.38 164.381 34.3848 164.365 34.3848H163.805Z" fill="black"/>
<path d="M166.926 31.0956C166.926 31.0797 166.931 31.0669 166.94 31.0574C166.953 31.0446 166.967 31.0382 166.983 31.0382H167.543C167.559 31.0382 167.571 31.0446 167.581 31.0574C167.594 31.0669 167.6 31.0797 167.6 31.0956V34.3274C167.6 34.3434 167.594 34.3577 167.581 34.3705C167.571 34.38 167.559 34.3848 167.543 34.3848H167.002C166.971 34.3848 166.948 34.3721 166.935 34.3466L165.697 32.3004C165.691 32.2908 165.684 32.2876 165.678 32.2908C165.672 32.2908 165.669 32.2972 165.669 32.3099L165.678 34.3274C165.678 34.3434 165.672 34.3577 165.659 34.3705C165.649 34.38 165.637 34.3848 165.621 34.3848H165.061C165.045 34.3848 165.031 34.38 165.018 34.3705C165.009 34.3577 165.004 34.3434 165.004 34.3274V31.0956C165.004 31.0797 165.009 31.0669 165.018 31.0574C165.031 31.0446 165.045 31.0382 165.061 31.0382H165.602C165.633 31.0382 165.656 31.051 165.669 31.0765L166.902 33.1131C166.908 33.1227 166.915 33.1275 166.921 33.1275C166.927 33.1243 166.931 33.1163 166.931 33.1036L166.926 31.0956Z" fill="black"/>
<path d="M169.073 34.3848C169.041 34.3848 169.02 34.3689 169.011 34.337L168.026 31.1052L168.021 31.0861C168.021 31.0542 168.038 31.0382 168.073 31.0382H168.676C168.711 31.0382 168.733 31.0542 168.743 31.0861L169.379 33.4191C169.382 33.4286 169.387 33.4334 169.393 33.4334C169.399 33.4334 169.404 33.4286 169.407 33.4191L170.034 31.0861C170.043 31.0542 170.065 31.0382 170.101 31.0382H170.689C170.708 31.0382 170.722 31.0446 170.732 31.0574C170.741 31.0701 170.743 31.0861 170.736 31.1052L169.737 34.337C169.728 34.3689 169.707 34.3848 169.675 34.3848H169.073Z" fill="black"/>
<path d="M172.189 34.4374C171.94 34.4374 171.721 34.3864 171.529 34.2844C171.341 34.1824 171.195 34.0406 171.09 33.8589C170.984 33.6741 170.932 33.4621 170.932 33.2231V32.2C170.932 31.9641 170.984 31.7554 171.09 31.5737C171.195 31.392 171.341 31.2518 171.529 31.153C171.721 31.051 171.94 31 172.189 31C172.441 31 172.661 31.051 172.849 31.153C173.04 31.2518 173.188 31.392 173.293 31.5737C173.399 31.7554 173.451 31.9641 173.451 32.2V33.2231C173.451 33.4621 173.399 33.6741 173.293 33.8589C173.188 34.0438 173.04 34.1872 172.849 34.2892C172.661 34.388 172.441 34.4374 172.189 34.4374ZM172.189 33.8589C172.364 33.8589 172.506 33.8031 172.615 33.6916C172.723 33.58 172.777 33.4318 172.777 33.247V32.1952C172.777 32.0103 172.723 31.8621 172.615 31.7506C172.509 31.6358 172.368 31.5785 172.189 31.5785C172.014 31.5785 171.872 31.6358 171.764 31.7506C171.658 31.8621 171.606 32.0103 171.606 32.1952V33.247C171.606 33.4318 171.658 33.58 171.764 33.6916C171.872 33.8031 172.014 33.8589 172.189 33.8589Z" fill="black"/>
<path d="M174.025 34.3848C174.009 34.3848 173.995 34.38 173.982 34.3705C173.973 34.3577 173.968 34.3434 173.968 34.3274V31.0956C173.968 31.0797 173.973 31.0669 173.982 31.0574C173.995 31.0446 174.009 31.0382 174.025 31.0382H174.585C174.601 31.0382 174.613 31.0446 174.623 31.0574C174.636 31.0669 174.642 31.0797 174.642 31.0956V34.3274C174.642 34.3434 174.636 34.3577 174.623 34.3705C174.613 34.38 174.601 34.3848 174.585 34.3848H174.025Z" fill="black"/>
<path d="M176.4 34.4231C176.151 34.4231 175.933 34.3752 175.745 34.2796C175.557 34.1808 175.412 34.0438 175.31 33.8685C175.208 33.6932 175.157 33.4908 175.157 33.2613V32.157C175.157 31.9275 175.208 31.7251 175.31 31.5498C175.412 31.3745 175.557 31.239 175.745 31.1434C175.933 31.0478 176.151 31 176.4 31C176.645 31 176.861 31.0462 177.045 31.1386C177.233 31.2279 177.378 31.357 177.48 31.5259C177.586 31.6916 177.638 31.8844 177.638 32.1044C177.638 32.133 177.619 32.1506 177.581 32.157L177.021 32.1904H177.012C176.98 32.1904 176.964 32.1729 176.964 32.1378C176.964 31.9689 176.912 31.8335 176.806 31.7315C176.704 31.6295 176.569 31.5785 176.4 31.5785C176.228 31.5785 176.089 31.6295 175.984 31.7315C175.882 31.8335 175.831 31.9689 175.831 32.1378V33.29C175.831 33.4557 175.882 33.5896 175.984 33.6916C176.089 33.7936 176.228 33.8446 176.4 33.8446C176.569 33.8446 176.704 33.7936 176.806 33.6916C176.912 33.5896 176.964 33.4557 176.964 33.29C176.964 33.2549 176.983 33.2374 177.021 33.2374L177.581 33.2613C177.597 33.2613 177.61 33.2661 177.619 33.2757C177.632 33.2852 177.638 33.2964 177.638 33.3091C177.638 33.529 177.586 33.7235 177.48 33.8924C177.378 34.0613 177.233 34.192 177.045 34.2844C176.861 34.3768 176.645 34.4231 176.4 34.4231Z" fill="black"/>
<path d="M180.456 31.5594C180.456 31.5753 180.45 31.5896 180.437 31.6024C180.427 31.6119 180.415 31.6167 180.399 31.6167H178.831C178.815 31.6167 178.807 31.6247 178.807 31.6406V32.3817C178.807 32.3976 178.815 32.4056 178.831 32.4056H179.858C179.874 32.4056 179.887 32.4119 179.897 32.4247C179.909 32.4342 179.916 32.447 179.916 32.4629V32.9267C179.916 32.9426 179.909 32.9569 179.897 32.9697C179.887 32.9792 179.874 32.984 179.858 32.984H178.831C178.815 32.984 178.807 32.992 178.807 33.0079V33.7824C178.807 33.7984 178.815 33.8063 178.831 33.8063H180.399C180.415 33.8063 180.427 33.8127 180.437 33.8255C180.45 33.835 180.456 33.8478 180.456 33.8637V34.3274C180.456 34.3434 180.45 34.3577 180.437 34.3705C180.427 34.38 180.415 34.3848 180.399 34.3848H178.19C178.174 34.3848 178.16 34.38 178.147 34.3705C178.137 34.3577 178.133 34.3434 178.133 34.3274V31.0956C178.133 31.0797 178.137 31.0669 178.147 31.0574C178.16 31.0446 178.174 31.0382 178.19 31.0382H180.399C180.415 31.0382 180.427 31.0446 180.437 31.0574C180.45 31.0669 180.456 31.0797 180.456 31.0956V31.5594Z" fill="black"/>
<path d="M0 169.702H343" stroke="#231F20" stroke-width="0.472429" stroke-miterlimit="10"/>
<path d="M234.546 169.702L185.611 169.485C179.725 169.46 174.975 165.05 175 159.634L175.517 46.7699C175.543 41.3509 180.339 36.977 186.229 37.0001C186.233 37.0001 186.24 37.0001 186.244 37.0001L235.164 37.1957C241.05 37.2209 245.799 41.6305 245.775 47.0433L245.258 159.922C245.241 165.336 240.457 169.715 234.571 169.7C234.563 169.7 234.555 169.7 234.546 169.7V169.702Z" fill="#263238"/>
<path d="M234.752 40.3479L225.279 40.3079L197.565 40.186H194.23L185.922 40.1523C181.8 40.1334 178.442 43.2393 178.421 47.0917C178.421 47.0917 178.421 47.0938 178.421 47.0959L177.914 158.971C177.895 162.822 181.224 165.957 185.346 165.974L234.186 166.184C238.308 166.197 241.662 163.087 241.674 159.234V159.23L242.181 47.3545C242.202 43.5042 238.876 40.3668 234.754 40.3479H234.75H234.752Z" fill="white"/>
<path d="M235.194 50.2963C235.194 50.6328 234.921 50.9062 234.584 50.9062C234.248 50.9062 233.975 50.6328 233.975 50.2963C233.975 49.9599 234.248 49.6865 234.584 49.6865H234.589C234.925 49.6865 235.196 49.962 235.196 50.2963H235.194Z" fill="#263238"/>
<path d="M235.186 52.5064C235.186 52.8429 234.908 53.1163 234.572 53.1141C234.235 53.1141 233.962 52.8366 233.964 52.5001C233.964 52.1637 234.239 51.8924 234.574 51.8924C234.912 51.8924 235.184 52.1679 235.184 52.5064H235.186Z" fill="#263238"/>
<path d="M235.179 54.6934C235.179 55.0319 234.908 55.3095 234.569 55.3116C234.231 55.3116 233.953 55.0403 233.951 54.7018C233.951 54.3632 234.222 54.0857 234.561 54.0836H234.567C234.904 54.0836 235.175 54.3569 235.177 54.6934H235.179Z" fill="#263238"/>
<path d="M222.867 52.8766H195.452C194.909 52.8766 194.468 52.4371 194.468 51.8925C194.468 51.3499 194.907 50.9083 195.452 50.9083H222.867C223.409 50.9083 223.851 51.3478 223.851 51.8925C223.851 52.435 223.411 52.8766 222.867 52.8766Z" fill="#E0E0E0"/>
<path d="M226.038 139.591H195.692C193.979 139.591 192.59 140.98 192.59 142.693V147.702C192.59 149.415 193.979 150.804 195.692 150.804H226.038C227.751 150.804 229.139 149.415 229.139 147.702V142.693C229.139 140.98 227.751 139.591 226.038 139.591Z" fill="#FF941A"/>
<path d="M207.753 143.173L206.279 146.821H205.666L204.192 143.173H204.737C204.796 143.173 204.844 143.187 204.881 143.215C204.918 143.244 204.946 143.281 204.965 143.326L205.825 145.552C205.854 145.624 205.881 145.704 205.906 145.792C205.933 145.878 205.958 145.968 205.981 146.062C206.002 145.968 206.024 145.878 206.047 145.792C206.071 145.704 206.097 145.624 206.125 145.552L206.981 143.326C206.994 143.288 207.02 143.252 207.059 143.22C207.099 143.189 207.148 143.173 207.205 143.173H207.753Z" fill="white"/>
<path d="M208.812 146.821H208.131V143.173H208.812V146.821Z" fill="white"/>
<path d="M210.31 143.713V144.724H211.587V145.247H210.31V146.279H211.93V146.821H209.629V143.173H211.93V143.713H210.31Z" fill="white"/>
<path d="M217.387 143.173L216.254 146.821H215.641L214.843 144.328C214.821 144.268 214.801 144.194 214.783 144.106C214.773 144.148 214.762 144.188 214.752 144.225C214.742 144.262 214.731 144.296 214.72 144.328L213.915 146.821H213.299L212.168 143.173H212.736C212.795 143.173 212.844 143.187 212.883 143.215C212.923 143.242 212.95 143.279 212.963 143.326L213.584 145.509C213.597 145.563 213.61 145.622 213.622 145.686C213.635 145.748 213.649 145.814 213.662 145.883C213.676 145.812 213.69 145.746 213.705 145.683C213.722 145.621 213.74 145.563 213.758 145.509L214.475 143.326C214.488 143.288 214.514 143.252 214.553 143.22C214.593 143.189 214.642 143.173 214.699 143.173H214.899C214.958 143.173 215.006 143.187 215.043 143.215C215.08 143.244 215.107 143.281 215.126 143.326L215.84 145.509C215.875 145.614 215.907 145.734 215.936 145.87C215.958 145.737 215.982 145.617 216.009 145.509L216.63 143.326C216.64 143.284 216.665 143.248 216.705 143.218C216.748 143.188 216.797 143.173 216.854 143.173H217.387Z" fill="white"/>
<path d="M184.841 71.7559H232.584C232.763 71.7559 232.908 71.901 232.908 72.0797V72.6033C232.908 72.7821 232.763 72.9271 232.584 72.9271H184.841C184.663 72.9271 184.518 72.7821 184.518 72.6033V72.0797C184.518 71.901 184.663 71.7559 184.841 71.7559Z" fill="#263238"/>
<g opacity="0.3">
<path d="M236.148 119.871C234.647 115.743 233.94 111.371 233.94 106.979V83.5781C233.94 75.7892 227.737 72.3405 227.737 72.3405H185.068C185.068 72.3405 191.272 75.7913 191.272 83.5781V111.06C191.272 111.06 191.545 128.427 200.16 130.206L241.454 130.15H245.521V127.454C243.021 125.566 237.433 123.41 236.146 119.873L236.148 119.871Z" fill="black"/>
</g>
<path d="M245.801 127.861L201.948 128.047C199.835 127.607 198.227 126.213 197.002 124.352C195.774 122.487 194.935 120.162 194.364 117.886C193.793 115.611 193.491 113.39 193.331 111.737C193.251 110.911 193.207 110.227 193.182 109.75C193.17 109.511 193.163 109.325 193.159 109.198C193.157 109.134 193.156 109.086 193.155 109.053L193.154 109.016L193.154 109.007L193.154 109.006V109.005V81.5235C193.154 77.5893 191.291 75.2639 189.428 73.9257C188.498 73.2577 187.568 72.836 186.871 72.5812C186.729 72.5293 186.597 72.4843 186.476 72.4455H228.343L228.353 72.4476C228.367 72.4504 228.387 72.4546 228.413 72.4605C228.466 72.4724 228.544 72.4908 228.643 72.5171C228.841 72.5698 229.126 72.6537 229.468 72.7787C230.152 73.0287 231.063 73.4424 231.974 74.0965C233.793 75.4026 235.612 77.6688 235.612 81.5235V104.924C235.612 109.328 236.321 113.712 237.827 117.852C237.827 117.852 237.827 117.852 237.827 117.852L237.925 117.816L245.801 127.861Z" fill="white" stroke="#D1D1D1" stroke-width="0.210284"/>
<path d="M248.074 127.958C251.069 125.774 253.016 122.211 253.237 118.51L204.989 118.317C205.233 120.554 204.979 122.846 204.247 124.977C203.828 126.196 203.212 127.416 202.152 128.152L248.074 127.958Z" fill="#E0E0E0"/>
<line x1="198.879" y1="80.7222" x2="231.283" y2="80.7222" stroke="#8C8C8C" stroke-width="0.445113"/>
<line x1="198.879" y1="87.844" x2="231.283" y2="87.844" stroke="#8C8C8C" stroke-width="0.445113"/>
<path d="M214.901 83.8135H198.718V86.2297H214.901V83.8135Z" fill="#E0E0E0"/>
<path d="M230.974 83.8135H221.37V86.2297H230.974V83.8135Z" fill="#E0E0E0"/>
<path d="M214.226 91.1377H198.718V93.5539H214.226V91.1377Z" fill="#E0E0E0"/>
<path d="M205.201 96.3149H198.718V98.7311H205.201V96.3149Z" fill="#E0E0E0"/>
<path d="M209.228 101.097H198.718V103.513H209.228V101.097Z" fill="#E0E0E0"/>
<path d="M232.736 114.336H199.946V116.752H232.736V114.336Z" fill="#E0E0E0"/>
<path d="M231.228 91.1377H226.52V93.5539H231.228V91.1377Z" fill="#FF941A"/>
<path d="M231.228 95.7661H226.52V98.1822H231.228V95.7661Z" fill="#FF941A"/>
<path d="M231.228 100.908H226.52V103.324H231.228V100.908Z" fill="#FF941A"/>
<path d="M231.15 109.014H224.625V111.43H231.15V109.014Z" fill="#FF941A"/>
<path d="M220.226 77.2952C220.226 77.3037 220.223 77.3112 220.216 77.3179C220.211 77.323 220.205 77.3255 220.196 77.3255H219.368C219.36 77.3255 219.356 77.3297 219.356 77.3381V77.7293C219.356 77.7377 219.36 77.7419 219.368 77.7419H219.911C219.919 77.7419 219.926 77.7452 219.931 77.752C219.938 77.757 219.941 77.7638 219.941 77.7722V78.0169C219.941 78.0253 219.938 78.0329 219.931 78.0396C219.926 78.0447 219.919 78.0472 219.911 78.0472H219.368C219.36 78.0472 219.356 78.0514 219.356 78.0598V78.4686C219.356 78.477 219.36 78.4812 219.368 78.4812H220.196C220.205 78.4812 220.211 78.4846 220.216 78.4913C220.223 78.4964 220.226 78.5031 220.226 78.5115V78.7563C220.226 78.7647 220.223 78.7723 220.216 78.779C220.211 78.7841 220.205 78.7866 220.196 78.7866H219.03C219.022 78.7866 219.014 78.7841 219.008 78.779C219.003 78.7723 219 78.7647 219 78.7563V77.0505C219 77.0421 219.003 77.0353 219.008 77.0303C219.014 77.0236 219.022 77.0202 219.03 77.0202H220.196C220.205 77.0202 220.211 77.0236 220.216 77.0303C220.223 77.0353 220.226 77.0421 220.226 77.0505V77.2952Z" fill="black"/>
<path d="M220.423 78.1936C220.415 78.1936 220.407 78.191 220.4 78.186C220.395 78.1793 220.393 78.1717 220.393 78.1633V77.9185C220.393 77.9101 220.395 77.9034 220.4 77.8983C220.407 77.8916 220.415 77.8882 220.423 77.8882H221.248C221.257 77.8882 221.263 77.8916 221.269 77.8983C221.275 77.9034 221.279 77.9101 221.279 77.9185V78.1633C221.279 78.1717 221.275 78.1793 221.269 78.186C221.263 78.191 221.257 78.1936 221.248 78.1936H220.423Z" fill="black"/>
<path d="M221.536 78.7866C221.528 78.7866 221.52 78.7841 221.514 78.779C221.509 78.7723 221.506 78.7647 221.506 78.7563V77.0505C221.506 77.0421 221.509 77.0353 221.514 77.0303C221.52 77.0236 221.528 77.0202 221.536 77.0202H221.832C221.84 77.0202 221.847 77.0236 221.852 77.0303C221.859 77.0353 221.862 77.0421 221.862 77.0505V78.7563C221.862 78.7647 221.859 78.7723 221.852 78.779C221.847 78.7841 221.84 78.7866 221.832 78.7866H221.536Z" fill="black"/>
<path d="M223.183 77.0505C223.183 77.0421 223.186 77.0353 223.191 77.0303C223.198 77.0236 223.205 77.0202 223.214 77.0202H223.509C223.517 77.0202 223.524 77.0236 223.529 77.0303C223.536 77.0353 223.539 77.0421 223.539 77.0505V78.7563C223.539 78.7647 223.536 78.7723 223.529 78.779C223.524 78.7841 223.517 78.7866 223.509 78.7866H223.224C223.207 78.7866 223.195 78.7798 223.189 78.7664L222.535 77.6864C222.532 77.6813 222.528 77.6796 222.525 77.6813C222.521 77.6813 222.52 77.6847 222.52 77.6914L222.525 78.7563C222.525 78.7647 222.521 78.7723 222.515 78.779C222.51 78.7841 222.503 78.7866 222.495 78.7866H222.199C222.191 78.7866 222.183 78.7841 222.177 78.779C222.172 78.7723 222.169 78.7647 222.169 78.7563V77.0505C222.169 77.0421 222.172 77.0353 222.177 77.0303C222.183 77.0236 222.191 77.0202 222.199 77.0202H222.484C222.501 77.0202 222.513 77.0269 222.52 77.0404L223.171 78.1153C223.174 78.1204 223.178 78.1229 223.181 78.1229C223.184 78.1212 223.186 78.117 223.186 78.1103L223.183 77.0505Z" fill="black"/>
<path d="M224.317 78.7866C224.3 78.7866 224.289 78.7782 224.284 78.7613L223.764 77.0555L223.761 77.0454C223.761 77.0286 223.771 77.0202 223.789 77.0202H224.107C224.126 77.0202 224.137 77.0286 224.142 77.0454L224.478 78.2768C224.48 78.2819 224.482 78.2844 224.486 78.2844C224.489 78.2844 224.492 78.2819 224.493 78.2768L224.824 77.0454C224.829 77.0286 224.841 77.0202 224.859 77.0202H225.169C225.18 77.0202 225.187 77.0236 225.192 77.0303C225.197 77.037 225.198 77.0454 225.195 77.0555L224.667 78.7613C224.662 78.7782 224.651 78.7866 224.635 78.7866H224.317Z" fill="black"/>
<path d="M225.961 78.8143C225.83 78.8143 225.714 78.7874 225.613 78.7336C225.514 78.6797 225.437 78.6049 225.381 78.509C225.326 78.4114 225.298 78.2996 225.298 78.1734V77.6334C225.298 77.5089 225.326 77.3987 225.381 77.3028C225.437 77.2069 225.514 77.1329 225.613 77.0807C225.714 77.0269 225.83 77 225.961 77C226.094 77 226.21 77.0269 226.31 77.0807C226.411 77.1329 226.489 77.2069 226.544 77.3028C226.6 77.3987 226.628 77.5089 226.628 77.6334V78.1734C226.628 78.2996 226.6 78.4114 226.544 78.509C226.489 78.6066 226.411 78.6823 226.31 78.7361C226.21 78.7883 226.094 78.8143 225.961 78.8143ZM225.961 78.509C226.054 78.509 226.129 78.4796 226.186 78.4207C226.243 78.3618 226.272 78.2836 226.272 78.186V77.6309C226.272 77.5333 226.243 77.4551 226.186 77.3962C226.131 77.3356 226.056 77.3053 225.961 77.3053C225.869 77.3053 225.794 77.3356 225.737 77.3962C225.681 77.4551 225.654 77.5333 225.654 77.6309V78.186C225.654 78.2836 225.681 78.3618 225.737 78.4207C225.794 78.4796 225.869 78.509 225.961 78.509Z" fill="black"/>
<path d="M226.931 78.7866C226.922 78.7866 226.915 78.7841 226.908 78.779C226.903 78.7723 226.9 78.7647 226.9 78.7563V77.0505C226.9 77.0421 226.903 77.0353 226.908 77.0303C226.915 77.0236 226.922 77.0202 226.931 77.0202H227.226C227.234 77.0202 227.241 77.0236 227.246 77.0303C227.253 77.0353 227.256 77.0421 227.256 77.0505V78.7563C227.256 78.7647 227.253 78.7723 227.246 78.779C227.241 78.7841 227.234 78.7866 227.226 78.7866H226.931Z" fill="black"/>
<path d="M228.184 78.8068C228.053 78.8068 227.938 78.7815 227.838 78.7311C227.739 78.6789 227.663 78.6066 227.609 78.514C227.555 78.4215 227.528 78.3147 227.528 78.1936V77.6107C227.528 77.4895 227.555 77.3827 227.609 77.2902C227.663 77.1977 227.739 77.1262 227.838 77.0757C227.938 77.0252 228.053 77 228.184 77C228.314 77 228.427 77.0244 228.525 77.0732C228.624 77.1203 228.701 77.1884 228.754 77.2776C228.81 77.3651 228.838 77.4668 228.838 77.5829C228.838 77.598 228.828 77.6073 228.807 77.6107L228.512 77.6283H228.507C228.49 77.6283 228.482 77.6191 228.482 77.6006C228.482 77.5114 228.454 77.4399 228.399 77.3861C228.345 77.3322 228.273 77.3053 228.184 77.3053C228.093 77.3053 228.02 77.3322 227.965 77.3861C227.911 77.4399 227.884 77.5114 227.884 77.6006V78.2087C227.884 78.2962 227.911 78.3668 227.965 78.4207C228.02 78.4745 228.093 78.5014 228.184 78.5014C228.273 78.5014 228.345 78.4745 228.399 78.4207C228.454 78.3668 228.482 78.2962 228.482 78.2087C228.482 78.1902 228.492 78.181 228.512 78.181L228.807 78.1936C228.816 78.1936 228.823 78.1961 228.828 78.2011C228.834 78.2062 228.838 78.2121 228.838 78.2188C228.838 78.3349 228.81 78.4375 228.754 78.5267C228.701 78.6158 228.624 78.6848 228.525 78.7336C228.427 78.7824 228.314 78.8068 228.184 78.8068Z" fill="black"/>
<path d="M230.325 77.2952C230.325 77.3037 230.322 77.3112 230.315 77.3179C230.31 77.323 230.303 77.3255 230.295 77.3255H229.467C229.459 77.3255 229.454 77.3297 229.454 77.3381V77.7293C229.454 77.7377 229.459 77.7419 229.467 77.7419H230.01C230.018 77.7419 230.025 77.7452 230.03 77.752C230.036 77.757 230.04 77.7638 230.04 77.7722V78.0169C230.04 78.0253 230.036 78.0329 230.03 78.0396C230.025 78.0447 230.018 78.0472 230.01 78.0472H229.467C229.459 78.0472 229.454 78.0514 229.454 78.0598V78.4686C229.454 78.477 229.459 78.4812 229.467 78.4812H230.295C230.303 78.4812 230.31 78.4846 230.315 78.4913C230.322 78.4964 230.325 78.5031 230.325 78.5115V78.7563C230.325 78.7647 230.322 78.7723 230.315 78.779C230.31 78.7841 230.303 78.7866 230.295 78.7866H229.129C229.12 78.7866 229.113 78.7841 229.106 78.779C229.101 78.7723 229.099 78.7647 229.099 78.7563V77.0505C229.099 77.0421 229.101 77.0353 229.106 77.0303C229.113 77.0236 229.12 77.0202 229.129 77.0202H230.295C230.303 77.0202 230.31 77.0236 230.315 77.0303C230.322 77.0353 230.325 77.0421 230.325 77.0505V77.2952Z" fill="black"/>
<line x1="199" y1="106.75" x2="232" y2="106.75" stroke="#8C8C8C" stroke-width="0.5"/>
</svg>
