<svg width="66" height="66" viewBox="0 0 66 66" fill="none" xmlns="http://www.w3.org/2000/svg">
<path d="M33 0.5C26.5721 0.5 20.2886 2.40609 14.944 5.97724C9.59938 9.54838 5.43378 14.6242 2.97393 20.5628C0.514082 26.5014 -0.129527 33.0361 1.12449 39.3404C2.37851 45.6448 5.47384 51.4358 10.019 55.981C14.5643 60.5262 20.3552 63.6215 26.6596 64.8755C32.964 66.1295 39.4986 65.4859 45.4372 63.0261C51.3758 60.5662 56.4516 56.4006 60.0228 51.056C63.5939 45.7114 65.5 39.4279 65.5 33C65.4909 24.3833 62.0639 16.122 55.9709 10.0291C49.878 3.93612 41.6168 0.509099 33 0.5ZM30.5 18C30.5 17.337 30.7634 16.7011 31.2322 16.2322C31.7011 15.7634 32.337 15.5 33 15.5C33.6631 15.5 34.2989 15.7634 34.7678 16.2322C35.2366 16.7011 35.5 17.337 35.5 18V35.5C35.5 36.163 35.2366 36.7989 34.7678 37.2678C34.2989 37.7366 33.6631 38 33 38C32.337 38 31.7011 37.7366 31.2322 37.2678C30.7634 36.7989 30.5 36.163 30.5 35.5V18ZM33 50.5C32.2583 50.5 31.5333 50.2801 30.9166 49.868C30.2999 49.456 29.8193 48.8703 29.5355 48.1851C29.2516 47.4998 29.1774 46.7458 29.3221 46.0184C29.4668 45.291 29.8239 44.6228 30.3484 44.0984C30.8728 43.5739 31.541 43.2168 32.2684 43.0721C32.9959 42.9274 33.7499 43.0016 34.4351 43.2855C35.1203 43.5693 35.706 44.0499 36.118 44.6666C36.5301 45.2833 36.75 46.0083 36.75 46.75C36.75 47.7446 36.3549 48.6984 35.6517 49.4016C34.9484 50.1049 33.9946 50.5 33 50.5Z" fill="#E15343"/>
</svg>
