
<?xml version="1.0" encoding="UTF-8"?>
<svg width="240px" height="240px" viewBox="0 0 240 240" version="1.1" xmlns="http://www.w3.org/2000/svg" xmlns:xlink="http://www.w3.org/1999/xlink">
    <!-- Generator: Sketch 63.1 (92452) - https://sketch.com -->
    <title>Order Success</title>
    <desc>Created with Sketch.</desc>
    <g id="Symbols" stroke="none" stroke-width="1" fill="none" fill-rule="evenodd">
        <g id="Atoms/Artwork/Beep/Order-Success">
            <g id="Beep-Success">
                <g id="Order-Success" transform="translate(28.000000, 7.000000)">
                    <path d="M188.5362,87.8700976 C186.750964,89.5562688 185.315996,89.6896802 183.331145,89.8712679 C180.98096,90.0862084 178.028165,90.3530311 174.875755,93.3288454 C171.723344,96.3046597 171.312815,99.1878272 170.988912,101.485467 C170.717736,103.423638 170.52942,104.809633 168.725353,106.506922 C166.940117,108.193093 165.505149,108.326505 163.520298,108.508093 C161.170113,108.723033 158.217318,108.989856 155.064908,111.96567 C151.912497,114.941484 151.501968,117.824652 151.178065,120.122292 L156.556371,120.848643 C156.827546,118.910472 157.015862,117.524476 158.819929,115.827187 C160.605165,114.141016 162.040133,114.007605 164.024985,113.826017 C166.375169,113.611077 169.327964,113.344254 172.480375,110.36844 C175.632785,107.392625 176.043314,104.509458 176.367218,102.211818 C176.638393,100.273647 176.826709,98.8876517 178.630776,97.1903628 C180.416012,95.5041916 181.85098,95.3707802 183.835832,95.1891926 C186.186016,94.9742521 189.138811,94.7074293 192.291222,91.731615 C195.443632,88.7558007 195.854161,85.8726332 196.178065,83.5749932 L190.799759,82.8486425 C190.524817,84.786813 190.336501,86.1728087 188.5362,87.8700976 Z" id="Path" fill="#EEEFF6" fill-rule="nonzero"></path>
                    <path d="M153.37934,105.973333 L153.37934,194.151111 C153.376891,204.505328 145.00225,212.897778 134.672453,212.897778 L58.1067925,212.897778 C47.778727,212.895324 39.4067873,204.503593 39.4043396,194.151111 L39.4043396,31.84 C39.4043396,21.4865019 47.777713,13.0933328 58.1067925,13.0933328 L134.672453,13.0933328 C139.63342,13.0933328 144.391601,15.0667235 147.89995,18.5825333 C151.4083,22.098343 153.37934,26.8673047 153.37934,31.84 L153.37934,105.973333 Z" id="Path-2" fill="#EEEFF6" fill-rule="nonzero"></path>
                    <path d="M153.37934,53.6177778 L153.37934,194.151111 C153.376891,204.505328 145.00225,212.897778 134.672453,212.897778 L58.1067925,212.897778 C47.778727,212.895324 39.4067873,204.503593 39.4043396,194.151111 L39.4043396,31.84 C39.4043396,21.4865019 47.777713,13.0933328 58.1067925,13.0933328 L134.672453,13.0933328 C139.63342,13.0933328 144.391601,15.0667235 147.89995,18.5825333 C151.4083,22.098343 153.37934,26.8673047 153.37934,31.84 L153.37934,53.6177778" id="Path" stroke="#D3D9EB" stroke-width="4.53333333" stroke-linecap="round" stroke-linejoin="round"></path>
                    <path d="M143.044341,105.786667 L143.044341,188.040001 C143.045516,191.780143 141.564383,195.367566 138.926772,198.01308 C136.289161,200.658593 132.711133,202.146667 128.979812,202.146667 L63.068963,202.146667 C55.2988897,202.146667 49,195.832887 49,188.044445 L49,37.1022229 C48.9988241,33.3617196 50.4807076,29.7740789 53.119405,27.1291435 C55.7581023,24.4842081 59.3372816,23 63.068963,23 L70.7264158,23 C71.9354026,28.0448319 76.4356886,31.6021234 81.6117932,31.6044451 L109.745284,31.6044451 C114.921388,31.6021234 119.421674,28.0448319 120.630661,23 L128.979812,23 C132.710725,23 136.288765,24.4859079 138.926503,27.1307154 C141.564242,29.775523 143.045517,33.3624898 143.044341,37.1022229 L143.044341,105.786667 L143.044341,105.786667 Z" id="Path" fill="#FFFFFF" fill-rule="nonzero"></path>
                    <path d="M173.594839,149.71733 C173.594839,153.240271 176.43871,156.057602 179.994839,156.057602 C183.550968,156.057602 186.394839,153.240271 186.394839,149.71733 C186.394839,149.32362 186.353548,148.935023 186.28129,148.561765 C183.824516,147.989095 181.935484,146.035882 181.476129,143.556018 C180.996129,143.443529 180.500645,143.377059 179.989677,143.377059 C176.43871,143.377059 173.594839,146.194389 173.594839,149.71733 Z" id="Path" fill="#FFFFFF" fill-rule="nonzero"></path>
                    <path d="M186.286452,148.561765 C186.76129,148.674253 187.261935,148.735611 187.772903,148.735611 C191.329032,148.735611 194.172903,145.918281 194.172903,142.395339 C194.172903,138.918416 191.282581,136.055068 187.772903,136.055068 C184.216774,136.055068 181.372903,138.872398 181.372903,142.395339 C181.372903,142.794163 181.414194,143.177647 181.48129,143.556018 C181.940645,146.035882 183.829677,147.989095 186.286452,148.561765 Z" id="Path" fill="#D3D9EB" fill-rule="nonzero"></path>
                    <path d="M125.094194,12.7316742 C128.650323,12.7316742 131.494194,9.91434389 131.494194,6.39140271 C131.494194,2.91447964 128.603871,0.0511312217 125.094194,0.0511312217 C121.538065,0.0511312217 118.694187,2.86846154 118.694187,6.39140271 C118.689032,9.91434389 121.538065,12.7316742 125.094194,12.7316742 Z" id="Path" fill="#D3D9EB" fill-rule="nonzero"></path>
                    <path d="M100.108387,21.5824887 C102.952258,21.5824887 105.233548,19.3276018 105.233548,16.5051584 C105.233548,13.7236199 102.92129,11.4278281 100.108387,11.4278281 C97.2645161,11.4278281 94.9832258,13.6827149 94.9832258,16.5051584 C94.9832258,19.3276018 97.2593548,21.5824887 100.108387,21.5824887 Z" id="Path" fill="#FFFFFF" fill-rule="nonzero"></path>
                    <path d="M31.0554839,140.472805 C28.1393548,140.344977 26.0490323,140.258054 23.2825806,137.880452 C20.5367742,135.523303 20.1393548,133.462715 19.6025806,130.609593 C18.9677419,127.229819 18.1677419,122.991041 13.3109677,118.828959 C8.45419355,114.666878 4.11870968,114.462353 0.655483871,114.314072 L0.304516129,122.208733 C3.22064516,122.336561 5.31096774,122.423484 8.07741935,124.801086 C10.8232258,127.158235 11.2206452,129.218824 11.7574194,132.071946 C12.3922581,135.451719 13.1922581,139.695611 18.0490323,143.852579 C22.9006452,148.014661 27.2412903,148.219186 30.7045161,148.367466 C33.3470968,148.485068 35.3083871,148.571991 37.7135484,150.351357 L37.7135484,141.490317 C35.2567742,140.667104 33.0167742,140.559729 31.0554839,140.472805 Z" id="Path" fill="#D3D9EB" fill-rule="nonzero"></path>
                    <path d="M11.8967742,41.3293665 L15.7883871,41.3293665 L15.7883871,45.1846606 C15.7883871,46.3402262 16.7329032,47.2759276 17.8993548,47.2759276 C19.0658065,47.2759276 20.0103226,46.3402262 20.0103226,45.1846606 L20.0103226,41.3293665 L23.9380645,41.3293665 C25.1045161,41.3293665 26.0490323,40.3936652 26.0490323,39.2380995 C26.0490323,38.0825339 25.1045161,37.1468326 23.9380645,37.1468326 L20.0103226,37.1468326 L20.0103226,33.2557466 C20.0103226,32.100181 19.0658065,31.1644796 17.8993548,31.1644796 C16.7329032,31.1644796 15.7883871,32.100181 15.7883871,33.2557466 L15.7883871,37.1468326 L11.8967742,37.1468326 C10.7303226,37.1468326 9.78580645,38.0825339 9.78580645,39.2380995 C9.78580645,40.3936652 10.7303226,41.3293665 11.8967742,41.3293665 Z" id="Path" fill="#D3D9EB" fill-rule="nonzero"></path>
                    <g id="Food" transform="translate(68.000000, 117.000000)" fill-rule="nonzero">
                        <path d="M56,30.3333333 L51.6923077,30.3333333 L51.6923077,28.1666667 C51.6923077,15.756 42.2110769,5.54233333 30.1538462,4.44383333 L30.1538462,0 L25.8461538,0 L25.8461538,4.44383333 C13.7889231,5.54233333 4.30769231,15.756 4.30769231,28.1666667 L4.30769231,30.3333333 L0,30.3333333 L0,34.6666667 L56,34.6666667 L56,30.3333333 Z M8.88888889,28.0888889 C8.88888889,17.5032889 17.6628148,8.88888889 28.4444444,8.88888889 C39.2260741,8.88888889 48,17.5032889 48,28.0888889 L48,30.2222222 L8.88888889,30.2222222 L8.88888889,28.0888889 Z" id="Shape" fill="#D3D9EB"></path>
                        <path d="M15.1111111,20.9344096 L18.9178075,23.1111111 C20.8816318,19.7591646 24.5321898,17.6780469 28.4444444,17.6780469 L28.4444444,13.3333333 C22.9664083,13.3333333 17.8578262,16.2464637 15.1111111,20.9344096 Z" id="Path" fill="#EEEFF6"></path>
                    </g>
                    <path d="M81.0050346,61.0978224 C79.2718691,62.6430061 77.7690371,64.4369266 76.5456262,66.4192842 C74.2989301,70.0674252 73,74.356252 73,78.9541156 C73,89.8495449 80.2913782,99.0415033 90.2674638,101.947202 C91.9288861,102.429601 93.6658276,102.742407 95.4556325,102.855469 C95.965387,102.889388 96.4826935,102.912 97,102.912 C97.5173065,102.912 98.034613,102.889388 98.5443675,102.855469 C111.080554,102.060265 121,91.6660779 121,78.9541156 C121,65.7220672 110.253619,55 97,55 C92.7407174,55 88.7419761,56.1117785 85.2718691,58.0564487 C83.7350535,58.9157215 82.3039648,59.9370503 81.0050346,61.0978224 Z M107.803021,70.0674252 L107.803021,70.0674252 C109.075519,71.3374908 109.075519,73.3952232 107.803021,74.6652888 L98.2573946,84.1926651 L93.6507237,88.7905288 L89.0440529,84.1926651 L86.1969792,81.3510347 C84.9244808,80.0809691 84.9244808,78.0232367 86.1969792,76.7531711 L86.1969792,76.7531711 C87.4694777,75.4831055 89.5311517,75.4831055 90.8036501,76.7531711 L93.6507237,79.5948015 L103.19635,70.0674252 C104.465072,68.7973596 106.530522,68.7973596 107.803021,70.0674252 Z" id="Shape" fill="#8BEA81" fill-rule="nonzero"></path>
                    <path d="M181.651613,169.933846 L188.753548,175.133891 C186.472258,178.191538 183.602581,182.011041 176.743226,183.851765 C169.889032,185.692489 165.460645,183.800633 161.935484,182.287149 C158.962581,181.013982 156.805161,180.09362 152.923871,181.136697 C149.006452,182.179774 147.63871,184.030724 145.713548,186.602624 C144.366452,188.402443 142.807742,190.468145 140.350968,192.242398 C139.174194,193.091176 137.796129,193.873484 136.129032,194.522851 C135.380645,194.814299 134.575484,195.080181 133.703226,195.315385 C132.005161,195.770452 130.461935,195.99543 129.037419,196.056787 C124.712258,196.24086 121.548387,194.885882 118.895484,193.750769 C115.922581,192.477602 113.765161,191.55724 109.883871,192.600317 C105.966452,193.643394 104.59871,195.494344 102.673548,198.066244 L102.673548,198.066244 L95.5716129,192.866199 C97.8529032,189.808552 100.722581,185.98905 107.581935,184.148326 C114.436129,182.307602 118.864516,184.199457 122.389677,185.712941 C124.701935,186.699774 126.523871,187.471855 129.037419,187.277557 C129.76,187.221312 130.534194,187.093484 131.40129,186.858281 C133.589677,186.270271 134.983226,185.436833 136.123871,184.363077 C137.021935,183.519412 137.765161,182.527466 138.611613,181.392353 C139.143226,180.681629 139.710968,179.93 140.350968,179.168145 C142.456774,176.667828 145.367742,174.090814 150.627097,172.679593 C157.48129,170.838869 161.909677,172.730724 165.434839,174.244208 C168.407742,175.517376 170.565161,176.437738 174.446452,175.394661 C178.363871,174.346471 179.731613,172.500633 181.651613,169.933846 L181.651613,169.933846 Z M172.113548,39 C173.28,39 174.224516,39.9357014 174.224516,41.091267 L174.224516,41.091267 L174.224516,44.9823529 C178.250323,45.6061538 180.263226,46.3032428 180.263226,47.0736199 C180.263226,48.2291855 179.31871,49.1648869 178.152258,49.1648869 L178.152258,49.1648869 L174.224516,49.1648869 L174.224516,53.020181 C174.224516,54.1757466 173.28,55.111448 172.113548,55.111448 C170.947097,55.111448 170.002581,54.1757466 170.002581,53.020181 L170.002581,53.020181 L170.002581,49.1648869 L166.110968,49.1648869 C164.944516,49.1648869 164,48.2291855 164,47.0736199 C164,45.9180543 164.944516,44.9823529 166.110968,44.9823529 L166.110968,44.9823529 L170.002581,44.9823529 L170.002581,41.091267 C170.002581,39.9357014 170.947097,39 172.113548,39 Z" id="Path-3" fill="#D3D9EB" fill-rule="nonzero"></path>
                </g>
            </g>
        </g>
    </g>
</svg>