<?xml version="1.0" encoding="UTF-8"?>
<svg width="240px" height="240px" viewBox="0 0 240 240" version="1.1" xmlns="http://www.w3.org/2000/svg" xmlns:xlink="http://www.w3.org/1999/xlink">
    <!-- Generator: Sketch 63.1 (92452) - https://sketch.com -->
    <title>Order Cancelled</title>
    <desc>Created with Sketch.</desc>
    <g id="Symbols" stroke="none" stroke-width="1" fill="none" fill-rule="evenodd">
        <g id="Atoms/Artwork/Beep/Order-Cancelled">
            <g id="Order-Cancelled">
                <g id="Beep-delivery-order-cancelled" transform="translate(10.000000, 46.000000)">
                    <polygon id="Path" fill="#DEE1EE" fill-rule="nonzero" points="99.4142259 72.7196653 111.021506 72.7196653 113.221757 37.7405858 101.619937 37.7405858"></polygon>
                    <polygon id="Path" fill="#D3D9EB" fill-rule="nonzero" points="106.778243 72.7196653 110.95782 72.7196653 113.221757 37.7405858 109.04218 37.7405858"></polygon>
                    <polygon id="Path" fill="#DEE1EE" fill-rule="nonzero" points="161.087866 72.7196653 172.694276 72.7196653 174.895397 37.7405858 163.288988 37.7405858"></polygon>
                    <polygon id="Path" fill="#D3D9EB" fill-rule="nonzero" points="168.451883 72.7196653 172.63146 72.7196653 174.895397 37.7405858 170.721438 37.7405858"></polygon>
                    <polygon id="Path" fill="#DEE1EE" fill-rule="nonzero" points="39.58159 72.7196653 51.1888702 72.7196653 53.3891213 37.7405858 41.7873008 37.7405858"></polygon>
                    <polygon id="Path" fill="#D3D9EB" fill-rule="nonzero" points="46.9456067 72.7196653 51.1251838 72.7196653 53.3891213 37.7405858 49.215162 37.7405858"></polygon>
                    <line x1="211.715481" y1="52.0083682" x2="220" y2="52.0083682" id="Path" stroke="#D3D9EB" stroke-width="10.54" stroke-linecap="round" stroke-linejoin="round"></line>
                    <line x1="0" y1="52.0083682" x2="201.589958" y2="52.0083682" id="Path" stroke="#D3D9EB" stroke-width="10.54" stroke-linecap="round" stroke-linejoin="round"></line>
                    <rect id="Rectangle" fill="#D3D9EB" fill-rule="nonzero" x="16.5690377" y="62.5941423" width="51.5481172" height="84.6861925"></rect>
                    <rect id="Rectangle" fill="#D3D9EB" fill-rule="nonzero" x="138.995816" y="62.5941423" width="51.5481172" height="84.6861925"></rect>
                    <path d="M155.104779,100.334728 L155.104779,100.334728 C156.37563,100.334728 157.405858,99.3801876 157.405858,98.2027023 L157.405858,93.2617328 C157.405858,92.0842475 156.37563,91.1297071 155.104779,91.1297071 L155.104779,91.1297071 C153.833928,91.1297071 152.8037,92.0842475 152.8037,93.2617328 L152.8037,98.1653919 C152.792897,98.7372769 153.030554,99.2892006 153.463266,99.6971391 C153.895979,100.105078 154.487453,100.334728 155.104779,100.334728 L155.104779,100.334728 Z" id="Path" fill="#EAEDF4" fill-rule="nonzero"></path>
                    <path d="M174.455284,100.334396 C175.715111,100.334396 176.736402,99.3818205 176.736402,98.2067591 L176.736402,93.2759608 C176.736402,92.0906176 175.706174,91.1297071 174.435324,91.1297071 C173.164475,91.1297071 172.134247,92.0906176 172.134247,93.2759608 L172.134247,98.1695255 C172.123319,98.7467492 172.364345,99.3033347 172.802016,99.7115572 C173.239686,100.11978 173.836421,100.344589 174.455284,100.334396 L174.455284,100.334396 Z" id="Path" fill="#EAEDF4" fill-rule="nonzero"></path>
                    <path d="M158.242791,113.728401 C158.682224,114.060582 159.23316,114.201277 159.774397,114.119534 C160.315634,114.03779 160.802834,113.740304 161.128816,113.292522 L161.361647,112.966992 C162.282335,111.720915 163.724095,110.988049 165.254803,110.988049 C166.78551,110.988049 168.22727,111.720915 169.147958,112.966992 L169.391619,113.292522 C170.090984,114.16759 171.343653,114.323824 172.229492,113.646463 C173.115331,112.969102 173.318233,111.69986 172.689159,110.771043 L172.450913,110.445513 C170.752471,108.136974 168.086297,106.778243 165.254803,106.778243 C162.423308,106.778243 159.757134,108.136974 158.058692,110.445513 L157.815031,110.776561 C157.487036,111.225593 157.347808,111.789132 157.428054,112.34289 C157.508301,112.896647 157.80143,113.395131 158.242791,113.728401 L158.242791,113.728401 Z" id="Path" fill="#EAEDF4" fill-rule="nonzero"></path>
                    <rect id="Rectangle" fill="#D4D7EA" fill-rule="nonzero" x="77.3221757" y="61.6736402" width="51.5481172" height="68.1171548"></rect>
                    <polygon id="Path" fill="#FFFFFF" fill-rule="nonzero" points="44.1841004 72.7196653 32.5822799 72.7196653 30.376569 37.7405858 41.9783896 37.7405858"></polygon>
                    <polygon id="Path" fill="#D3D9EB" fill-rule="nonzero" points="47.8661088 72.7196653 43.6901725 72.7196653 41.4225941 37.7405858 45.5985305 37.7405858"></polygon>
                    <polygon id="Path" fill="#FFFFFF" fill-rule="nonzero" points="104.016736 72.7196653 92.4094562 72.7196653 90.209205 37.7405858 101.811026 37.7405858"></polygon>
                    <polygon id="Path" fill="#D3D9EB" fill-rule="nonzero" points="107.698745 72.7196653 103.522808 72.7196653 101.25523 37.7405858 105.431166 37.7405858"></polygon>
                    <polygon id="Path" fill="#FFFFFF" fill-rule="nonzero" points="166.610879 72.7196653 155.009058 72.7196653 152.803347 37.7405858 164.405168 37.7405858"></polygon>
                    <polygon id="Path" fill="#D3D9EB" fill-rule="nonzero" points="170.292887 72.7196653 166.116951 72.7196653 163.849372 37.7405858 168.025309 37.7405858"></polygon>
                    <circle id="Oval" fill="#FF6666" fill-rule="nonzero" cx="164.769874" cy="25.7740586" r="25.7740586"></circle>
                    <path d="M173.976558,30.5445352 L169.20349,25.7766498 L173.976558,21.0035819 C174.76901,20.21113 175.078497,19.0561061 174.78844,17.9735966 C174.498382,16.891087 173.652846,16.0455508 172.570336,15.7554933 C171.487827,15.4654358 170.332803,15.7749235 169.540351,16.5673755 L164.772466,21.3404434 L159.999398,16.5673755 C159.206946,15.7749236 158.051922,15.4654359 156.969412,15.7554934 C155.886903,16.045551 155.041367,16.8910871 154.751309,17.9735966 C154.461252,19.0561061 154.770739,20.21113 155.563191,21.0035819 L160.336259,25.7766498 L155.563191,30.5445352 C154.770739,31.3369872 154.461252,32.492011 154.751309,33.5745205 C155.041367,34.65703 155.886903,35.5025662 156.969412,35.7926237 C158.051922,36.0826813 159.206946,35.7731936 159.999398,34.9807416 L164.772466,30.2076737 L169.540351,34.9807416 C170.332803,35.7731936 171.487827,36.0826814 172.570336,35.7926238 C173.652846,35.5025663 174.498382,34.6570301 174.78844,33.5745206 C175.078497,32.4920111 174.76901,31.3369872 173.976558,30.5445352 Z" id="Path" fill="#FFFFFF" fill-rule="nonzero"></path>
                    <path d="M31.7574986,100.334728 L31.7574986,100.334728 C33.0283493,100.334728 34.0585774,99.3801876 34.0585774,98.2027023 L34.0585774,93.2617328 C34.0585774,92.0842475 33.0283493,91.1297071 31.7574986,91.1297071 L31.7574986,91.1297071 C30.4866479,91.1297071 29.4564198,92.0842475 29.4564198,93.2617328 L29.4564198,98.1653919 C29.4456166,98.7372769 29.6832734,99.2892006 30.1159858,99.6971391 C30.5486983,100.105078 31.140173,100.334728 31.7574986,100.334728 L31.7574986,100.334728 Z" id="Path" fill="#EAEDF4" fill-rule="nonzero"></path>
                    <path d="M51.1108278,100.334295 C52.3690946,100.334295 53.3891213,99.3820054 53.3891213,98.2072963 L53.3891213,93.2779761 C53.3891213,92.0915199 52.3588943,91.1297071 51.0880449,91.1297071 C49.8171954,91.1297071 48.7869684,92.0915199 48.7869684,93.2779761 L48.7869684,98.1700738 C48.7760066,98.7480649 49.0175079,99.3053245 49.455886,99.7135881 C49.894264,100.121852 50.4917527,100.345948 51.1108278,100.334295 L51.1108278,100.334295 Z" id="Path" fill="#EAEDF4" fill-rule="nonzero"></path>
                    <path d="M34.8930074,113.728401 C35.3311256,114.060582 35.8804144,114.201277 36.4200325,114.119534 C36.9596505,114.03779 37.4453936,113.740304 37.7704001,113.292522 L38.0025349,112.966992 C38.9204691,111.720915 40.3579165,110.988049 41.8840459,110.988049 C43.4101752,110.988049 44.8476226,111.720915 45.7655568,112.966992 L46.0030901,113.292522 C46.6843631,114.22192 47.9738241,114.410894 48.8831819,113.714607 C49.7925397,113.01832 49.977439,111.700442 49.2961661,110.771043 L49.0532343,110.445513 C47.3598722,108.136974 44.7016729,106.778243 41.8786474,106.778243 C39.0556218,106.778243 36.3974225,108.136974 34.7040605,110.445513 L34.4665271,110.776561 C34.1395128,111.225593 34.0007012,111.789132 34.0807078,112.34289 C34.1607143,112.896647 34.4529666,113.395131 34.8930074,113.728401 L34.8930074,113.728401 Z" id="Path" fill="#EAEDF4" fill-rule="nonzero"></path>
                    <path d="M91.5901346,100.334728 L91.5901346,100.334728 C92.8609853,100.334728 93.8912134,99.3801876 93.8912134,98.2027023 L93.8912134,93.2617328 C93.8912134,92.0842475 92.8609853,91.1297071 91.5901346,91.1297071 L91.5901346,91.1297071 C90.3192839,91.1297071 89.2890558,92.0842475 89.2890558,93.2617328 L89.2890558,98.1653919 C89.2782526,98.7372769 89.5159094,99.2892006 89.9486218,99.6971391 C90.3813343,100.105078 90.972809,100.334728 91.5901346,100.334728 L91.5901346,100.334728 Z" id="Path" fill="#EAEDF4" fill-rule="nonzero"></path>
                    <path d="M110.022962,100.334295 C111.281228,100.334295 112.301255,99.3820054 112.301255,98.2072963 L112.301255,93.2779762 C112.301255,92.5104736 111.862673,91.8012719 111.150717,91.4175206 C110.438761,91.0337693 109.561596,91.0337693 108.84964,91.4175206 C108.137685,91.8012719 107.699102,92.5104736 107.699102,93.2779762 L107.699102,98.1700739 C107.68814,98.7480649 107.929642,99.3053246 108.36802,99.7135882 C108.806398,100.121852 109.403887,100.345948 110.022962,100.334295 L110.022962,100.334295 Z" id="Path" fill="#EAEDF4" fill-rule="nonzero"></path>
                    <path d="M94.7205182,113.728121 C95.0764784,113.996015 95.5069409,114.141089 95.9492995,114.142259 C96.60289,114.14492 97.2184076,113.828941 97.6057184,113.291913 L97.8438962,112.966138 C98.7644964,111.721277 100.204544,110.989366 101.733233,110.989366 C103.261921,110.989366 104.701969,111.721277 105.622569,112.966138 L105.86616,113.291913 C106.561087,114.1788 107.820554,114.34322 108.712048,113.663436 C109.603542,112.983652 109.805403,111.704936 109.168171,110.774055 L108.929994,110.448279 C107.232037,108.137999 104.566625,106.778243 101.735939,106.778243 C98.9052536,106.778243 96.2398416,108.137999 94.5418848,110.448279 L94.303707,110.779576 C93.9749518,111.226698 93.8341353,111.788885 93.9123342,112.342067 C93.990533,112.895249 94.2813187,113.393954 94.7205182,113.728121 Z" id="Path" fill="#EAEDF4" fill-rule="nonzero"></path>
                </g>
            </g>
        </g>
    </g>
</svg>