<svg xmlns="http://www.w3.org/2000/svg" width="84" height="64"><path d="M35.134.747a.42.42 0 0 1-.057-.593c.09-.105.22-.16.35-.154 2.58.138 4.987 1.006 7.222 2.232 2.216 1.254 4.256 2.93 5.858 5.015 1.62 2.06 2.784 4.532 3.268 7.107.5 2.57.306 5.225-.622 7.582-.062.154-.235.232-.392.17-.087-.035-.152-.105-.176-.19l-.003-.008-2.365-6.457c-.923-1.955-2.03-3.734-3.33-5.41-1.293-1.682-2.806-3.235-4.44-4.75L35.16.766l-.027-.02zM31.84 8.895l3.493 3.11 2.944 2.882c.904.965 1.675 1.984 2.432 3.114.823 1.12 1.407 2.408 2.357 3.896l.024.038a.41.41 0 0 0 .195.162.42.42 0 0 0 .552-.226c.685-1.634.882-3.516.414-5.3l-.157-.674c-.07-.218-.165-.426-.246-.642l-.57-1.265-.752-1.165c-.268-.377-.584-.71-.9-1.052-1.26-1.33-2.8-2.335-4.445-2.958-1.656-.6-3.4-.9-5.2-.564a.35.35 0 0 0-.192.105c-.133.143-.124.364.016.5l.027.027zM83.812 36.5c-.22 1.612-1.063 4.295-1.66 6.002s-1.707 4.624-2.633 6.045c-.74 1.138-1.583 2.108-2.524 2.915-1.126.96-2.478 1.645-3.945 1.852-1.26.18-2.39.008-3.38-.507-.74-.383-1.39-.882-1.962-1.496l-1.986 5.613-1.604 5.007c-.19.537-.7.98-1.537 1.324s-1.62.518-2.35.518c-.5 0-.923-.086-1.264-.26s-.484-.47-.428-.892c.016-.116.05-.2.097-.288l1.237-3.57 1.89-5.613.395-1.197c2.74-3.35 4.224-7.096 4.697-8.42l-1.226 2.02a22.36 22.36 0 0 1-2.338 3.082l-.05.065-.51.54c-1.074 1.095-2.262 1.976-3.566 2.648s-2.727 1.008-4.267 1.008c-1.272 0-2.32-.22-3.144-.663s-1.475-1.046-1.948-1.815-.763-1.688-.866-2.764l-.05-.77c-.617.84-1.274 1.63-1.986 2.354-1.074 1.095-2.262 1.976-3.566 2.648S40.6 52.89 39.07 52.89c-1.272 0-2.32-.22-3.144-.663s-1.475-1.046-1.948-1.815-.763-1.688-.866-2.764-.073-2.224.095-3.454c.235-1.726.717-3.502 1.448-5.325s1.607-3.462 2.633-4.92 2.162-2.658 3.406-3.597 2.522-1.4 3.83-1.4a7.77 7.77 0 0 1 2.181.315 5.82 5.82 0 0 1 1.945.979c.576.442 1.02 1 1.337 1.642s.414 1.42.292 2.303c-.203 1.496-.714 2.772-1.53 3.83a11.29 11.29 0 0 1-2.903 2.648c-1.117.712-2.33 1.256-3.63 1.642s-2.538.615-3.704.7c-.22 1.612.022 2.955.722 4.03s1.745 1.612 3.13 1.612c.77 0 1.466-.162 2.09-.488s1.24-.825 1.85-1.496 1.234-1.504 1.872-2.505l1.272-2.046c.26-1.057.595-2.13 1.034-3.22.728-1.823 1.607-3.462 2.633-4.92s2.162-2.658 3.406-3.597 2.522-1.4 3.83-1.4a7.77 7.77 0 0 1 2.181.315 5.82 5.82 0 0 1 1.945.979c.576.442 1.02 1 1.337 1.642s.414 1.42.292 2.303c-.203 1.496-.714 2.772-1.53 3.83a11.29 11.29 0 0 1-2.903 2.648c-1.117.712-2.33 1.256-3.63 1.642s-2.538.615-3.704.7c-.22 1.612.022 2.955.722 4.03s1.745 1.612 3.13 1.612c.77 0 1.466-.162 2.09-.488s1.24-.825 1.85-1.496S63.363 45.15 64 44.15l.88-1.405c.533-.868.97-1.793 1.3-2.756l1.872-5.454 1.613-4.362c.065-.19.227-.334.492-.43a2.52 2.52 0 0 1 .858-.143c.655 0 1.304.173 1.95.518s.925.844.836 1.496l-.06.43a2.15 2.15 0 0 1-.124.488c.41-.46.885-.91 1.426-1.353a12.57 12.57 0 0 1 1.783-1.208c.647-.364 1.304-.663 1.97-.892a6.06 6.06 0 0 1 1.983-.345c.346 0 .722.057 1.13.173.96.307 1.583 1.17 1.872 2.59.273 1.416.3 3.084.027 5zM55 40.516a6.09 6.09 0 0 0 2.765-1.008c.828-.555 1.55-1.2 2.17-1.928s1.117-1.486 1.494-2.273.603-1.467.682-2.044c.057-.42.027-.777-.087-1.065a.63.63 0 0 0-.633-.431c-.58 0-1.185.278-1.818.836s-1.242 1.267-1.82 2.13a22.16 22.16 0 0 0-1.596 2.82c-.487 1.016-.87 2.003-1.155 2.963zm-15.828 0a6.09 6.09 0 0 0 2.765-1.008c.828-.555 1.55-1.2 2.17-1.928s1.117-1.486 1.494-2.273.603-1.467.682-2.044c.057-.42.027-.777-.087-1.065a.63.63 0 0 0-.633-.431c-.58 0-1.185.278-1.818.836s-1.242 1.267-1.82 2.13a22.16 22.16 0 0 0-1.596 2.82c-.487 1.016-.87 2.003-1.155 2.963zm38.702-7.99c-.5 0-1.03.278-1.586.836s-1.107 1.267-1.648 2.13-1.502 2.836-2.008 3.872l-1.364 3.022c-.403.98-1.1 3.214-1.372 4l-.598 1.64c.3.423.676.768 1.158 1.035s.993.402 1.534.402c.268 0 .565-.057.9-.173.482-.154 1.02-.634 1.6-1.44s1.153-1.755 1.688-2.85 1.347-3.616 1.748-4.864l1.24-4.39c.292-2.146-.138-3.222-1.293-3.222zm-45.672 4.94c.522 1.04.782 2.176.782 3.41s-.35 2.502-1.044 3.802c-.87 1.647-2.02 3.066-3.455 4.257s-3.076 2.154-4.924 2.9-3.858 1.213-6.03 1.43-4.435.15-6.78-.194c-1.74-.26-3.022-.8-3.848-1.59s-1.347-1.712-1.564-2.73-.227-2.08-.032-3.184l.436-1.914c.05-.005 2.335-.262 3.77-.98-.306 0-.63-.043-.98-.13-.652-.086-1.39-.28-2.216-.585-2.652-1.084-4.5-2.76-5.54-5.036s-1.044-4.86 0-7.765c.955-2.556 2.335-4.732 4.14-6.53s3.87-3.238 6.196-4.322 4.835-1.81 7.533-2.176 5.4-.4 8.085-.097c2.35.26 4.28.8 5.804 1.626s2.673 1.788 3.455 2.893 1.218 2.286 1.304 3.54a7.11 7.11 0 0 1-.717 3.64c-.565 1.213-1.37 2.176-2.413 2.9s-2.1 1.267-3.195 1.658c-1.26.477-2.587.803-3.977.976a8.64 8.64 0 0 1 3.033 1.558 7.82 7.82 0 0 1 2.184 2.661zm-5.35-.423c-.565-1.537-1.76-2.675-3.585-3.41 0 0-2.1-.566-2.603-1.48s1.53-.526 3.788-.984l1.49-.46a13.76 13.76 0 0 0 1.989-.844 8.5 8.5 0 0 0 1.891-1.332c.587-.542 1.053-1.18 1.402-1.917.652-1.43.825-2.63.522-3.608a4.87 4.87 0 0 0-1.632-2.405c-.782-.628-1.696-1.084-2.738-1.364s-1.978-.466-2.803-.553h-.327c-2.305-.216-4.348-.022-6.13.585s-3.174 1.192-4.172 1.755L12.4 22.13l-.98.844c-1.174 1.127-2.108 2.187-2.803 3.184S7.38 28.087 7.01 28.952 6.413 30.6 6.326 31.3s-.108 1.3-.065 1.82c.043 1.256.522 2.362 1.434 3.314l2.35-4.613 2.446-4.125.122-.194a10.53 10.53 0 0 1 2.032-2.346c1.618-1.394 4.275-3.173 7.143-3.01l.666.178c.173.043.327.154.457.326.087.13.12.29.097.488s-.14.445-.36.747l-1.956 2.63-1.778 2.543-3 4.613-3 5.1c.46.065 1.04.105 1.737.12h.014l.695.008c.043 0 .087-.008.13-.008h2.492c.57 0 1 .545.828 1.09l-.027.086c-.173.564-.522 1.084-1.044 1.558s-1.26.868-2.216 1.17-2.24.39-3.848.26l-1.142 2.405c-.37.868-.565 1.7-.587 2.502s.184 1.494.62 2.08 1.24.944 2.413 1.073c1.696.13 3.304-.097 4.824-.682s2.868-1.353 4.042-2.308 2.162-1.96 2.968-3.022 1.358-1.982 1.66-2.76c.825-1.984.955-3.75.4-5.3zM53.067 60.7a1.4 1.4 0 0 1 .076.448c0 .493-.165.874-.495 1.14s-.806.4-1.426.4c-.195 0-.444-.003-.747-.008l-1.093-.024-.054-.046v-5.2l.054-.046 1.042-.024.682-.008c.57 0 1.012.12 1.323.36s.465.585.465 1.04c0 .237-.065.453-.198.65a1.12 1.12 0 0 1-.528.426 1.42 1.42 0 0 1 .379.189c.122.086.225.19.314.3a1.53 1.53 0 0 1 .206.396zm-2.698-1.208h.685c.525 0 .787-.237.787-.712 0-.197-.038-.342-.114-.44s-.18-.164-.32-.202a1.8 1.8 0 0 0-.476-.051 7.99 7.99 0 0 1-.563-.011v1.416zm1.7 1.602a.94.94 0 0 0-.054-.313c-.038-.1-.092-.19-.165-.267s-.17-.14-.3-.186-.26-.07-.422-.07h-.774v1.685l.34-.003.38-.003a3.21 3.21 0 0 0 .368-.035c.12-.02.225-.06.317-.127a.75.75 0 0 0 .222-.262c.05-.11.078-.25.078-.42zm-5.05-3.726v3.386c0 .785-.333 1.176-1 1.176-.66 0-.993-.39-.993-1.176v-2.766c0-.232-.05-.402-.152-.507s-.257-.16-.468-.16h-.398l-.05.054v3.37c0 .644.18 1.14.538 1.488s.866.523 1.515.523c.657 0 1.163-.175 1.523-.523s.538-.844.538-1.488v-3.378c-.15-.027-.325-.038-.53-.038s-.38.013-.525.038zm-5.403.396v.528a.5.5 0 0 1-.198.383l-.71.585.71.582c.116.09.195.226.198.383v2.036c0 .318.284.5.676.5h.395v-5.495h-.395c-.392 0-.676.18-.676.5zm-23.7 1.928l-.9-.377c-.36-.15-.54-.34-.54-.57a.51.51 0 0 1 .195-.404c.13-.11.317-.164.56-.164.382 0 .83.12 1.342.353.225-.205.344-.46.36-.768-.538-.278-1.088-.415-1.648-.415-.276 0-.525.038-.752.113s-.422.18-.587.313-.292.294-.382.48-.133.39-.133.617c0 .297.09.558.268.787s.446.415.8.56l.9.377c.382.167.576.394.587.685a.52.52 0 0 1-.214.426c-.143.113-.336.17-.58.17-.503 0-1.017-.167-1.542-.5-.103.086-.192.2-.27.342s-.127.286-.14.426c.574.372 1.188.558 1.84.558.336 0 .628-.04.874-.116s.452-.186.617-.324a1.29 1.29 0 0 0 .371-.499c.08-.194.122-.404.122-.628 0-.32-.1-.607-.298-.852s-.482-.442-.85-.593zm9.976-.793c.1.334.15.712.15 1.135s-.05.798-.15 1.13-.244.612-.43.84a1.85 1.85 0 0 1-.69.523c-.273.12-.582.18-.928.18-.555 0-1.02-.154-1.396-.46-.544-.46-.817-1.2-.817-2.216 0-.426.05-.806.15-1.138s.244-.612.436-.84.422-.404.695-.523.584-.18.936-.18c.346 0 .655.06.928.18a1.86 1.86 0 0 1 .69.523 2.47 2.47 0 0 1 .428.847zm-.928 1.132c0-1.262-.376-1.893-1.128-1.893s-1.128.63-1.128 1.893c0 1.256.376 1.885 1.128 1.885s1.128-.628 1.128-1.885zm5.498 1.78c.046.127.235.49.317.55-.065.092-.12.164-.244.218s-.265.084-.422.084c-.152 0-.273-.046-.363-.135s-.173-.243-.25-.46l-.322-.898c-.068-.175-.152-.3-.254-.404s-.257-.14-.46-.14h-.552V62.6l-.235.027a3.07 3.07 0 0 1-.281.011c-.19 0-.354-.013-.495-.038v-5.11l.054-.046 1.05-.022.774-.008c.55 0 .985.135 1.3.407s.484.666.484 1.184a1.5 1.5 0 0 1-.073.472c-.05.148-.116.28-.203.4a1.56 1.56 0 0 1-.3.31c-.114.09-.24.154-.38.2.133.046.244.124.333.235a1.52 1.52 0 0 1 .233.429l.28.76zm-.904-2.804c0-.542-.273-.814-.817-.814h-.41c-.114 0-.298-.003-.38-.008v1.658l.787-.022c.544 0 .817-.272.817-.814zm-11.95-1.553a2.24 2.24 0 0 0-.038.423 2.24 2.24 0 0 0 .038.423h.847l.465-.008-.008.558v3.753c.15.024.32.038.514.038a3.18 3.18 0 0 0 .514-.038V58.85l-.008-.558.465.008h.36c.192 0 .333-.035.42-.105s.13-.18.13-.33-.02-.286-.054-.4H19.62v-.003zm15.174 2.963h1.786c.04-.116.062-.253.062-.415s-.022-.3-.062-.415l-1.786.008-.008-1.297h2.184c.057-.156.084-.305.084-.448a2.14 2.14 0 0 0-.038-.404h-3.182l-.054.054v4.508a.61.61 0 0 0 .157.442c.106.108.25.162.43.162h2.146c.382 0 .6-.162.657-.483.016-.086.022-.208.022-.37l-2.403.016.005-1.36zm4.537-.925v-1.655c0-.3-.273-.488-.657-.488h-.382v5.36h.382c.382 0 .657-.178.657-.488v-.84a.5.5 0 0 1 .192-.375l.687-.572-.687-.57a.49.49 0 0 1-.192-.372zm-29.698.442c.046.218.07.458.07.717 0 .264-.024.507-.073.733s-.122.42-.214.588-.21.3-.35.394a.81.81 0 0 1-.468.14c-.222 0-.392-.06-.51-.175s-.2-.26-.254-.43h-.014v.488h-.74v-5.06h.76v2.076h.014a.78.78 0 0 1 .268-.388.74.74 0 0 1 .476-.154.84.84 0 0 1 .476.135c.138.09.254.213.35.372.09.156.16.345.206.564zm-.687.752c0-.162-.01-.313-.032-.456a1.61 1.61 0 0 0-.1-.372.72.72 0 0 0-.17-.248.38.38 0 0 0-.252-.092.37.37 0 0 0-.249.092c-.07.06-.13.143-.18.248a1.6 1.6 0 0 0-.108.372 2.7 2.7 0 0 0-.038.456c0 .162.014.313.038.453a1.49 1.49 0 0 0 .108.369.7.7 0 0 0 .179.248.38.38 0 0 0 .249.089c.097 0 .184-.03.252-.09s.127-.143.17-.248.078-.226.1-.37a3.43 3.43 0 0 0 .032-.453zm2.514.87h-.02l-.598-2.572h-.8l1 3.497-.1.42c-.032.13-.078.232-.14.305s-.154.11-.276.11c-.05 0-.1-.005-.152-.016a.85.85 0 0 1-.13-.038l-.095.677a1.04 1.04 0 0 0 .206.043c.084.01.168.016.26.016a1.07 1.07 0 0 0 .433-.081.9.9 0 0 0 .319-.229c.09-.1.165-.218.225-.36a3.21 3.21 0 0 0 .157-.464l1.028-3.885h-.774l-.544 2.575z" fill="#ff9419" fill-rule="evenodd"/></svg>