<?xml version="1.0" encoding="UTF-8"?>
<svg width="54px" height="54px" viewBox="0 0 54 54" version="1.1" xmlns="http://www.w3.org/2000/svg" xmlns:xlink="http://www.w3.org/1999/xlink">
    <title>App Store Copy</title>
    <g id="Beep-Delivery-2.0" stroke="none" stroke-width="1" fill="none" fill-rule="evenodd">
        <g id="App-Store-Copy">
            <rect id="Background" fill="#000000" x="0" y="0" width="54" height="54" rx="12"></rect>
            <g id="Logo" transform="translate(16.354722, 5.060048)" fill="#FFFFFF" fill-rule="nonzero">
                <g id="_Group_3">
                    <path d="M17.9250363,13.9467312 C17.9508935,11.907248 19.0193083,10.0230483 20.7562228,8.95380145 C19.6547105,7.3818625 17.8770373,6.4206787 15.9585472,6.35970944 C13.9397579,6.15050847 11.9837288,7.56958838 10.9551574,7.56958838 C9.92658596,7.56958838 8.32271186,6.38062954 6.62469734,6.41549637 C4.38064055,6.48882427 2.33965175,7.7343304 1.24823245,9.69646489 C-1.07738499,13.7235835 0.658983051,19.6404843 2.88348668,22.8935593 C3.99922518,24.4869734 5.30324455,26.2651816 7.00474576,26.2024213 C8.70624697,26.139661 9.29549637,25.1389831 11.310799,25.1389831 C13.3261017,25.1389831 13.8874576,26.2024213 15.6273123,26.1640678 C17.3671671,26.1257143 18.5421792,24.5636804 19.6195642,22.9528329 C20.4195691,21.8177896 21.0350176,20.5633574 21.4430993,19.2360291 C19.3138412,18.3403561 17.9279429,16.2567013 17.9250363,13.9467312 L17.9250363,13.9467312 Z" id="_Path_"></path>
                    <path d="M14.6440678,4.22237288 C15.6172279,3.05473939 16.0974524,1.55403774 15.982954,0.0383535109 C14.4927685,0.195560915 13.1162163,0.907484805 12.1266828,2.03273608 C11.1512023,3.14440471 10.6570772,4.59793504 10.7529298,6.07380145 C12.2652961,6.08616473 13.69966,5.40368512 14.6440678,4.22237288 Z" id="_Path_2"></path>
                </g>
            </g>
            <g id="Content" transform="translate(7.032308, 36.100000)" fill="#FFFFFF" fill-rule="nonzero">
                <path d="M6.60782218,3.26530612 L6.84299437,2.58968431 L7.96703774,2.58968431 L8.20420292,3.26530612 L8.73035087,3.26530612 L7.63221631,0.363520408 L7.17980878,0.363520408 L6.0836672,3.26530612 L6.60782218,3.26530612 Z M7.82553582,2.18311543 L6.98449628,2.18311543 L7.40501605,0.979352679 L7.82553582,2.18311543 Z M9.98194526,3.26530612 L10.7293145,1.10889668 L10.2290754,1.10889668 L9.77268187,2.65146684 L9.31030942,1.10889668 L8.80807728,1.10889668 L9.56142549,3.26530612 L9.98194526,3.26530612 Z M11.6979051,3.30516582 C11.9211194,3.30516582 12.1097886,3.2247821 12.2639127,3.06401467 C12.2798566,3.15702062 12.2984578,3.22411777 12.3197163,3.26530612 L12.3197163,3.26530612 L12.8139765,3.26530612 L12.8139765,3.23142538 C12.7595016,3.11583227 12.7322641,2.96104379 12.7322641,2.76705995 L12.7322641,2.76705995 L12.7322641,1.79448342 C12.7282782,1.56462585 12.6512161,1.38625372 12.5010779,1.25936703 C12.3509397,1.13248034 12.1496483,1.06903699 11.8972036,1.06903699 C11.7311215,1.06903699 11.5806512,1.09826743 11.4457925,1.15672832 C11.3109339,1.2151892 11.2043092,1.29590508 11.1259185,1.39887596 C11.0475277,1.50184683 11.0083324,1.61245748 11.0083324,1.73070791 L11.0083324,1.73070791 L11.4926277,1.73070791 C11.4926277,1.64567389 11.5278371,1.57558727 11.5982558,1.52044802 C11.6686746,1.46530878 11.7590233,1.43773916 11.8693018,1.43773916 C11.9968528,1.43773916 12.0918517,1.47128773 12.1542986,1.53838489 C12.2167454,1.60548204 12.2479689,1.69483418 12.2479689,1.80644133 L12.2479689,1.80644133 L12.2479689,1.94794324 L11.9510141,1.94794324 C11.6334652,1.94794324 11.3893246,2.0093936 11.2185923,2.13229432 C11.0478599,2.25519505 10.9624937,2.43157419 10.9624937,2.66143176 C10.9624937,2.8434577 11.0309195,2.99625319 11.1677712,3.11981824 C11.3046228,3.24338329 11.4813341,3.30516582 11.6979051,3.30516582 Z M11.7875894,2.9165338 C11.6839542,2.9165338 11.6012453,2.88896418 11.5394628,2.83382494 C11.4776803,2.77868569 11.446789,2.7046131 11.446789,2.61160714 C11.446789,2.49734269 11.4919633,2.40898703 11.582312,2.34654018 C11.6726606,2.28409332 11.8075192,2.2528699 11.9868879,2.2528699 L11.9868879,2.2528699 L12.2479689,2.2528699 L12.2479689,2.65943878 C12.2054519,2.73782951 12.1420085,2.80027636 12.0576388,2.84677934 C11.9732691,2.89328231 11.8832527,2.9165338 11.7875894,2.9165338 Z M13.5135141,0.803970026 C13.6012055,0.803970026 13.6689669,0.779722045 13.7167986,0.731226084 C13.7646302,0.682730123 13.788546,0.62194409 13.788546,0.548867985 C13.788546,0.474463223 13.7646302,0.412680697 13.7167986,0.363520408 C13.6689669,0.314360119 13.6012055,0.289779974 13.5135141,0.289779974 C13.4258228,0.289779974 13.3583935,0.314360119 13.3112262,0.363520408 C13.2640589,0.412680697 13.2404752,0.474463223 13.2404752,0.548867985 C13.2404752,0.62194409 13.2640589,0.682730123 13.3112262,0.731226084 C13.3583935,0.779722045 13.4258228,0.803970026 13.5135141,0.803970026 Z M13.7546653,3.26530612 L13.7546653,1.10889668 L13.27037,1.10889668 L13.27037,3.26530612 L13.7546653,3.26530612 Z M14.7969963,3.26530612 L14.7969963,0.204081633 L14.312701,0.204081633 L14.312701,3.26530612 L14.7969963,3.26530612 Z M15.9907941,3.30516582 C16.2140084,3.30516582 16.4026776,3.2247821 16.5568018,3.06401467 C16.5727456,3.15702062 16.5913468,3.22411777 16.6126053,3.26530612 L16.6126053,3.26530612 L17.1068655,3.26530612 L17.1068655,3.23142538 C17.0523906,3.11583227 17.0251532,2.96104379 17.0251532,2.76705995 L17.0251532,2.76705995 L17.0251532,1.79448342 C17.0211672,1.56462585 16.9441051,1.38625372 16.7939669,1.25936703 C16.6438288,1.13248034 16.4425373,1.06903699 16.1900926,1.06903699 C16.0240105,1.06903699 15.8735402,1.09826743 15.7386816,1.15672832 C15.6038229,1.2151892 15.4971982,1.29590508 15.4188075,1.39887596 C15.3404168,1.50184683 15.3012214,1.61245748 15.3012214,1.73070791 L15.3012214,1.73070791 L15.7855167,1.73070791 C15.7855167,1.64567389 15.8207261,1.57558727 15.8911449,1.52044802 C15.9615637,1.46530878 16.0519123,1.43773916 16.1621908,1.43773916 C16.2897418,1.43773916 16.3847408,1.47128773 16.4471876,1.53838489 C16.5096345,1.60548204 16.5408579,1.69483418 16.5408579,1.80644133 L16.5408579,1.80644133 L16.5408579,1.94794324 L16.2439032,1.94794324 C15.9263543,1.94794324 15.6822137,2.0093936 15.5114813,2.13229432 C15.3407489,2.25519505 15.2553828,2.43157419 15.2553828,2.66143176 C15.2553828,2.8434577 15.3238086,2.99625319 15.4606602,3.11981824 C15.5975118,3.24338329 15.7742231,3.30516582 15.9907941,3.30516582 Z M16.0804784,2.9165338 C15.9768432,2.9165338 15.8941344,2.88896418 15.8323518,2.83382494 C15.7705693,2.77868569 15.739678,2.7046131 15.739678,2.61160714 C15.739678,2.49734269 15.7848524,2.40898703 15.875201,2.34654018 C15.9655496,2.28409332 16.1004083,2.2528699 16.2797769,2.2528699 L16.2797769,2.2528699 L16.5408579,2.2528699 L16.5408579,2.65943878 C16.4983409,2.73782951 16.4348975,2.80027636 16.3505279,2.84677934 C16.2661582,2.89328231 16.1761417,2.9165338 16.0804784,2.9165338 Z M18.5836672,3.30516582 C18.8454125,3.30516582 19.0510221,3.20618091 19.200496,3.0082111 C19.3499698,2.81024128 19.4247067,2.54384566 19.4247067,2.20902423 L19.4247067,2.20902423 L19.4247067,2.18112245 C19.4247067,1.83035714 19.3496377,1.55731824 19.1994995,1.36200574 C19.0493613,1.16669324 18.8427552,1.06903699 18.5796812,1.06903699 C18.3431804,1.06903699 18.1551755,1.15141369 18.0156666,1.31616709 L18.0156666,1.31616709 L18.0156666,0.204081633 L17.5313713,0.204081633 L17.5313713,3.26530612 L17.9698279,3.26530612 L17.9937437,3.03212691 C18.1345813,3.21415285 18.3312225,3.30516582 18.5836672,3.30516582 Z M18.4620951,2.91055485 C18.2508388,2.91055485 18.1020292,2.81688457 18.0156666,2.62954401 L18.0156666,2.62954401 L18.0156666,1.74067283 C18.1007006,1.55731824 18.2481814,1.46564094 18.4581092,1.46564094 C18.6148906,1.46564094 18.7344697,1.52410183 18.8168464,1.6410236 C18.8992231,1.75794537 18.9404115,1.93332802 18.9404115,2.16717156 L18.9404115,2.16717156 L18.9404115,2.22895408 C18.9377541,2.45748299 18.8952371,2.62821535 18.8128604,2.74115115 C18.7304837,2.85408695 18.613562,2.91055485 18.4620951,2.91055485 Z M20.3454657,3.26530612 L20.3454657,0.204081633 L19.8611704,0.204081633 L19.8611704,3.26530612 L20.3454657,3.26530612 Z M21.8222673,3.30516582 C22.001636,3.30516582 22.1633999,3.26962426 22.3075591,3.19854114 C22.4517183,3.12745801 22.5669793,3.02747662 22.6533419,2.89859694 L22.6533419,2.89859694 L22.392261,2.64947385 C22.252752,2.82884247 22.0720547,2.91852679 21.8501691,2.91852679 C21.692059,2.91852679 21.5608542,2.86670918 21.4565546,2.76307398 C21.3522551,2.65943878 21.2927977,2.51860119 21.2781825,2.34056122 L21.2781825,2.34056122 L22.6872227,2.34056122 L22.6872227,2.14524872 C22.6872227,1.80245536 22.6071711,1.53738839 22.447068,1.35004783 C22.2869649,1.16270727 22.0600968,1.06903699 21.7664638,1.06903699 C21.5817805,1.06903699 21.4143698,1.11620429 21.2642316,1.2105389 C21.1140934,1.30487351 20.9975038,1.43674267 20.9144628,1.60614636 C20.8314218,1.77555006 20.7899013,1.96787309 20.7899013,2.18311543 L20.7899013,2.18311543 L20.7899013,2.24290497 C20.7899013,2.56443984 20.8852324,2.82186703 21.0758946,3.01518654 C21.2665568,3.20850606 21.5153477,3.30516582 21.8222673,3.30516582 Z M22.2089064,1.98580995 L21.2861544,1.98580995 C21.3087416,1.81972789 21.3608914,1.69018389 21.4426037,1.59717793 C21.5243161,1.50417198 21.6316051,1.45766901 21.7644708,1.45766901 C21.8986651,1.45766901 22.0036289,1.49918952 22.0793624,1.58223055 C22.1550958,1.66527158 22.1982771,1.78784014 22.2089064,1.94993622 L22.2089064,1.94993622 L22.2089064,1.98580995 Z M24.993106,3.30516582 C25.1924044,3.30516582 25.3681193,3.25932717 25.5202504,3.16764987 C25.6723816,3.07597258 25.7893034,2.94642857 25.8710157,2.77901786 C25.9527281,2.61160714 25.9935843,2.42160927 25.9935843,2.20902423 L25.9935843,2.20902423 L25.9915913,2.09542411 C25.9769761,1.78584715 25.8789877,1.53738839 25.6976261,1.35004783 C25.5162645,1.16270727 25.2800958,1.06903699 24.98912,1.06903699 C24.7924789,1.06903699 24.6184249,1.11454347 24.466958,1.20555644 C24.3154912,1.29656941 24.1979051,1.42677774 24.1141997,1.59618144 C24.0304944,1.76558514 23.9886417,1.95591518 23.9886417,2.16717156 L23.9886417,2.16717156 L23.9886417,2.19108737 C23.9886417,2.52856611 24.0799868,2.79861554 24.2626771,3.00123565 C24.4453673,3.20385576 24.6888436,3.30516582 24.993106,3.30516582 Z M24.993106,2.91852679 C24.8296812,2.91852679 24.7021302,2.85574777 24.6104529,2.73018973 C24.5187756,2.6046317 24.472937,2.43090986 24.472937,2.20902423 C24.472937,1.95923682 24.5194399,1.77156409 24.6124459,1.64600606 C24.7054519,1.52044802 24.8310099,1.45766901 24.98912,1.45766901 C25.1498874,1.45766901 25.2771063,1.52144452 25.3707766,1.64899554 C25.4644469,1.77654656 25.511282,1.9492719 25.511282,2.16717156 C25.511282,2.412973 25.4657755,2.59964923 25.3747625,2.72720026 C25.2837496,2.85475128 25.1565307,2.91852679 24.993106,2.91852679 Z M26.8804625,3.26530612 L26.8804625,1.73070791 C26.9761257,1.5539966 27.1216136,1.46564094 27.3169261,1.46564094 C27.4511204,1.46564094 27.5477802,1.49852519 27.6069054,1.56429369 C27.6660306,1.63006218 27.6955932,1.73137224 27.6955932,1.86822385 L27.6955932,1.86822385 L27.6955932,3.26530612 L28.1798885,3.26530612 L28.1798885,1.84032207 C28.1719166,1.32613202 27.9433877,1.06903699 27.4943018,1.06903699 C27.2352138,1.06903699 27.0259504,1.16536458 26.8665116,1.35801977 L26.8665116,1.35801977 L26.8525607,1.10889668 L26.3961672,1.10889668 L26.3961672,3.26530612 L26.8804625,3.26530612 Z M30.3701787,3.30516582 C30.4724852,3.30516582 30.5787777,3.28988627 30.6890562,3.25932717 L30.6890562,3.25932717 L30.6890562,2.88464605 C30.631924,2.89793261 30.5754561,2.90457589 30.5196525,2.90457589 C30.4359472,2.90457589 30.3778185,2.88630687 30.3452664,2.84976881 C30.3127143,2.81323076 30.2964382,2.75377338 30.2964382,2.67139668 L30.2964382,2.67139668 L30.2964382,1.46763393 L30.6770983,1.46763393 L30.6770983,1.10889668 L30.2964382,1.10889668 L30.2964382,0.584741709 L29.812143,0.584741709 L29.812143,1.10889668 L29.4573917,1.10889668 L29.4573917,1.46763393 L29.812143,1.46763393 L29.812143,2.68933355 C29.812143,3.09988839 29.9981549,3.30516582 30.3701787,3.30516582 Z M31.5241168,3.26530612 L31.5241168,1.72472895 C31.6197801,1.55200361 31.7646036,1.46564094 31.9585875,1.46564094 C32.0834812,1.46564094 32.178148,1.49653221 32.2425878,1.55831473 C32.3070276,1.62009726 32.3392476,1.72539328 32.3392476,1.87420281 L32.3392476,1.87420281 L32.3392476,3.26530612 L32.8235428,3.26530612 L32.8235428,1.85626594 C32.8168996,1.33144664 32.5837203,1.06903699 32.1240052,1.06903699 C31.8821897,1.06903699 31.6822269,1.16071429 31.5241168,1.34406888 L31.5241168,1.34406888 L31.5241168,0.204081633 L31.0398215,0.204081633 L31.0398215,3.26530612 L31.5241168,3.26530612 Z M34.2624778,3.30516582 C34.4418464,3.30516582 34.6036103,3.26962426 34.7477696,3.19854114 C34.8919288,3.12745801 35.0071897,3.02747662 35.0935524,2.89859694 L35.0935524,2.89859694 L34.8324714,2.64947385 C34.6929625,2.82884247 34.5122652,2.91852679 34.2903796,2.91852679 C34.1322695,2.91852679 34.0010646,2.86670918 33.8967651,2.76307398 C33.7924656,2.65943878 33.7330082,2.51860119 33.718393,2.34056122 L33.718393,2.34056122 L35.1274331,2.34056122 L35.1274331,2.14524872 C35.1274331,1.80245536 35.0473816,1.53738839 34.8872785,1.35004783 C34.7271754,1.16270727 34.5003073,1.06903699 34.2066742,1.06903699 C34.021991,1.06903699 33.8545803,1.11620429 33.7044421,1.2105389 C33.5543039,1.30487351 33.4377143,1.43674267 33.3546733,1.60614636 C33.2716322,1.77555006 33.2301117,1.96787309 33.2301117,2.18311543 L33.2301117,2.18311543 L33.2301117,2.24290497 C33.2301117,2.56443984 33.3254428,2.82186703 33.516105,3.01518654 C33.7067672,3.20850606 33.9555581,3.30516582 34.2624778,3.30516582 Z M34.6491168,1.98580995 L33.7263649,1.98580995 C33.7489521,1.81972789 33.8011018,1.69018389 33.8828142,1.59717793 C33.9645266,1.50417198 34.0718156,1.45766901 34.2046812,1.45766901 C34.3388755,1.45766901 34.4438394,1.49918952 34.5195728,1.58223055 C34.5953062,1.66527158 34.6384876,1.78784014 34.6491168,1.94993622 L34.6491168,1.94993622 L34.6491168,1.98580995 Z" id="Availableonthe"></path>
                <g id="Group" transform="translate(0.324811, 4.784108)">
                    <path d="M4.08209842,4.8080386 L1.62772923,4.8080386 L1.03856039,6.54849147 L-1.15432685e-13,6.54849147 L2.32360978,0.112723631 L3.40275067,0.112723631 L5.72636045,6.54849147 L4.67427323,6.54849147 L4.08209842,4.8080386 Z M1.88173315,4.00544635 L3.82659152,4.00544635 L2.86768917,1.18284663 L2.84213848,1.18284663 L1.88173315,4.00544635 Z" id="Shape"></path>
                    <path d="M10.7448165,4.20233696 C10.7448165,5.66022925 9.96476897,6.59658688 8.79094023,6.59658688 C8.1824448,6.62809698 7.60935871,6.30945644 7.31501216,5.77595885 L7.29246743,5.77595885 L7.29246743,8.09956863 L6.32905613,8.09956863 L6.32905613,1.85618246 L7.25789885,1.85618246 L7.25789885,2.63622998 L7.27443165,2.63622998 C7.58199036,2.1060217 8.15574133,1.78739943 8.7683955,1.80658406 C9.96326599,1.80658406 10.7448165,2.74745063 10.7448165,4.20233696 Z M9.75435153,4.20233696 C9.75435153,3.2524525 9.26437948,2.62721209 8.51439159,2.62721209 C7.7644037,2.62721209 7.28344954,3.26597933 7.28344954,4.20233696 C7.28344954,5.13869459 7.77943351,5.78046779 8.51439159,5.78046779 C9.24934966,5.78046779 9.75435153,5.16123931 9.75435153,4.20233696 L9.75435153,4.20233696 Z" id="Shape"></path>
                    <path d="M15.9090618,4.20233696 C15.9090618,5.66022925 15.1290143,6.59658688 13.9551855,6.59658688 C13.3466901,6.62809698 12.773604,6.30945644 12.4792574,5.77595885 L12.4567127,5.77595885 L12.4567127,8.09956863 L11.4933014,8.09956863 L11.4933014,1.85618246 L12.4266531,1.85618246 L12.4266531,2.63622998 L12.4431859,2.63622998 C12.7507446,2.1060217 13.3244956,1.78739943 13.9371497,1.80658406 C15.1245053,1.80658406 15.9090618,2.74745063 15.9090618,4.20233696 Z M14.9185968,4.20233696 C14.9185968,3.2524525 14.4286248,2.62721209 13.6786369,2.62721209 C12.928649,2.62721209 12.4491978,3.26597933 12.4491978,4.20233696 C12.4491978,5.13869459 12.9436788,5.78046779 13.6786369,5.78046779 C14.4135949,5.78046779 14.9231058,5.16123931 14.9231058,4.20233696 L14.9185968,4.20233696 Z" id="Shape"></path>
                    <path d="M19.3223333,4.75543424 C19.3944764,5.3926985 20.0137049,5.80752146 20.8613866,5.80752146 C21.6729968,5.80752146 22.2561537,5.38818956 22.2561537,4.81254755 C22.2561537,4.31355761 21.904456,4.01446424 21.0703011,3.81005872 L20.2361462,3.60865917 C19.0548026,3.32309264 18.5062142,2.76999536 18.5062142,1.87421824 C18.5062142,0.763514727 19.4741345,-8.06305921e-14 20.8478598,-8.06305921e-14 C22.2215851,-8.06305921e-14 23.139907,0.763514727 23.1714696,1.87421824 L22.1990404,1.87421824 C22.1404241,1.23094205 21.6098715,0.843172759 20.834333,0.843172759 C20.0587944,0.843172759 19.5267388,1.23545099 19.5267388,1.80658406 C19.5267388,2.25747858 19.8664127,2.52951828 20.6960586,2.7339238 L21.405466,2.91728757 C22.725084,3.22990777 23.2736723,3.76046033 23.2736723,4.7013269 C23.2736723,5.9037123 22.31477,6.65520317 20.7892435,6.65520317 C19.3629138,6.65520317 18.3995025,5.91874211 18.3363773,4.75543424 L19.3223333,4.75543424 Z" id="Path"></path>
                    <path d="M25.3522961,0.745478946 L25.3522961,1.85618246 L26.2450672,1.85618246 L26.2450672,2.61669122 L25.3522961,2.61669122 L25.3522961,5.20482578 C25.3522961,5.60762489 25.5311509,5.79399463 25.9234291,5.79399463 C26.0294818,5.79252124 26.1353638,5.78499409 26.2405583,5.7714499 L26.2405583,6.52444376 C26.0642298,6.55772081 25.8848863,6.57233025 25.7054968,6.56803023 C24.7556123,6.56803023 24.3843758,6.21182355 24.3843758,5.3025196 L24.3843758,2.61669122 L23.7035251,2.61669122 L23.7035251,1.85618246 L24.3918907,1.85618246 L24.3918907,0.745478946 L25.3522961,0.745478946 Z" id="Path"></path>
                    <path d="M26.762093,4.20233696 C26.762093,2.72640889 27.6308164,1.79756617 28.9865059,1.79756617 C30.3421955,1.79756617 31.2124219,2.72640889 31.2124219,4.20233696 C31.2124219,5.67826503 30.3527164,6.60710775 28.9865059,6.60710775 C27.6202955,6.60710775 26.762093,5.68277398 26.762093,4.20233696 Z M30.2309748,4.20233696 C30.2309748,3.18932726 29.7680565,2.59114053 28.9865059,2.59114053 C28.2049554,2.59114053 27.74354,3.19233323 27.74354,4.20233696 C27.74354,5.21234069 28.2064584,5.81203041 28.9865059,5.81203041 C29.7665535,5.81203041 30.2309748,5.21083771 30.2309748,4.20233696 L30.2309748,4.20233696 Z" id="Shape"></path>
                    <path d="M32.0074993,1.85618246 L32.9258211,1.85618246 L32.9258211,2.65426576 L32.9483658,2.65426576 C33.0761873,2.13992113 33.5475175,1.78595285 34.0771051,1.80658406 C34.1878079,1.80660576 34.2981781,1.81870113 34.4062581,1.84265562 L34.4062581,2.74444467 C34.2660165,2.70209298 34.1198264,2.68280401 33.9733994,2.68733136 C33.7154716,2.67510689 33.4633251,2.76628892 33.2728738,2.94065768 C33.0824225,3.11502643 32.9694063,3.35817117 32.9588867,3.61617408 C32.9558253,3.6662267 32.9558253,3.71641963 32.9588867,3.76647225 L32.9588867,6.54999445 L31.9969784,6.54999445 L32.0074993,1.85618246 Z" id="Path"></path>
                    <path d="M38.8475692,5.17176019 C38.7168098,6.02244785 37.8886668,6.60710775 36.8260587,6.60710775 C35.4613513,6.60710775 34.6151726,5.69329485 34.6151726,4.22638467 C34.6151726,2.75947448 35.4658602,1.79906915 36.7854782,1.79906915 C38.1050962,1.79906915 38.9001735,2.69184031 38.9001735,4.11366104 L38.9001735,4.44431702 L35.5936137,4.44431702 L35.5936137,4.50293331 C35.5652689,4.82582109 35.6663737,5.14674145 35.8746793,5.39507333 C36.0829849,5.6434052 36.3814221,5.79879941 36.7043172,5.82706023 C36.7543728,5.83002377 36.8045598,5.83002377 36.8546154,5.82706023 C37.3186383,5.86847184 37.7555261,5.60280507 37.9322533,5.17176019 L38.8475692,5.17176019 Z M35.5906077,3.7709812 L37.9367622,3.7709812 C37.9535456,3.47101397 37.850049,3.17673278 37.6491923,2.95330799 C37.4483357,2.7298832 37.1666943,2.59575239 36.8666392,2.58061966 C36.8376014,2.57910303 36.8085042,2.57910303 36.7794663,2.58061966 C36.4645581,2.57862026 36.1617542,2.7018028 35.9376711,2.9230672 C35.7135881,3.14433161 35.5865826,3.44555208 35.5845958,3.76046033 L35.5906077,3.7709812 Z" id="Shape"></path>
                </g>
            </g>
        </g>
    </g>
</svg>