<?xml version="1.0" encoding="UTF-8"?>
<svg width="54px" height="54px" viewBox="0 0 54 54" version="1.1" xmlns="http://www.w3.org/2000/svg" xmlns:xlink="http://www.w3.org/1999/xlink">
    <title>Google Play Copy</title>
    <defs>
        <linearGradient x1="61.0250967%" y1="4.96200783%" x2="26.5388085%" y2="71.8742805%" id="linearGradient-1">
            <stop stop-color="#00A0FF" offset="0%"></stop>
            <stop stop-color="#00A1FF" offset="1%"></stop>
            <stop stop-color="#00BEFF" offset="26%"></stop>
            <stop stop-color="#00D2FF" offset="51%"></stop>
            <stop stop-color="#00DFFF" offset="76%"></stop>
            <stop stop-color="#00E3FF" offset="100%"></stop>
        </linearGradient>
        <linearGradient x1="107.585227%" y1="49.9831138%" x2="-130.454545%" y2="49.9831138%" id="linearGradient-2">
            <stop stop-color="#FFE000" offset="0%"></stop>
            <stop stop-color="#FFBD00" offset="41%"></stop>
            <stop stop-color="#FFA500" offset="78%"></stop>
            <stop stop-color="#FF9C00" offset="100%"></stop>
        </linearGradient>
        <linearGradient x1="86.2432947%" y1="30.8958809%" x2="-50.1470843%" y2="135.999349%" id="linearGradient-3">
            <stop stop-color="#FF3A44" offset="0%"></stop>
            <stop stop-color="#C31162" offset="100%"></stop>
        </linearGradient>
        <linearGradient x1="-18.8094826%" y1="-11.8676358%" x2="42.1007095%" y2="35.0626473%" id="linearGradient-4">
            <stop stop-color="#32A071" offset="0%"></stop>
            <stop stop-color="#2DA771" offset="7%"></stop>
            <stop stop-color="#15CF74" offset="48%"></stop>
            <stop stop-color="#06E775" offset="80%"></stop>
            <stop stop-color="#00F076" offset="100%"></stop>
        </linearGradient>
    </defs>
    <g id="Beep-Delivery-2.0" stroke="none" stroke-width="1" fill="none" fill-rule="evenodd">
        <g id="Google-Play-Copy">
            <rect id="Background" fill="#000000" x="0" y="0" width="54" height="54" rx="12"></rect>
            <g id="Logo" transform="translate(16.023089, 5.807800)" fill-rule="nonzero">
                <path d="M0.461417773,0.395614135 C0.134608015,0.784973593 -0.0291707814,1.28552254 0.00427491547,1.79275699 L0.00427491547,23.6756141 C-0.0267897589,24.1808048 0.13679337,24.6787109 0.461417773,25.0670427 L0.532846344,25.1384713 L12.7928463,12.8698998 L12.7928463,12.5841856 L0.532846344,0.321328421 L0.461417773,0.395614135 Z" id="Path" fill="url(#linearGradient-1)"></path>
                <path d="M16.8785606,16.9584713 L12.7928463,12.8698998 L12.7928463,12.5841856 L16.8785606,8.49847128 L16.9728463,8.54989985 L21.8128463,11.3013284 C23.1957035,12.0870427 23.1957035,13.372757 21.8128463,14.1584713 L16.9728463,16.9070427 L16.8785606,16.9584713 Z" id="Path" fill="url(#linearGradient-2)"></path>
                <path d="M16.9728463,16.9041856 L12.7928463,12.7270427 L0.461417773,25.0584713 C0.915703487,25.5413284 1.6699892,25.5984713 2.51856063,25.1184713 L16.9728463,16.9041856" id="Path" fill="url(#linearGradient-3)"></path>
                <path d="M16.9728463,8.54704271 L2.51856063,0.332756992 C1.66141777,-0.147243008 0.915703487,-0.0872430077 0.461417773,0.395614135 L12.7928463,12.7270427 L16.9728463,8.54704271 Z" id="Path" fill="url(#linearGradient-4)"></path>
                <path d="M16.8785606,16.812757 L2.51856063,24.972757 C1.71284634,25.4298998 0.995703487,25.3984713 0.535703487,24.972757 L0.535703487,24.972757 L0.461417773,25.0470427 L0.461417773,25.0470427 L0.532846344,25.1184713 L0.532846344,25.1184713 C0.992846344,25.532757 1.7099892,25.5641856 2.51570349,25.1184713 L16.9728463,16.9041856 L16.8785606,16.812757 Z" id="Path" fill="#000000" opacity="0.2"></path>
                <path d="M0.461417773,24.912757 C0.136713441,24.5255902 -0.0269297488,24.028524 0.00427491547,23.5241856 L0.00427491547,23.6670427 C-0.0267897589,24.1722333 0.13679337,24.6701395 0.461417773,25.0584713 L0.535703487,24.9841856 L0.461417773,24.912757 Z" id="Path" fill="#000000" opacity="0.12"></path>
                <path d="M21.8128463,14.0098998 L16.8785606,16.812757 L16.9728463,16.9041856 L21.8128463,14.1556141 C22.5042749,13.7613284 22.8499892,13.2441856 22.8499892,12.7270427 L22.8499892,12.7270427 C22.7928463,13.1956141 22.4414178,13.652757 21.8128463,14.0098998 Z" id="Path" fill="#000000" opacity="0.12"></path>
                <path d="M2.51856063,0.478471278 L21.8128463,11.4413284 C22.4414178,11.7984713 22.7928463,12.2556141 22.8499892,12.7270427 L22.8499892,12.7270427 C22.8499892,12.2070427 22.5042749,11.6898998 21.8128463,11.2984713 L2.51856063,0.332756992 C1.13570349,-0.452957293 0.00427491547,0.201328421 0.00427491547,1.78418556 L0.00427491547,1.92989985 C0.00427491547,0.344185564 1.13570349,-0.307243008 2.51856063,0.478471278 Z" id="Path" fill="#FFFFFF" opacity="0.25"></path>
            </g>
            <g id="Content" transform="translate(7.932308, 34.200000)" fill="#FFFFFF" fill-rule="nonzero">
                <path d="M5.9121518,4.16666667 L6.15222342,3.4769694 L7.29968436,3.4769694 L7.54179048,4.16666667 L8.07889985,4.16666667 L6.95788748,1.20442708 L6.4960548,1.20442708 L5.37707693,4.16666667 L5.9121518,4.16666667 Z M7.15523449,3.06193034 L6.29667329,3.06193034 L6.72595389,1.83308919 L7.15523449,3.06193034 Z M8.85404634,4.16666667 L8.85404634,2.60009766 C8.95170259,2.41970486 9.10022147,2.32950846 9.29960298,2.32950846 C9.43659299,2.32950846 9.5352665,2.3630778 9.59562348,2.43021647 C9.65598047,2.49735514 9.68615897,2.60077582 9.68615897,2.74047852 L9.68615897,2.74047852 L9.68615897,4.16666667 L10.1805437,4.16666667 L10.1805437,2.71199544 C10.1724057,2.1870931 9.93911578,1.92464193 9.48067394,1.92464193 C9.21618826,1.92464193 9.00256522,2.02297635 8.8398048,2.21964518 L8.8398048,2.21964518 L8.82556326,1.96533203 L8.35966157,1.96533203 L8.35966157,4.16666667 L8.85404634,4.16666667 Z M11.4561785,4.20735677 C11.7030318,4.20735677 11.9003788,4.11783854 12.0482195,3.93880208 L12.0482195,3.93880208 L12.0726336,4.16666667 L12.5202247,4.16666667 L12.5202247,1.04166667 L12.02584,1.04166667 L12.02584,2.16878255 C11.8820683,2.00602214 11.6935374,1.92464193 11.4602475,1.92464193 C11.1957618,1.92464193 10.9848515,2.02738444 10.8275164,2.23286947 C10.6701813,2.43835449 10.5915138,2.71063911 10.5915138,3.04972331 C10.5915138,3.40643989 10.6711986,3.68855794 10.8305681,3.89607747 C10.9899377,4.10359701 11.1984745,4.20735677 11.4561785,4.20735677 Z M11.5823178,3.80452474 C11.4236264,3.80452474 11.301217,3.74179416 11.2150896,3.61633301 C11.1289622,3.49087185 11.0858985,3.31624349 11.0858985,3.09244792 C11.0858985,2.8374566 11.1293013,2.64655219 11.2161069,2.5197347 C11.3029124,2.39291721 11.4263391,2.32950846 11.5863868,2.32950846 C11.788481,2.32950846 11.9349654,2.41767036 12.02584,2.59399414 L12.02584,2.59399414 L12.02584,3.53393555 C11.9322527,3.71432834 11.784412,3.80452474 11.5823178,3.80452474 Z M13.5293393,4.16666667 L13.5293393,2.66113281 C13.6080068,2.4875217 13.7605947,2.40071615 13.987103,2.40071615 C14.0562762,2.40071615 14.1234148,2.40614149 14.188519,2.41699219 L14.188519,2.41699219 L14.1905535,1.953125 C14.144438,1.93413628 14.0861156,1.92464193 14.015586,1.92464193 C13.8039975,1.92464193 13.6385244,2.02026367 13.5191668,2.21150716 L13.5191668,2.21150716 L13.5069597,1.96533203 L13.0349545,1.96533203 L13.0349545,4.16666667 L13.5293393,4.16666667 Z M15.4336362,4.20735677 C15.6370867,4.20735677 15.8164622,4.16056315 15.9717628,4.06697591 C16.1270634,3.97338867 16.246421,3.84114583 16.3298357,3.6702474 C16.4132504,3.49934896 16.4549578,3.3053928 16.4549578,3.08837891 L16.4549578,3.08837891 L16.4529233,2.97241211 C16.4380036,2.65638563 16.3379737,2.40275065 16.1528338,2.21150716 C15.9676938,2.02026367 15.7266049,1.92464193 15.4295672,1.92464193 C15.2288293,1.92464193 15.0511492,1.97109646 14.8965268,2.06400553 C14.7419044,2.15691461 14.6218686,2.28983561 14.5364194,2.46276855 C14.4509702,2.6357015 14.4082456,2.82999674 14.4082456,3.0456543 L14.4082456,3.0456543 L14.4082456,3.07006836 C14.4082456,3.41457791 14.5014937,3.69025336 14.68799,3.89709473 C14.8744863,4.10393609 15.1230351,4.20735677 15.4336362,4.20735677 Z M15.4336362,3.81266276 C15.2668068,3.81266276 15.1365984,3.74857585 15.0430112,3.62040202 C14.9494239,3.49222819 14.9026303,3.31488715 14.9026303,3.08837891 C14.9026303,2.83338759 14.9501021,2.64180501 15.0450457,2.51363118 C15.1399893,2.38545736 15.2681631,2.32137044 15.4295672,2.32137044 C15.5936839,2.32137044 15.7235532,2.38647461 15.8191749,2.51668294 C15.9147967,2.64689128 15.9626075,2.82321506 15.9626075,3.0456543 C15.9626075,3.29657661 15.916153,3.48714193 15.8232439,3.61735026 C15.7303349,3.74755859 15.6004656,3.81266276 15.4336362,3.81266276 Z M17.1527931,1.65405273 C17.2423113,1.65405273 17.3114845,1.62929959 17.3603126,1.57979329 C17.4091407,1.530287 17.4335548,1.46823459 17.4335548,1.39363607 C17.4335548,1.31768121 17.4091407,1.25461155 17.3603126,1.20442708 C17.3114845,1.15424262 17.2423113,1.12915039 17.1527931,1.12915039 C17.0632749,1.12915039 16.9944408,1.15424262 16.9462908,1.20442708 C16.8981408,1.25461155 16.8740659,1.31768121 16.8740659,1.39363607 C16.8740659,1.46823459 16.8981408,1.530287 16.9462908,1.57979329 C16.9944408,1.62929959 17.0632749,1.65405273 17.1527931,1.65405273 Z M17.3989682,4.16666667 L17.3989682,1.96533203 L16.9045834,1.96533203 L16.9045834,4.16666667 L17.3989682,4.16666667 Z M18.7091896,4.20735677 C18.9560429,4.20735677 19.1533899,4.11783854 19.3012306,3.93880208 L19.3012306,3.93880208 L19.3256446,4.16666667 L19.7732358,4.16666667 L19.7732358,1.04166667 L19.278851,1.04166667 L19.278851,2.16878255 C19.1350793,2.00602214 18.9465485,1.92464193 18.7132586,1.92464193 C18.4487729,1.92464193 18.2378625,2.02738444 18.0805275,2.23286947 C17.9231924,2.43835449 17.8445249,2.71063911 17.8445249,3.04972331 C17.8445249,3.40643989 17.9242096,3.68855794 18.0835792,3.89607747 C18.2429488,4.10359701 18.4514856,4.20735677 18.7091896,4.20735677 Z M18.8353289,3.80452474 C18.6766375,3.80452474 18.5542281,3.74179416 18.4681007,3.61633301 C18.3819733,3.49087185 18.3389096,3.31624349 18.3389096,3.09244792 C18.3389096,2.8374566 18.3823124,2.64655219 18.4691179,2.5197347 C18.5559235,2.39291721 18.6793502,2.32950846 18.8393979,2.32950846 C19.0414921,2.32950846 19.1879765,2.41767036 19.278851,2.59399414 L19.278851,2.59399414 L19.278851,3.53393555 C19.1852638,3.71432834 19.0374231,3.80452474 18.8353289,3.80452474 Z M22.0071225,4.20735677 C22.2349871,4.20735677 22.4275869,4.12529839 22.584922,3.96118164 C22.601198,4.05612522 22.6201867,4.12462023 22.6418881,4.16666667 L22.6418881,4.16666667 L23.1464454,4.16666667 L23.1464454,4.13208008 C23.0908356,4.01407878 23.0630307,3.85606554 23.0630307,3.65804036 L23.0630307,3.65804036 L23.0630307,2.66520182 C23.0589617,2.43055556 22.9802942,2.24846734 22.8270281,2.11893717 C22.673762,1.98940701 22.468277,1.92464193 22.210573,1.92464193 C22.0410309,1.92464193 21.8874258,1.95448134 21.7497576,2.01416016 C21.6120894,2.07383898 21.5032434,2.15623644 21.4232195,2.26135254 C21.3431956,2.36646864 21.3031837,2.47938368 21.3031837,2.60009766 L21.3031837,2.60009766 L21.7975685,2.60009766 C21.7975685,2.5132921 21.8335114,2.44174533 21.9053972,2.38545736 C21.9772831,2.32916938 22.069514,2.30102539 22.18209,2.30102539 C22.3122983,2.30102539 22.4092764,2.33527289 22.4730242,2.4037679 C22.536772,2.47226291 22.5686459,2.56347656 22.5686459,2.67740885 L22.5686459,2.67740885 L22.5686459,2.82185872 L22.2655047,2.82185872 C21.9413402,2.82185872 21.6921133,2.8845893 21.517824,3.01005046 C21.3435347,3.13551161 21.2563901,3.31556532 21.2563901,3.55021159 C21.2563901,3.73602973 21.3262414,3.89200846 21.4659441,4.01814779 C21.6056468,4.14428711 21.7860396,4.20735677 22.0071225,4.20735677 Z M22.0986752,3.81062826 C21.992881,3.81062826 21.908449,3.78248427 21.8453793,3.72619629 C21.7823097,3.66990831 21.7507749,3.59429253 21.7507749,3.49934896 C21.7507749,3.38270399 21.7968903,3.2925076 21.8891212,3.22875977 C21.9813521,3.16501194 22.1190203,3.13313802 22.3021258,3.13313802 L22.3021258,3.13313802 L22.5686459,3.13313802 L22.5686459,3.54817708 C22.5252432,3.62820095 22.4604781,3.69194878 22.3743507,3.73942057 C22.2882233,3.78689236 22.1963315,3.81062826 22.0986752,3.81062826 Z M24.0741798,5.01302083 L24.0741798,3.96931966 C24.2193078,4.12801107 24.4125858,4.20735677 24.6540138,4.20735677 C24.9144304,4.20735677 25.12195,4.10597059 25.2765724,3.90319824 C25.4311948,3.70042589 25.508506,3.42881944 25.508506,3.08837891 L25.508506,3.08837891 L25.508506,3.05786133 C25.508506,2.70250109 25.432212,2.42479112 25.2796241,2.22473145 C25.1270362,2.02467177 24.916465,1.92464193 24.6479103,1.92464193 C24.3983443,1.92464193 24.2009973,2.01280382 24.0558693,2.1891276 L24.0558693,2.1891276 L24.0355242,1.96533203 L23.579795,1.96533203 L23.579795,5.01302083 L24.0741798,5.01302083 Z M24.5136329,3.81266276 C24.3101824,3.81266276 24.163698,3.72721354 24.0741798,3.5563151 L24.0741798,3.5563151 L24.0741798,2.5797526 C24.1623417,2.41292318 24.3074697,2.32950846 24.5095639,2.32950846 C24.6723243,2.32950846 24.7974464,2.39393446 24.8849301,2.52278646 C24.9724138,2.65163845 25.0161557,2.82592773 25.0161557,3.0456543 C25.0161557,3.30335829 24.9717357,3.49561903 24.8828956,3.62243652 C24.7940556,3.74925401 24.670968,3.81266276 24.5136329,3.81266276 Z M26.4199643,5.01302083 L26.4199643,3.96931966 C26.5650923,4.12801107 26.7583703,4.20735677 26.9997983,4.20735677 C27.260215,4.20735677 27.4677345,4.10597059 27.6223569,3.90319824 C27.7769793,3.70042589 27.8542905,3.42881944 27.8542905,3.08837891 L27.8542905,3.08837891 L27.8542905,3.05786133 C27.8542905,2.70250109 27.7779965,2.42479112 27.6254086,2.22473145 C27.4728207,2.02467177 27.2622495,1.92464193 26.9936948,1.92464193 C26.7441288,1.92464193 26.5467818,2.01280382 26.4016538,2.1891276 L26.4016538,2.1891276 L26.3813087,1.96533203 L25.9255795,1.96533203 L25.9255795,5.01302083 L26.4199643,5.01302083 Z M26.8594174,3.81266276 C26.6559669,3.81266276 26.5094825,3.72721354 26.4199643,3.5563151 L26.4199643,3.5563151 L26.4199643,2.5797526 C26.5081262,2.41292318 26.6532542,2.32950846 26.8553484,2.32950846 C27.0181088,2.32950846 27.1432309,2.39393446 27.2307146,2.52278646 C27.3181984,2.65163845 27.3619402,2.82592773 27.3619402,3.0456543 C27.3619402,3.30335829 27.3175202,3.49561903 27.2286801,3.62243652 C27.1398401,3.74925401 27.0167525,3.81266276 26.8594174,3.81266276 Z M30.2427996,4.20735677 C30.4462501,4.20735677 30.6256257,4.16056315 30.7809262,4.06697591 C30.9362268,3.97338867 31.0555844,3.84114583 31.1389991,3.6702474 C31.2224138,3.49934896 31.2641212,3.3053928 31.2641212,3.08837891 L31.2641212,3.08837891 L31.2620867,2.97241211 C31.247167,2.65638563 31.1471372,2.40275065 30.9619972,2.21150716 C30.7768572,2.02026367 30.5357683,1.92464193 30.2387306,1.92464193 C30.0379927,1.92464193 29.8603126,1.97109646 29.7056902,2.06400553 C29.5510678,2.15691461 29.431032,2.28983561 29.3455828,2.46276855 C29.2601336,2.6357015 29.217409,2.82999674 29.217409,3.0456543 L29.217409,3.0456543 L29.217409,3.07006836 C29.217409,3.41457791 29.3106571,3.69025336 29.4971534,3.89709473 C29.6836497,4.10393609 29.9321985,4.20735677 30.2427996,4.20735677 Z M30.2427996,3.81266276 C30.0759702,3.81266276 29.9457618,3.74857585 29.8521746,3.62040202 C29.7585874,3.49222819 29.7117937,3.31488715 29.7117937,3.08837891 C29.7117937,2.83338759 29.7592655,2.64180501 29.8542091,2.51363118 C29.9491527,2.38545736 30.0773265,2.32137044 30.2387306,2.32137044 C30.4028473,2.32137044 30.5327166,2.38647461 30.6283383,2.51668294 C30.7239601,2.64689128 30.7717709,2.82321506 30.7717709,3.0456543 C30.7717709,3.29657661 30.7253164,3.48714193 30.6324073,3.61735026 C30.5394983,3.74755859 30.409629,3.81266276 30.2427996,3.81266276 Z M32.169476,4.16666667 L32.169476,2.60009766 C32.2671323,2.41970486 32.4156512,2.32950846 32.6150327,2.32950846 C32.7520227,2.32950846 32.8506962,2.3630778 32.9110532,2.43021647 C32.9714102,2.49735514 33.0015887,2.60077582 33.0015887,2.74047852 L33.0015887,2.74047852 L33.0015887,4.16666667 L33.4959734,4.16666667 L33.4959734,2.71199544 C33.4878354,2.1870931 33.2545455,1.92464193 32.7961036,1.92464193 C32.5316179,1.92464193 32.3179949,2.02297635 32.1552345,2.21964518 L32.1552345,2.21964518 L32.1409929,1.96533203 L31.6750913,1.96533203 L31.6750913,4.16666667 L32.169476,4.16666667 Z" id="Androidappon"></path>
                <path d="M12.7892639,8.20037099 C11.6819699,8.20488139 10.7875618,9.10537974 10.7905581,10.2126789 C10.7935695,11.3199781 11.6928502,12.2156105 12.8001524,12.2141151 C13.9074546,12.2126158 14.8043098,11.3145546 14.8043189,10.2072513 C14.8121663,9.67120162 14.602118,9.15491999 14.2222632,8.77660627 C13.8424085,8.39829256 13.3252773,8.19034461 12.7892639,8.20037099 L12.7892639,8.20037099 Z M12.7892639,11.4252765 C12.1816138,11.4252765 11.6570728,10.923897 11.6570728,10.2099762 C11.6570728,9.49605544 12.1816138,8.99331352 12.7892639,8.99331352 C13.3969141,8.99331352 13.9228175,9.48788078 13.9228175,10.2099762 C13.9228175,10.9320717 13.3928267,11.4252765 12.7892639,11.4252765 Z M8.38993154,8.20037099 C7.28245669,8.20413026 6.38736449,9.104299 6.3898633,10.2117774 C6.3923726,11.3192558 7.29152627,12.2153677 8.39900679,12.2141201 C9.50648732,12.21287 10.4036177,11.3147326 10.4036241,10.2072513 C10.4114612,9.67144239 10.2015981,9.15537558 9.82204197,8.77710347 C9.44248585,8.39883137 8.92571084,8.19071827 8.38993154,8.20037099 Z M8.38993154,11.4225516 C7.78228141,11.4225516 7.25774039,10.9211721 7.25774039,10.2072513 C7.25774039,9.49333055 7.78228141,8.99058864 8.38993154,8.99058864 C8.99758166,8.99058864 9.5193978,9.48515589 9.5193978,10.2072513 C9.5193978,10.9293468 8.99758166,11.4252765 8.38993154,11.4252765 L8.38993154,11.4225516 Z M3.16223305,8.81619577 L3.16223305,9.66772342 L5.19908716,9.66772342 C5.17005858,10.0667576 5.00678449,10.4442089 4.73585613,10.7386046 C4.32318424,11.1598153 3.75142201,11.3865401 3.16223305,11.362604 C1.93291001,11.3324519 0.952044459,10.3272333 0.952044459,9.09754051 C0.952044459,7.86784775 1.93291001,6.8626291 3.16223305,6.83247698 C3.73413004,6.8247965 4.28594193,7.04317103 4.69770769,7.44012711 L5.2958207,6.8392892 C4.72964264,6.27627756 3.96062403,5.96493797 3.16223305,5.97549957 C1.44419088,5.97549957 0,7.37336734 0,9.09140951 C0,10.8094517 1.44419088,12.2086819 3.16223305,12.2086819 C4.09005756,12.2086819 4.78899145,11.9048568 5.34214381,11.3339927 C5.89529616,10.7631286 6.07922613,9.98108559 6.07922613,9.34209925 C6.08116207,9.16395505 6.06610705,8.9860321 6.03426547,8.810746 L3.16223305,8.81619577 Z M24.5403454,9.47698122 C24.3727647,9.02873707 23.8591233,8.20037099 22.8223032,8.20037099 C21.7854832,8.20037099 20.9298682,9.01783752 20.9298682,10.2072513 C20.9179658,10.7404591 21.1235054,11.2555631 21.4992181,11.6341026 C21.8749307,12.0126421 22.3884797,12.222037 22.9217616,12.2141317 C23.59317,12.2176192 24.2213458,11.8833088 24.5934807,11.3244556 L23.9122586,10.8680368 C23.704361,11.2163809 23.3274154,11.4284452 22.9217616,11.4252765 C22.5030894,11.4419262 22.1167864,11.2009596 21.947614,10.8176263 L24.6316291,9.70859674 L24.5403454,9.47698122 Z M21.8031949,10.1459413 C21.7842362,9.85092338 21.884731,9.5606777 22.0820554,9.34054568 C22.2793798,9.12041366 22.5569496,8.98889643 22.852277,8.97560175 C23.2024252,8.97560175 23.499438,9.14999461 23.597534,9.40068435 L21.8031949,10.1459413 Z M19.6232842,12.0915117 L20.5047856,12.0915117 L20.5047856,6.19349064 L19.6232842,6.19349064 L19.6232842,12.0915117 Z M18.1790933,8.64861514 L18.1491195,8.64861514 C17.8776954,8.35391915 17.4923881,8.19056075 17.0918628,8.20037099 C16.0891039,8.20037099 15.169454,9.0818724 15.169454,10.2140635 C15.169454,11.3462547 16.0891039,12.2141317 17.0918628,12.2141317 C17.4942008,12.2245998 17.8808062,12.0577019 18.1491195,11.7577129 L18.1790933,11.7577129 L18.1790933,12.046551 C18.1790933,12.8136071 17.77036,13.2250653 17.1068497,13.2250653 C16.6559802,13.2137645 16.256613,12.9311934 16.0959161,12.5097821 L15.32886,12.8299565 C15.6238057,13.5511193 16.3277202,14.0203957 17.1068497,14.0153243 C18.1409449,14.0153243 19.0142716,13.4076328 19.0142716,11.9252935 L19.0142716,8.32162852 L18.1777308,8.32162852 L18.1790933,8.64861514 Z M17.1667972,11.4252765 C16.5591471,11.4252765 16.049593,10.9170848 16.049593,10.2167884 C16.049593,9.51649211 16.5591471,8.99058864 17.1667972,8.99058864 C17.7744474,8.99058864 18.2390408,9.506955 18.2390408,10.2167884 C18.2390408,10.9266219 17.7676351,11.4252765 17.1667972,11.4252765 Z M28.6712763,6.19349064 L26.5608502,6.19349064 L26.5608502,12.0915117 L27.4409891,12.0915117 L27.4409891,9.85710316 L28.6671889,9.85710316 C29.642699,9.85710316 30.6018597,9.15135705 30.6018597,8.02597812 C30.6018597,6.90059919 29.6467863,6.19349064 28.6712763,6.19349064 Z M28.6930754,9.03691174 L27.4409891,9.03691174 L27.4409891,7.01504451 L28.6930754,7.01504451 C29.2513986,7.01504451 29.704009,7.46765491 29.704009,8.02597812 C29.704009,8.58430134 29.2513986,9.03691174 28.6930754,9.03691174 L28.6930754,9.03691174 Z M34.1346776,8.18947143 C33.4970537,8.18947143 32.8362683,8.47013494 32.5637794,9.09277195 L33.3458224,9.41839612 C33.5120406,9.09277195 33.8226779,8.9865013 34.1496645,8.9865013 C34.6047209,8.9865013 35.0679519,9.25899015 35.0747641,9.74538274 L35.0747641,9.80533028 C34.7920918,9.65498204 34.4766443,9.57682219 34.1564767,9.5778021 C33.3144862,9.5778021 32.4575088,10.0410331 32.4575088,10.9061852 C32.4575088,11.6950404 33.148268,12.2032321 33.9221363,12.2032321 C34.3733166,12.2295938 34.8032315,12.0088972 35.0447904,11.6269182 L35.0747641,11.6269182 L35.0747641,12.0819746 L35.9249293,12.0819746 L35.9249293,9.82031717 C35.9249293,8.77396 35.1442488,8.18947143 34.1346776,8.18947143 Z M34.028407,11.4252765 C33.7395688,11.4252765 33.3376477,11.2808574 33.3376477,10.923897 C33.3376477,10.4688406 33.8390272,10.2944478 34.270922,10.2944478 C34.5517849,10.2865763 34.8295453,10.3548394 35.0747641,10.4920022 C35.0080898,11.0208016 34.5613591,11.4192528 34.028407,11.4252765 L34.028407,11.4252765 Z M39.021765,8.31890363 L38.0121939,10.8802988 L37.9822201,10.8802988 L36.9345005,8.31890363 L35.9807895,8.31890363 L37.5516877,11.8925948 L36.6620116,13.8776761 L37.5857488,13.8776761 L40,8.31890363 L39.021765,8.31890363 Z M31.0909772,12.0915117 L31.9711162,12.0915117 L31.9711162,6.19349064 L31.0909772,6.19349064 L31.0909772,12.0915117 Z" id="Shape"></path>
            </g>
        </g>
    </g>
</svg>