<?xml version="1.0" encoding="UTF-8"?>
<svg width="240px" height="240px" viewBox="0 0 240 240" version="1.1" xmlns="http://www.w3.org/2000/svg" xmlns:xlink="http://www.w3.org/1999/xlink">
    <!-- Generator: Sketch 63.1 (92452) - https://sketch.com -->
    <title>Order Picked Up</title>
    <desc>Created with Sketch.</desc>
    <g id="Symbols" stroke="none" stroke-width="1" fill="none" fill-rule="evenodd">
        <g id="Atoms/Artwork/Beep/Order-Picked-Up">
            <g id="Order-Cancelled">
                <g id="Beep-delivery-order-picked-up" transform="translate(10.000000, -0.000000)">
                    <polygon id="Path" fill="#DEE1EE" fill-rule="nonzero" points="99.0791367 118.193285 110.295444 118.193285 112.421583 83.2148681 101.210552 83.2148681"></polygon>
                    <polygon id="Path" fill="#D3D9EB" fill-rule="nonzero" points="106.370264 118.193285 110.295444 118.193285 112.421583 83.2148681 108.496403 83.2148681"></polygon>
                    <polygon id="Path" fill="#DEE1EE" fill-rule="nonzero" points="160.905995 118.193285 172.117026 118.193285 174.243165 83.2148681 163.032134 83.2148681"></polygon>
                    <polygon id="Path" fill="#D3D9EB" fill-rule="nonzero" points="168.191847 118.193285 172.117026 118.193285 174.243165 83.2148681 170.323261 83.2148681"></polygon>
                    <polygon id="Path" fill="#DEE1EE" fill-rule="nonzero" points="39.2306954 118.193285 50.4470024 118.193285 52.5731415 83.2148681 41.3621103 83.2148681"></polygon>
                    <polygon id="Path" fill="#D3D9EB" fill-rule="nonzero" points="46.5218225 118.193285 50.4470024 118.193285 52.5731415 83.2148681 48.6532374 83.2148681"></polygon>
                    <line x1="210.978417" y1="97.301199" x2="219.498801" y2="97.301199" id="Path" stroke="#D3D9EB" stroke-width="10.54" stroke-linecap="round" stroke-linejoin="round"></line>
                    <line x1="0.137170264" y1="97.301199" x2="200.796163" y2="97.301199" id="Path" stroke="#D3D9EB" stroke-width="10.54" stroke-linecap="round" stroke-linejoin="round"></line>
                    <rect id="Rectangle" fill="#D3D9EB" fill-rule="nonzero" x="16.571223" y="107.319904" width="51.6076739" height="84.2278177"></rect>
                    <rect id="Rectangle" fill="#EAEDF4" fill-rule="nonzero" x="23.5352518" y="135.028297" width="37.6796163" height="3.60335731" rx="1.80167866"></rect>
                    <rect id="Rectangle" fill="#EAEDF4" fill-rule="nonzero" x="23.5352518" y="144.028777" width="27.3760192" height="3.60335731" rx="1.80167866"></rect>
                    <rect id="Rectangle" fill="#EAEDF4" fill-rule="nonzero" x="23.5352518" y="162.457074" width="11.6383693" height="3.60335731" rx="1.80167866"></rect>
                    <rect id="Rectangle" fill="#EAEDF4" fill-rule="nonzero" x="23.5352518" y="153.034532" width="35.7592326" height="3.60335731" rx="1.80167866"></rect>
                    <rect id="Rectangle" fill="#D3D9EB" fill-rule="nonzero" x="138.241247" y="107.319904" width="51.6076739" height="84.2278177"></rect>
                    <rect id="Rectangle" fill="#EAEDF4" fill-rule="nonzero" x="145.205276" y="135.028297" width="37.6796163" height="3.60335731" rx="1.80167866"></rect>
                    <rect id="Rectangle" fill="#EAEDF4" fill-rule="nonzero" x="145.205276" y="145.833094" width="27.3760192" height="3.60335731" rx="1.80167866"></rect>
                    <rect id="Rectangle" fill="#EAEDF4" fill-rule="nonzero" x="145.205276" y="156.63789" width="35.7592326" height="3.60335731" rx="1.80167866"></rect>
                    <rect id="Rectangle" fill="#EAEDF4" fill-rule="nonzero" x="145.205276" y="177.208153" width="35.7592326" height="3.60335731" rx="1.80167866"></rect>
                    <rect id="Rectangle" fill="#D4D7EA" fill-rule="nonzero" x="76.4196643" y="107.319904" width="51.6076739" height="67.6038369"></rect>
                    <rect id="Rectangle" fill="#EAEDF4" fill-rule="nonzero" x="84.3702638" y="135.028297" width="35.8594724" height="3.60335731" rx="1.80167866"></rect>
                    <rect id="Rectangle" fill="#EAEDF4" fill-rule="nonzero" x="84.3702638" y="144.028777" width="25.5558753" height="3.60335731" rx="1.80167866"></rect>
                    <polygon id="Path" fill="#FFFFFF" fill-rule="nonzero" points="43.593765 118.193285 32.3827338 118.193285 30.2513189 83.2148681 41.4623501 83.2148681"></polygon>
                    <polygon id="Path" fill="#D3D9EB" fill-rule="nonzero" points="47.5031175 118.193285 43.5779376 118.193285 41.4465228 83.2148681 45.3717026 83.2148681"></polygon>
                    <polygon id="Path" fill="#FFFFFF" fill-rule="nonzero" points="103.442206 118.193285 92.2258993 118.193285 90.0997602 83.2148681 101.310791 83.2148681"></polygon>
                    <polygon id="Path" fill="#D3D9EB" fill-rule="nonzero" points="107.351559 118.193285 103.426379 118.193285 101.294964 83.2148681 105.220144 83.2148681"></polygon>
                    <polygon id="Path" fill="#FFFFFF" fill-rule="nonzero" points="165.263789 118.193285 154.052758 118.193285 151.921343 83.2148681 163.132374 83.2148681"></polygon>
                    <polygon id="Path" fill="#D3D9EB" fill-rule="nonzero" points="169.173141 118.193285 165.247962 118.193285 163.116547 83.2148681 167.041727 83.2148681"></polygon>
                    <circle id="Oval" fill="#8BEA81" fill-rule="nonzero" cx="164.045084" cy="71.4446043" r="25.8882494"></circle>
                    <path d="M170.729496,61.8374101 L160.431175,72.1357314 L157.360671,69.0652278 C156.701702,68.4060712 155.807835,68.0357451 154.875779,68.0357451 C153.943723,68.0357451 153.049857,68.4060712 152.390887,69.0652278 L152.390887,69.0652278 C151.731731,69.7241973 151.361405,70.618064 151.361405,71.5501199 C151.361405,72.4821758 151.731731,73.3760426 152.390887,74.035012 L155.461391,77.1055156 L160.431175,82.0752998 L165.400959,77.1055156 L175.683453,66.8071942 C176.34261,66.1482248 176.712936,65.2543581 176.712936,64.3223022 C176.712936,63.3902462 176.34261,62.4963795 175.683453,61.8374101 L175.683453,61.8374101 C174.313028,60.4752874 172.099922,60.4752874 170.729496,61.8374101 Z" id="Path" fill="#FFFFFF" fill-rule="nonzero"></path>
                    <path d="M192.882494,5.00671463 C191.236451,5.23357314 190.038849,5.40767386 188.609113,6.90071942 C187.179376,8.39376499 187.063309,9.59136691 186.915588,11.2532374 C186.730935,13.1947242 186.504077,15.6690647 183.971703,18.3016787 C181.439329,20.9342926 178.991367,21.282494 177.039329,21.5515588 C175.38801,21.7784173 174.200959,21.952518 172.765947,23.4455635 C171.330935,24.9386091 171.220144,26.1414868 171.061871,27.8033573 C170.882494,29.7448441 170.65036,32.2139089 168.123261,34.8517986 C165.596163,37.4896882 163.142926,37.8326139 161.185612,38.1069544 L160.573621,33.6014388 C162.219664,33.3745803 163.401439,33.2004796 164.836451,31.7074341 C166.271463,30.2143885 166.38753,29.0220624 166.540528,27.3601918 C166.719904,25.3870504 166.946763,22.9179856 169.484412,20.2800959 C172.022062,17.6422062 174.464748,17.2992806 176.416787,17.0354916 C178.06283,16.8086331 179.255156,16.6345324 180.690168,15.1414868 C182.12518,13.6484412 182.235971,12.4455635 182.388969,10.783693 C182.573621,8.83693046 182.805755,6.37314149 185.332854,3.72997602 C187.859952,1.08681055 190.313189,0.749160671 192.265228,0.480095923 L192.58705,2.72230216 L192.265228,0.480095923 L192.882494,5.00671463 Z" id="Path" fill="#D3D9EB" fill-rule="nonzero"></path>
                    <path d="M124.139089,19.5889688 C126.298165,19.5889688 128.048441,21.3392456 128.048441,23.4983213 C128.048441,25.6573971 126.298165,27.4076739 124.139089,27.4076739 C121.980013,27.4076739 120.229736,25.6573971 120.229736,23.4983213 C120.229736,21.3392456 121.980013,19.5889688 124.139089,19.5889688 Z" id="Path" fill="#D3D9EB" fill-rule="nonzero"></path>
                    <line x1="202.943405" y1="45.4772182" x2="213.832614" y2="45.4772182" id="Path" stroke="#D3D9EB" stroke-width="7.24" stroke-linecap="round" stroke-linejoin="round"></line>
                    <line x1="208.372182" y1="50.9059952" x2="208.372182" y2="40.0167866" id="Path" stroke="#D3D9EB" stroke-width="7.24" stroke-linecap="round" stroke-linejoin="round"></line>
                    <line x1="76.5779376" y1="19.7314149" x2="76.5779376" y2="12.3769784" id="Path" stroke="#D3D9EB" stroke-width="4.89" stroke-linecap="round" stroke-linejoin="round"></line>
                    <line x1="80.2446043" y1="16.070024" x2="72.8901679" y2="16.070024" id="Path" stroke="#D3D9EB" stroke-width="4.89" stroke-linecap="round" stroke-linejoin="round"></line>
                    <path d="M74.9635492,47.2498801 C76.1347722,48.8326139 76.9894484,49.977458 79.3635492,50.6211031 C81.7376499,51.2647482 83.0565947,50.694964 84.8609113,49.9088729 C87.0398082,48.9856115 89.7410072,47.7985612 93.929976,48.9486811 C98.1189448,50.098801 99.8652278,52.4359712 101.263309,54.3194245 C102.434532,55.9021583 103.289209,57.0417266 105.663309,57.6853717 C108.03741,58.3290168 109.356355,57.7697842 111.165947,56.983693 C113.318465,56.0498801 116.019664,54.8733813 120.208633,56.0129496 C124.397602,57.152518 126.154436,59.5055156 127.541966,61.3889688 L123.210552,64.5913669 C122.034053,63.0086331 121.168825,61.8690647 118.805276,61.2201439 C116.441727,60.571223 115.11223,61.146283 113.302638,61.9270983 C111.155396,62.8609113 108.454197,64.0374101 104.265228,62.8925659 C100.076259,61.7477218 98.3194245,59.4052758 96.9266187,57.5059952 C95.7501199,55.9232614 94.8954436,54.7784173 92.5213429,54.1347722 C90.1472422,53.4911271 88.8282974,54.0556355 87.018705,54.8417266 C84.8450839,55.7702638 82.1386091,56.9520384 77.9549161,55.8071942 C73.771223,54.6623501 72.0143885,52.3146283 70.6215827,50.4311751 L72.7741007,48.8484412 L70.6215827,50.4311751 L74.9635492,47.2498801 Z" id="Path" fill="#D3D9EB" fill-rule="nonzero"></path>
                </g>
            </g>
        </g>
    </g>
</svg>