<?xml version="1.0" encoding="UTF-8"?>
<svg width="180px" height="180px" viewBox="0 0 180 180" version="1.1" xmlns="http://www.w3.org/2000/svg" xmlns:xlink="http://www.w3.org/1999/xlink">
    <title>F462557A-71BB-4828-80EC-6CFAC52BD82F</title>
    <g id="Beep-Delivery-2.0" stroke="none" stroke-width="1" fill="none" fill-rule="evenodd" opacity="0.98">
        <g id="06---Login---OTP---Error" transform="translate(-117.000000, -108.000000)">
            <g id="Organisms/Login/OTP" transform="translate(0.000000, 60.000000)">
                <g id="Content" transform="translate(16.000000, 48.000000)">
                    <g id="Atoms/Artwork/Beep-2.0/Login" transform="translate(101.000000, 0.000000)">
                        <g id="Beep-Error" transform="translate(37.500000, 18.000000)">
                            <g id="Group">
                                <g>
                                    <path d="M79.0474943,137.2 L37.243531,146.65 C30.6367507,148.166667 24.0884376,144.025 22.6267606,137.433333 L0.467736652,40.4833333 C-1.05240747,33.8916667 3.09875532,27.3583333 9.70553554,25.9 L51.4510318,16.45 C57.5316083,15.1083333 63.5537177,18.9 64.8984605,24.9083333 L87.5252211,123.783333 C88.9284311,129.85 85.1280708,135.858333 79.0474943,137.2 Z" id="Path" fill="#E4E9EF" fill-rule="nonzero"></path>
                                    <g transform="translate(11.108745, 0.000000)">
                                        <path d="M78.9305601,130.725 L32.975434,138.425 C25.7255159,139.65 18.8848673,134.75 17.6570586,127.575 L0.233868326,23.5666667 C-0.993940387,16.3333333 3.91729446,9.50833333 11.1087455,8.28333333 L57.1223387,0.583333333 C63.787586,-0.525 70.1020308,3.96666667 71.2129053,10.6166667 L88.9284311,116.666667 C90.0977727,123.316667 85.5958074,129.616667 78.9305601,130.725 Z" id="Path" fill="#A9B2C9" fill-rule="nonzero"></path>
                                        <path d="M57.1223387,7.75833333 L49.9308877,8.98333333 C49.2877498,9.1 48.8200131,9.74166667 48.9369473,10.4416667 L48.9369473,10.4416667 C49.2292827,12.1333333 48.1184081,13.7083333 46.4813298,14 L27.7718637,17.15 C26.1347855,17.4416667 24.6146413,16.275 24.3223059,14.5833333 L24.3223059,14.5833333 C24.2053718,13.8833333 23.5622339,13.4166667 22.919096,13.5333333 L15.786112,14.7 C12.161153,15.2833333 9.76400262,18.8416667 10.3486734,22.575 L27.0117917,121.333333 C27.7133967,125.65 31.6891582,128.566667 35.8987881,127.866667 L75.247134,121.275 C79.3982968,120.575 82.2047167,116.55 81.5031117,112.233333 L64.8399934,13.4166667 C64.1968556,9.68333333 60.7472977,7.175 57.1223387,7.75833333 Z" id="Path" fill="#FFFFFF" fill-rule="nonzero"></path>
                                        <ellipse id="Oval" stroke="#2F2922" stroke-width="1.2468" stroke-linecap="round" cx="45.136587" cy="10.675" rx="1" ry="1"></ellipse>
                                        <path d="M62.5013102,84.7 L37.7112676,88.8416667 C35.6649198,89.1916667 33.7939731,87.7916667 33.4431707,85.8083333 L30.9875532,71.05 C30.6367507,69.0083333 32.0399607,67.1416667 34.0278415,66.7916667 L58.817884,62.65 C60.8642319,62.3 62.7351785,63.7 63.085981,65.6833333 L65.5415984,80.4416667 C65.8924009,82.425 64.489191,84.35 62.5013102,84.7 Z" id="Path" fill="#D9DDE8" fill-rule="nonzero"></path>
                                        <path d="M44.5519161,48.65 C48.8200131,47.95 53.0881101,50.8083333 53.789715,55.0666667 L54.9005896,61.7166667 L37.301998,64.6916667 L36.1911235,58.0416667 C35.4895185,53.7833333 38.3544055,49.7583333 42.6225025,49 L44.5519161,48.65 M43.3241074,41.4166667 L41.3946937,41.7666667 C33.0923682,43.1666667 27.5379954,50.9833333 28.9412054,59.2666667 L31.2798886,73.2083333 L63.4367835,67.8416667 L61.0981002,53.9 C59.6948903,45.5583333 51.626433,40.0166667 43.3241074,41.4166667 L43.3241074,41.4166667 Z" id="Shape" fill="#D9DDE8" fill-rule="nonzero"></path>
                                    </g>
                                    <line x1="39.4652801" y1="13.7083333" x2="52.3865051" y2="11.6083333" id="Path" stroke="#2F2922" stroke-width="1.2468" stroke-linecap="round"></line>
                                </g>
                                <path d="M15.1429741,44.1 L14.3829021,44.2166667 C13.3304946,44.3916667 12.3365542,43.6916667 12.161153,42.6416667 L10.6410088,33.075 C10.4656076,32.025 11.1672126,31.0333333 12.21962,30.8583333 L12.9796921,30.7416667 C14.0320996,30.5666667 15.02604,31.2666667 15.2014412,32.3166667 L16.7215853,41.8833333 C16.8969866,42.9916667 16.1953816,43.925 15.1429741,44.1 Z" id="Path" fill="#A9B2C9" fill-rule="nonzero"></path>
                                <path d="M21.2235506,81.3166667 L20.4634785,81.4333333 C19.4110711,81.6083333 18.4171307,80.9083333 18.2417294,79.8583333 L16.7215853,70.2916667 C16.5461841,69.2416667 17.2477891,68.25 18.3001965,68.075 L19.0602686,67.9583333 C20.1126761,67.7833333 21.1066164,68.4833333 21.2820177,69.5333333 L22.8021618,79.1 C22.9775631,80.15 22.2759581,81.1416667 21.2235506,81.3166667 Z" id="Path" fill="#A9B2C9" fill-rule="nonzero"></path>
                                <path d="M17.5985915,59.7333333 L16.8385195,59.85 C15.786112,60.025 14.7921716,59.325 14.6167704,58.275 L13.0966263,48.7083333 C12.921225,47.6583333 13.62283,46.6666667 14.6752375,46.4916667 L15.4353095,46.375 C16.487717,46.2 17.4816574,46.9 17.6570586,47.95 L19.1772028,57.5166667 C19.352604,58.625 18.650999,59.5583333 17.5985915,59.7333333 Z" id="Path" fill="#A9B2C9" fill-rule="nonzero"></path>
                            </g>
                            <ellipse id="Oval" fill="#FF5A5A" fill-rule="nonzero" cx="86.8838028" cy="40.258794" rx="18.1161972" ry="18.0979899"></ellipse>
                            <polygon id="Rectangle" fill="#FFFFFF" fill-rule="nonzero" transform="translate(86.829671, 40.665920) rotate(45.000000) translate(-86.829671, -40.665920) " points="74.5506223 38.4492742 99.1087202 38.4492742 99.1087202 42.882565 74.5506223 42.882565"></polygon>
                            <polygon id="Rectangle" fill="#FFFFFF" fill-rule="nonzero" transform="translate(86.817147, 40.674588) rotate(135.000000) translate(-86.817147, -40.674588) " points="74.5380982 38.4579425 99.096196 38.4579425 99.096196 42.8912333 74.5380982 42.8912333"></polygon>
                        </g>
                    </g>
                </g>
            </g>
        </g>
    </g>
</svg>