<?xml version="1.0" encoding="UTF-8"?>
<svg width="240px" height="240px" viewBox="0 0 240 240" version="1.1" xmlns="http://www.w3.org/2000/svg" xmlns:xlink="http://www.w3.org/1999/xlink">
    <!-- Generator: Sketch 63.1 (92452) - https://sketch.com -->
    <title>Beep Delivery</title>
    <desc>Created with Sketch.</desc>
    <g id="Symbols" stroke="none" stroke-width="1" fill="none" fill-rule="evenodd">
        <g id="Atoms/Artwork/Beep/Delivery">
            <g id="Beep-Delivery">
                <g id="Beep-delivery-empty" transform="translate(120.000000, 150.000000) scale(-1, 1) translate(-120.000000, -150.000000) translate(5.000000, 87.000000)">
                    <line x1="0" y1="124.063694" x2="217" y2="124.063694" id="Path" stroke="#D3D9EB" stroke-width="8.07" stroke-linecap="round" stroke-linejoin="round"></line>
                    <line x1="225" y1="124.063694" x2="230" y2="124.063694" id="Path" stroke="#D3D9EB" stroke-width="8.07" stroke-linecap="round" stroke-linejoin="round"></line>
                    <circle id="Oval" fill="#D3D9EB" fill-rule="nonzero" cx="33" cy="102.063694" r="22"></circle>
                    <circle id="Oval" fill="#EEEFF6" fill-rule="nonzero" cx="41" cy="102.063694" r="22"></circle>
                    <circle id="Oval" fill="#FFFFFF" fill-rule="nonzero" cx="41" cy="102.063694" r="12"></circle>
                    <circle id="Oval" fill="#D3D9EB" fill-rule="nonzero" cx="41" cy="102.063694" r="5"></circle>
                    <circle id="Oval" fill="#D3D9EB" fill-rule="nonzero" cx="121" cy="102.063694" r="22"></circle>
                    <circle id="Oval" fill="#EEEFF6" fill-rule="nonzero" cx="128" cy="102.063694" r="22"></circle>
                    <circle id="Oval" fill="#FFFFFF" fill-rule="nonzero" cx="128" cy="102.063694" r="12"></circle>
                    <circle id="Oval" fill="#D3D9EB" fill-rule="nonzero" cx="128" cy="102.063694" r="5"></circle>
                    <path d="M135,39.0636943 C135,39.0636943 123.76,51.1810706 119,65.0636943" id="Path" stroke="#FFFFFF" stroke-width="8.07" stroke-linecap="round" stroke-linejoin="round"></path>
                    <path d="M11,91.396481 L49.1195621,91.396481 C49.1182579,93.6947165 50.0296682,95.8992688 51.6531552,97.5248282 C53.2766421,99.1503875 55.4791165,100.063694 57.7757257,100.063694 L95.6249363,100.063694 C99.9422291,100.063694 104.082625,98.3471053 107.134951,95.291695 C110.187277,92.2362847 111.901401,88.0924383 111.900097,83.772088 L150,83.772088 L150,75.3262282 C150.002618,70.9416513 148.261563,66.7362609 145.161088,63.6382044 C142.060613,60.5401478 137.855612,58.8041197 133.474147,58.8132686 L91.3927064,58.8132686 L91.3927064,81.1748754 C91.3927064,87.2004459 86.5114735,92.0851359 80.4901676,92.0851359 L73.8837599,92.0851359 C70.6074992,92.0855852 67.5047223,90.6116221 65.4338609,88.0710413 C63.3629995,85.5304606 62.5436205,82.192632 63.2024177,78.9810178 L72.6843823,32.541086 C73.3054128,29.4908517 72.2566446,26.3404446 69.9317124,24.2723088 L69.9317124,24.2723088 C68.3371258,22.8510875 66.2766239,22.0651617 64.1412748,22.0636943 L55.3327312,22.0636943 L55.3327312,46.6585104 L55.3327312,46.6585104 C52.8114948,46.6598152 50.5329128,48.1625397 49.5373781,50.4805449 L40.0013432,72.7486914 L24.1636605,78.2284165 C17.5818303,80.564924 11,84.1311724 11,91.396481 Z" id="Path" fill="#D3D9EB" fill-rule="nonzero"></path>
                    <path d="M150,75.3262267 C150,70.9471701 148.263506,66.7470216 145.169041,63.6500996 C142.074576,60.5531776 137.877027,58.8132674 133.500141,58.8132676 L98.5583965,58.8132676 L98.5583965,82.1193148 C98.5583965,87.6232847 94.0987587,92.085134 88.5975166,92.085134 L73.8971063,92.085134 C70.6201503,92.0855833 67.5167149,90.6116202 65.445414,88.0710395 C63.374113,85.5304589 62.5545601,82.1926304 63.2134972,78.9810163 L72.6974742,32.5361667 C73.3178118,29.4874518 72.2688125,26.3388935 69.9442201,24.2723087 L69.9442201,24.2723087 C68.3497795,22.8502898 66.288525,22.0636943 64.1525535,22.0636943 L55.3421404,22.0636943 L55.3421404,46.6585098 L55.3421404,46.6585098 C52.8203689,46.6598145 50.5413033,48.162539 49.5455572,50.4805441 L40.0074984,72.7486901 L24.1664544,78.228415 C17.1948217,80.9977912 11,84.1311707 11,91.3964792 L37.7016481,91.3964792 C43.0016623,91.3964792 47.8985213,93.7772573 51.6449135,97.5255072 C53.2669439,99.1519675 55.4695266,100.065298 57.7659873,100.063694 L95.623231,100.063694 C101.290769,100.059473 106.547393,97.1037181 109.497665,92.2622167 C112.806534,86.9441149 118.635077,83.7230486 124.896222,83.7524105 L150,83.7524105 L150,75.3262267 Z" id="Path" fill="#D3D9EB" fill-rule="nonzero"></path>
                    <rect id="Rectangle" fill="#D3D9EB" fill-rule="nonzero" x="85" y="50.0636943" width="51" height="9" rx="4.5"></rect>
                    <rect id="Rectangle" fill="#FFFFFF" fill-rule="nonzero" x="116" y="76.0636943" width="22" height="2" rx="1"></rect>
                    <rect id="Rectangle" fill="#FFFFFF" fill-rule="nonzero" x="116" y="73.0636943" width="22" height="2" rx="1"></rect>
                    <rect id="Rectangle" fill="#FFFFFF" fill-rule="nonzero" x="116" y="69.0636943" width="22" height="2" rx="1"></rect>
                    <line x1="121" y1="38.0636943" x2="171" y2="38.0636943" id="Path" stroke="#D3D9EB" stroke-width="8.07" stroke-linecap="round" stroke-linejoin="round"></line>
                    <path d="M156,39.0636943 C156,39.0636943 144.755,51.1810706 140,65.0636943" id="Path" stroke="#D3D9EB" stroke-width="8.07" stroke-linecap="round" stroke-linejoin="round"></path>
                    <rect id="Rectangle" fill="#FFFFFF" fill-rule="nonzero" x="94" y="50.0636943" width="43" height="9" rx="4.5"></rect>
                    <rect id="Rectangle" fill="#D3D9EB" fill-rule="nonzero" x="98" y="58.0636943" width="34" height="2"></rect>
                    <path d="M53.2129915,22.0636943 L54.4765812,22.0636943 C57.5270812,22.0636943 60,24.6401404 60,27.8183479 L60,31.309039 C60,34.4872464 57.5270812,37.0636943 54.4765812,37.0636943 L53.2129915,37.0636943 C49.2394691,37.0664643 46.0131914,33.7185032 46,29.5786535 L46,29.5786535 C46,25.4310102 49.2272234,22.068681 53.2082051,22.068681 L53.2129915,22.0636943 Z" id="Path" fill="#FFFFFF" fill-rule="nonzero"></path>
                    <path d="M62.7291298,23.0231836 L69.9869246,18.0636943 L72,20.1133031 L68.627002,26.393756 C68.0889581,27.3972996 67.0257051,28.0374363 65.8545808,28.0629059 C64.6834566,28.0883755 63.591365,27.4951131 63.0069635,26.5159803 L62.2319538,25.2185215 C61.7854821,24.4726444 62.0008633,23.5216042 62.7291298,23.0231836 Z" id="Path" fill="#EEEFF6" fill-rule="nonzero"></path>
                    <path d="M83,16.0636943 C83,21.5881022 79.5745538,26.0636943 75.3857225,26.0636943 C71.1968912,26.0636943 66,21.5881022 66,16.0636943 C66,10.5392863 71.1822107,6.06369427 75.3857225,6.06369427 C79.5892343,6.06369427 83,10.5441196 83,16.0636943 Z" id="Path" fill="#FFFFFF" fill-rule="nonzero"></path>
                    <path d="M104.35874,81.0636943 L101,81.0636943 C101,81.0636943 101.396341,65.8608177 111,62.0636943 C111,62.0636943 104.35874,68.2675802 104.35874,81.0636943 Z" id="Path" fill="#FFFFFF" fill-rule="nonzero"></path>
                    <polygon id="Path" fill="#D3D9EB" fill-rule="nonzero" points="131 125.063694 141 125.063694 141 122.484147 134.024752 118.911326 134.024752 89.0636943 131 89.0636943"></polygon>
                    <path d="M134,67.0636943 L134,67.0636943 L134,96.0636943 L131,96.0636943 L131,70.0425758 C131.00542,68.3958012 132.346979,67.0636943 134,67.0636943 L134,67.0636943 Z" id="Path" fill="#D3D9EB" fill-rule="nonzero"></path>
                    <rect id="Rectangle" fill="#EEEFF6" fill-rule="nonzero" x="134" y="63.0636943" width="62" height="62" rx="12.32"></rect>
                    <rect id="Rectangle" fill="#D3D9EB" fill-rule="nonzero" x="161" y="63.0636943" width="47" height="62" rx="10.99"></rect>
                    <rect id="Rectangle" fill="#FFFFFF" fill-rule="nonzero" x="185" y="82.0636943" width="23" height="12"></rect>
                    <circle id="Oval" fill="#D3D9EB" fill-rule="nonzero" cx="110" cy="3.06369427" r="3"></circle>
                    <circle id="Oval" fill="#D3D9EB" fill-rule="nonzero" cx="120" cy="3.06369427" r="3"></circle>
                    <circle id="Oval" fill="#D3D9EB" fill-rule="nonzero" cx="131" cy="3.06369427" r="3"></circle>
                </g>
            </g>
        </g>
    </g>
</svg>