<?xml version="1.0" encoding="UTF-8"?>
<svg width="240px" height="240px" viewBox="0 0 240 240" version="1.1" xmlns="http://www.w3.org/2000/svg" xmlns:xlink="http://www.w3.org/1999/xlink">
    <!-- Generator: Sketch 63.1 (92452) - https://sketch.com -->
    <title>Order Pending</title>
    <desc>Created with Sketch.</desc>
    <g id="Symbols" stroke="none" stroke-width="1" fill="none" fill-rule="evenodd">
        <g id="Atoms/Artwork/Beep/Order-Pending">
            <g id="Order-Pending">
                <g id="Beep-delivery-order-pending" transform="translate(10.000000, 47.000000)">
                    <polygon id="Path" fill="#DEE1EE" fill-rule="nonzero" points="99.0791367 72.8215827 110.295444 72.8215827 112.421583 37.8431655 101.210552 37.8431655"></polygon>
                    <polygon id="Path" fill="#D3D9EB" fill-rule="nonzero" points="106.370264 72.8215827 110.295444 72.8215827 112.421583 37.8431655 108.496403 37.8431655"></polygon>
                    <polygon id="Path" fill="#DEE1EE" fill-rule="nonzero" points="160.905995 72.8215827 172.117026 72.8215827 174.243165 37.8431655 163.032134 37.8431655"></polygon>
                    <polygon id="Path" fill="#D3D9EB" fill-rule="nonzero" points="168.191847 72.8215827 172.117026 72.8215827 174.243165 37.8431655 170.323261 37.8431655"></polygon>
                    <polygon id="Path" fill="#DEE1EE" fill-rule="nonzero" points="39.2306954 72.8215827 50.4470024 72.8215827 52.5731415 37.8431655 41.3621103 37.8431655"></polygon>
                    <polygon id="Path" fill="#D3D9EB" fill-rule="nonzero" points="46.5218225 72.8215827 50.4470024 72.8215827 52.5731415 37.8431655 48.6532374 37.8431655"></polygon>
                    <line x1="210.978417" y1="51.9294964" x2="219.498801" y2="51.9294964" id="Path" stroke="#D3D9EB" stroke-width="10.54" stroke-linecap="round" stroke-linejoin="round"></line>
                    <line x1="0.137170264" y1="51.9294964" x2="200.796163" y2="51.9294964" id="Path" stroke="#D3D9EB" stroke-width="10.54" stroke-linecap="round" stroke-linejoin="round"></line>
                    <rect id="Rectangle" fill="#D3D9EB" fill-rule="nonzero" x="16.571223" y="61.9482014" width="51.6076739" height="84.2278177"></rect>
                    <rect id="Rectangle" fill="#EAEDF4" fill-rule="nonzero" x="23.5352518" y="89.6565947" width="37.6796163" height="3.60335731" rx="1.80167866"></rect>
                    <rect id="Rectangle" fill="#EAEDF4" fill-rule="nonzero" x="23.5352518" y="98.6570743" width="27.3760192" height="3.60335731" rx="1.80167866"></rect>
                    <rect id="Rectangle" fill="#EAEDF4" fill-rule="nonzero" x="23.5352518" y="117.085372" width="11.6383693" height="3.60335731" rx="1.80167866"></rect>
                    <rect id="Rectangle" fill="#EAEDF4" fill-rule="nonzero" x="23.5352518" y="107.66283" width="35.7592326" height="3.60335731" rx="1.80167866"></rect>
                    <rect id="Rectangle" fill="#D3D9EB" fill-rule="nonzero" x="138.241247" y="61.9482014" width="51.6076739" height="84.2278177"></rect>
                    <rect id="Rectangle" fill="#EAEDF4" fill-rule="nonzero" x="145.205276" y="89.6565947" width="37.6796163" height="3.60335731" rx="1.80167866"></rect>
                    <rect id="Rectangle" fill="#EAEDF4" fill-rule="nonzero" x="145.205276" y="100.461391" width="27.3760192" height="3.60335731" rx="1.80167866"></rect>
                    <rect id="Rectangle" fill="#EAEDF4" fill-rule="nonzero" x="145.205276" y="111.266187" width="35.7592326" height="3.60335731" rx="1.80167866"></rect>
                    <rect id="Rectangle" fill="#EAEDF4" fill-rule="nonzero" x="145.205276" y="131.836451" width="35.7592326" height="3.60335731" rx="1.80167866"></rect>
                    <rect id="Rectangle" fill="#D4D7EA" fill-rule="nonzero" x="76.4196643" y="61.9482014" width="51.6076739" height="67.6038369"></rect>
                    <rect id="Rectangle" fill="#EAEDF4" fill-rule="nonzero" x="84.3702638" y="89.6565947" width="35.8594724" height="3.60335731" rx="1.80167866"></rect>
                    <rect id="Rectangle" fill="#EAEDF4" fill-rule="nonzero" x="84.3702638" y="98.6570743" width="25.5558753" height="3.60335731" rx="1.80167866"></rect>
                    <polygon id="Path" fill="#FFFFFF" fill-rule="nonzero" points="43.593765 72.8215827 32.3827338 72.8215827 30.2513189 37.8431655 41.4623501 37.8431655"></polygon>
                    <polygon id="Path" fill="#D3D9EB" fill-rule="nonzero" points="47.5031175 72.8215827 43.5779376 72.8215827 41.4465228 37.8431655 45.3717026 37.8431655"></polygon>
                    <polygon id="Path" fill="#FFFFFF" fill-rule="nonzero" points="103.442206 72.8215827 92.2258993 72.8215827 90.0997602 37.8431655 101.310791 37.8431655"></polygon>
                    <polygon id="Path" fill="#D3D9EB" fill-rule="nonzero" points="107.351559 72.8215827 103.426379 72.8215827 101.294964 37.8431655 105.220144 37.8431655"></polygon>
                    <polygon id="Path" fill="#FFFFFF" fill-rule="nonzero" points="165.263789 72.8215827 154.052758 72.8215827 151.921343 37.8431655 163.132374 37.8431655"></polygon>
                    <polygon id="Path" fill="#D3D9EB" fill-rule="nonzero" points="169.173141 72.8215827 165.247962 72.8215827 163.116547 37.8431655 167.041727 37.8431655"></polygon>
                    <circle id="Oval" fill="#FFC77D" fill-rule="nonzero" cx="164.045084" cy="26.0729017" r="25.5769784"></circle>
                    <polyline id="Path" stroke="#FFFFFF" stroke-width="10.05" stroke-linecap="round" stroke-linejoin="round" points="164.045084 10.5515588 164.045084 25.4925659 172.618225 34.983693"></polyline>
                </g>
            </g>
        </g>
    </g>
</svg>