<svg width="120" height="120" xmlns="http://www.w3.org/2000/svg"><defs><linearGradient x1="-34.464%" y1="59.389%" x2="197.038%" y2="21.143%" id="a"><stop stop-color="#FF9419" offset="0%"/><stop stop-color="#FFF" offset="100%"/></linearGradient><linearGradient x1="142.813%" y1="242.397%" x2="11.435%" y2="-29.949%" id="b"><stop stop-color="#FF9419" offset="0%"/><stop stop-color="#FFF" offset="100%"/></linearGradient><linearGradient x1="97.868%" y1="238.903%" x2="31.798%" y2="-27.662%" id="c"><stop stop-color="#FF9419" offset="0%"/><stop stop-color="#FFF" offset="100%"/></linearGradient><linearGradient x1="45.881%" y1="214.358%" x2="55.243%" y2="-159.196%" id="d"><stop stop-color="#FF9419" offset="0%"/><stop stop-color="#FFF" offset="100%"/></linearGradient><linearGradient x1="-155.396%" y1="136.683%" x2="410.326%" y2="-102.066%" id="e"><stop stop-color="#FF9419" offset="0%"/><stop stop-color="#FFF" offset="100%"/></linearGradient><linearGradient x1="-90.464%" y1="339.771%" x2="70.469%" y2="7.774%" id="g"><stop stop-color="#FF9419" offset="0%"/><stop stop-color="#FFF" offset="100%"/></linearGradient><linearGradient x1="-80.889%" y1="371.641%" x2="69.106%" y2="3.063%" id="h"><stop stop-color="#FF9419" offset="0%"/><stop stop-color="#FFF" offset="100%"/></linearGradient><linearGradient x1="-42.08%" y1="62.654%" x2="208.877%" y2="10.883%" id="i"><stop stop-color="#FF9419" offset="0%"/><stop stop-color="#FFF" offset="100%"/></linearGradient><linearGradient x1="99.108%" y1="245.898%" x2="32.156%" y2="-21.174%" id="j"><stop stop-color="#FF9419" offset="0%"/><stop stop-color="#FFF" offset="100%"/></linearGradient><linearGradient x1="74.621%" y1="241.737%" x2="40.944%" y2="-19.696%" id="k"><stop stop-color="#FF9419" offset="0%"/><stop stop-color="#FFF" offset="100%"/></linearGradient><linearGradient x1="27.711%" y1="183.508%" x2="78.271%" y2="-119.322%" id="l"><stop stop-color="#FF9419" offset="0%"/><stop stop-color="#FFF" offset="100%"/></linearGradient><linearGradient x1="-141.668%" y1="130.892%" x2="424.032%" y2="-107.857%" id="m"><stop stop-color="#FF9419" offset="0%"/><stop stop-color="#FFF" offset="100%"/></linearGradient><linearGradient x1="-90.46%" y1="339.763%" x2="70.472%" y2="7.766%" id="o"><stop stop-color="#FF9419" offset="0%"/><stop stop-color="#FFF" offset="100%"/></linearGradient><radialGradient cx="-164.192%" cy="182.988%" fx="-164.192%" fy="182.988%" r="312.64%" gradientTransform="scale(1 .97913) rotate(12.171 -1.825 1.85)" id="f"><stop stop-color="#FF9419" offset="0%"/><stop stop-color="#FFF" offset="100%"/></radialGradient><radialGradient cx="-189.879%" cy="176.217%" fx="-189.879%" fy="176.217%" r="371.816%" gradientTransform="scale(1 .97909) rotate(12.171 -2.075 1.781)" id="n"><stop stop-color="#FF9419" offset="0%"/><stop stop-color="#FFF" offset="100%"/></radialGradient></defs><g fill="none" fill-rule="evenodd"><circle fill="#FFF3E9" fill-rule="nonzero" cx="60" cy="60" r="60"/><g transform="translate(28.966 101.793)" fill="#FFB663" fill-rule="nonzero"><ellipse cx="39.335" cy="2.069" rx="22.734" ry="2.069"/><ellipse cx="19.873" cy="2.069" rx="19.873" ry="1.81"/></g><path d="M58.622 60.629a13.542 13.542 0 0 1 .129-4.75" stroke="#FFF" stroke-width="4.531" stroke-linecap="round" stroke-linejoin="round"/><g fill-rule="nonzero"><path d="M73.387 12.003c1.552 7.49-2.728 14.809-9.86 16.86L26.46 39.507 19.07 3.895 57.552.07c7.41-.737 14.283 4.443 15.835 11.933z" fill="url(#a)" transform="translate(4.138 33.931)"/><path d="M6.102 18.31C8.196 6.309 19.467-1.436 31.27 1.01c11.808 2.444 19.677 14.154 17.583 26.155-2.093 12-13.365 19.745-25.168 17.3C11.882 42.02 4.01 30.31 6.102 18.31z" fill="url(#b)" transform="translate(4.138 33.931)"/><path fill="url(#c)" d="m27.145 46.22 8.451-2.715L23.14.9 12.8 4.17z" transform="translate(4.138 33.931)"/><path d="M.337 20.189C2.431 8.188 13.702.443 25.505 2.889c11.803 2.444 19.677 14.154 17.583 26.155-2.093 12-13.365 19.745-25.168 17.3C6.112 43.894-1.756 32.184.337 20.19z" fill="url(#d)" transform="translate(4.138 33.931)"/><path d="M4.87 21.123C6.52 11.666 15.399 5.56 24.706 7.487 34.013 9.413 40.211 18.642 38.561 28.1c-1.65 9.457-10.53 15.562-19.836 13.636C9.418 39.809 3.215 30.58 4.87 21.123z" fill="url(#e)" transform="translate(4.138 33.931)"/><path d="M7.262 20.464C8.804 11.624 17.106 5.92 25.804 7.72c8.699 1.8 14.495 10.428 12.953 19.267-1.542 8.84-9.843 14.544-18.542 12.743-8.699-1.8-14.5-10.428-12.953-19.267z" fill="url(#f)" transform="translate(4.138 33.931)"/><path fill="url(#g)" d="m18.893 0 9.637 5.74L9.637 37.856 0 32.11z" transform="translate(8.404 39.165)"/><path fill="url(#h)" d="m32.119 7.334 4.114 2.456-18.887 32.114-4.12-2.455z" transform="translate(8.404 39.165)"/></g><g fill-rule="nonzero"><path d="M70.851 12.436c1.552 7.49-2.727 14.809-9.859 16.859L23.924 39.941l-7.39-35.618L55.017.497C62.426-.24 69.3 4.941 70.851 12.436z" fill="url(#i)" transform="translate(48.832 44.798)"/><path d="M6.103 17.751c2.094-12 13.366-19.745 25.168-17.3 11.803 2.445 19.677 14.155 17.583 26.155-2.093 12.001-13.365 19.745-25.168 17.3C11.878 41.463 4.005 29.753 6.103 17.752z" fill="url(#j)" transform="translate(48.832 44.798)"/><path fill="url(#k)" d="m27.146 45.661 8.452-2.715L23.14.347 12.8 3.612z" transform="translate(48.832 44.798)"/><path d="M.339 19.63c2.093-12 13.365-19.745 25.168-17.3C37.315 4.775 45.183 16.485 43.09 28.485c-2.094 12.001-13.366 19.745-25.168 17.3C6.114 43.342-1.76 31.632.339 19.63z" fill="url(#l)" transform="translate(48.832 44.798)"/><path d="M4.866 20.57c1.65-9.458 10.53-15.562 19.836-13.636C34.01 8.86 40.207 18.088 38.557 27.546c-1.65 9.457-10.529 15.561-19.836 13.636C9.414 39.256 3.216 30.022 4.866 20.57z" fill="url(#m)" transform="translate(48.832 44.798)"/><path d="M7.258 19.905C8.8 11.065 17.102 5.361 25.801 7.162 34.499 8.963 40.295 17.59 38.753 26.43c-1.542 8.84-9.843 14.544-18.542 12.743-8.699-1.801-14.494-10.428-12.953-19.268z" fill="url(#n)" transform="translate(48.832 44.798)"/><path fill="url(#o)" d="m31.509 7.541 9.637 5.741-18.893 32.114-9.637-5.746z" transform="translate(48.832 44.798)"/></g></g></svg>