<?xml version="1.0" encoding="UTF-8"?>
<svg width="240px" height="240px" viewBox="0 0 240 240" version="1.1" xmlns="http://www.w3.org/2000/svg" xmlns:xlink="http://www.w3.org/1999/xlink">
    <!-- Generator: Sketch 63.1 (92452) - https://sketch.com -->
    <title>On the Way</title>
    <desc>Created with Sketch.</desc>
    <g id="Symbols" stroke="none" stroke-width="1" fill="none" fill-rule="evenodd">
        <g id="Atoms/Artwork/Beep/On-the-Way">
            <g id="On-the-Way">
                <g id="Beep-delivery-success" transform="translate(120.000000, 129.929019) scale(-1, 1) translate(-120.000000, -129.929019) translate(0.000000, 44.000000)">
                    <line x1="0.481002088" y1="171.517328" x2="221.696868" y2="171.517328" id="Path" stroke="#D3D9EB" stroke-width="8.07" stroke-linecap="round" stroke-linejoin="round"></line>
                    <line x1="230.299791" y1="171.517328" x2="235.861378" y2="171.517328" id="Path" stroke="#D3D9EB" stroke-width="8.07" stroke-linecap="round" stroke-linejoin="round"></line>
                    <circle id="Oval" fill="#D3D9EB" fill-rule="nonzero" cx="33.840501" cy="149.275992" r="22.2413361"></circle>
                    <circle id="Oval" fill="#EEEFF6" fill-rule="nonzero" cx="41.7820459" cy="149.275992" r="22.2413361"></circle>
                    <circle id="Oval" fill="#FFFFFF" fill-rule="nonzero" cx="41.7820459" cy="149.275992" r="12.4609603"></circle>
                    <circle id="Oval" fill="#D3D9EB" fill-rule="nonzero" cx="41.7820459" cy="149.275992" r="4.95031315"></circle>
                    <circle id="Oval" fill="#D3D9EB" fill-rule="nonzero" cx="123.642589" cy="149.275992" r="22.2413361"></circle>
                    <circle id="Oval" fill="#EEEFF6" fill-rule="nonzero" cx="131.584134" cy="149.275992" r="22.2413361"></circle>
                    <circle id="Oval" fill="#FFFFFF" fill-rule="nonzero" cx="131.584134" cy="149.275992" r="12.4609603"></circle>
                    <circle id="Oval" fill="#D3D9EB" fill-rule="nonzero" cx="131.584134" cy="149.275992" r="4.95031315"></circle>
                    <path d="M138.227975,84.6313152 C138.227975,84.6313152 126.964509,96.8066806 122.194572,110.755741" id="Path" stroke="#FFFFFF" stroke-width="8.07" stroke-linecap="round" stroke-linejoin="round"></path>
                    <path d="M11.5991649,137.406263 L50.4350731,137.406263 C50.4337437,139.747237 51.3627605,141.992787 53.0176097,143.648576 C54.6724589,145.304364 56.9174803,146.234656 59.2584551,146.234656 L97.8388309,146.234656 C102.239524,146.234656 106.459904,144.486144 109.571194,141.373914 C112.682485,138.261684 114.429722,134.040777 114.428392,129.640084 L153.264301,129.640084 L153.264301,121.037161 C153.264301,116.574932 151.493264,112.295156 148.337522,109.140354 C145.18178,105.985552 140.901476,104.21446 136.439248,104.217119 L93.5398747,104.217119 L93.5398747,126.994572 C93.5398747,133.132197 88.5643469,138.107724 82.4267223,138.107724 L75.6977035,138.107724 C72.3581525,138.108182 69.1954367,136.606809 67.0845707,134.018982 C64.9737047,131.431156 64.1384971,128.031255 64.8100209,124.759916 L74.4751566,77.4563674 C75.108184,74.3494097 74.0391559,71.1404162 71.6693111,69.0338205 L71.6693111,69.0338205 C70.0439205,67.5861696 67.9436141,66.7856284 65.7670146,66.7841336 L56.788309,66.7841336 L56.788309,91.8363257 L56.788309,91.8363257 C54.2179721,91.8363359 51.8947125,93.3674408 50.8810021,95.7294363 L41.1607516,118.411691 L25.017119,123.993319 C18.308142,126.373278 11.5991649,130.005846 11.5991649,137.406263 Z" id="Path" fill="#D3D9EB" fill-rule="nonzero"></path>
                    <path d="M153.25428,121.037161 C153.25428,116.576669 151.484617,112.298413 148.331043,109.143899 C145.177469,105.989385 140.89974,104.217119 136.439248,104.217119 L100.830063,104.217119 L100.830063,127.956576 C100.832832,133.560946 96.2933027,138.107203 90.6889353,138.112735 L75.7077244,138.112735 C72.3653427,138.116517 69.1987614,136.615755 67.0854139,134.026297 C64.9720665,131.436839 64.1364184,128.03372 64.8100209,124.759916 L74.4751566,77.451357 C75.1073436,74.3459468 74.0383068,71.1388364 71.6693111,69.0338205 L71.6693111,69.0338205 C70.0439205,67.5861696 67.9436141,66.7856284 65.7670146,66.7841336 L56.788309,66.7841336 L56.788309,91.8363257 L56.788309,91.8363257 C54.2179721,91.8363359 51.8947125,93.3674408 50.8810021,95.7294363 L41.1607516,118.411691 L25.017119,123.993319 C17.9123173,126.814196 11.5991649,130.005846 11.5991649,137.406263 L38.8108559,137.406263 C44.2121086,137.406263 49.2025052,139.831315 53.0204593,143.649269 C54.673473,145.305976 56.9181284,146.236291 59.2584551,146.234658 L97.8388309,146.234658 C103.613858,146.227423 108.969555,143.217453 111.978288,138.2881 C115.350362,132.871101 121.290239,129.590134 127.670981,129.620042 L153.25428,129.620042 L153.25428,121.037161 Z" id="Path" fill="#D3D9EB" fill-rule="nonzero"></path>
                    <rect id="Rectangle" fill="#D3D9EB" fill-rule="nonzero" x="87.7177453" y="95.4839248" width="52.0334029" height="8.73820459" rx="4.3691023"></rect>
                    <rect id="Rectangle" fill="#FFFFFF" fill-rule="nonzero" x="118.551983" y="122.755741" width="22.2563674" height="1.9440501" rx="0.972025052"></rect>
                    <rect id="Rectangle" fill="#FFFFFF" fill-rule="nonzero" x="118.551983" y="119.243424" width="22.2563674" height="1.9440501" rx="0.972025052"></rect>
                    <rect id="Rectangle" fill="#FFFFFF" fill-rule="nonzero" x="118.551983" y="115.731106" width="22.2563674" height="1.9440501" rx="0.972025052"></rect>
                    <line x1="124.394154" y1="83.9248434" x2="175.405428" y2="83.9248434" id="Path" stroke="#D3D9EB" stroke-width="8.07" stroke-linecap="round" stroke-linejoin="round"></line>
                    <path d="M159.517328,84.6313152 C159.517328,84.6313152 148.253862,96.8066806 143.483925,110.755741" id="Path" stroke="#D3D9EB" stroke-width="8.07" stroke-linecap="round" stroke-linejoin="round"></path>
                    <rect id="Rectangle" fill="#EEEFF6" fill-rule="nonzero" x="96.1653445" y="95.4839248" width="44.2471816" height="8.73820459" rx="4.3691023"></rect>
                    <rect id="Rectangle" fill="#D3D9EB" fill-rule="nonzero" x="100.534447" y="104.222129" width="35.0680585" height="1.85386221"></rect>
                    <path d="M54.9995825,66.7991649 L56.3223382,66.7991649 C57.8601682,66.7925018 59.3372983,67.3987371 60.4270666,68.4838041 C61.5168349,69.5688711 62.1294363,71.0433665 62.1294363,72.5812109 L62.1294363,76.0885177 C62.1294363,79.2818535 59.5407262,81.8705637 56.3473904,81.8705637 L55.0246347,81.8705637 C50.8572484,81.8705637 47.4789144,78.4922296 47.4789144,74.3248434 L47.4789144,74.3248434 C47.4789144,72.323594 48.2739076,70.4043105 49.6890047,68.9892135 C51.1041017,67.5741164 53.0233852,66.7791232 55.0246347,66.7791232 L54.9995825,66.7991649 Z" id="Path" fill="#FFFFFF" fill-rule="nonzero"></path>
                    <path d="M64.6346555,67.7411273 L72.0951983,62.4551148 L74.1544885,64.6346555 L70.6922756,71.3286013 C70.1377079,72.3979143 69.0441072,73.0796605 67.8398483,73.1067929 C66.6355894,73.1339252 65.5123941,72.5021241 64.9102296,71.4588727 L64.1336117,70.0810021 C63.6726095,69.288479 63.8895466,68.2753826 64.6346555,67.7411273 Z" id="Path" fill="#EEEFF6" fill-rule="nonzero"></path>
                    <path d="M84.9419624,61.3728601 C84.9419624,67.0997912 81.4346555,71.7394572 77.1457203,71.7394572 C72.856785,71.7394572 67.5356994,67.0997912 67.5356994,61.3728601 C67.5356994,55.645929 72.8417537,51.006263 77.1607516,51.006263 C81.4797495,51.006263 84.9419624,55.6509395 84.9419624,61.3728601 Z" id="Path" fill="#FFFFFF" fill-rule="nonzero"></path>
                    <path d="M107.183299,128.051775 L103.871399,128.051775 C103.871399,128.051775 104.262213,112.163674 113.731944,108.195407 C113.736952,108.195407 107.183299,114.678914 107.183299,128.051775 Z" id="Path" fill="#EEEFF6" fill-rule="nonzero"></path>
                    <rect id="Rectangle" fill="#EEEFF6" fill-rule="nonzero" x="116.156994" y="18.959499" width="63.0463466" height="62.97119" rx="12.32"></rect>
                    <rect id="Rectangle" fill="#D3D9EB" fill-rule="nonzero" x="143.749478" y="18.959499" width="47.7494781" height="62.97119" rx="10.99"></rect>
                    <rect id="Rectangle" fill="#FFFFFF" fill-rule="nonzero" x="167.624217" y="38.7206681" width="23.874739" height="12.7114823"></rect>
                    <path d="M86.2597077,7.18997912 L84.0250522,6.86931106 L86.2597077,7.18997912 C85.9891441,9.13402923 85.6484342,11.5741127 83.0229645,14.0893528 C80.3974948,16.6045929 77.94238,16.8350731 76.0083507,17.0154489 C74.3549061,17.1707724 73.1624217,17.2810021 71.6743215,18.708977 C70.1862213,20.136952 70.0158664,21.3194154 69.7903967,22.9578288 C69.5248434,24.9018789 69.1791232,27.336952 66.5586639,29.8572025 C63.9382046,32.377453 61.4780793,32.6029228 59.5189979,32.7832985 C57.8655532,32.9336117 56.6730689,33.0488518 55.1899791,34.4768267 C53.7068894,35.9048017 53.531524,37.0822547 53.3060543,38.7206681 L48.8267223,38.1093946 C49.097286,36.1653445 49.4379958,33.725261 52.0634656,31.2100209 C54.6889353,28.6947808 57.1440501,28.4643006 59.0780793,28.2839248 C60.731524,28.1286013 61.9290188,28.0183716 63.4121086,26.5903967 C64.8951983,25.1624217 65.0705637,23.9799582 65.2960334,22.3415449 C65.5615866,20.3974948 65.9073069,17.9624217 68.5277662,15.4421712 C71.1482255,12.9219207 73.6083507,12.6964509 75.54238,12.5160752 C77.1958246,12.365762 78.388309,12.2505219 79.8713987,10.8275574 C81.3544885,9.4045929 81.5298539,8.217119 81.7553236,6.57870564 L86.2597077,7.18997912 Z" id="Path" fill="#D3D9EB" fill-rule="nonzero"></path>
                    <path d="M213.394572,87.3319415 C213.394572,89.47928 211.65381,91.2200418 209.506472,91.2200418 C207.359133,91.2200418 205.618372,89.47928 205.618372,87.3319415 C205.618372,85.1846031 207.359133,83.4438413 209.506472,83.4438413 C211.648123,83.457509 213.380904,85.19029 213.394572,87.3319415 L213.394572,87.3319415 Z" id="Path" fill="#D3D9EB" fill-rule="nonzero"></path>
                    <path d="M175.320303,3.94321503 C175.320303,6.09055348 173.579489,7.83131524 171.43215,7.83131524 C169.284812,7.83131524 167.54405,6.09055348 167.54405,3.94321503 C167.54405,1.79587658 169.284812,0.055062555 171.43215,0.055062555 C172.464974,0.0497493954 173.457048,0.457664169 174.187375,1.18799072 C174.917701,1.91831727 175.325616,2.91039125 175.320303,3.94321503 L175.320303,3.94321503 Z" id="Path" fill="#D3D9EB" fill-rule="nonzero"></path>
                    <path d="M48.125261,126.543633 L48.2555324,123.918163 L48.125261,126.543633 C45.840501,126.443424 42.9845511,126.308142 39.7878914,123.53737 C36.5912317,120.766597 36.0751566,117.950731 35.6392484,115.701044 C35.2885177,113.807098 35.0279749,112.434238 33.2141962,110.865971 C31.4004175,109.297704 30.0175365,109.227557 28.0935282,109.14238 C25.8137787,109.042171 22.9528184,108.906889 19.7561587,106.136117 C16.559499,103.365344 16.0334029,100.549478 15.6125261,98.2997912 C15.256785,96.4058455 14.9962422,95.0329854 13.1874739,93.4697286 C11.3787056,91.9064718 9.98580376,91.8263048 8.06179541,91.7411273 L8.29227557,86.4901879 C10.5770355,86.5954071 13.4329854,86.7306889 16.6296451,89.4964509 C19.8263048,92.2622129 20.3574113,95.0830898 20.7782881,97.3327766 C21.1340292,99.2317328 21.3895616,100.599582 23.2033403,102.16785 C25.017119,103.736117 26.4,103.806263 28.3240084,103.891441 C30.6037578,103.991649 33.4647182,104.126931 36.6613779,106.897704 C39.8580376,109.668476 40.3891441,112.484342 40.8050104,114.73904 C41.1607516,116.632985 41.4212944,118.005846 43.2300626,119.574113 C45.0388309,121.14238 46.4317328,121.212526 48.3557411,121.297704 L48.125261,126.543633 Z" id="Path" fill="#D3D9EB" fill-rule="nonzero"></path>
                    <line x1="22.777453" y1="1.80876827" x2="22.777453" y2="12.6413361" id="Path" stroke="#D3D9EB" stroke-width="7.58" stroke-linecap="round" stroke-linejoin="round"></line>
                    <line x1="28.2087683" y1="7.24008351" x2="17.3762004" y2="7.24008351" id="Path" stroke="#D3D9EB" stroke-width="7.58" stroke-linecap="round" stroke-linejoin="round"></line>
                    <line x1="236.187056" y1="72.3807933" x2="236.187056" y2="79.6960334" id="Path" stroke="#D3D9EB" stroke-width="5.12" stroke-linecap="round" stroke-linejoin="round"></line>
                    <line x1="239.854697" y1="76.0534447" x2="232.539457" y2="76.0534447" id="Path" stroke="#D3D9EB" stroke-width="5.12" stroke-linecap="round" stroke-linejoin="round"></line>
                    <path d="M214.947808,108.626305 L212.80334,107.022965 L214.947808,108.626305 C213.559916,110.500209 211.816284,112.845094 207.65261,113.972443 C203.488935,115.099791 200.79833,113.93737 198.63382,113.010438 C196.825052,112.22881 195.517328,111.667641 193.157411,112.308977 C190.797495,112.950313 189.94572,114.082672 188.778288,115.66096 C187.390397,117.529854 185.646764,119.874739 181.478079,121.002088 C177.309395,122.129436 174.6238,120.967015 172.484342,120.040084 C170.675574,119.263466 169.36785,118.697286 167.012944,119.338622 C164.658038,119.979958 163.801253,121.112317 162.62881,122.690605 L158.319833,119.503967 C159.702714,117.630063 161.446347,115.285177 165.615031,114.157829 C169.783716,113.03048 172.469311,114.192902 174.608768,115.119833 C176.417537,115.901461 177.725261,116.46263 180.085177,115.821294 C182.445094,115.179958 183.296868,114.047599 184.464301,112.469311 C185.852192,110.595407 187.595825,108.255532 191.759499,107.128184 C195.923173,106.000835 198.613779,107.163257 200.778288,108.085177 C202.582046,108.866806 203.88977,109.432985 206.249687,108.791649 C208.609603,108.150313 209.461378,107.017954 210.62881,105.439666 L214.947808,108.626305 Z" id="Path" fill="#D3D9EB" fill-rule="nonzero"></path>
                    <circle id="Oval" fill="#8BEA81" fill-rule="nonzero" cx="106.381628" cy="48.7966597" r="16.4592902"></circle>
                    <path d="M110.63048,42.6889353 L104.081837,49.2375783 L102.127766,47.2835073 C101.70949,46.8643324 101.141646,46.6287666 100.549478,46.6287666 C99.9573103,46.6287666 99.3894663,46.8643324 98.97119,47.2835073 L98.97119,47.2835073 C98.1003919,48.1574861 98.1003919,49.5711151 98.97119,50.4450939 L100.920251,52.3991649 L104.081837,55.5557411 L107.243424,52.3991649 L113.787056,45.8505219 C114.207769,45.4320459 114.444312,44.8631266 114.444312,44.2697286 C114.444312,43.6763306 114.207769,43.1074113 113.787056,42.6889353 L113.787056,42.6889353 C113.36878,42.2697603 112.800936,42.0341946 112.208768,42.0341946 C111.6166,42.0341946 111.048756,42.2697603 110.63048,42.6889353 Z" id="Path" fill="#FFFFFF" fill-rule="nonzero" transform="translate(106.381202, 48.794968) scale(-1, 1) translate(-106.381202, -48.794968) "></path>
                </g>
            </g>
        </g>
    </g>
</svg>