<?xml version="1.0" encoding="UTF-8"?>
<svg width="180px" height="180px" viewBox="0 0 180 180" version="1.1" xmlns="http://www.w3.org/2000/svg" xmlns:xlink="http://www.w3.org/1999/xlink">
    <title>AFDC2F0E-12E0-4FE8-B045-2C5585D3D0B8</title>
    <g id="Beep-Delivery-2.0" stroke="none" stroke-width="1" fill="none" fill-rule="evenodd">
        <g id="06---Login---OTP" transform="translate(-117.000000, -108.000000)" fill-rule="nonzero">
            <g id="Organisms/Login/OTP" transform="translate(0.000000, 60.000000)">
                <g id="Content" transform="translate(16.000000, 48.000000)">
                    <g id="Atoms/Artwork/Beep-2.0/Login" transform="translate(101.000000, 0.000000)">
                        <g id="Beep-OTP" transform="translate(30.000000, 15.000000)">
                            <g id="Group">
                                <path d="M80.3168317,139.722772 L37.8415842,149.346535 C31.1287129,150.891089 24.4752475,146.673267 22.990099,139.960396 L0.475247525,41.2277228 C-1.06930693,34.5148515 3.14851485,27.8613861 9.86138614,26.3762376 L52.2772277,16.7524752 C58.4554455,15.3861386 64.5742574,19.2475248 65.9405941,25.3663366 L88.9306931,126.059406 C90.3564356,132.237624 86.4950495,138.356436 80.3168317,139.722772 Z" id="Path" fill="#E4E9EF"></path>
                                <g transform="translate(11.287129, 0.000000)">
                                    <path d="M80.1980198,133.128713 L33.5049505,140.970297 C26.1386139,142.217822 19.1881188,137.227723 17.9405941,129.920792 L0.237623762,24 C-1.00990099,16.6336634 3.98019802,9.68316832 11.2871287,8.43564356 L58.039604,0.594059406 C64.8118812,-0.534653465 71.2277228,4.03960396 72.3564356,10.8118812 L90.3564356,118.811881 C91.5445545,125.584158 86.970297,132 80.1980198,133.128713 Z" id="Path" fill="#A9B2C9"></path>
                                    <path d="M58.039604,7.9009901 L50.7326733,9.14851485 C50.0792079,9.26732673 49.6039604,9.92079208 49.7227723,10.6336634 L49.7227723,10.6336634 C50.019802,12.3564356 48.8910891,13.960396 47.2277228,14.2574257 L28.2178218,17.4653465 C26.5544554,17.7623762 25.009901,16.5742574 24.7128713,14.8514851 L24.7128713,14.8514851 C24.5940594,14.1386139 23.9405941,13.6633663 23.2871287,13.7821782 L16.039604,14.970297 C12.3564356,15.5643564 9.92079208,19.1881188 10.5148515,22.990099 L27.4455446,123.564356 C28.1584158,127.960396 32.1980198,130.930693 36.4752475,130.217822 L76.4554455,123.50495 C80.6732673,122.792079 83.5247525,118.693069 82.8118812,114.29703 L65.8811881,13.6633663 C65.2277228,9.86138614 61.7227723,7.30693069 58.039604,7.9009901 Z" id="Path" fill="#FFFFFF"></path>
                                    <path d="M45.8613861,12.1782178 C45.1485149,12.1782178 44.5544554,11.5841584 44.5544554,10.8712871 C44.5544554,10.1584158 45.1485149,9.56435644 45.8613861,9.56435644 C46.5742574,9.56435644 47.1683168,10.1584158 47.1683168,10.8712871 C47.1683168,11.5841584 46.5742574,12.1782178 45.8613861,12.1782178 Z M45.8613861,10.2772277 C45.5643564,10.2772277 45.2673267,10.5148515 45.2673267,10.8712871 C45.2673267,11.1683168 45.5049505,11.4653465 45.8613861,11.4653465 C46.1584158,11.4653465 46.4554455,11.2277228 46.4554455,10.8712871 C46.4554455,10.5742574 46.1584158,10.2772277 45.8613861,10.2772277 Z" id="Shape" fill="#2F2922"></path>
                                    <path d="M63.5049505,86.2574257 L38.3168317,90.4752475 C36.2376238,90.8316832 34.3366337,89.4059406 33.980198,87.3861386 L31.4851485,72.3564356 C31.1287129,70.2772277 32.5544554,68.3762376 34.5742574,68.019802 L59.7623762,63.8019802 C61.8415842,63.4455446 63.7425743,64.8712871 64.0990099,66.8910891 L66.5940594,81.9207921 C66.950495,83.9405941 65.5247525,85.9009901 63.5049505,86.2574257 Z" id="Path" fill="#D9DDE8"></path>
                                    <path d="M45.2673267,49.5445545 C49.6039604,48.8316832 53.9405941,51.7425743 54.6534653,56.0792079 L55.7821782,62.8514851 L37.9009901,65.8811881 L36.7722772,59.1089109 C36.0594059,54.7722772 38.970297,50.6732673 43.3069307,49.9009901 L45.2673267,49.5445545 M44.019802,42.1782178 L42.0594059,42.5346535 C33.6237624,43.960396 27.980198,51.9207921 29.4059406,60.3564356 L31.7821782,74.5544554 L64.4554455,69.0891089 L62.0792079,54.8910891 C60.6534653,46.3960396 52.4554455,40.7524752 44.019802,42.1782178 L44.019802,42.1782178 Z" id="Shape" fill="#D9DDE8"></path>
                                </g>
                                <g transform="translate(49.900990, 27.920792)" id="Path">
                                    <path d="M63.980198,22.2178218 L5.88118812,22.2178218 C2.79207921,22.2178218 0.297029703,19.7227723 0.297029703,16.6336634 L0.297029703,5.82178218 C0.297029703,2.73267327 2.79207921,0.237623762 5.88118812,0.237623762 L63.980198,0.237623762 C67.0693069,0.237623762 69.5643564,2.73267327 69.5643564,5.82178218 L69.5643564,16.6336634 C69.5643564,19.7227723 67.0693069,22.2178218 63.980198,22.2178218 Z" fill="#FF9419"></path>
                                    <g transform="translate(6.534653, 7.128713)" fill="#FFFFFF">
                                        <polygon points="2.31683168 4.3960396 0 3.62376238 0.534653465 1.9009901 2.97029703 2.73267327 2.97029703 0.178217822 4.75247525 0.178217822 4.81188119 2.79207921 7.12871287 2.01980198 7.66336634 3.74257426 5.28712871 4.57425743 6.71287129 6.65346535 5.22772277 7.72277228 3.68316832 5.58415842 2.1980198 7.6039604 0.712871287 6.53465347"></polygon>
                                        <polygon points="14.5544554 4.3960396 12.2376238 3.62376238 12.7722772 1.9009901 15.2079208 2.73267327 15.2079208 0.178217822 16.990099 0.178217822 17.049505 2.79207921 19.3663366 2.01980198 19.9009901 3.74257426 17.5247525 4.57425743 18.950495 6.65346535 17.4653465 7.72277228 15.9207921 5.58415842 14.4356436 7.6039604 13.0693069 6.53465347"></polygon>
                                        <polygon points="26.7920792 4.3960396 24.4752475 3.62376238 25.009901 1.9009901 27.4455446 2.73267327 27.4455446 0.178217822 29.2277228 0.178217822 29.2871287 2.79207921 31.6039604 2.01980198 32.1386139 3.74257426 29.7623762 4.57425743 31.1881188 6.65346535 29.7029703 7.72277228 28.1584158 5.58415842 26.6732673 7.6039604 25.1881188 6.53465347"></polygon>
                                        <polygon points="39.029703 4.3960396 36.7128713 3.62376238 37.2475248 1.9009901 39.6831683 2.73267327 39.6831683 0.178217822 41.4653465 0.178217822 41.5247525 2.79207921 43.8415842 2.01980198 44.3762376 3.74257426 42 4.57425743 43.4257426 6.65346535 41.9405941 7.72277228 40.3960396 5.58415842 38.9108911 7.6039604 37.4257426 6.53465347"></polygon>
                                        <polygon points="51.2673267 4.3960396 48.950495 3.62376238 49.4851485 1.9009901 51.9207921 2.73267327 51.9207921 0.178217822 53.7029703 0.178217822 53.7623762 2.79207921 56.0792079 2.01980198 56.6138614 3.74257426 54.2376238 4.57425743 55.6633663 6.65346535 54.1782178 7.72277228 52.6336634 5.58415842 51.1485149 7.6039604 49.6633663 6.53465347"></polygon>
                                    </g>
                                </g>
                                <path d="M40.0990099,14.3168317 C39.9207921,14.3168317 39.7425743,14.1980198 39.7425743,14.019802 C39.6831683,13.8415842 39.8613861,13.6039604 40.039604,13.6039604 L53.1683168,11.4653465 C53.3465347,11.4059406 53.5841584,11.5841584 53.5841584,11.7623762 C53.6435644,11.9405941 53.4653465,12.1782178 53.2871287,12.1782178 L40.1584158,14.3168317 C40.1584158,14.3168317 40.0990099,14.3168317 40.0990099,14.3168317 Z" id="Path" fill="#2F2922"></path>
                            </g>
                            <path d="M15.3861386,44.9108911 L14.6138614,45.029703 C13.5445545,45.2079208 12.5346535,44.4950495 12.3564356,43.4257426 L10.8118812,33.6831683 C10.6336634,32.6138614 11.3465347,31.6039604 12.4158416,31.4257426 L13.1881188,31.3069307 C14.2574257,31.1287129 15.2673267,31.8415842 15.4455446,32.9108911 L16.990099,42.6534653 C17.1683168,43.7821782 16.4554455,44.7326733 15.3861386,44.9108911 Z" id="Path" fill="#A9B2C9"></path>
                            <path d="M21.5643564,82.8118812 L20.7920792,82.9306931 C19.7227723,83.1089109 18.7128713,82.3960396 18.5346535,81.3267327 L16.990099,71.5841584 C16.8118812,70.5148515 17.5247525,69.5049505 18.5940594,69.3267327 L19.3663366,69.2079208 C20.4356436,69.029703 21.4455446,69.7425743 21.6237624,70.8118812 L23.1683168,80.5544554 C23.3465347,81.6237624 22.6336634,82.6336634 21.5643564,82.8118812 Z" id="Path" fill="#A9B2C9"></path>
                            <path d="M17.8811881,60.8316832 L17.1089109,60.950495 C16.039604,61.1287129 15.029703,60.4158416 14.8514851,59.3465347 L13.3069307,49.6039604 C13.1287129,48.5346535 13.8415842,47.5247525 14.9108911,47.3465347 L15.6831683,47.2277228 C16.7524752,47.049505 17.7623762,47.7623762 17.9405941,48.8316832 L19.4851485,58.5742574 C19.6633663,59.7029703 18.950495,60.6534653 17.8811881,60.8316832 Z" id="Path" fill="#A9B2C9"></path>
                        </g>
                    </g>
                </g>
            </g>
        </g>
    </g>
</svg>