<?xml version="1.0" encoding="UTF-8"?>
<svg width="180px" height="180px" viewBox="0 0 180 180" version="1.1" xmlns="http://www.w3.org/2000/svg" xmlns:xlink="http://www.w3.org/1999/xlink">
    <title>A5FFB64B-15B8-45BD-AC83-45A82044E1DE</title>
    <defs>
        <rect id="path-1" x="0.0514018692" y="0.256793478" width="75.046729" height="78.1165761"></rect>
        <rect id="path-3" x="0.0514018692" y="0.256793478" width="75.046729" height="78.1165761"></rect>
        <rect id="path-5" x="0.0514018692" y="0.256793478" width="75.046729" height="78.1165761"></rect>
        <rect id="path-7" x="0.0514018692" y="0.256793478" width="75.046729" height="78.1165761"></rect>
    </defs>
    <g id="Beep-Delivery-2.0" stroke="none" stroke-width="1" fill="none" fill-rule="evenodd">
        <g id="05---Login---Filled" transform="translate(-117.000000, -108.000000)">
            <g id="Organisms/Login/Mobile-Number-Copy" transform="translate(0.000000, 60.000000)">
                <g id="Content" transform="translate(24.000000, 48.000000)">
                    <g id="Atoms/Artwork/Beep-2.0/Login" transform="translate(93.000000, 0.000000)">
                        <g id="Login-Active" transform="translate(7.500000, 49.500000)">
                            <g id="Group">
                                <g fill="#D9DDE8" fill-rule="nonzero" id="Path">
                                    <path d="M32.8971963,22.0842391 C28.0654206,23.5222826 37.6261682,13.507337 36.4439252,5.54673913 C36.2383178,4.31413043 36.0841121,3.28695652 35.9813084,2.4138587 C34.3364486,1.79755435 32.5373832,1.28396739 30.6869159,0.873097826 C30.4813084,4.62228261 29.8130841,13.7127717 28.7336449,17.1024457 C27.3457944,21.4165761 24.2616822,23.0086957 26.6775701,15.9725543 C28.3738318,11.0934783 28.4252336,4.16005435 28.3224299,0.462228261 C26.0607477,0.154076087 23.6448598,-2.49800181e-15 21.0747664,0.102717391 C21.4859813,1.54076087 22.1028037,4.26277174 22.4626168,8.93641304 C23.0280374,16.5888587 15.9345794,21.4165761 18.9158879,13.507337 C20.8691589,8.26875 19.4813084,3.18423913 18.2990654,0.35951087 C17.1682243,0.462228261 15.9859813,0.667663043 14.8037383,0.873097826 C13.7757009,1.07853261 12.7990654,1.33532609 11.8224299,1.69483696 C12.3364486,2.67065217 13.1074766,4.05733696 14.3411215,5.9576087 C17.0140187,10.117663 13.364486,15.1508152 13.5186916,10.63125 C13.5186916,7.70380435 11,4.62228261 9.20093458,2.82472826 C4.00934579,5.34130435 0.154205607,9.19320652 0,9.34728261 C0,9.34728261 0,9.34728261 0,9.34728261 C0,9.34728261 1.59345794,11.3502717 2.0046729,15.1508152 C3.75233645,15.5616848 6.21962617,15.8184783 8.63551402,15.2021739 C13.364486,13.9695652 12.7476636,17.3078804 9.97196262,17.9755435 C8.42990654,18.3350543 4.88317757,17.8214674 2.05607477,17.3078804 C2.0046729,18.0782609 1.95327103,18.9513587 1.79906542,19.8758152 C1.59345794,21.1084239 1.38785047,22.3923913 1.23364486,23.7790761 C3.80373832,24.4980978 8.8411215,25.2684783 13.4158879,21.7247283 C19.8925234,16.7429348 17.8364486,20.3380435 15.4205607,22.8032609 C13.2102804,25.0630435 7.04205607,28.6067935 0.925233645,27.7336957 C0.822429907,30.0961957 0.976635514,32.6127717 1.49065421,35.3347826 C4.06074766,35.2320652 8.37850467,34.6157609 11.9766355,32.2019022 C17.5280374,28.4013587 20.1495327,25.1657609 21.6915888,27.0660326 C23.1308411,28.863587 10.8971963,38.4163043 2.77570093,40.1111413 C3.64953271,42.5763587 4.93457944,45.1956522 6.68224299,47.8663043 C7.40186916,48.9961957 8.22429907,50.0747283 9.09813084,51.0505435 C11.0514019,50.126087 14.8551402,47.8149457 17.7336449,43.038587 C21.8457944,36.2592391 26.2149533,32.1505435 25.9065421,34.1535326 C25.5981308,36.0024457 21.0233645,48.7907609 13.0046729,54.5942935 C16.6028037,57.3163043 20.817757,59.0625 24.9299065,59.7815217 C26.0607477,57.5730978 27.5,54.0293478 28.4252336,49.2529891 C30.0186916,40.6247283 31.5093458,38.1081522 32.1261682,40.3679348 C32.6401869,42.2682065 33.1028037,53.5671196 30.3271028,60.0896739 C34.8504673,59.8328804 38.9626168,58.0866848 41.7383178,54.9024457 C49.5,45.7605978 39.9906542,40.7274457 40.4018692,39.3921196 C40.4018692,39.3921196 41.1728972,39.7002717 42.4579439,39.9570652 L42.4579439,39.9570652 C46.1074766,40.6247283 53.6121495,40.676087 56.6962617,30.4557065 C57.2102804,28.8122283 57.2102804,26.8605978 56.7990654,24.7035326 C54.1775701,26.9633152 48.2663551,31.0206522 39.4766355,31.4315217 C39.4766355,31.4315217 36.135514,31.5855978 37.4719626,29.9421196 C38.8084112,28.2986413 44.771028,28.9663043 49.4485981,26.0902174 C52.0186916,24.4980978 53.8691589,21.6733696 55,19.4649457 C54.1261682,17.5646739 52.9439252,15.6644022 51.5046729,13.8154891 C48.2149533,17.9755435 40.5046729,26.9633152 34.8504673,27.3741848 C34.3878505,27.4255435 33.9766355,27.3228261 33.6168224,27.0146739 C33.3084112,26.7578804 33.0514019,26.4497283 33.3084112,25.9875 C33.8224299,25.0630435 37.728972,24.6008152 41.3271028,19.9271739 C43.9485981,16.5375 45.0794393,10.6826087 45.4906542,7.75516304 C43.5373832,6.21440217 41.3785047,4.87907609 39.0140187,3.69782609 C38.4485981,7.85788043 36.3411215,21.0570652 32.8971963,22.0842391 Z"></path>
                                    <path d="M37.6775701,39.9570652 C37.6775701,39.9570652 54.6915888,49.2016304 64.3037383,60.911413 C64.3037383,60.911413 51.7102804,44.9902174 41.7897196,38.3649457 L37.6775701,39.9570652 Z"></path>
                                </g>
                                <g transform="translate(28.785047, 19.002717)" fill-rule="nonzero">
                                    <g>
                                        <g transform="translate(29.299065, 0.000000)">
                                            <polygon id="Path" fill="#A9B2C9" points="60.5 110.62663 92.8831776 110.62663 76.6915888 0.462228261 76.6915888 0.462228261"></polygon>
                                            <polygon id="Path" fill="#D9DDE8" points="76.6915888 0.462228261 79.6214953 110.62663 92.8831776 110.62663"></polygon>
                                            <polygon id="Path" fill="#D9DDE8" points="67.8504673 110.62663 0.257009346 110.62663 13.4672897 0.462228261 76.6915888 0.462228261"></polygon>
                                            <polygon id="Path" fill="#A9B2C9" points="67.8504673 110.62663 78.182243 100.354891 92.8831776 110.62663"></polygon>
                                            <path d="M37.9345794,39.3921196 C42.5093458,39.7002717 46.7757009,40.8815217 49.6542056,44.6820652 C52.0186916,47.8149457 52.7897196,51.6668478 52.9953271,55.6214674 C53.0981308,58.0353261 52.7383178,60.4491848 52.5327103,62.8116848 C52.1214953,67.2798913 49.2429907,70.3100543 45.8504673,72.8266304 C41.2757009,76.2163043 36.0327103,77.3975543 30.9439252,76.6271739 C28.2196262,76.2163043 25.6495327,74.0592391 23.5420561,72.2103261 C17.5280374,66.9203804 17.1168224,59.0111413 20.9205607,51.1532609 C22.5654206,47.8149457 24.6728972,45.0415761 27.6542056,42.7817935 C30.7383178,40.4192935 34.182243,39.5975543 37.9345794,39.3921196 Z M43.6401869,53.7211957 L43.6401869,53.7211957 C44.3598131,52.5399457 45.0794393,51.4100543 45.7990654,50.2288043 C45.8504673,50.1774457 45.9018692,50.126087 45.9018692,50.0747283 C45.8504673,50.126087 45.8504673,50.1774457 45.7990654,50.2288043 C44.9252336,50.6396739 44.0514019,51.0505435 42.8691589,51.5641304 C43.588785,50.0747283 44.2056075,48.944837 44.771028,47.763587 C44.6682243,47.6608696 44.6168224,47.6095109 44.4626168,47.5067935 C43.1261682,48.3798913 41.7897196,49.3043478 40.1962617,50.3828804 C40.7616822,48.8934783 41.1728972,47.763587 41.5841121,46.6336957 C41.2757009,46.3769022 40.9672897,46.2228261 40.6588785,45.9660326 C39.8364486,46.9932065 39.0654206,48.1230978 38.088785,48.8934783 C35.8785047,50.6396739 35.4158879,52.8480978 35.5700935,55.3133152 C35.6214953,55.8782609 35.3130841,56.4432065 35.1588785,56.9567935 C34.6448598,56.7 33.9766355,56.5459239 33.6682243,56.1350543 C32.2803738,54.3375 30.9953271,52.4372283 29.6074766,50.6396739 C28.6308411,49.4070652 27.5,48.2771739 26.4719626,47.1472826 C26.2663551,47.3013587 26.0607477,47.4554348 25.8551402,47.6095109 C25.5981308,50.79375 26.5233645,53.669837 27.8598131,56.3404891 C28.0140187,56.6486413 28.7850467,56.6486413 29.2476636,56.8027174 C29.7616822,57.0081522 30.3271028,57.1108696 30.7383178,57.4190217 C31.4065421,57.8298913 31.9719626,58.4461957 32.588785,58.9084239 C26.4719626,65.636413 25.4439252,66.8690217 26.728972,69.2828804 C29.3504673,67.1258152 31.8691589,65.0201087 34.5934579,62.7089674 C35.8785047,64.1983696 38.6542056,67.5880435 40.0420561,69.2828804 C41.3785047,68.4097826 41.7897196,67.6394022 40.9158879,66.5095109 C40.2476636,65.5850543 38.2429907,62.7603261 37.5747664,61.7845109 C36.7523364,60.6546196 36.8037383,59.6788043 38.088785,58.9084239 C38.8598131,58.4461957 39.682243,58.1894022 40.5046729,57.8298913 C41.7383178,57.3163043 43.0747664,57.0081522 44.1542056,56.2377717 C46.3130841,54.7483696 47.135514,52.8480978 46.6728972,51.3586957 C45.7476636,52.2831522 44.6682243,53.0021739 43.6401869,53.7211957 Z" id="Shape" fill="#A9B2C9"></path>
                                            <path d="M51.3504673,17.71875 L31.5093458,17.71875 C29.6588785,17.71875 28.2196262,16.2293478 28.2196262,14.4317935 L28.2196262,14.4317935 C28.2196262,12.5828804 29.7102804,11.144837 31.5093458,11.144837 L51.3504673,11.144837 C53.2009346,11.144837 54.6401869,12.6342391 54.6401869,14.4317935 L54.6401869,14.4317935 C54.6401869,16.2293478 53.1495327,17.71875 51.3504673,17.71875 Z" id="Path" fill="#EFF2F3"></path>
                                        </g>
                                        <polygon id="Path" fill="#D9DDE8" points="2.87850467 55.4673913 8.8411215 110.62663 31.817757 110.62663 38.5514019 54.2861413"></polygon>
                                        <polygon id="Path" fill="#A9B2C9" points="0.411214953 56.4945652 41.8925234 56.4945652 40.2990654 48.5339674 35.9813084 48.5339674 34.1308411 44.0657609 7.14485981 44.0657609 5.91121495 48.5339674 1.85046729 48.5339674"></polygon>
                                        <polygon id="Path" fill="#A9B2C9" points="3.85514019 74.4701087 37.7803738 74.4701087 36.0327103 91.9834239 5.85981308 91.9834239"></polygon>
                                    </g>
                                    <polygon id="Rectangle" fill="#A9B2C9" transform="translate(37.044755, 83.067361) rotate(-84.415902) translate(-37.044755, -83.067361) " points="9.38644416 81.0089566 64.7027315 81.0134599 64.703066 85.1257649 9.38677866 85.1212616"></polygon>
                                </g>
                                <g transform="translate(87.383178, 50.845109)" id="Clipped">
                                    <g>
                                        <mask id="mask-2" fill="white">
                                            <use xlink:href="#path-1"></use>
                                        </mask>
                                        <g id="SVGID_1_"></g>
                                        <path d="M58.4953271,123.877174 L20.046729,123.877174 C13.9813084,123.877174 9.09813084,118.946739 9.09813084,112.937772 L9.09813084,20.1839674 C9.09813084,14.1236413 14.0327103,9.24456522 20.046729,9.24456522 L58.4953271,9.24456522 C64.046729,9.24456522 68.5705272,13.7641304 68.5705272,19.3108696 L68.5705272,113.81087 C68.6214953,119.357609 64.0981308,123.877174 58.4953271,123.877174 Z" id="Path" fill="#A9B2C9" fill-rule="nonzero" mask="url(#mask-2)"></path>
                                    </g>
                                    <g>
                                        <mask id="mask-4" fill="white">
                                            <use xlink:href="#path-3"></use>
                                        </mask>
                                        <g id="SVGID_1_"></g>
                                        <g id="Group" mask="url(#mask-4)" fill-rule="nonzero">
                                            <g transform="translate(11.822430, 11.812500)">
                                                <path d="M46.9813084,0.667663043 L40.0420561,0.667663043 C39.4252336,0.667663043 38.911215,1.18125 38.911215,1.79755435 L38.911215,1.79755435 C38.911215,3.38967391 37.6261682,4.6736413 36.0327103,4.6736413 L17.9392523,4.6736413 C16.3457944,4.6736413 15.0607477,3.38967391 15.0607477,1.79755435 L15.0607477,1.79755435 C15.0607477,1.18125 14.546729,0.667663043 13.9299065,0.667663043 L6.99065421,0.667663043 C3.4953271,0.667663043 0.668224299,3.4923913 0.668224299,6.98478261 L0.668224299,102.820109 C0.668224299,105.079891 2.46728972,106.877446 4.72897196,106.877446 L49.2943925,106.877446 C51.5560748,106.877446 53.3551402,105.079891 53.3551402,102.820109 L53.3551402,6.98478261 C53.3551402,3.4923913 50.4766355,0.667663043 46.9813084,0.667663043 Z" id="Path" fill="#FFFFFF"></path>
                                                <path d="M49.2943925,107.134239 L4.72897196,107.134239 C2.36448598,107.134239 0.411214953,105.182609 0.411214953,102.820109 L0.411214953,6.98478261 C0.411214953,3.33831522 3.39252336,0.410869565 6.99065421,0.410869565 L13.9299065,0.410869565 C14.7009346,0.410869565 15.3691589,1.02717391 15.3691589,1.84891304 C15.3691589,3.28695652 16.5514019,4.41684783 17.9392523,4.41684783 L36.0327103,4.41684783 C37.4719626,4.41684783 38.6028037,3.23559783 38.6028037,1.84891304 C38.6028037,1.07853261 39.2196262,0.410869565 40.0420561,0.410869565 L46.9813084,0.410869565 C50.6308411,0.410869565 53.5607477,3.38967391 53.5607477,6.98478261 L53.5607477,102.820109 C53.6121495,105.182609 51.6588785,107.134239 49.2943925,107.134239 Z M6.99065421,0.924456522 C3.64953271,0.924456522 0.925233645,3.64646739 0.925233645,6.98478261 L0.925233645,102.820109 C0.925233645,104.925815 2.62149533,106.620652 4.72897196,106.620652 L49.2943925,106.620652 C51.4018692,106.620652 53.0981308,104.925815 53.0981308,102.820109 L53.0981308,6.98478261 C53.0981308,3.64646739 50.3738318,0.924456522 47.0327103,0.924456522 L40.0934579,0.924456522 C39.5794393,0.924456522 39.2196262,1.33532609 39.2196262,1.79755435 C39.2196262,3.54375 37.8317757,4.93043478 36.0841121,4.93043478 L17.9906542,4.93043478 C16.2429907,4.93043478 14.8551402,3.54375 14.8551402,1.79755435 C14.8551402,1.28396739 14.4439252,0.924456522 13.9813084,0.924456522 L6.99065421,0.924456522 Z" id="Shape" fill="#2F2922"></path>
                                            </g>
                                        </g>
                                    </g>
                                    <g>
                                        <mask id="mask-6" fill="white">
                                            <use xlink:href="#path-5"></use>
                                        </mask>
                                        <g id="SVGID_1_"></g>
                                        <path d="M44.1028037,14.4317935 L30.5841121,14.4317935 C30.1214953,14.4317935 29.7616822,14.0722826 29.7616822,13.6100543 L29.7616822,13.6100543 C29.7616822,13.1478261 30.1214953,12.7883152 30.5841121,12.7883152 L44.1028037,12.7883152 C44.5654206,12.7883152 44.9252336,13.1478261 44.9252336,13.6100543 L44.9252336,13.6100543 C44.9252336,14.0722826 44.5654206,14.4317935 44.1028037,14.4317935 Z" id="Path" fill="#FFFFFF" fill-rule="nonzero" mask="url(#mask-6)"></path>
                                    </g>
                                    <g>
                                        <mask id="mask-8" fill="white">
                                            <use xlink:href="#path-7"></use>
                                        </mask>
                                        <g id="SVGID_1_"></g>
                                        <ellipse id="Oval" fill="#FFFFFF" fill-rule="nonzero" mask="url(#mask-8)" cx="47.135514" cy="13.661413" rx="1" ry="1"></ellipse>
                                    </g>
                                </g>
                                <path d="M164.537383,129.629348 L29.5046729,129.629348 C29.3504673,129.629348 29.2476636,129.52663 29.2476636,129.372554 C29.2476636,129.218478 29.3504673,129.115761 29.5046729,129.115761 L164.537383,129.115761 C164.691589,129.115761 164.794393,129.218478 164.794393,129.372554 C164.794393,129.52663 164.691589,129.629348 164.537383,129.629348 Z" id="Path" fill="#2F2922" fill-rule="nonzero"></path>
                                <g transform="translate(108.457944, 83.201087)" fill-rule="nonzero">
                                    <ellipse id="Oval" fill="#FF9419" cx="18.1448598" cy="18.0269022" rx="17.8878505" ry="17.8728261"></ellipse>
                                    <ellipse id="Oval" fill="#FFFFFF" cx="18.1448598" cy="15.5103261" rx="6.21962617" ry="6.21440217"></ellipse>
                                    <path d="M19.6869159,22.957337 L16.6542056,22.957337 C12.2336449,22.957337 8.68691589,26.501087 8.68691589,30.9179348 L8.68691589,33.4345109 C11.4626168,35.1807065 14.7009346,36.1565217 18.1962617,36.1565217 C21.6915888,36.1565217 24.9299065,35.1807065 27.7056075,33.4345109 L27.7056075,30.9179348 C27.6542056,26.5524457 24.1074766,22.957337 19.6869159,22.957337 Z" id="Path" fill="#FFFFFF"></path>
                                </g>
                            </g>
                            <path d="M66.4819694,93.5 L32.5694133,93.5 C32.4152653,93.5 32.3125,93.3625 32.3125,93.15625 C32.3125,92.95 32.4152653,92.8125 32.5694133,92.8125 L66.4305867,92.8125 C66.5847347,92.8125 66.6875,92.95 66.6875,93.15625 C66.6875,93.3625 66.5847347,93.5 66.4819694,93.5 Z" id="Path" fill="#2F2922" fill-rule="nonzero"></path>
                            <path d="M155.599185,83.875 L155.375,83.875 L155.375,72.1875 L155.599185,72.1875 C156.630435,72.1875 157.4375,73.1142621 157.4375,74.2984581 L157.4375,81.7640419 C157.4375,82.8967511 156.630435,83.875 155.599185,83.875 Z" id="Path" fill="#A9B2C9" fill-rule="nonzero"></path>
                            <path d="M155.599185,97.625 L155.375,97.625 L155.375,85.9375 L155.599185,85.9375 C156.630435,85.9375 157.4375,86.8642621 157.4375,88.0484581 L157.4375,95.5140419 C157.4375,96.6467511 156.630435,97.625 155.599185,97.625 Z" id="Path" fill="#A9B2C9" fill-rule="nonzero"></path>
                        </g>
                    </g>
                </g>
            </g>
        </g>
    </g>
</svg>