<svg xmlns="http://www.w3.org/2000/svg" width="77" height="18" xmlns:v="https://vecta.io/nano"><defs><linearGradient x1="4.52098523%" y1="99.8279799%" x2="92.5429166%" y2="99.8279799%" id="A"><stop stop-color="#f27e31" offset="0%"/><stop stop-color="#fd7939" offset="100%"/></linearGradient></defs><g fill-rule="evenodd"><path d="M75.898 0c.4-.001.769.221.964.579s.183.795-.029 1.143l-4.092 6.682c-.223.365-.223.828 0 1.192l4.092 6.682c.212.347.223.785.029 1.143s-.563.579-.964.579H62.04 62 4a4 4 0 0 1-4-4V4a4 4 0 0 1 4-4h71.898z" fill="url(#A)"/><path d="M10 13.05l2.91 1.842c.533.337 1.185-.161 1.045-.792l-.771-3.463 2.573-2.333c.47-.426.217-1.233-.4-1.284l-3.387-.301-1.325-3.272a.69.69 0 0 0-1.29 0L8.03 6.711l-3.387.301c-.617.051-.869.858-.4 1.284l2.573 2.333-.771 3.463c-.14.631.512 1.13 1.045.792L10 13.05zM20.935 13V5.77h2.495c.473 0 .877.045 1.212.135s.61.218.825.385.373.368.473.605.15.503.15.8a1.58 1.58 0 0 1-.075.488 1.41 1.41 0 0 1-.233.435 1.74 1.74 0 0 1-.4.367 2.42 2.42 0 0 1-.578.28c.993.223 1.49.76 1.49 1.61 0 .307-.058.59-.175.85s-.287.484-.51.672-.498.336-.825.442-.7.16-1.12.16h-2.73zm1.345-3.17v2.12h1.365c.25 0 .459-.03.627-.09a1.09 1.09 0 0 0 .405-.24.88.88 0 0 0 .22-.35 1.32 1.32 0 0 0 .068-.425 1.13 1.13 0 0 0-.075-.423.79.79 0 0 0-.235-.32 1.1 1.1 0 0 0-.41-.202 2.27 2.27 0 0 0-.605-.07h-1.36zm0-.93h1.075c.457 0 .803-.083 1.04-.25s.355-.432.355-.795c0-.377-.107-.645-.32-.805s-.547-.24-1-.24h-1.15V8.9zm7.22-1.11a2.49 2.49 0 0 1 .892.155c.272.103.506.254.703.453a2.07 2.07 0 0 1 .46.73c.11.288.165.617.165.987a1.85 1.85 0 0 1-.012.232c-.008.061-.023.11-.045.145s-.051.06-.087.075-.083.023-.14.023h-3.17c.037.527.178.913.425 1.16s.573.37.98.37c.2 0 .372-.023.518-.07s.272-.098.38-.155l.285-.155c.082-.047.161-.07.237-.07.05 0 .093.01.13.03s.068.048.095.085l.36.45a2.06 2.06 0 0 1-.46.402 2.58 2.58 0 0 1-.532.26 2.91 2.91 0 0 1-.565.137c-.192.027-.378.04-.558.04a2.74 2.74 0 0 1-.995-.177 2.22 2.22 0 0 1-.8-.525c-.227-.232-.405-.518-.535-.86s-.195-.737-.195-1.187a2.84 2.84 0 0 1 .17-.987c.113-.308.276-.577.488-.805s.47-.409.775-.543.649-.2 1.033-.2zm.025.885c-.36 0-.642.102-.845.305s-.333.492-.39.865h2.32a1.54 1.54 0 0 0-.065-.453 1.04 1.04 0 0 0-.2-.373.93.93 0 0 0-.34-.252 1.17 1.17 0 0 0-.48-.092zm6.245.195a.33.33 0 0 1-.105.112c-.037.022-.083.033-.14.033a.44.44 0 0 1-.193-.05l-.237-.112c-.09-.042-.193-.079-.308-.113s-.251-.05-.407-.05c-.243 0-.435.052-.575.155a.48.48 0 0 0-.21.405c0 .11.036.203.108.277s.167.141.285.198a2.79 2.79 0 0 0 .403.152l.46.147.46.182c.15.068.284.155.402.26a1.21 1.21 0 0 1 .285.377c.072.147.107.323.107.53 0 .247-.045.474-.135.683a1.5 1.5 0 0 1-.395.54 1.85 1.85 0 0 1-.643.355 2.77 2.77 0 0 1-.877.127 2.86 2.86 0 0 1-.518-.047c-.169-.031-.33-.076-.485-.133s-.298-.123-.43-.2-.248-.16-.348-.25l.285-.47c.037-.057.08-.1.13-.13s.113-.045.19-.045a.4.4 0 0 1 .218.065l.238.14a2.11 2.11 0 0 0 .317.14c.121.043.276.065.462.065a1.2 1.2 0 0 0 .378-.052.8.8 0 0 0 .26-.138.53.53 0 0 0 .15-.197.59.59 0 0 0 .048-.232c0-.12-.036-.218-.108-.295a.94.94 0 0 0-.285-.2c-.118-.057-.253-.108-.405-.152l-.465-.148a4.3 4.3 0 0 1-.465-.187c-.152-.072-.287-.163-.405-.273s-.213-.245-.285-.405-.108-.353-.108-.58a1.48 1.48 0 0 1 .125-.6c.083-.19.206-.356.367-.498a1.81 1.81 0 0 1 .605-.34 2.52 2.52 0 0 1 .837-.127c.353 0 .675.058.965.175a2.18 2.18 0 0 1 .725.46l-.28.445zm3.01 4.21c-.443 0-.785-.126-1.025-.377s-.36-.599-.36-1.043V8.795h-.52a.25.25 0 0 1-.172-.065c-.048-.043-.073-.108-.073-.195v-.49l.825-.135.26-1.4c.013-.067.044-.118.092-.155a.29.29 0 0 1 .182-.055h.64v1.615h1.35v.88h-1.35v2.78c0 .16.04.285.12.375s.187.135.32.135a.58.58 0 0 0 .193-.027 1.06 1.06 0 0 0 .135-.058l.103-.058c.03-.018.06-.027.09-.027.037 0 .067.009.09.027s.048.046.075.083l.37.6a1.87 1.87 0 0 1-.62.34 2.31 2.31 0 0 1-.725.115zm8.06-5.995c-.037.073-.079.125-.128.155a.32.32 0 0 1-.172.045c-.067 0-.142-.026-.225-.077l-.295-.173a2.41 2.41 0 0 0-.397-.172 1.67 1.67 0 0 0-.538-.078 1.58 1.58 0 0 0-.487.067 1.02 1.02 0 0 0-.35.188.75.75 0 0 0-.213.288c-.047.112-.07.234-.07.367a.64.64 0 0 0 .142.425 1.19 1.19 0 0 0 .377.29c.157.08.335.152.535.215l.613.203a5.9 5.9 0 0 1 .612.25 2.13 2.13 0 0 1 .535.36 1.63 1.63 0 0 1 .377.533c.095.21.142.465.142.765 0 .327-.056.633-.167.918a2.11 2.11 0 0 1-.49.745c-.215.212-.477.378-.787.5s-.665.182-1.065.182a3.36 3.36 0 0 1-.68-.068 3.58 3.58 0 0 1-.642-.192c-.205-.083-.397-.183-.575-.3a2.83 2.83 0 0 1-.477-.39l.39-.645a.5.5 0 0 1 .133-.117.32.32 0 0 1 .172-.047.48.48 0 0 1 .27.102l.343.228a2.63 2.63 0 0 0 .465.228c.178.068.392.102.642.102.383 0 .68-.091.89-.273s.315-.442.315-.782c0-.19-.047-.345-.142-.465a1.15 1.15 0 0 0-.377-.303 2.82 2.82 0 0 0-.535-.208l-.61-.185a5.26 5.26 0 0 1-.61-.24c-.2-.093-.378-.215-.535-.365a1.66 1.66 0 0 1-.377-.562c-.095-.225-.142-.502-.142-.832a1.97 1.97 0 0 1 .617-1.435 2.27 2.27 0 0 1 .742-.465c.293-.117.628-.175 1.005-.175a3.38 3.38 0 0 1 1.18.2c.36.133.667.32.92.56l-.33.635zm3.54.705a2.49 2.49 0 0 1 .892.155c.272.103.506.254.703.453a2.07 2.07 0 0 1 .46.73c.11.288.165.617.165.987a1.85 1.85 0 0 1-.012.232c-.008.061-.023.11-.045.145s-.051.06-.088.075-.083.023-.14.023h-3.17c.037.527.178.913.425 1.16s.573.37.98.37a1.68 1.68 0 0 0 .517-.07c.144-.047.272-.098.38-.155l.285-.155c.082-.047.161-.07.237-.07.05 0 .093.01.13.03s.068.048.095.085l.36.45a2.06 2.06 0 0 1-.46.402 2.58 2.58 0 0 1-.532.26 2.91 2.91 0 0 1-.565.137c-.192.027-.378.04-.558.04a2.74 2.74 0 0 1-.995-.177 2.22 2.22 0 0 1-.8-.525c-.227-.232-.405-.518-.535-.86s-.195-.737-.195-1.187a2.84 2.84 0 0 1 .17-.987c.113-.308.276-.577.488-.805s.47-.409.775-.543a2.54 2.54 0 0 1 1.032-.2zm.025.885c-.36 0-.642.102-.845.305s-.333.492-.39.865h2.32a1.54 1.54 0 0 0-.065-.453 1.04 1.04 0 0 0-.2-.373.93.93 0 0 0-.34-.252 1.17 1.17 0 0 0-.48-.092zM54.92 5.57V13h-1.235V5.57zm2.71 0V13h-1.235V5.57zm3.515 2.22a2.49 2.49 0 0 1 .892.155c.272.103.506.254.703.453a2.07 2.07 0 0 1 .46.73c.11.288.165.617.165.987 0 .093-.004.171-.013.232s-.023.11-.045.145-.051.06-.088.075-.083.023-.14.023h-3.17c.037.527.178.913.425 1.16s.573.37.98.37a1.68 1.68 0 0 0 .517-.07c.144-.047.272-.098.38-.155l.285-.155c.082-.047.161-.07.237-.07.05 0 .093.01.13.03s.068.048.095.085l.36.45a2.06 2.06 0 0 1-.46.402 2.58 2.58 0 0 1-.532.26 2.91 2.91 0 0 1-.565.137c-.192.027-.377.04-.558.04a2.74 2.74 0 0 1-.995-.177 2.22 2.22 0 0 1-.8-.525c-.227-.232-.405-.518-.535-.86s-.195-.737-.195-1.187a2.84 2.84 0 0 1 .17-.987c.113-.308.276-.577.488-.805s.47-.409.775-.543a2.54 2.54 0 0 1 1.032-.2zm.025.885c-.36 0-.642.102-.845.305s-.333.492-.39.865h2.32a1.54 1.54 0 0 0-.065-.453 1.04 1.04 0 0 0-.2-.373.93.93 0 0 0-.34-.252 1.17 1.17 0 0 0-.48-.092zM64.37 13V7.87h.725c.127 0 .215.023.265.07s.083.127.1.24l.075.62a2.42 2.42 0 0 1 .645-.75 1.36 1.36 0 0 1 .83-.275c.253 0 .463.058.63.175l-.16.925c-.01.06-.032.103-.065.128a.22.22 0 0 1-.135.037.86.86 0 0 1-.205-.035 1.39 1.39 0 0 0-.345-.035c-.257 0-.477.071-.66.213s-.338.349-.465.622V13H64.37z" fill="#fff" fill-rule="nonzero"/></g></svg>