<svg width="151" height="150" viewBox="0 0 151 150" fill="none" xmlns="http://www.w3.org/2000/svg">
<path d="M39 40L40.108 45.2525C40.3352 46.3538 41.1875 47.2292 42.2671 47.4834L46.5 48.5L42.2671 49.5166C41.1591 49.7708 40.3352 50.6462 40.108 51.7475L39 57L37.892 51.7475C37.6648 50.6462 36.8125 49.7708 35.733 49.5166L31.5 48.5L35.733 47.4834C36.8409 47.2292 37.6648 46.3538 37.892 45.2525L39 40Z" fill="white"/>
<path d="M114.381 95.125L115.038 98.2559C115.173 98.9124 115.678 99.4342 116.317 99.5857L118.825 100.192L116.317 100.798C115.661 100.949 115.173 101.471 115.038 102.127L114.381 105.258L113.725 102.127C113.59 101.471 113.085 100.949 112.446 100.798L109.938 100.192L112.446 99.5857C113.102 99.4342 113.59 98.9124 113.725 98.2559L114.381 95.125Z" fill="white"/>
<path d="M117.058 84.179C115.106 84.179 115.106 87.2089 117.058 87.2089C119.011 87.2089 119.011 84.179 117.058 84.179Z" fill="white"/>
<path d="M79.9645 24C78.0118 24 78.0118 27.0299 79.9645 27.0299C81.9171 27.0299 81.9171 24 79.9645 24Z" fill="white"/>
<path d="M93.089 72.0625C91.9949 72.0625 90.9513 73.022 91.0018 74.1498C91.0523 75.2776 91.9107 76.2371 93.089 76.2371C94.2673 76.2371 95.2268 75.2776 95.1763 74.1498C95.1258 73.022 94.2673 72.0625 93.089 72.0625Z" fill="white"/>
<path d="M47.7068 63C46.5453 63 45.4512 64.01 45.5017 65.2051C45.5522 66.4002 46.478 67.4102 47.7068 67.4102C48.9356 67.4102 49.9624 66.4002 49.9119 65.2051C49.8614 64.01 48.9356 63 47.7068 63Z" fill="white"/>
<path d="M40.1875 109C39.2993 109 38.4627 109.773 38.5013 110.687C38.5399 111.602 39.2478 112.375 40.1875 112.375C41.1271 112.375 41.9122 111.602 41.8736 110.687C41.835 109.773 41.1271 109 40.1875 109Z" fill="white"/>
<rect x="84.5" y="24.8215" width="28" height="41" rx="2" transform="rotate(-12 84.5 24.8215)" fill="#FF9419"/>
<path d="M98.9807 25.6764C97.5249 25.9859 96.1936 26.72 95.155 27.7861C94.1165 28.8522 93.4174 30.2023 93.1462 31.6657C92.875 33.129 93.0438 34.64 93.6313 36.0074C94.2188 37.3749 95.1986 38.5374 96.4468 39.348C97.695 40.1586 99.1555 40.5808 100.644 40.5613C102.132 40.5418 103.581 40.0815 104.807 39.2385C106.034 38.3955 106.983 37.2078 107.534 35.8254C108.086 34.4431 108.215 32.9282 107.906 31.4724C107.489 29.5215 106.315 27.8156 104.642 26.7291C102.968 25.6425 100.933 25.2639 98.9807 25.6764ZM97.5374 38.9559C97.8112 38.1618 98.2857 37.452 98.915 36.8955C99.5442 36.339 100.307 35.9548 101.128 35.7802C101.95 35.6055 102.803 35.6464 103.604 35.8988C104.405 36.1513 105.127 36.6067 105.7 37.2208C104.745 38.4022 103.413 39.2193 101.926 39.5352C100.44 39.8511 98.8907 39.6466 97.5374 38.9559ZM97.969 32.9812C97.8658 32.4959 97.9089 31.991 98.0927 31.5302C98.2766 31.0694 98.5929 30.6735 99.0018 30.3925C99.4106 30.1115 99.8936 29.9581 100.39 29.9516C100.886 29.9451 101.373 30.0858 101.789 30.356C102.205 30.6262 102.531 31.0137 102.727 31.4695C102.923 31.9253 102.979 32.429 102.889 32.9168C102.798 33.4046 102.565 33.8546 102.219 34.21C101.873 34.5653 101.429 34.8101 100.944 34.9132C100.293 35.0515 99.6143 34.9257 99.0564 34.5633C98.4984 34.201 98.1073 33.6319 97.969 32.9812ZM106.218 36.4802C105.313 35.567 104.126 34.9854 102.85 34.8293C103.359 34.3083 103.687 33.6372 103.785 32.9154C103.884 32.1936 103.747 31.4593 103.396 30.8211C103.044 30.183 102.497 29.6748 101.835 29.3717C101.172 29.0686 100.43 28.9868 99.7173 29.1383C99.0047 29.2897 98.3598 29.6664 97.8779 30.2127C97.396 30.759 97.1026 31.4459 97.0413 32.1718C96.9799 32.8977 97.1537 33.6241 97.5371 34.2435C97.9204 34.863 98.4929 35.3426 99.1699 35.6116C98.0675 36.2733 97.2202 37.2872 96.7648 38.4896C95.6989 37.7515 94.8725 36.7176 94.3873 35.5154C93.9022 34.3131 93.7797 32.9952 94.0348 31.7241C94.29 30.453 94.9116 29.2844 95.8231 28.3626C96.7346 27.4407 97.8961 26.8058 99.1642 26.5362C100.432 26.2667 101.752 26.3743 102.959 26.8457C104.167 27.3172 105.21 28.1319 105.96 29.1893C106.71 30.2467 107.134 31.5006 107.18 32.7962C107.226 34.0918 106.892 35.3725 106.218 36.4802Z" fill="white"/>
<rect x="92.5166" y="45.3752" width="21" height="2" rx="1" transform="rotate(-12 92.5166 45.3752)" fill="white"/>
<rect x="93.5166" y="50.3752" width="21" height="2" rx="1" transform="rotate(-12 93.5166 50.3752)" fill="white"/>
<rect x="94.5166" y="55.3752" width="21" height="2" rx="1" transform="rotate(-12 94.5166 55.3752)" fill="white"/>
<path d="M76.8711 124.666L82.6666 122.708C82.7158 122.688 82.765 122.698 82.8043 122.708L88.157 120.72C85.5889 112.977 83.3356 107.28 83.3356 107.28C83.3356 107.28 59.2684 101.947 55.1359 110.723C54.0634 112.996 54.0338 117.847 54.2208 124.075C58.7568 125.876 63.706 126.86 68.8914 126.86C71.6464 126.86 74.3424 126.584 76.94 126.043C76.8023 125.355 76.7236 124.951 76.7137 124.922C76.694 124.823 76.7629 124.705 76.8711 124.666ZM62.9582 117.001C62.9484 117.04 62.2301 121.261 57.8319 122.491C57.8122 122.501 57.7925 122.501 57.7728 122.501C57.6744 122.501 57.576 122.432 57.5465 122.334C57.5072 122.206 57.5859 122.078 57.7039 122.049C61.7971 120.907 62.4859 116.971 62.4859 116.932C62.5056 116.804 62.6237 116.716 62.7516 116.735C62.8893 116.755 62.9779 116.873 62.9582 117.001Z" fill="#074F54"/>
<path d="M62.761 116.735C62.6331 116.716 62.515 116.804 62.4954 116.932C62.4855 116.972 61.8066 120.907 57.7134 122.049C57.5855 122.088 57.5166 122.216 57.556 122.334C57.5855 122.432 57.674 122.501 57.7823 122.501C57.802 122.501 57.8216 122.501 57.8413 122.491C62.2297 121.261 62.9578 117.04 62.9677 117.001C62.9775 116.873 62.8889 116.755 62.761 116.735Z" fill="#15B6A6"/>
<path d="M88.1676 120.73L82.8149 122.718C82.8838 122.737 82.9429 122.786 82.9724 122.865C83.0117 122.983 82.9527 123.121 82.8248 123.16L77.2163 125.05C77.2557 125.236 77.3147 125.551 77.3934 125.965C81.339 125.109 85.078 123.662 88.4923 121.724C88.3841 121.389 88.2758 121.055 88.1676 120.73Z" fill="#075418"/>
<path d="M82.8234 123.15C82.9415 123.111 83.0103 122.973 82.971 122.855C82.9415 122.776 82.8824 122.727 82.8136 122.708C82.7644 122.698 82.725 122.698 82.6758 122.708L76.8804 124.666C76.7722 124.705 76.7033 124.823 76.723 124.931C76.7328 124.961 76.8115 125.354 76.9493 126.053C77.1067 126.024 77.2543 125.994 77.4019 125.955C77.3232 125.541 77.2543 125.227 77.2248 125.04L82.8234 123.15Z" fill="#15B6A6"/>
<path d="M61.5714 61.6937C61.5714 61.6937 61.3943 58.2991 62.6931 57.1085C63.9919 55.9179 64.5134 57.6694 64.5134 57.6694C64.5134 57.6694 66.5403 54.3141 68.6361 54.0386C70.7319 53.7631 70.7024 55.0521 70.7024 55.0521C70.7024 55.0521 72.1389 54.1075 73.1327 55.0521C74.1265 55.9967 73.0048 60.5917 73.0048 60.5917L61.5714 61.6937Z" fill="#937962"/>
<path d="M85.1468 112.072C85.1468 112.072 74.0873 115.663 65.8813 114.984C57.6752 114.305 54.6151 112.731 54.6151 112.731L54.6741 98.1685L62.2899 75.7247H74.4612L82.2245 91.2218L85.1468 112.072Z" fill="#15B6B6"/>
<path d="M65.0072 69.6933L65.1154 75.3017C65.1154 75.3017 66.1191 76.8957 69.2775 77.0925C71.6291 77.2401 72.3474 75.9708 72.3474 75.9708L71.6783 71.0806L65.9616 69.8999L65.0072 69.6933Z" fill="#FA9EAD"/>
<path d="M65.0167 69.3489C65.0364 69.5064 65.0954 69.6835 65.184 69.8901C66.4434 72.6648 70.7137 73.7373 72.0716 73.8357L71.6977 71.0708L65.0167 69.3489Z" fill="#302923"/>
<path d="M73.2224 58.3189C73.2224 58.3189 76.1939 65.2853 75.151 69.221C74.1178 73.147 69.6015 72.5074 67.5352 71.7596C65.4788 71.0118 64.5145 69.7032 64.5145 69.7032C64.5145 69.7032 62.5959 70.3919 61.3069 68.5421C60.0081 66.6923 60.7952 64.5571 61.8874 64.0553C62.9796 63.5634 64.2882 64.38 64.2882 64.38L63.2551 62.3531C63.2551 62.3433 68.5782 52.0611 73.2224 58.3189Z" fill="#F99DAC"/>
<path d="M64.0024 67.6564C63.9434 67.6564 63.8745 67.6268 63.8253 67.5776L62.005 65.5704C61.9165 65.472 61.9263 65.3244 62.0247 65.2359C62.1231 65.1473 62.2707 65.1571 62.3593 65.2555L64.1796 67.2726C64.2681 67.371 64.2583 67.5186 64.1599 67.6072C64.1107 67.6367 64.0516 67.6564 64.0024 67.6564Z" fill="#302923"/>
<path d="M62.0639 67.1154C61.9557 67.1154 61.8474 67.0367 61.8376 66.9186C61.8179 66.7907 61.9065 66.6726 62.0344 66.6529L63.2938 66.4562C63.4217 66.4365 63.5398 66.525 63.5595 66.6529C63.5792 66.7809 63.4906 66.8989 63.3627 66.9186L62.1032 67.1154C62.0934 67.1154 62.0836 67.1154 62.0639 67.1154Z" fill="#302923"/>
<path d="M73.7124 62.2154H72.512C72.3841 62.2154 72.2758 62.1269 72.266 61.999C72.2562 61.8612 72.3644 61.7431 72.5022 61.7431H73.7026C73.8305 61.7431 73.9387 61.8317 73.9485 61.9596C73.9584 62.0974 73.8502 62.2154 73.7124 62.2154Z" fill="#302923"/>
<path d="M68.745 62.9336C68.6466 62.9336 68.558 62.8745 68.5285 62.7761C68.4793 62.6581 68.5482 62.5203 68.6663 62.481L70.2504 61.9004C70.3685 61.8512 70.5062 61.9201 70.5456 62.0382C70.5948 62.1563 70.5259 62.294 70.4078 62.3334L68.8237 62.9139C68.804 62.9336 68.7745 62.9336 68.745 62.9336Z" fill="#302923"/>
<path d="M73.7044 65.0784C73.606 65.0784 73.5076 65.0095 73.4781 64.9111L73.114 63.6517C73.0746 63.5238 73.1534 63.3959 73.2714 63.3663C73.3993 63.327 73.5273 63.4057 73.5568 63.5238L73.9208 64.7734C73.9503 64.8718 73.9208 64.98 73.8323 65.0489C73.7929 65.0686 73.7437 65.0784 73.7044 65.0784Z" fill="#302923"/>
<path d="M69.8965 65.5507C69.7981 65.5507 69.6997 65.4819 69.6702 65.3835L69.3062 64.124C69.2668 63.9961 69.3455 63.8584 69.4833 63.8288C69.6013 63.8092 69.7194 63.8879 69.7588 64.0059L70.113 65.2359C70.1425 65.3539 70.0933 65.4917 69.9752 65.5311C69.9556 65.5409 69.926 65.5507 69.8965 65.5507Z" fill="#302923"/>
<path d="M72.6512 76.876C72.6512 76.876 73.0152 73.7766 72.1986 73.6585C71.3819 73.5405 70.4668 74.1407 68.558 73.8258C66.6393 73.5109 65.6062 72.8911 65.006 72.9107C64.4058 72.9206 64.9076 76.7481 64.9076 76.7481L69.6994 78.3224L72.6512 76.876Z" fill="#15B6B6"/>
<path d="M99.4462 85.957C99.4462 85.957 106.796 84.4221 110.821 81.972C114.855 79.5319 115.671 77.7903 115.386 77.1409C115.111 76.4915 112.247 77.4557 112.247 77.4557C112.247 77.4557 115.976 75.0549 115.337 73.6479C114.697 72.2409 111.195 73.9824 111.195 73.9824C111.195 73.9824 113.497 71.7194 112.336 71.0109C111.175 70.3025 105.015 74.0415 105.015 74.0415C105.015 74.0415 107.426 71.1979 106.531 70.637C105.635 70.0762 100.912 72.4967 99.7119 74.1595C98.5115 75.8322 97.5964 78.6463 97.5964 78.6463L99.4462 85.957Z" fill="#F99DAC"/>
<path d="M101.214 80.3004C101.145 80.3004 101.076 80.2708 101.027 80.2118C100.948 80.1134 100.968 79.9658 101.066 79.8871C104.894 76.9451 104.776 74.0818 104.776 74.0523C104.766 73.9244 104.864 73.8162 104.992 73.8063C105.15 73.7965 105.228 73.8949 105.238 74.0228C105.248 74.1507 105.396 77.1517 101.352 80.2512C101.312 80.2905 101.263 80.3004 101.214 80.3004Z" fill="#302923"/>
<path d="M108.448 81.0576C108.349 81.0576 108.251 80.9887 108.221 80.8904L105.929 73.4419C105.89 73.314 105.958 73.1861 106.086 73.1467C106.214 73.1074 106.342 73.1762 106.382 73.3042L108.674 80.7526C108.713 80.8805 108.645 81.0084 108.517 81.0478C108.487 81.0576 108.467 81.0576 108.448 81.0576Z" fill="#302923"/>
<path d="M39.4233 86.4991C39.4233 86.4991 32.0929 84.9051 28.0784 82.4256C24.0639 79.946 23.2669 78.2045 23.5523 77.555C23.8376 76.9056 26.6911 77.8994 26.6911 77.8994C26.6911 77.8994 22.9914 75.4691 23.631 74.0621C24.2804 72.655 27.7734 74.436 27.7734 74.436C27.7734 74.436 25.4907 72.1532 26.6517 71.4546C27.8128 70.756 33.9526 74.554 33.9526 74.554C33.9526 74.554 31.5616 71.6908 32.457 71.1397C33.3524 70.5887 38.0556 73.0388 39.2462 74.7213C40.4367 76.4038 41.3223 79.2278 41.3223 79.2278L39.4233 86.4991Z" fill="#F99DAC"/>
<path d="M37.7122 80.8318C37.663 80.8318 37.6138 80.8121 37.5646 80.7826C33.5403 77.6438 33.7174 74.6428 33.7272 74.5148C33.7371 74.3869 33.8355 74.2787 33.9732 74.2984C34.1011 74.3082 34.1995 74.4164 34.1897 74.5444C34.1897 74.5739 34.0421 77.4372 37.85 80.4087C37.9483 80.4874 37.968 80.635 37.8893 80.7334C37.85 80.8022 37.7811 80.8318 37.7122 80.8318Z" fill="#302923"/>
<path d="M30.4805 81.53C30.4608 81.53 30.4313 81.53 30.4116 81.5201C30.2837 81.4808 30.2247 81.3529 30.264 81.225L32.6156 73.7962C32.655 73.6683 32.7829 73.6092 32.9108 73.6486C33.0387 73.688 33.0978 73.8159 33.0584 73.9438L30.7068 81.3726C30.6674 81.4709 30.5789 81.53 30.4805 81.53Z" fill="#302923"/>
<path d="M106.39 86.9614C106.39 86.9614 99.0107 98.7293 92.1723 100.008C85.3241 101.288 76.6063 95.1871 76.6063 95.1871L70.7125 76.138C70.7125 76.138 74.6778 75.223 77.2754 75.7346C79.873 76.2364 86.3474 82.9666 88.453 82.878C90.5586 82.7895 97.7217 77.5549 97.7217 77.5549L106.39 86.9614Z" fill="#15B6B6"/>
<path d="M32.3789 87.178C32.3789 87.178 39.6601 99.005 46.4886 100.343C53.3172 101.681 62.1038 95.6497 62.1038 95.6497L68.155 76.6498C68.155 76.6498 63.1074 75.2329 60.5 75.7151C57.9024 76.1972 52.471 83.3406 50.3555 83.2422C48.2499 83.1438 41.136 77.8404 41.136 77.8404L32.3789 87.178Z" fill="#15B6B6"/>
<path d="M67.8882 76.9055C67.4257 76.9055 66.4122 76.7973 64.9068 76.0691C64.7887 76.0101 64.7395 75.8724 64.7986 75.7543C64.8576 75.6362 64.9954 75.587 65.1134 75.646C67.0715 76.5906 68.1046 76.4332 68.1145 76.4234C68.2325 76.4037 68.3604 76.4824 68.3801 76.6103C68.3998 76.7382 68.3211 76.8563 68.1932 76.8858C68.1735 76.8858 68.0751 76.9055 67.8882 76.9055Z" fill="white"/>
<path d="M88.7682 87.591C88.5911 87.591 88.4632 87.5221 88.3746 87.4532C87.5284 86.7743 88.0991 83.4978 88.227 82.8484C88.2467 82.75 88.3254 82.6811 88.4238 82.6614C88.5222 82.6417 88.6206 82.6909 88.6698 82.7795C88.7288 82.8877 90.1851 85.5345 89.7325 86.853C89.6242 87.1679 89.4176 87.3942 89.1224 87.5221C88.9748 87.5615 88.8666 87.591 88.7682 87.591ZM88.5616 83.6257C88.355 85.0524 88.2664 86.7645 88.66 87.0793C88.6895 87.099 88.7485 87.1482 88.9256 87.0793C89.0929 87.0105 89.211 86.8825 89.2799 86.6858C89.5258 85.9576 88.9945 84.5506 88.5616 83.6257Z" fill="white"/>
<path d="M50.0699 87.8863C49.8534 87.8863 49.6763 87.7977 49.5484 87.6206C48.9285 86.7646 49.9223 83.7636 50.1289 83.1634C50.1584 83.065 50.2568 82.9961 50.3651 83.0059C50.4733 83.0158 50.5619 83.0847 50.5815 83.1929C50.6602 83.5471 51.3293 86.7154 50.6209 87.6108C50.4831 87.7977 50.2962 87.8863 50.0699 87.8863C50.0797 87.8863 50.0797 87.8863 50.0699 87.8863ZM50.306 84.2064C49.942 85.4461 49.6468 86.9417 49.942 87.355C49.9813 87.4042 50.001 87.4042 50.0797 87.4238C50.1584 87.4238 50.2076 87.3943 50.2667 87.3254C50.6012 86.8925 50.5028 85.4264 50.306 84.2064Z" fill="white"/>
<path d="M64.2879 64.37C64.2879 64.37 64.7602 65.9148 65.1735 65.6491C65.5867 65.3736 64.5438 63.4353 64.5438 63.4353C64.5438 63.4353 67.0135 62.8941 68.4402 61.4871C69.8669 60.08 70.654 57.8858 70.654 57.8858L74.1077 60.7294C74.1077 60.7294 74.4619 57.6595 71.7561 56.1344C69.0502 54.6093 64.6323 57.4627 63.3335 59.4109C62.1233 61.2312 61.5723 61.6937 61.5723 61.6937C61.5723 61.6937 60.2931 62.0577 60.057 62.8351C59.8208 63.6124 60.8048 65.413 60.8048 65.413C60.8048 65.413 61.3853 63.4549 64.2879 64.37Z" fill="#937962"/>
<path d="M83.0713 98.8474C82.9434 98.8474 82.845 98.749 82.8351 98.6309L82.6088 94.7738C82.599 94.6459 82.6974 94.5377 82.8253 94.5279C82.9729 94.5279 83.0614 94.6164 83.0713 94.7443L83.2976 98.6014C83.3074 98.7293 83.209 98.8375 83.0811 98.8474H83.0713Z" fill="white"/>
<path d="M68.7643 111.265C61.3257 111.265 55.1957 110.074 55.0973 110.054C54.9694 110.025 54.8907 109.907 54.9104 109.779C54.9399 109.651 55.0579 109.572 55.1859 109.592C55.363 109.631 72.8476 113.026 84.5565 108.254C84.6746 108.204 84.8124 108.264 84.8616 108.382C84.9108 108.5 84.8517 108.637 84.7336 108.687C79.8533 110.674 73.989 111.265 68.7643 111.265Z" fill="white"/>
<path d="M57.7734 113.99C57.6455 113.99 57.5372 113.882 57.5372 113.754V110.251C57.5372 110.123 57.6455 110.015 57.7734 110.015C57.9013 110.015 58.0095 110.123 58.0095 110.251V113.754C58.0095 113.882 57.9013 113.99 57.7734 113.99Z" fill="white"/>
<path d="M62.1223 114.807C61.9944 114.807 61.8861 114.709 61.8861 114.581L61.8173 110.753C61.8173 110.625 61.9157 110.517 62.0436 110.517C62.1813 110.527 62.2797 110.615 62.2797 110.743L62.3486 114.571C62.3584 114.699 62.26 114.807 62.1223 114.807C62.1321 114.807 62.1321 114.807 62.1223 114.807Z" fill="white"/>
<path d="M67.0821 115.279C66.9641 115.279 66.8657 115.191 66.846 115.073L66.3442 111.068C66.3245 110.94 66.4229 110.822 66.5508 110.812C66.6787 110.792 66.7968 110.891 66.8066 111.019L67.3085 115.023C67.3281 115.151 67.2297 115.269 67.1018 115.279C67.1018 115.279 67.092 115.279 67.0821 115.279Z" fill="white"/>
<path d="M71.3215 115.151C71.2035 115.151 71.1051 115.063 71.0854 114.945L70.6131 111.078C70.5934 110.95 70.6918 110.832 70.8197 110.822C70.9476 110.802 71.0657 110.901 71.0756 111.029L71.5479 114.896C71.5675 115.023 71.4691 115.142 71.3412 115.151C71.3412 115.142 71.3314 115.151 71.3215 115.151Z" fill="white"/>
<path d="M75.3869 114.62C75.2688 114.62 75.1704 114.531 75.1508 114.413L74.6686 110.763C74.649 110.635 74.7375 110.517 74.8654 110.497C74.9933 110.478 75.1114 110.566 75.1311 110.694L75.6132 114.345C75.6329 114.472 75.5443 114.591 75.4164 114.61C75.4066 114.62 75.3967 114.62 75.3869 114.62Z" fill="white"/>
<path d="M79.4292 113.833C79.3112 113.833 79.2128 113.744 79.2029 113.626L78.7306 110.173C78.711 110.045 78.7995 109.927 78.9274 109.907C79.0553 109.887 79.1734 109.976 79.1931 110.104L79.6654 113.557C79.6851 113.685 79.5965 113.803 79.4686 113.823C79.4489 113.823 79.4391 113.833 79.4292 113.833Z" fill="white"/>
<path d="M83.0701 112.8C82.952 112.8 82.8536 112.711 82.8339 112.583L82.5191 109.179C82.5092 109.051 82.5978 108.933 82.7257 108.923C82.8536 108.913 82.9717 109.002 82.9815 109.13L83.2964 112.534C83.3062 112.662 83.2177 112.78 83.0897 112.79C83.0799 112.8 83.0701 112.8 83.0701 112.8Z" fill="white"/>
<path d="M104.313 90.1788C104.254 90.1788 104.185 90.1493 104.136 90.1001L94.7591 79.6408C94.6705 79.5424 94.6803 79.3948 94.7787 79.3063C94.8771 79.2177 95.0247 79.2275 95.1133 79.3259L104.49 89.7852C104.579 89.8836 104.569 90.0312 104.471 90.1198C104.421 90.1591 104.362 90.1788 104.313 90.1788Z" fill="white"/>
<path d="M97.0529 82.081C97.0037 82.081 96.9545 82.0613 96.9152 82.0318C96.8168 81.9531 96.7873 81.8055 96.866 81.7071L98.9322 78.9422C99.011 78.8439 99.1586 78.8143 99.2569 78.8931C99.3553 78.9718 99.3849 79.1194 99.3061 79.2178L97.2399 81.9826C97.1907 82.0515 97.1218 82.081 97.0529 82.081Z" fill="white"/>
<path d="M99.6197 84.9544C99.5705 84.9544 99.5213 84.9445 99.482 84.915C99.3737 84.8363 99.3541 84.6986 99.4328 84.5903L101.479 81.7172C101.558 81.609 101.706 81.5893 101.804 81.6582C101.912 81.7369 101.932 81.8746 101.853 81.9829L99.8067 84.856C99.7673 84.915 99.6984 84.9544 99.6197 84.9544Z" fill="white"/>
<path d="M102.257 87.8862C102.208 87.8862 102.169 87.8764 102.12 87.8469C102.011 87.7682 101.992 87.6304 102.061 87.5222L104.117 84.5802C104.196 84.472 104.333 84.4523 104.442 84.5212C104.55 84.5999 104.57 84.7376 104.501 84.8459L102.444 87.7878C102.405 87.8567 102.336 87.8862 102.257 87.8862Z" fill="white"/>
<path d="M34.5709 90.1788C34.5119 90.1788 34.4627 90.1591 34.4135 90.1198C34.3151 90.0312 34.3151 89.8836 34.3938 89.7852L43.6822 79.6211C43.7708 79.5227 43.9184 79.5227 44.0168 79.6014C44.1152 79.69 44.1152 79.8376 44.0365 79.936L34.748 90.1001C34.6988 90.1493 34.63 90.1788 34.5709 90.1788Z" fill="white"/>
<path d="M41.3323 82.7796C41.2732 82.7796 41.2044 82.7501 41.165 82.7009L38.8823 80.2312C38.7937 80.1328 38.8035 79.9852 38.8921 79.8967C38.9905 79.8081 39.1381 79.818 39.2266 79.9065L41.5094 82.3762C41.5979 82.4746 41.5881 82.6222 41.4995 82.7108C41.4503 82.76 41.3913 82.7796 41.3323 82.7796Z" fill="white"/>
<path d="M38.6756 85.6822C38.6067 85.6822 38.5476 85.6527 38.4985 85.6035L36.2354 83.0354C36.1468 82.937 36.1567 82.7894 36.2551 82.7008C36.3535 82.6123 36.501 82.6221 36.5896 82.7205L38.8527 85.2886C38.9412 85.387 38.9314 85.5346 38.833 85.6231C38.7838 85.6625 38.7248 85.6822 38.6756 85.6822Z" fill="white"/>
<path d="M36.4116 88.1618C36.3427 88.1618 36.2837 88.1323 36.2345 88.0831L33.932 85.4953C33.8435 85.397 33.8533 85.2494 33.9517 85.1706C34.0501 85.0821 34.1977 85.0919 34.2764 85.1903L36.5788 87.7781C36.6674 87.8765 36.6576 88.0241 36.5592 88.1028C36.5198 88.1421 36.4608 88.1618 36.4116 88.1618Z" fill="white"/>
<path d="M73.6252 65.7574C73.5957 65.7574 73.576 65.7574 73.5465 65.7574C73.5367 65.7574 73.5268 65.7574 73.517 65.7574H73.5071C73.4579 65.7475 73.3989 65.7377 73.3497 65.718C73.3005 65.6983 73.3005 65.6983 73.2415 65.6688C73.2218 65.659 73.1923 65.6393 73.1726 65.6295C73.1628 65.6196 73.1529 65.6196 73.1431 65.6098L73.1234 65.5999C73.084 65.5704 73.0447 65.5311 73.0152 65.5016C72.9955 65.4819 72.9758 65.4622 72.966 65.4425L72.9561 65.4327C72.9463 65.4228 72.9463 65.413 72.9365 65.4032C72.9069 65.354 72.8774 65.3146 72.8577 65.2654C72.8577 65.2654 72.8479 65.2556 72.8479 65.2457C72.8479 65.2359 72.8381 65.226 72.8381 65.226C72.8282 65.1965 72.8184 65.167 72.8085 65.1473C72.779 65.0489 72.6708 64.9801 72.5626 65.0096C72.4543 65.0391 72.3953 65.1473 72.4248 65.2556C72.5429 65.6885 72.8971 66.0329 73.3202 66.1411C73.2513 66.2592 73.1824 66.3674 73.0939 66.4757C73.025 66.5642 73.0841 66.6921 73.1628 66.7413C73.2612 66.8004 73.3694 66.7512 73.4284 66.6724C73.5662 66.4855 73.6843 66.2887 73.7925 66.0821C73.8614 65.9148 73.7925 65.7574 73.6252 65.7574Z" fill="#302923"/>
<path d="M73.5269 67.8533C72.6512 67.8533 71.7853 67.8533 70.9096 67.8533C70.7915 67.8533 70.6734 67.9812 70.7226 68.0993C70.8899 68.5617 71.313 68.8667 71.7951 68.9258C72.3166 68.9848 72.8283 68.7191 73.1727 68.3452C73.2022 68.3157 73.2219 68.2764 73.2219 68.237C73.3202 68.237 73.4186 68.237 73.517 68.237C73.7827 68.2469 73.7827 67.8533 73.5269 67.8533ZM71.8738 68.542C71.6475 68.5322 71.4114 68.4141 71.2638 68.2468C71.7459 68.2468 72.2281 68.2468 72.72 68.2468C72.4741 68.4436 72.1887 68.5617 71.8738 68.542Z" fill="#302923"/>
</svg>
