<svg width="151" height="150" viewBox="0 0 151 150" fill="none" xmlns="http://www.w3.org/2000/svg">
<path d="M82.554 51.0668C82.554 51.0668 85.1189 45.7622 85.5258 42.084C85.9327 38.4058 85.2417 37.0684 84.7071 36.9329C84.1726 36.7974 83.3987 39.0391 83.3987 39.0391C83.3987 39.0391 83.6931 35.5724 82.5001 35.2854C81.3239 35.0117 80.7171 38.027 80.7171 38.027C80.7171 38.027 80.4219 35.5143 79.4138 35.892C78.4207 36.268 77.7869 41.9101 77.7869 41.9101C77.7869 41.9101 77.1767 39.053 76.4005 39.3273C75.626 39.6166 74.8704 43.7018 75.3268 45.2499C75.7832 46.7979 77.107 48.7169 77.107 48.7169L82.539 51.0685L82.554 51.0668Z" fill="#F3BAC1"/>
<path d="M79.78 47.3199L79.7349 47.3252C79.6446 47.3358 79.557 47.2393 79.5615 47.1473C79.5727 43.3477 77.7276 42.0544 77.7108 42.0411C77.6285 41.9897 77.6144 41.8694 77.6657 41.7871C77.717 41.7048 77.8374 41.6906 77.9197 41.742C78.002 41.7933 79.9294 43.138 79.9279 47.15C79.9367 47.2252 79.8703 47.3093 79.7951 47.3181L79.78 47.3199Z" fill="black"/>
<path d="M83.7192 43.1962C83.6891 43.1997 83.644 43.205 83.6121 43.1935L77.8836 41.0445C77.788 41.01 77.7455 40.9082 77.7801 40.8126C77.8146 40.7171 77.9164 40.6746 78.012 40.7091L83.7405 42.8581C83.8361 42.8926 83.8786 42.9944 83.844 43.09C83.821 43.1537 83.7794 43.1891 83.7192 43.1962Z" fill="black"/>
<path d="M85.358 50.0052L74.3257 45.6878C74.3257 45.6878 66.7442 67.3694 63.3254 72.0268C59.7755 76.8674 73.5267 86.0212 73.5267 86.0212C73.5267 86.0212 85.3717 73.7538 85.358 50.0052Z" fill="#0089C7"/>
<path d="M85.3114 53.7631C85.2813 53.7666 85.2362 53.7719 85.2043 53.7604L73.7534 49.3854C73.6578 49.3509 73.6153 49.2491 73.6499 49.1535C73.6844 49.058 73.7862 49.0155 73.8818 49.05L85.3327 53.425C85.4283 53.4595 85.4707 53.5613 85.4362 53.6569C85.4132 53.7206 85.3716 53.756 85.3114 53.7631Z" fill="white"/>
<path d="M32.505 57.9377C32.505 57.9377 28.739 53.4074 27.4607 49.9272C26.1824 46.4469 26.5296 44.9875 27.0164 44.7168C27.505 44.4611 28.7906 46.4456 28.7906 46.4456C28.7906 46.4456 27.6707 43.145 28.7647 42.5894C29.8437 42.0356 31.1478 44.8264 31.1478 44.8264C31.1478 44.8264 30.8526 42.3136 31.904 42.4342C32.9723 42.568 34.9229 47.876 34.9229 47.876C34.9229 47.876 34.8243 44.9589 35.658 45.044C36.4766 45.1308 38.2036 48.9245 38.1201 50.5512C38.0349 52.1628 37.2238 54.3479 37.2238 54.3479L32.52 57.936L32.505 57.9377Z" fill="#F3BAC1"/>
<path d="M34.3484 53.6332C34.2582 53.6438 34.1608 53.5942 34.1352 53.5057C33.1605 49.6237 34.722 47.8538 34.7902 47.7848C34.8584 47.7158 34.9637 47.7034 35.0477 47.7698C35.1168 47.838 35.1291 47.9433 35.0627 48.0274C35.0477 48.0291 33.5711 49.7432 34.4927 53.4332C34.5033 53.5234 34.4538 53.6208 34.3653 53.6464L34.3484 53.6332Z" fill="black"/>
<path d="M29.5343 50.5683C29.459 50.5771 29.3953 50.5541 29.3431 50.4992C29.2874 50.4142 29.3201 50.3036 29.3901 50.2496L34.4443 46.7882C34.5293 46.7324 34.6399 46.7652 34.6939 46.8351C34.7496 46.9201 34.7168 47.0307 34.6469 47.0847L29.5927 50.5462C29.5776 50.5479 29.5493 50.5665 29.5343 50.5683Z" fill="black"/>
<path d="M29.5198 57.5867L39.1972 50.7602C39.1972 50.7602 52.2891 70.0132 56.7208 73.7179C61.3224 77.5704 50.5936 89.6 50.5936 89.6C50.5936 89.6 35.7998 79.8822 29.5198 57.5867Z" fill="#0089C7"/>
<path d="M30.6246 61.1484C30.5494 61.1572 30.4857 61.1342 30.4335 61.0793C30.3777 60.9943 30.4105 60.8837 30.4804 60.8297L40.4534 53.9227C40.5384 53.867 40.6491 53.8997 40.703 53.9697C40.7588 54.0546 40.726 54.1653 40.6561 54.2192L30.683 61.1263C30.668 61.128 30.6397 61.1466 30.6246 61.1484Z" fill="white"/>
<path d="M65.131 71.5554C62.6695 72.5462 54.5226 72.6643 48.5489 75.4406C45.5846 76.8261 49.5671 88.3935 49.5671 88.3935C49.5671 88.3935 51.1506 93.0429 52.5607 96.7365C53.5745 99.3936 55.7597 105.01 55.7597 105.01C55.7597 105.01 61.4169 105.123 68.4933 102.644C75.3059 100.258 79.8299 97.3465 79.8299 97.3465C79.1261 93.4327 75.2096 83.5964 75.2096 83.5964C75.2096 83.5964 67.6075 70.5628 65.131 71.5554Z" fill="#0089C7"/>
<path d="M53.805 66.2962C53.805 66.2962 51.8283 63.493 52.0312 62.2336C52.219 60.9759 53.7103 61.0753 53.7103 61.0753C53.7103 61.0753 54.851 56.5025 57.2851 55.4081C59.7192 54.3137 60.4879 56.3131 60.4879 56.3131C60.4879 56.3131 61.5282 54.391 63.2361 55.6852C64.9458 56.9945 64.2237 61.625 62.28 62.4787C60.3363 63.3324 57.1302 66.1649 57.1302 66.1649L53.8183 66.2794L53.805 66.2962Z" fill="black"/>
<path d="M56.9694 69.6007L57.3678 74.1605C57.3678 74.1605 58.3057 75.3927 60.9892 75.3825C62.9868 75.3767 63.6427 74.8573 63.6427 74.8573L63.1598 72.5649L62.684 70.3327L57.773 69.6893L56.9526 69.5874L56.9676 69.5856L56.9694 69.6007Z" fill="#F3BAC1"/>
<path d="M57.7916 69.7176C57.8057 69.838 57.8685 69.9832 57.9632 70.1398C59.1815 72.3305 62.0172 72.5771 63.1766 72.5782L62.7008 70.346L57.7898 69.7026L57.7916 69.7176Z" fill="black"/>
<path d="M62.8124 59.8688C62.8124 59.8688 65.7011 65.3716 65.0474 68.6365C64.3786 71.9031 61.4306 71.6087 59.6491 71.1163C57.8675 70.6239 56.9712 69.6157 56.9712 69.6157C56.9712 69.6157 55.3877 70.2899 54.1807 68.8453C52.9906 67.4139 53.5281 65.6271 54.4336 65.1546C55.3391 64.6822 56.4922 65.2789 56.4922 65.2789L55.5118 63.6856C55.5118 63.6856 58.5508 55.0153 62.8257 59.852L62.8124 59.8688Z" fill="#F3BAC1"/>
<path d="M55.8995 68.6738C55.8393 68.6809 55.7889 68.6411 55.7535 68.5995C55.5659 68.3012 55.612 67.9144 55.843 67.6737C55.9377 67.5711 56.0678 67.51 56.2015 67.4791C55.8095 67.1285 55.3493 66.847 54.8528 66.646C54.7741 66.6248 54.7351 66.5531 54.7564 66.4743C54.7776 66.3955 54.8458 66.3265 54.921 66.3177C54.9963 66.3088 54.9662 66.3124 54.998 66.3239C55.6857 66.5939 56.3157 67.0233 56.8077 67.5757C56.86 67.6305 56.8688 67.7058 56.8307 67.7713C56.8077 67.835 56.751 67.8721 56.6909 67.8792C56.6608 67.8827 56.6307 67.8863 56.5971 67.8597C56.5316 67.8216 56.4378 67.8022 56.3608 67.796C56.2838 67.7897 56.1519 67.8357 56.0837 67.9048C55.9607 68.026 55.942 68.257 56.0367 68.4137C56.0739 68.4703 56.0659 68.5323 56.0562 68.5792C56.0314 68.6278 55.9597 68.6668 55.8995 68.6738Z" fill="black"/>
<path d="M62.9168 65.5614C62.8566 65.5685 62.8079 65.5437 62.7725 65.5021C62.7371 65.4605 62.7318 65.4154 62.7398 65.3534L62.8195 64.9932C62.6841 65.0091 62.5283 64.9817 62.3823 64.9073C62.1726 64.8099 62.0292 64.6284 62.0045 64.4178C61.9797 64.2072 62.0089 64.3258 62.0355 64.2921C62.062 64.2585 62.1054 64.2381 62.1506 64.2328C62.2408 64.2222 62.3249 64.2886 62.3373 64.394C62.3496 64.4993 62.4488 64.5639 62.5293 64.6002C62.6098 64.6365 62.7019 64.6409 62.824 64.6419C62.9461 64.6428 62.9293 64.6295 62.9745 64.6242L63.0046 64.6206C63.0647 64.6136 63.1134 64.6384 63.1488 64.68C63.1842 64.7216 63.1913 64.7818 63.1815 64.8287L63.0531 65.4234C63.0318 65.5022 62.977 65.5544 62.9 65.5482L62.915 65.5464L62.9168 65.5614Z" fill="black"/>
<path d="M60.6281 65.0371C60.5528 65.0459 60.4856 64.9928 60.4617 64.9194C60.2971 64.5573 60.2043 64.1564 60.1716 63.7484C60.1663 63.7032 60.176 63.6563 60.2176 63.6209C60.2442 63.5873 60.2876 63.567 60.3327 63.5617C60.423 63.5511 60.5088 63.6325 60.5194 63.7228C60.5468 64.0857 60.6343 64.4415 60.7821 64.7902C60.7874 64.8353 60.7927 64.8805 60.7812 64.9123C60.7564 64.961 60.7148 64.9964 60.6714 65.0168L60.6263 65.0221L60.6281 65.0371Z" fill="black"/>
<path d="M63.3382 64.2153C63.263 64.2242 63.1957 64.1711 63.1718 64.0976C63.0073 63.7356 62.9144 63.3347 62.8817 62.9266C62.8764 62.8815 62.8862 62.8346 62.9278 62.7992C62.9543 62.7656 62.9977 62.7452 63.0428 62.7399C63.1331 62.7293 63.219 62.8108 63.2296 62.901C63.2569 63.2639 63.3445 63.6197 63.4922 63.9684C63.4975 64.0136 63.5028 64.0587 63.4913 64.0906C63.4665 64.1393 63.4249 64.1747 63.3816 64.195L63.3364 64.2003L63.3382 64.2153Z" fill="black"/>
<path d="M59.6186 63.3252C59.5885 63.3288 59.5584 63.3323 59.5247 63.3057C59.4442 63.2694 59.4168 63.1659 59.4531 63.0854C59.4991 62.9579 59.562 62.8437 59.6399 62.7278C59.7045 62.6287 59.7824 62.5128 59.8922 62.4084C60.002 62.3039 60.1321 62.2429 60.2542 62.2438C60.4064 62.2412 60.5356 62.3023 60.625 62.4138C60.6622 62.4704 60.6693 62.5306 60.6445 62.5793C60.6214 62.643 60.5497 62.682 60.4878 62.674C60.4276 62.681 60.3772 62.6412 60.3418 62.5996C60.34 62.5846 60.3081 62.5731 60.278 62.5766C60.248 62.5801 60.278 62.5766 60.263 62.5784C60.2028 62.5854 60.1497 62.6527 60.0948 62.7049C59.9735 62.8412 59.8726 63.0208 59.7903 63.2288C59.7673 63.2925 59.7106 63.3297 59.6336 63.3235L59.6186 63.3252Z" fill="black"/>
<path d="M63.3944 62.2258C63.3492 62.2311 63.3174 62.2195 63.2687 62.1948C63.1342 62.0885 62.9864 61.9991 62.8306 61.9716L62.7704 61.9787C62.7253 61.984 62.6049 61.9982 62.5571 62.1106C62.5341 62.1743 62.4775 62.2114 62.4155 62.2035C62.3536 62.1955 62.2898 62.1725 62.2527 62.1158C62.2155 62.0592 62.2084 61.999 62.2332 61.9503C62.3173 61.7574 62.5174 61.6424 62.7448 61.6309L62.8201 61.6221C63.0829 61.6522 63.2997 61.8098 63.4812 61.9257C63.5148 61.9523 63.5351 61.9957 63.5404 62.0408C63.5457 62.0859 63.5227 62.1497 63.4962 62.1833C63.4696 62.2169 63.4262 62.2373 63.3811 62.2426L63.3944 62.2258Z" fill="black"/>
<path d="M62.102 68.4944C62.0268 68.5032 61.9648 68.4952 61.8878 68.489C61.1497 68.4384 60.3869 67.9179 60.3569 67.1435C60.3481 67.0682 60.4144 66.9842 60.4897 66.9753L63.822 66.1263L63.8672 66.1209C63.9575 66.1103 64.0265 66.1785 64.0539 66.2821C64.0645 66.3723 64.0114 66.4396 63.9379 66.4635L63.8476 66.4741C63.8901 66.8352 63.8236 67.1786 63.6634 67.5025C63.3677 68.1016 62.7711 68.4768 62.1188 68.5076L62.1038 68.5094L62.102 68.4944ZM60.7374 67.2666C60.7994 67.5339 60.9949 67.7702 61.2737 67.9357C61.5188 68.0747 61.8171 68.1465 62.1065 68.143C62.3959 68.1395 62.6596 68.0475 62.8845 67.8838C63.2925 67.5918 63.5369 67.075 63.5069 66.5599L60.7374 67.2666Z" fill="black"/>
<path d="M61.2502 75.6569C60.0191 75.6948 58.4747 75.4033 56.8013 74.2728C56.719 74.2215 56.7049 74.1011 56.7562 74.0188C56.8076 73.9365 56.9279 73.9224 57.0102 73.9737C60.8394 76.5747 63.8303 74.6369 63.9419 74.5475C64.0268 74.4918 64.1375 74.5246 64.1914 74.5945C64.2472 74.6795 64.2144 74.7901 64.1445 74.8441C64.1294 74.8458 62.9964 75.5891 61.2653 75.6552L61.2502 75.6569Z" fill="white"/>
<path d="M56.4922 65.2789L57.4214 65.9172L56.4358 63.7601C56.4358 63.7601 58.1733 63.3577 58.7257 62.6064C59.2798 61.8702 59.0704 59.9575 59.0704 59.9575C59.0704 59.9575 59.5119 60.9887 61.2864 60.6429C63.046 60.2989 62.7348 58.1695 62.7348 58.1695L58.0017 57.0933L53.7311 63.8491L56.5073 65.2771L56.4922 65.2789Z" fill="black"/>
<path d="M84.9363 29.0152L60.18 32.1699L59.7922 29.1184C61.4584 26.6088 65.9878 19.6787 73.2613 18.1682C74.8704 17.8282 77.1843 17.3823 79.6003 18.6014C83.1418 20.3703 84.2418 24.3815 84.4592 25.2724L84.9347 29.0001L84.9363 29.0152Z" fill="#940035"/>
<path d="M26.8887 36.4369L51.6449 33.2822L51.2571 30.2308C49.0149 28.216 42.8885 22.6558 35.4622 23.0247C33.8106 23.1102 31.4645 23.2549 29.4298 25.027C26.4483 27.6318 26.3917 31.7974 26.3981 32.7108L26.8736 36.4385L26.8887 36.4369Z" fill="#940035"/>
<path d="M50.0108 26.8447L60.1861 25.5414C61.1787 25.4198 62.0911 26.1144 62.2127 27.107L62.8232 31.8105L49.0557 33.5748L48.4452 28.8712C48.3237 27.8787 49.0182 26.9663 50.0108 26.8447Z" fill="#7C0124"/>
<path d="M91.6141 27.8465L35.6409 35.031C34.6451 35.1588 33.9414 36.0697 34.0692 37.0656L35.1724 45.6607C35.3003 46.6565 36.2112 47.3602 37.2071 47.2324L93.1802 40.0479C94.1761 39.9201 94.8797 39.0091 94.7519 38.0133L93.6487 29.4182C93.5209 28.4224 92.6099 27.7187 91.6141 27.8465Z" fill="#BC2651"/>
<path d="M76.4591 29.7915L20.486 36.976C19.4901 37.1038 18.7864 38.0147 18.9142 39.0106L20.0175 47.6056C20.1453 48.6015 21.0562 49.3052 22.0521 49.1774L78.0252 41.9929C79.0211 41.8651 79.7248 40.9541 79.597 39.9583L78.4937 31.3632C78.3659 30.3673 77.455 29.6637 76.4591 29.7915Z" fill="#DB4965"/>
<path d="M55.3921 32.4956L41.5378 34.2738L43.104 46.4752L56.9583 44.697L55.3921 32.4956Z" fill="#7C0124"/>
<path d="M96.7336 87.8393L47.8569 89.4444C45.9001 89.5087 44.3659 91.1471 44.4302 93.1039L45.8374 135.954C45.9017 137.911 47.54 139.445 49.4968 139.381L98.3735 137.776C100.33 137.712 101.864 136.073 101.8 134.116L100.393 91.2661C100.329 89.3093 98.6904 87.7751 96.7336 87.8393Z" fill="url(#paint0_linear_8731_39586)"/>
<path d="M81.4396 88.3093L32.563 89.9144C30.6062 89.9787 29.072 91.6171 29.1363 93.5739L30.5434 136.424C30.6077 138.381 32.2461 139.915 34.2029 139.851L83.0795 138.246C85.0363 138.182 86.5706 136.543 86.5063 134.586L85.0991 91.7361C85.0348 89.7793 83.3964 88.2451 81.4396 88.3093Z" fill="#BC2651"/>
<path d="M63.9816 88.8827L50.0211 89.3411L51.661 139.278L65.6215 138.819L63.9816 88.8827Z" fill="#7C0124"/>
<path d="M99.8814 21.4375L100.538 24.5685C100.673 25.2249 101.178 25.7468 101.817 25.8983L104.325 26.5042L101.817 27.1102C101.161 27.2617 100.673 27.7835 100.538 28.44L99.8814 31.5709L99.2249 28.44C99.0902 27.7835 98.5853 27.2617 97.9456 27.1102L95.4375 26.5042L97.9456 25.8983C98.6021 25.7468 99.0902 25.2249 99.2249 24.5685L99.8814 21.4375Z" fill="white"/>
<path d="M129.5 29L130.608 34.2525C130.835 35.3538 131.688 36.2292 132.767 36.4834L137 37.5L132.767 38.5166C131.659 38.7708 130.835 39.6462 130.608 40.7475L129.5 46L128.392 40.7475C128.165 39.6462 127.313 38.7708 126.233 38.5166L122 37.5L126.233 36.4834C127.341 36.2292 128.165 35.3538 128.392 34.2525L129.5 29Z" fill="white"/>
<path d="M108.444 96L109.1 99.1309C109.235 99.7874 109.74 100.309 110.38 100.461L112.888 101.067L110.38 101.673C109.723 101.824 109.235 102.346 109.1 103.002L108.444 106.133L107.787 103.002C107.653 102.346 107.148 101.824 106.508 101.673L104 101.067L106.508 100.461C107.165 100.309 107.653 99.7874 107.787 99.1309L108.444 96Z" fill="white"/>
<path d="M113.058 84.179C111.106 84.179 111.106 87.2089 113.058 87.2089C115.011 87.2089 115.011 84.179 113.058 84.179Z" fill="white"/>
<path d="M16.277 29.5C14.3243 29.5 14.3243 32.53 16.277 32.53C18.2296 32.53 18.2296 29.5 16.277 29.5Z" fill="white"/>
<path d="M108.937 56.875C108.155 56.875 107.401 57.5637 107.439 58.375C107.477 59.1864 108.099 59.875 108.937 59.875C109.776 59.875 110.474 59.1864 110.436 58.375C110.398 57.5637 109.776 56.875 108.937 56.875Z" fill="white"/>
<path d="M89.089 72.0625C87.9949 72.0625 86.9513 73.022 87.0018 74.1498C87.0523 75.2776 87.9107 76.2371 89.089 76.2371C90.2673 76.2371 91.2268 75.2776 91.1763 74.1498C91.1258 73.022 90.2673 72.0625 89.089 72.0625Z" fill="white"/>
<path d="M23.9568 69.625C22.7953 69.625 21.7012 70.635 21.7517 71.8301C21.8022 73.0253 22.728 74.0353 23.9568 74.0353C25.1856 74.0353 26.2124 73.0253 26.1619 71.8301C26.1114 70.635 25.1856 69.625 23.9568 69.625Z" fill="white"/>
<path d="M117.687 22C116.799 22 115.963 22.7729 116.001 23.6875C116.04 24.6021 116.748 25.375 117.687 25.375C118.627 25.375 119.412 24.6021 119.374 23.6875C119.335 22.7729 118.627 22 117.687 22Z" fill="white"/>
<path d="M114.471 63.2766C106.121 63.2766 99.353 61.1563 99.3545 58.5426V74.6625C99.3545 77.282 106.121 79.395 114.471 79.3965C122.821 79.398 129.59 77.2806 129.59 74.6684V58.5484C129.59 61.1606 122.82 63.278 114.471 63.2766Z" fill="#F05959"/>
<path d="M114.472 63.2767C122.822 63.2767 129.59 61.1585 129.59 58.5456C129.59 55.9328 122.822 53.8146 114.472 53.8146C106.122 53.8146 99.3535 55.9328 99.3535 58.5456C99.3535 61.1585 106.122 63.2767 114.472 63.2767Z" fill="#FFFFE4"/>
<path d="M114.471 63.2766C106.121 63.2766 99.353 61.1563 99.3545 58.5426V67.5216C99.4697 67.6014 99.6115 67.6328 99.7496 67.6089C100.21 67.539 100.541 67.1185 100.714 66.6863C100.887 66.254 100.948 65.7796 101.134 65.3532C101.32 64.9268 101.687 64.5252 102.15 64.5034C102.778 64.4743 103.224 65.1189 103.405 65.7214C103.696 66.6775 103.654 67.6991 103.641 68.6989C103.628 69.6987 103.652 70.7362 104.052 71.6472C104.451 72.5582 105.321 73.3426 106.32 73.3426C107.254 73.3426 108.082 72.6586 108.524 71.8335C108.965 71.0084 109.092 70.0566 109.198 69.1267C109.304 68.1968 109.402 67.2451 109.797 66.3952C109.995 65.9703 110.28 65.5657 110.692 65.3431C111.105 65.1204 111.661 65.1233 111.999 65.4435C112.662 66.0634 112.126 67.2669 112.615 68.0324C113.067 68.7425 114.187 68.6756 114.845 68.1532C115.503 67.6307 115.844 66.8172 116.255 66.0838C116.666 65.3503 117.256 64.6154 118.085 64.483C119.112 64.3142 120.053 65.1495 120.534 66.075C121.015 67.0006 121.211 68.0586 121.735 68.9594C122.259 69.8602 123.311 70.5995 124.31 70.2866C125.309 69.9737 125.709 68.8124 125.829 67.7864C125.911 67.1054 126.065 63.8121 127.572 64.6518C127.989 64.8817 128.177 65.3794 128.286 65.8422C128.394 66.305 128.463 66.8041 128.756 67.1796C128.855 67.3052 128.982 67.4056 129.127 67.4729C129.272 67.5401 129.43 67.5723 129.59 67.5667V58.5484C129.59 61.1606 122.82 63.278 114.471 63.2766Z" fill="#FFD2D4"/>
<path d="M106.644 46.7756C106.677 47.004 107.296 47.1044 108.028 47.0011C108.76 46.8978 109.326 46.6257 109.293 46.3972L110.941 58.3303C110.973 58.5588 110.407 58.8295 109.675 58.9343C108.943 59.039 108.324 58.9343 108.292 58.7087L106.644 46.7756Z" fill="#FF8E89"/>
<path d="M109.288 46.3972C109.322 46.6256 108.755 46.8963 108.023 47.0011C107.291 47.1059 106.673 47.0011 106.639 46.7755C106.606 46.55 107.174 46.2764 107.906 46.1716C108.638 46.0668 109.258 46.1672 109.288 46.3972Z" fill="#FFD2D4"/>
<path d="M106.377 44.5075C106.379 44.8193 106.504 45.1176 106.726 45.3367C106.947 45.5558 107.246 45.6777 107.558 45.6757C107.869 45.6736 108.167 45.5478 108.385 45.3258C108.604 45.1039 108.726 44.804 108.724 44.4921C108.72 43.8424 107.532 41.5306 107.532 41.5306C107.532 41.5306 106.372 43.8635 106.377 44.5075Z" fill="#FFC700"/>
<path d="M106.835 44.7313C106.835 44.8256 106.854 44.9188 106.891 45.0057C106.927 45.0926 106.98 45.1714 107.047 45.2377C107.114 45.3039 107.194 45.3563 107.281 45.3919C107.368 45.4274 107.461 45.4454 107.555 45.4448C107.649 45.4442 107.743 45.425 107.829 45.3884C107.916 45.3518 107.995 45.2984 108.061 45.2313C108.127 45.1642 108.179 45.0847 108.215 44.9974C108.25 44.91 108.268 44.8165 108.268 44.7222C108.266 44.3255 107.541 42.9123 107.541 42.9123C107.541 42.9123 106.831 44.3343 106.835 44.7313Z" fill="#FF9E00"/>
<path d="M110.494 55.1316L110.234 53.2397C109.481 54.0373 108.678 54.7859 107.83 55.4808L108.077 57.2082C108.924 56.5657 109.731 55.8722 110.494 55.1316Z" fill="#FFF7F9"/>
<path d="M109.581 48.4577C108.825 49.2423 108.02 49.9773 107.17 50.6581L107.415 52.3869C108.264 51.7415 109.073 51.0456 109.838 50.303L109.581 48.4577Z" fill="#FFF7F9"/>
<path d="M113.209 46.5232C113.211 46.7541 113.81 46.9386 114.549 46.9368C115.288 46.9351 115.887 46.7433 115.885 46.5124L115.879 58.5589C115.879 58.7896 115.281 58.9799 114.541 58.9831C113.802 58.9863 113.203 58.7975 113.203 58.5697L113.209 46.5232Z" fill="#FF8E89"/>
<path d="M115.881 46.5118C115.882 46.7427 115.284 46.933 114.545 46.9362C113.805 46.9394 113.207 46.7506 113.205 46.5226C113.203 46.2946 113.803 46.1016 114.542 46.0984C115.282 46.0952 115.882 46.2798 115.881 46.5118Z" fill="#FFD2D4"/>
<path d="M113.363 44.423C113.364 44.7348 113.488 45.0334 113.709 45.2531C113.93 45.4727 114.229 45.5954 114.54 45.5942C114.852 45.5929 115.15 45.4679 115.369 45.2464C115.588 45.025 115.711 44.7254 115.71 44.4136C115.708 43.7639 114.526 41.449 114.526 41.449C114.526 41.449 113.359 43.779 113.363 44.423Z" fill="#FFC700"/>
<path d="M113.82 44.648C113.82 44.7422 113.839 44.8355 113.875 44.9225C113.911 45.0095 113.964 45.0885 114.031 45.1549C114.098 45.2213 114.177 45.2739 114.264 45.3097C114.351 45.3454 114.445 45.3636 114.539 45.3633C114.633 45.3629 114.726 45.344 114.813 45.3076C114.9 45.2712 114.978 45.218 115.045 45.1511C115.111 45.0841 115.164 45.0048 115.199 44.9175C115.235 44.8303 115.253 44.7368 115.253 44.6425C115.252 44.2458 114.531 42.8307 114.531 42.8307C114.531 42.8307 113.817 44.251 113.82 44.648Z" fill="#FF9E00"/>
<path d="M115.875 55.329L115.877 53.4194C115.022 54.106 114.124 54.7372 113.188 55.309L113.196 57.0539C114.123 56.5338 115.017 55.9578 115.875 55.329Z" fill="#FFF7F9"/>
<path d="M115.888 48.593C115.031 49.2664 114.133 49.8837 113.197 50.4413L113.203 52.1875C114.132 51.6647 115.029 51.0866 115.889 50.4561L115.888 48.593Z" fill="#FFF7F9"/>
<path d="M119.686 46.3567C119.66 46.5861 120.231 46.8432 120.965 46.9329C121.699 47.0225 122.317 46.9063 122.343 46.6769L120.847 58.6301C120.819 58.8591 120.202 58.9739 119.468 58.8857C118.733 58.7974 118.163 58.5361 118.19 58.3099L119.686 46.3567Z" fill="#FF8E89"/>
<path d="M122.339 46.6757C122.312 46.9051 121.695 47.0199 120.961 46.9317C120.227 46.8434 119.656 46.5821 119.682 46.3555C119.708 46.129 120.328 46.0117 121.062 46.1C121.796 46.1882 122.369 46.4458 122.339 46.6757Z" fill="#FFD2D4"/>
<path d="M120.182 44.4369C120.178 44.7487 120.298 45.0494 120.515 45.2727C120.732 45.496 121.029 45.6237 121.34 45.6276C121.652 45.6316 121.952 45.5115 122.175 45.2938C122.398 45.0761 122.525 44.7786 122.529 44.4667C122.538 43.8171 121.395 41.4828 121.395 41.4828C121.395 41.4828 120.19 43.793 120.182 44.4369Z" fill="#FFC700"/>
<path d="M120.635 44.6696C120.634 44.7639 120.651 44.8575 120.686 44.9451C120.721 45.0326 120.772 45.1125 120.838 45.18C120.904 45.2475 120.982 45.3014 121.068 45.3386C121.155 45.3758 121.248 45.3956 121.342 45.3968C121.436 45.3981 121.53 45.3807 121.617 45.3457C121.704 45.3108 121.784 45.2589 121.852 45.1931C121.919 45.1273 121.973 45.0488 122.01 44.9622C122.047 44.8756 122.067 44.7824 122.068 44.6882C122.074 44.2914 121.376 42.8645 121.376 42.8645C121.376 42.8645 120.64 44.2726 120.635 44.6696Z" fill="#FF9E00"/>
<path d="M121.243 55.4245L121.481 53.5299C120.548 54.1055 119.579 54.6207 118.58 55.0725L118.371 56.8049C119.355 56.4034 120.314 55.9424 121.243 55.4245Z" fill="#FFF7F9"/>
<path d="M122.088 48.7419C121.155 49.3041 120.187 49.8056 119.19 50.2432L118.98 51.9767C119.966 51.5729 120.928 51.1101 121.859 50.5908L122.088 48.7419Z" fill="#FFF7F9"/>
<defs>
<linearGradient id="paint0_linear_8731_39586" x1="74.8403" y1="166.278" x2="72.6223" y2="98.7399" gradientUnits="userSpaceOnUse">
<stop stop-color="#EA8181"/>
<stop offset="1" stop-color="#CD194D"/>
</linearGradient>
</defs>
</svg>
