<svg xmlns="http://www.w3.org/2000/svg" width="24" height="28" fill-rule="evenodd" xmlns:v="https://vecta.io/nano"><path d="M10.111 4.787V3.653c0-.158.062-.309.173-.42a.59.59 0 0 1 .418-.174h5.642c.461 0 .888.245 1.123.643a1.32 1.32 0 0 1 .022 1.299l-3.705 6.818V6.651c0-1.018-.817-1.846-1.831-1.852l-1.843-.012z" fill="#e52443"/><path d="M10.702 3.059c-.326 0-.591.266-.591.594v.172h4.962c.461 0 .888.245 1.123.643a1.32 1.32 0 0 1 .022 1.299l-2.437 4.481v1.57l3.705-6.818a1.32 1.32 0 0 0-.021-1.297c-.234-.398-.66-.643-1.121-.645h-5.642z" fill="#a3112d"/><g fill="#e52443"><path d="M11.51 10.571L8.269 5.292a.75.75 0 0 1-.016-.753.74.74 0 0 1 .646-.382h4.55a.57.57 0 0 1 .404.169c.107.108.167.255.166.407v5.838l-2.51-.001z"/><path d="M19.797 12.827c-.853-1.572-2.017-2.952-3.421-4.055l-3.472-.154-3.472.154c-1.403 1.103-2.567 2.483-3.421 4.055-.64 1.186-1.566 2.906-1.429 5.235.036.62.128 1.92.919 3.285 1.765 3.044 5.377 3.598 6.024 3.695.914.137 1.843.137 2.757 0 .648-.099 4.26-.651 6.024-3.695.792-1.365.882-2.668.919-3.285.138-2.329-.788-4.049-1.429-5.235z"/></g><path d="M9.908 7.569h5.993c.753 0 1.129.378 1.129 1.135v.001c0 .757-.376 1.135-1.129 1.135H9.908c-.753 0-1.129-.378-1.129-1.135v-.001c0-.757.376-1.135 1.129-1.135z" fill="#a3112d"/><g fill="#fff"><path d="M14.077 14.107c-.158.093-.36.058-.477-.084-.047-.06-.105-.111-.169-.152a.92.92 0 0 0-.996.079.59.59 0 0 0-.22.469c0 .26.192.47.577.628l.529.217c.429.176.743.39.942.641a1.45 1.45 0 0 1 .299.926c0 .49-.162.895-.487 1.215a1.67 1.67 0 0 1-1.219.483c-.46 0-.84-.137-1.14-.411a1.69 1.69 0 0 1-.445-.705c-.039-.111-.03-.234.027-.337a.41.41 0 0 1 .269-.204.41.41 0 0 1 .48.297c.024.094.064.182.119.261.165.23.405.345.721.345.233.007.458-.085.621-.252s.255-.401.247-.638a.9.9 0 0 0-.043-.285c-.029-.087-.075-.168-.134-.238-.068-.079-.147-.147-.235-.204a2.26 2.26 0 0 0-.343-.181l-.511-.214c-.725-.309-1.088-.76-1.089-1.353-.006-.387.162-.756.457-1.004.304-.271.683-.407 1.136-.407.448-.009.876.184 1.168.526a.38.38 0 0 1-.082.581h0z"/><path d="M12.984 19.341c-.276 0-.5-.189-.5-.422v-.48c0-.233.224-.422.5-.422s.5.189.5.422v.48c0 .233-.224.422-.5.422zm0-5.805c-.276 0-.5-.189-.5-.422v-.48c0-.233.224-.422.5-.422s.5.189.5.422v.48c0 .233-.224.422-.5.422z"/></g><path d="M23.477 20.461a1.68 1.68 0 0 0-2.28-.589l-7.194 4.157c-.492.284-1.083.336-1.616.141l-1.979-.718a.7.7 0 0 1-.459-.658c.001-.229.112-.443.299-.574s.425-.162.639-.084l1.677.611c.859.314 1.809-.13 2.123-.993.15-.414.13-.87-.055-1.269a1.65 1.65 0 0 0-.933-.857L9.13 17.964l-1.766-.5c-.805-.228-1.661-.186-2.44.118l-2.429.95v7.193l3.087-.062c.452-.009.902.063 1.329.211l5.808 2.019c.526.183 1.106.128 1.589-.151l8.532-4.932c.816-.472 1.124-1.541.638-2.349h0z" fill="#f9bf87" fill-rule="nonzero"/><path d="M.434 17.08h3.094a.38.38 0 0 1 .434.436v8.702a.38.38 0 0 1-.434.436H.434A.38.38 0 0 1 0 26.219v-8.702a.38.38 0 0 1 .434-.436h0z" fill="#303030"/><path d="M1.981 25.694c.44 0 .796-.357.796-.797s-.356-.797-.796-.797-.796.357-.796.797.356.797.796.797z" fill="#4caf50"/><g fill-rule="nonzero"><path d="M12.01 21.206c0 .604.489 1.093 1.092 1.093s1.092-.489 1.092-1.093-.489-1.093-1.092-1.093-1.092.489-1.092 1.093z" fill="#fff4e6"/><path d="M19.104.113L19.076 0l-.028.113a1.85 1.85 0 0 1-1.34 1.347l-.112.028.112.028c.66.166 1.175.684 1.34 1.347l.028.113.028-.113c.165-.663.68-1.181 1.34-1.347l.113-.028-.113-.028c-.66-.166-1.175-.684-1.34-1.347zm4.739 8.77a2.58 2.58 0 0 1-1.871-1.88l-.04-.158-.039.158a2.58 2.58 0 0 1-1.871 1.88l-.157.04.157.04a2.58 2.58 0 0 1 1.871 1.88l.039.158.04-.158a2.58 2.58 0 0 1 1.871-1.88l.157-.04-.157-.04h0zM4.939 11.129A1.81 1.81 0 0 1 3.627 9.81l-.028-.111-.028.111a1.81 1.81 0 0 1-1.313 1.319l-.11.028.11.028a1.81 1.81 0 0 1 1.313 1.319l.028.111.028-.111a1.81 1.81 0 0 1 1.312-1.319l.11-.028-.11-.028h0zm1.693-8.456a1.08 1.08 0 0 1-.785-.788l-.017-.066-.017.066a1.08 1.08 0 0 1-.785.788l-.066.017.066.017a1.08 1.08 0 0 1 .785.789l.017.066.017-.066a1.08 1.08 0 0 1 .785-.789l.066-.017-.066-.017h0z" fill="#ffc82c"/></g></svg>