<svg xmlns="http://www.w3.org/2000/svg" width="23" height="24" xmlns:v="https://vecta.io/nano"><defs><clipPath id="A"><path d="M414 0v812H0V0h414z"/></clipPath><clipPath id="B"><path d="M11.5 0C17.851 0 23 5.142 23 11.484c0 3.633-1.69 6.871-4.326 8.976H4.326C1.69 18.356 0 15.117 0 11.484 0 5.142 5.149 0 11.5 0z"/></clipPath><clipPath id="C"><path d="M14.793 0C15.457 0 16 .524 16 1.165v5.154c0 .641-.543 1.165-1.207 1.165h-1.075a.36.36 0 0 0-.297.155l-.74 1.089c-.18.265-.582.265-.762 0l-.74-1.089a.36.36 0 0 0-.297-.155H1.537C.692 7.484 0 6.96 0 6.319V1.165C0 .524.692 0 1.537 0h13.255z"/></clipPath><clipPath id="D"><path d="M1.089.145a.26.26 0 0 1 .467 0l.207.419a.26.26 0 0 0 .196.142l.463.067a.26.26 0 0 1 .144.444l-.335.326a.26.26 0 0 0-.075.23l.079.46a.26.26 0 0 1-.378.274l-.414-.217a.26.26 0 0 0-.242 0l-.414.217a.26.26 0 0 1-.378-.274l.079-.46a.26.26 0 0 0-.075-.23l-.335-.326A.26.26 0 0 1 .223.773L.686.706A.26.26 0 0 0 .882.564zm2.97 0a.26.26 0 0 1 .467 0l.207.419a.26.26 0 0 0 .196.142l.463.067a.26.26 0 0 1 .144.444l-.335.326a.26.26 0 0 0-.075.23l.079.46a.26.26 0 0 1-.378.274l-.414-.217a.26.26 0 0 0-.242 0l-.414.217a.26.26 0 0 1-.378-.274l.079-.46a.26.26 0 0 0-.075-.23l-.335-.326a.26.26 0 0 1 .144-.444l.463-.067a.26.26 0 0 0 .196-.142zm6 0a.26.26 0 0 1 .467 0l.207.419a.26.26 0 0 0 .196.142l.463.067a.26.26 0 0 1 .144.444l-.335.326a.26.26 0 0 0-.075.23l.079.46a.26.26 0 0 1-.378.274l-.414-.217a.26.26 0 0 0-.242 0l-.414.217a.26.26 0 0 1-.378-.274l.079-.46a.26.26 0 0 0-.075-.23l-.335-.326a.26.26 0 0 1 .144-.444l.463-.067a.26.26 0 0 0 .196-.142zm-3 0a.26.26 0 0 1 .467 0l.207.419a.26.26 0 0 0 .196.142l.463.067a.26.26 0 0 1 .144.444l-.335.326a.26.26 0 0 0-.075.23l.079.46a.26.26 0 0 1-.378.274l-.414-.217a.26.26 0 0 0-.242 0l-.414.217a.26.26 0 0 1-.378-.274l.079-.46a.26.26 0 0 0-.075-.23l-.335-.326a.26.26 0 0 1 .144-.444l.463-.067a.26.26 0 0 0 .196-.142zm6 0a.26.26 0 0 1 .467 0l.207.419a.26.26 0 0 0 .196.142l.463.067a.26.26 0 0 1 .144.444l-.335.326a.26.26 0 0 0-.075.23l.079.46a.26.26 0 0 1-.378.274l-.414-.217a.26.26 0 0 0-.242 0l-.414.217a.26.26 0 0 1-.378-.274l.079-.46a.26.26 0 0 0-.075-.23l-.335-.326a.26.26 0 0 1 .144-.444l.463-.067a.26.26 0 0 0 .196-.142z"/></clipPath><clipPath id="E"><path d="M14.793 0C15.457 0 16 .524 16 1.165v5.154c0 .641-.543 1.165-1.207 1.165h-1.075a.36.36 0 0 0-.297.155l-.74 1.089c-.18.265-.582.265-.762 0l-.74-1.089a.36.36 0 0 0-.297-.155H1.207C.543 7.484 0 6.96 0 6.319V1.165C0 .524.543 0 1.207 0h13.586z"/></clipPath><clipPath id="F"><path d="M1.089.145a.26.26 0 0 1 .467 0l.207.419a.26.26 0 0 0 .196.142l.463.067a.26.26 0 0 1 .144.444l-.335.326a.26.26 0 0 0-.075.23l.079.46a.26.26 0 0 1-.378.274l-.414-.217a.26.26 0 0 0-.242 0l-.414.217a.26.26 0 0 1-.378-.274l.079-.46a.26.26 0 0 0-.075-.23l-.335-.326A.26.26 0 0 1 .223.773L.686.706A.26.26 0 0 0 .882.564zm2.97 0a.26.26 0 0 1 .467 0l.207.419a.26.26 0 0 0 .196.142l.463.067a.26.26 0 0 1 .144.444l-.335.326a.26.26 0 0 0-.075.23l.079.46a.26.26 0 0 1-.378.274l-.414-.217a.26.26 0 0 0-.242 0l-.414.217a.26.26 0 0 1-.378-.274l.079-.46a.26.26 0 0 0-.075-.23l-.335-.326a.26.26 0 0 1 .144-.444l.463-.067a.26.26 0 0 0 .196-.142zm3 0a.26.26 0 0 1 .467 0l.207.419a.26.26 0 0 0 .196.142l.463.067a.26.26 0 0 1 .144.444l-.335.326a.26.26 0 0 0-.075.23l.079.46a.26.26 0 0 1-.378.274l-.414-.217a.26.26 0 0 0-.242 0l-.414.217a.26.26 0 0 1-.378-.274l.079-.46a.26.26 0 0 0-.075-.23l-.335-.326a.26.26 0 0 1 .144-.444l.463-.067a.26.26 0 0 0 .196-.142z"/></clipPath><clipPath id="G"><path d="M1.089.145a.26.26 0 0 1 .467 0l.207.419a.26.26 0 0 0 .196.142l.463.067a.26.26 0 0 1 .144.444l-.335.326a.26.26 0 0 0-.075.23l.079.46a.26.26 0 0 1-.378.274l-.414-.217a.26.26 0 0 0-.242 0l-.414.217a.26.26 0 0 1-.378-.274l.079-.46a.26.26 0 0 0-.075-.23l-.335-.326A.26.26 0 0 1 .223.773L.686.706A.26.26 0 0 0 .882.564zm3 0a.26.26 0 0 1 .467 0l.207.419a.26.26 0 0 0 .196.142l.463.067a.26.26 0 0 1 .144.444l-.335.326a.26.26 0 0 0-.075.23l.079.46a.26.26 0 0 1-.378.274l-.414-.217a.26.26 0 0 0-.242 0l-.414.217a.26.26 0 0 1-.378-.274l.079-.46a.26.26 0 0 0-.075-.23l-.335-.326a.26.26 0 0 1 .144-.444l.463-.067a.26.26 0 0 0 .196-.142z"/></clipPath><clipPath id="H"><path d="M13.297 0a1.17 1.17 0 0 1 1.167 1.165v.753a11.53 11.53 0 0 1-1.689 1.135l-1.94.845a11.43 11.43 0 0 1-1.257.336l-1.758.224-.587.015c-.197 0-.393-.006-.587-.015l-1.758-.224a11.43 11.43 0 0 1-1.257-.336l-1.94-.845C1.094 2.725.528 2.345 0 1.918v-.753A1.17 1.17 0 0 1 1.167 0h12.13z"/></clipPath><clipPath id="I"><path d="M3.83.145a.26.26 0 0 1 .467 0l.207.419A.26.26 0 0 0 4.7.706l.463.067a.26.26 0 0 1 .144.444l-.335.326a.26.26 0 0 0-.075.23l.07.408c-.595-.029-1.186-.105-1.769-.226l.031-.182a.26.26 0 0 0-.075-.23l-.335-.326a.26.26 0 0 1 .144-.444l.463-.067a.26.26 0 0 0 .196-.142zm-2.97 0a.26.26 0 0 1 .467 0l.207.419a.26.26 0 0 0 .196.142l.463.067a.26.26 0 0 1 .144.444l-.335.326a.26.26 0 0 0-.055.078C1.273 1.399.621 1.115 0 .772L.457.706A.26.26 0 0 0 .653.564z"/></clipPath><clipPath id="J"><path d="M1.089.145a.26.26 0 0 1 .467 0l.207.419a.26.26 0 0 0 .196.142l.463.067a.26.26 0 0 1 .144.444l-.335.326a.26.26 0 0 0-.075.23l.031.182c-.583.121-1.175.196-1.769.226l.07-.408a.26.26 0 0 0-.075-.23l-.335-.326A.26.26 0 0 1 .223.773L.686.706A.26.26 0 0 0 .882.564zm2.97 0a.26.26 0 0 1 .467 0l.207.419a.26.26 0 0 0 .196.142l.457.066a11.44 11.44 0 0 1-1.947.848.26.26 0 0 0-.055-.078l-.335-.326a.26.26 0 0 1 .144-.444l.463-.067a.26.26 0 0 0 .196-.142z"/></clipPath></defs><g clip-path="url(#A)" transform="translate(-106 -424)"><g clip-path="url(#B)" transform="translate(106 425.031)"><path fill="#303030" d="M0 0h23v20.46H0V0z"/></g><g clip-path="url(#C)" transform="translate(109.268 424)"><path fill="#fc0" d="M0 0h16v8.927H0V0z"/></g><g clip-path="url(#D)" transform="translate(109.722 426.278)"><path fill="#fceca9" d="M0 0h14.615v2.538H0V0z"/></g><g clip-path="url(#E)" transform="translate(109.268 433.763)"><path fill="#ff9419" d="M0 0h16v8.927H0V0z"/></g><g clip-path="url(#F)" transform="translate(109.722 436.041)"><path fill="#fceca9" d="M0 0h8.615v2.538H0V0z"/></g><g clip-path="url(#G)" transform="translate(118.633 436.041)"><path fill="#e9efff" d="M0 0h5.645v2.538H0V0z"/></g><g clip-path="url(#H)" transform="translate(110.268 443.527)"><path fill="#e15343" d="M0 0h14.464v4.473H0V0z"/></g><g clip-path="url(#I)" transform="translate(111.951 445.805)"><path fill="#fceca9" d="M0 0h5.386v2.181H0V0z"/></g><g clip-path="url(#J)" transform="translate(117.663 445.805)"><path fill="#e9efff" d="M0 0h5.386v2.181H0V0z"/></g></g></svg>