<?xml version="1.0" encoding="UTF-8"?>
<svg width="64px" height="48px" viewBox="0 0 64 48" version="1.1" xmlns="http://www.w3.org/2000/svg" xmlns:xlink="http://www.w3.org/1999/xlink">
    <title>Dine In-Icon</title>
    <g id="Dine-In/Take-Away" stroke="none" stroke-width="1" fill="none" fill-rule="evenodd">
        <g id="00---Consumer-Option" transform="translate(-16.000000, -80.000000)">
            <g id="Screen">
                <g id="Organisms/Payment" transform="translate(0.000000, 60.000000)">
                    <g id="Option-01">
                        <g id="Atoms/Icon/Food-Option/Dine-In" transform="translate(16.000000, 20.000000)">
                            <g id="Dine-In">
                                <g id="Group" transform="translate(4.800000, 9.600000)">
                                    <path d="M52.6733299,32.3051414 L1.02017662,32.3051414 C0.461764156,32.3051414 5.36854511e-15,31.8330865 5.36854511e-15,31.2622293 L5.36854511e-15,30.4059436 C5.36854511e-15,29.8350864 0.461764156,29.3630315 1.02017662,29.3630315 L52.6733299,29.3630315 C53.2317423,29.3630315 53.6935065,29.8350864 53.6935065,30.4059436 L53.6935065,31.2622293 C53.6935065,31.8440645 53.2317423,32.3051414 52.6733299,32.3051414 Z" id="XMLID_423_" fill="#BBBCBD" fill-rule="nonzero"></path>
                                    <path d="M53.3798234,30.8921544 L1.72667013,30.8921544 C1.16825766,30.8921544 0.706493506,30.4200995 0.706493506,29.8492423 L0.706493506,28.9929566 C0.706493506,28.4220994 1.16825766,27.9500445 1.72667013,27.9500445 L53.3798234,27.9500445 C53.9382358,27.9500445 54.4,28.4220994 54.4,28.9929566 L54.4,29.8492423 C54.4,30.4310775 53.9382358,30.8921544 53.3798234,30.8921544 Z" id="XMLID_423_" fill="#FF9933" fill-rule="nonzero"></path>
                                    <rect id="XMLID_422_" fill="#25272C" fill-rule="nonzero" x="7.32624088" y="25.0079345" width="40.4540117" height="2.94210994"></rect>
                                    <path d="M28.3271313,5.28546673 L28.3271313,3.06621396 C28.8430543,2.78746724 29.1977513,2.25141585 29.1977513,1.62959623 C29.1977513,0.729029894 28.4668604,0 27.5639951,0 C26.6611299,0 25.930239,0.729029894 25.930239,1.62959623 C25.930239,2.25141585 26.284936,2.79818827 26.800859,3.06621396 L26.800859,5.28546673 C16.783354,5.69286579 8.79729585,13.9051731 8.79729585,23.9829393 C8.79729585,24.0794285 8.79729585,24.1759178 8.79729585,24.272407 L46.3091977,24.272407 C46.3091977,24.1759178 46.3091977,24.0794285 46.3091977,23.9829393 C46.3091977,13.9051731 38.3231395,5.69286579 28.3271313,5.28546673 Z" id="XMLID_421_" fill="#000000" fill-rule="nonzero"></path>
                                    <circle id="Oval" fill="#FFFFFF" cx="27.5532468" cy="1.41298701" r="1"></circle>
                                </g>
                            </g>
                        </g>
                    </g>
                </g>
            </g>
        </g>
    </g>
</svg>