<?xml version="1.0" encoding="UTF-8"?>
<svg width="65px" height="48px" viewBox="0 0 65 48" version="1.1" xmlns="http://www.w3.org/2000/svg" xmlns:xlink="http://www.w3.org/1999/xlink">
    <title>Take Away</title>
    <g id="Dine-In/Take-Away" stroke="none" stroke-width="1" fill="none" fill-rule="evenodd">
        <g id="00---Consumer-Option" transform="translate(-15.000000, -167.000000)" fill-rule="nonzero">
            <g id="Screen">
                <g id="Organisms/Payment" transform="translate(0.000000, 60.000000)">
                    <g id="Option-02" transform="translate(0.000000, 87.000000)">
                        <g id="Atoms/Icon/Food-Option/Take-Away" transform="translate(15.800000, 20.000000)">
                            <g id="Take-Away">
                                <g id="Group" transform="translate(14.400000, 2.400000)">
                                    <path d="M11.2553838,19.8391742 C11.2553838,22.1972245 13.1740319,24.1158726 15.5320822,24.1158726 L19.5943105,24.1158726 C21.9523608,24.1158726 23.8706352,22.1972245 23.8706352,19.8391742 L23.8706352,13.5067481 L11.2553838,13.5067481 L11.2553838,19.8391742 Z" id="Path-2" fill="#000000"></path>
                                    <path d="M-3.5730149e-14,16.6404955 L-3.5730149e-14,36.0387844 C-3.5730149e-14,39.4133725 2.74715102,42.1605235 6.12173913,42.1605235 L29.0017578,42.1605235 C32.3763459,42.1605235 35.1234969,39.4133725 35.1234969,36.0387844 L35.1234969,16.6404955 C35.1234969,16.2196353 34.7867994,15.8752781 34.3582795,15.8752781 L25.3975671,15.8752781 L25.3975671,22.2113006 C25.3975671,25.4099037 22.7958559,28.0116615 19.5972061,28.0116615 L15.5339036,28.0116615 C12.3276409,28.0116615 9.7259298,25.4099037 9.7259298,22.2113006 L9.7259298,15.8752781 L0.765217391,15.8752781 C0.344357162,15.8752781 -3.5730149e-14,16.2196353 -3.5730149e-14,16.6404955 Z" id="Path" fill="#BBBCBD"></path>
                                    <path d="M-3.5730149e-14,14.2719655 L-3.5730149e-14,33.6702544 C-3.5730149e-14,37.0448425 2.74715102,39.7919935 6.12173913,39.7919935 L29.0017578,39.7919935 C32.3763459,39.7919935 35.1234969,37.0448425 35.1234969,33.6702544 L35.1234969,14.2719655 C35.1234969,13.8511053 34.7867994,13.5067481 34.3582795,13.5067481 L25.3975671,13.5067481 L25.3975671,19.8427705 C25.3975671,23.0413736 22.7958559,25.6431314 19.5972061,25.6431314 L15.5339036,25.6431314 C12.3276409,25.6431314 9.7259298,23.0413736 9.7259298,19.8427705 L9.7259298,13.5067481 L0.765217391,13.5067481 C0.344357162,13.5067481 -3.5730149e-14,13.8511053 -3.5730149e-14,14.2719655 Z" id="Path" fill="#000000"></path>
                                    <path d="M12.3812118,11.2646667 C12.3812118,11.5018823 12.3965311,11.7390978 12.4347826,11.9763133 L17.4316746,11.9763133 C17.4622665,11.8998103 17.4928584,11.8156476 17.5311566,11.7390978 L17.821943,11.1422525 C18.6177522,9.55058721 19.4135615,8.10431517 20.2017579,6.81109586 C19.4212211,6.34432458 18.5106105,6.08417684 17.5617485,6.08417684 C14.7075025,6.08417684 12.3812118,8.41042087 12.3812118,11.2646667 Z" id="Path" fill="#FF9933"></path>
                                    <path d="M2.70123981,11.9763133 L10.8890286,11.9763133 C10.8660963,11.7390978 10.850777,11.5018823 10.850777,11.2646667 C10.850777,10.0632699 11.1645423,8.93076303 11.723136,7.95892203 C10.2845236,6.32900523 7.95061987,5.76275186 5.92277511,6.57388038 L4.49948193,4.12522207 C4.28524532,3.76554564 3.81842728,3.63547177 3.45113786,3.84970831 C3.08384843,4.0639916 2.96138755,4.53076296 3.17567077,4.89805238 L4.59896394,7.34675737 C3.22158205,8.456332 2.49461619,10.2239823 2.70123981,11.9763133 Z" id="Path" fill="#FF9933"></path>
                                    <path d="M19.1151155,11.9763133 L32.3686863,11.9763133 C35.4448752,3.75788605 33.3022758,1.18676678 31.7029509,0.383297858 C30.524533,-0.205934455 28.5655783,-0.404898476 25.9179093,1.96730344 C23.7599907,3.89561951 21.5026367,7.2090239 19.2069845,11.7926686 C19.176346,11.8538991 19.1457541,11.9151296 19.1151155,11.9763133 Z M28.1217391,3.36000476 C28.5273268,3.22222454 28.9558467,3.43650783 29.0935801,3.84204871 L30.2796578,7.40032825 C30.4097316,7.79825622 30.195495,8.23443579 29.7975671,8.36450966 C29.7134043,8.39510152 29.6292416,8.41042087 29.5526919,8.41042087 C29.2313137,8.41042087 28.9328677,8.20379725 28.825726,7.88241903 L27.6396484,4.32413949 C27.5095746,3.92625813 27.7238112,3.49007863 28.1217391,3.36000476 Z M25.2598336,7.21668358 C25.650102,7.04831149 26.101554,7.23200285 26.2622665,7.62222454 L27.4483442,10.4152867 C27.6167162,10.8055551 27.4330716,11.2493942 27.0428032,11.4177196 C26.9509808,11.4559711 26.8438392,11.47895 26.7443572,11.47895 C26.4459112,11.47895 26.1627844,11.3029183 26.0403702,11.0121786 L24.8542459,8.21911645 C24.6935801,7.82884815 24.8695652,7.38500898 25.2598336,7.21668358 Z" id="Shape" fill="#FF9933"></path>
                                </g>
                            </g>
                        </g>
                    </g>
                </g>
            </g>
        </g>
    </g>
</svg>