<svg width="80" height="90" xmlns="http://www.w3.org/2000/svg"><defs><linearGradient x1="44.014%" y1="192.998%" x2="56.189%" y2="-129.587%" id="a"><stop stop-color="#FF9419" offset="0%"/><stop stop-color="#FFF" offset="100%"/></linearGradient></defs><g fill="none" fill-rule="evenodd"><path d="M0 0h80v90H0z"/><path d="M30 0C13.405 0 0 13.405 0 30c0 13.288 19.232 43.405 26.926 54.835 1.43 2.188 4.718 2.188 6.148 0C40.768 73.288 60 43.288 60 30 60 13.405 46.595 0 30 0zm0 42.189c-7.461 0-13.512-6.05-13.512-13.512 0-7.461 6.05-13.521 13.512-13.521 7.461 0 13.512 6.06 13.512 13.521 0 7.461-6.05 13.512-13.512 13.512z" transform="translate(10 2)" fill="url(#a)" fill-rule="nonzero"/></g></svg>