<svg width="200" height="200" xmlns="http://www.w3.org/2000/svg"><g fill="none" fill-rule="evenodd"><path d="M169.399 94.27H48.204c-4.63 0-8.672 3.504-8.971 8.149a8.723 8.723 0 002.324 6.532 8.681 8.681 0 006.348 2.76h20.861c3.304 0 5.983 2.685 5.983 5.996 0 3.306-2.67 5.989-5.968 5.997H30.62c-4.796.002-8.685 3.893-8.695 8.7.006 4.809 3.897 8.705 8.695 8.707h9.932c1.587 0 3.109.632 4.231 1.758a6.004 6.004 0 011.75 4.242c0 3.312-2.677 5.996-5.981 5.996h-9.648c-4.63 0-8.676 3.5-8.971 8.149a8.727 8.727 0 002.324 6.533 8.685 8.685 0 006.348 2.763H151.8c4.63 0 8.672-3.504 8.971-8.148a8.723 8.723 0 00-2.323-6.535 8.681 8.681 0 00-6.349-2.762h-28.34c-3.304 0-5.983-2.684-5.983-5.996a6.003 6.003 0 011.751-4.242 5.975 5.975 0 014.232-1.758h28.34c4.802 0 8.694-3.902 8.694-8.715-.012-4.804-3.9-8.692-8.694-8.692h-5.173c-3.3-.002-5.976-2.684-5.978-5.993a6.004 6.004 0 011.745-4.248 5.975 5.975 0 014.233-1.763h22.17c4.63 0 8.672-3.5 8.971-8.148a8.727 8.727 0 00-2.329-6.523 8.685 8.685 0 00-6.34-2.759z" fill="#EEEFF6" fill-rule="nonzero"/><path d="M151.15 94.144v73.482c-.003 8.628-6.981 15.622-15.59 15.622H71.756c-8.607-.002-15.584-6.995-15.586-15.622V32.366c0-8.627 6.978-15.622 15.586-15.622h63.804c4.135 0 8.1 1.645 11.023 4.575a15.641 15.641 0 014.566 11.048v61.777z" fill="#EEEFF6" fill-rule="nonzero"/><path d="M151.15 50.515v117.11c-.003 8.63-6.981 15.623-15.59 15.623H71.756c-8.607-.002-15.584-6.995-15.586-15.622V32.366c0-8.627 6.978-15.622 15.586-15.622h63.804c4.135 0 8.1 1.645 11.023 4.575a15.641 15.641 0 014.566 11.048v18.148" stroke="#D3D9EB" stroke-width="4.533" stroke-linecap="round" stroke-linejoin="round"/><path d="M142.537 93.989v68.544a11.766 11.766 0 01-3.431 8.311 11.706 11.706 0 01-8.29 3.445H75.892c-6.475 0-11.724-5.262-11.724-11.752V36.752A11.762 11.762 0 0167.6 28.44 11.71 11.71 0 0175.89 25h6.382a9.338 9.338 0 009.071 7.17h23.445a9.338 9.338 0 009.07-7.17h6.959c3.109 0 6.09 1.238 8.288 3.442a11.762 11.762 0 013.432 8.31v57.237z" fill="#FFF" fill-rule="nonzero"/><path d="M113.333 93.431h-1.666V90.07c0-4.639-3.734-8.403-8.334-8.403S95 85.43 95 90.07v3.361h-1.667C91.5 93.431 90 94.944 90 96.793v16.806c0 1.85 1.5 3.362 3.333 3.362h20c1.834 0 3.334-1.513 3.334-3.362V96.793c0-1.849-1.5-3.362-3.334-3.362zm-10 15.126c-1.833 0-3.333-1.512-3.333-3.36 0-1.85 1.5-3.362 3.333-3.362 1.834 0 3.334 1.512 3.334 3.361 0 1.849-1.5 3.361-3.334 3.361zm-5-15.126V90.07c0-2.79 2.234-5.042 5-5.042 2.767 0 5 2.252 5 5.042v3.361h-10z" fill="#97CEFF"/></g></svg>