<?xml version="1.0" encoding="UTF-8"?>
<svg width="240px" height="240px" viewBox="0 0 240 240" version="1.1" xmlns="http://www.w3.org/2000/svg" xmlns:xlink="http://www.w3.org/1999/xlink">
    <!-- Generator: sketchtool 64 (101010) - https://sketch.com -->
    <title>5FE14452-1E2A-4814-BAF8-4B925B205159</title>
    <desc>Created with sketchtool.</desc>
    <g id="Beep-Delivery-V3" stroke="none" stroke-width="1" fill="none" fill-rule="evenodd">
        <g id="14---Login---Beep" transform="translate(-87.000000, -80.000000)">
            <g id="Screen" transform="translate(0.000000, 60.000000)">
                <g id="Atoms/Artwork/Beep/Success" transform="translate(87.000000, 20.000000)">
                    <g id="Ewallet-Loading">
                        <path d="M203.278679,113.124444 L57.844717,113.124444 C52.2889623,113.124444 47.4382075,117.328889 47.0790566,122.902222 C46.8863476,125.789546 47.8963294,128.627762 49.8685142,130.74106 C51.840699,132.854358 54.5986129,134.053636 57.485566,134.053333 L82.519717,134.053333 C86.4843399,134.053333 89.6983019,137.274893 89.6983019,141.248889 L89.6983019,141.248889 C89.698314,145.215952 86.4951478,148.434643 82.5374528,148.444444 L36.7434906,148.444444 C30.9893701,148.446882 26.3225989,153.116733 26.3103774,158.884444 L26.3103774,158.884444 C26.3177144,164.655628 30.9859143,169.330886 36.7434906,169.333333 L48.6619811,169.333333 C50.5666287,169.333333 52.3932021,170.092044 53.7395755,171.442434 C55.0859488,172.792824 55.8417425,174.624183 55.840566,176.533333 L55.840566,176.533333 C55.840566,180.507329 52.6266041,183.728889 48.6619811,183.728889 L37.0849057,183.728889 C31.5291509,183.728889 26.6739623,187.928889 26.3192453,193.506667 C26.1265911,196.394399 27.1364508,199.233037 29.1084919,201.347023 C31.080533,203.461008 33.8383984,204.661292 36.7257547,204.662222 L182.159717,204.662222 C187.715472,204.662222 192.566226,200.457778 192.925377,194.884444 C193.119369,191.996379 192.109962,189.156974 190.137633,187.04268 C188.165305,184.928386 185.406645,183.728504 182.518868,183.728889 L148.510377,183.728889 C144.545754,183.728889 141.331792,180.507329 141.331792,176.533333 L141.331792,176.533333 C141.330616,174.624183 142.08641,172.792824 143.432783,171.442434 C144.779156,170.092044 146.60573,169.333333 148.510377,169.333333 L182.518868,169.333333 C188.280917,169.333333 192.951981,164.651227 192.951981,158.875556 L192.951981,158.875556 C192.937315,153.110301 188.270544,148.444426 182.518868,148.444444 L176.311321,148.444444 C172.35016,148.441993 169.139616,145.223858 169.13717,141.253333 L169.13717,141.253333 C169.13246,139.342645 169.886084,137.508531 171.231882,136.155384 C172.577679,134.802236 174.405133,134.041174 176.311321,134.04 L202.915094,134.04 C208.470849,134.04 213.321604,129.84 213.680755,124.262222 C213.868237,121.378229 212.856675,118.545048 210.886181,116.435188 C208.915688,114.325329 206.161971,113.126926 203.278679,113.124444 Z" id="Path" fill="#EEEFF6" fill-rule="nonzero"></path>
                        <path d="M181.37934,112.973333 L181.37934,201.151111 C181.376891,211.505328 173.00225,219.897778 162.672453,219.897778 L86.1067925,219.897778 C75.778727,219.895324 67.4067873,211.503593 67.4043396,201.151111 L67.4043396,38.84 C67.4043396,28.4865019 75.777713,20.0933328 86.1067925,20.0933328 L162.672453,20.0933328 C167.63342,20.0933328 172.391601,22.0667235 175.89995,25.5825333 C179.4083,29.098343 181.37934,33.8673047 181.37934,38.84 L181.37934,112.973333 Z" id="Path" fill="#EEEFF6" fill-rule="nonzero"></path>
                        <path d="M181.37934,60.6177778 L181.37934,201.151111 C181.376891,211.505328 173.00225,219.897778 162.672453,219.897778 L86.1067925,219.897778 C75.778727,219.895324 67.4067873,211.503593 67.4043396,201.151111 L67.4043396,38.84 C67.4043396,28.4865019 75.777713,20.0933328 86.1067925,20.0933328 L162.672453,20.0933328 C167.63342,20.0933328 172.391601,22.0667235 175.89995,25.5825333 C179.4083,29.098343 181.37934,33.8673047 181.37934,38.84 L181.37934,60.6177778" id="Path" stroke="#D3D9EB" stroke-width="4.53333333" stroke-linecap="round" stroke-linejoin="round"></path>
                        <path d="M171.044341,112.786667 L171.044341,195.040001 C171.045516,198.780143 169.564383,202.367566 166.926772,205.01308 C164.289161,207.658593 160.711133,209.146667 156.979812,209.146667 L91.068963,209.146667 C83.2988897,209.146667 77,202.832887 77,195.044445 L77,44.1022229 C76.9988241,40.3617196 78.4807076,36.7740789 81.119405,34.1291435 C83.7581023,31.4842081 87.3372816,30 91.068963,30 L98.7264158,30 C99.9354026,35.0448319 104.435689,38.6021234 109.611793,38.6044451 L137.745284,38.6044451 C142.921388,38.6021234 147.421674,35.0448319 148.630661,30 L156.979812,30 C160.710725,30 164.288765,31.4859079 166.926503,34.1307154 C169.564242,36.775523 171.045517,40.3624898 171.044341,44.1022229 L171.044341,112.786667 L171.044341,112.786667 Z" id="Path" fill="#FFFFFF" fill-rule="nonzero"></path>
                        <path d="M136,112.117647 L134,112.117647 L134,108.084034 C134,102.517647 129.52,98 124,98 C118.48,98 114,102.517647 114,108.084034 L114,112.117647 L112,112.117647 C109.8,112.117647 108,113.932773 108,116.151261 L108,136.319328 C108,138.537815 109.8,140.352941 112,140.352941 L136,140.352941 C138.2,140.352941 140,138.537815 140,136.319328 L140,116.151261 C140,113.932773 138.2,112.117647 136,112.117647 Z M124,130.268908 C121.8,130.268908 120,128.453782 120,126.235294 C120,124.016807 121.8,122.201681 124,122.201681 C126.2,122.201681 128,124.016807 128,126.235294 C128,128.453782 126.2,130.268908 124,130.268908 Z M118,112.117647 L118,108.084034 C118,104.736134 120.68,102.033613 124,102.033613 C127.32,102.033613 130,104.736134 130,108.084034 L130,112.117647 L118,112.117647 Z" id="Shape" fill="#97CEFF"></path>
                    </g>
                </g>
            </g>
        </g>
    </g>
</svg>