<svg width="81" height="24" viewBox="0 0 81 24" fill="none" xmlns="http://www.w3.org/2000/svg">
<rect opacity="0.6" width="81" height="24" rx="12" fill="#D1D1D1"/>
<path d="M16.5 9.00002V11.7169L18.7575 13.0713C18.8712 13.1396 18.9531 13.2502 18.9853 13.3789C19.0174 13.5076 18.997 13.6438 18.9288 13.7575C18.8605 13.8712 18.7498 13.9532 18.6211 13.9853C18.4924 14.0174 18.3562 13.9971 18.2425 13.9288L15.7425 12.4288C15.6685 12.3843 15.6073 12.3215 15.5648 12.2463C15.5223 12.1712 15.5 12.0863 15.5 12V9.00002C15.5 8.86741 15.5527 8.74023 15.6464 8.64647C15.7402 8.5527 15.8674 8.50002 16 8.50002C16.1326 8.50002 16.2598 8.5527 16.3536 8.64647C16.4473 8.74023 16.5 8.86741 16.5 9.00002ZM16 6.00002C15.2112 5.99805 14.4299 6.15254 13.7013 6.45454C12.9726 6.75653 12.3111 7.20004 11.755 7.75939C11.3006 8.21939 10.8969 8.66189 10.5 9.12502V8.00002C10.5 7.86741 10.4473 7.74023 10.3536 7.64647C10.2598 7.5527 10.1326 7.50002 10 7.50002C9.86739 7.50002 9.74021 7.5527 9.64645 7.64647C9.55268 7.74023 9.5 7.86741 9.5 8.00002V10.5C9.5 10.6326 9.55268 10.7598 9.64645 10.8536C9.74021 10.9473 9.86739 11 10 11H12.5C12.6326 11 12.7598 10.9473 12.8536 10.8536C12.9473 10.7598 13 10.6326 13 10.5C13 10.3674 12.9473 10.2402 12.8536 10.1465C12.7598 10.0527 12.6326 10 12.5 10H11.0625C11.5094 9.47377 11.9544 8.97814 12.4619 8.46439C13.1568 7.76949 14.0411 7.29477 15.0042 7.09957C15.9674 6.90436 16.9667 6.99732 17.8774 7.36682C18.788 7.73633 19.5696 8.366 20.1244 9.17715C20.6792 9.9883 20.9827 10.945 20.9969 11.9276C21.0111 12.9103 20.7354 13.8753 20.2043 14.7022C19.6732 15.529 18.9102 16.181 18.0106 16.5767C17.111 16.9724 16.1148 17.0942 15.1464 16.927C14.178 16.7597 13.2803 16.3108 12.5656 15.6363C12.5179 15.5911 12.4617 15.5558 12.4003 15.5324C12.3389 15.509 12.2734 15.4979 12.2077 15.4997C12.142 15.5016 12.0773 15.5164 12.0174 15.5432C11.9574 15.5701 11.9033 15.6085 11.8581 15.6563C11.813 15.704 11.7777 15.7602 11.7543 15.8216C11.7308 15.883 11.7197 15.9485 11.7216 16.0142C11.7235 16.0799 11.7382 16.1445 11.7651 16.2045C11.7919 16.2645 11.8304 16.3186 11.8781 16.3638C12.5903 17.0358 13.4561 17.5234 14.4 17.7838C15.3439 18.0443 16.3372 18.0698 17.2933 17.8581C18.2493 17.6464 19.139 17.204 19.8847 16.5694C20.6304 15.9347 21.2095 15.1273 21.5713 14.2174C21.9332 13.3075 22.0669 12.3229 21.9607 11.3495C21.8546 10.3761 21.5118 9.44345 20.9623 8.63298C20.4128 7.8225 19.6733 7.15883 18.8083 6.69988C17.9433 6.24093 16.9792 6.00066 16 6.00002Z" fill="#303030"/>
<path d="M35.562 17H33.665V12.576H28.919V17H27.022V6.878H28.919V11.232H33.665V6.878H35.562V17ZM39.347 9.818V17H37.618V9.818H39.347ZM39.606 7.725C39.606 7.87433 39.5757 8.01433 39.515 8.145C39.4544 8.27567 39.3727 8.39 39.27 8.488C39.172 8.586 39.0554 8.66533 38.92 8.726C38.7847 8.782 38.64 8.81 38.486 8.81C38.3367 8.81 38.1944 8.782 38.059 8.726C37.9284 8.66533 37.814 8.586 37.716 8.488C37.618 8.39 37.5387 8.27567 37.478 8.145C37.422 8.01433 37.394 7.87433 37.394 7.725C37.394 7.571 37.422 7.42633 37.478 7.291C37.5387 7.15567 37.618 7.039 37.716 6.941C37.814 6.843 37.9284 6.766 38.059 6.71C38.1944 6.64933 38.3367 6.619 38.486 6.619C38.64 6.619 38.7847 6.64933 38.92 6.71C39.0554 6.766 39.172 6.843 39.27 6.941C39.3727 7.039 39.4544 7.15567 39.515 7.291C39.5757 7.42633 39.606 7.571 39.606 7.725ZM45.5698 11.218C45.5231 11.2927 45.4741 11.3463 45.4228 11.379C45.3715 11.407 45.3061 11.421 45.2268 11.421C45.1428 11.421 45.0518 11.3977 44.9538 11.351C44.8605 11.3043 44.7508 11.253 44.6248 11.197C44.4988 11.1363 44.3541 11.0827 44.1908 11.036C44.0321 10.9893 43.8431 10.966 43.6238 10.966C43.2831 10.966 43.0148 11.0383 42.8188 11.183C42.6228 11.3277 42.5248 11.5167 42.5248 11.75C42.5248 11.904 42.5738 12.0347 42.6718 12.142C42.7745 12.2447 42.9075 12.3357 43.0708 12.415C43.2388 12.4943 43.4278 12.5667 43.6378 12.632C43.8478 12.6927 44.0625 12.7603 44.2818 12.835C44.5011 12.9097 44.7158 12.996 44.9258 13.094C45.1358 13.1873 45.3225 13.3087 45.4858 13.458C45.6538 13.6027 45.7868 13.7777 45.8848 13.983C45.9875 14.1883 46.0388 14.4357 46.0388 14.725C46.0388 15.0703 45.9758 15.39 45.8498 15.684C45.7238 15.9733 45.5395 16.2253 45.2968 16.44C45.0541 16.65 44.7531 16.8157 44.3938 16.937C44.0391 17.0537 43.6308 17.112 43.1688 17.112C42.9215 17.112 42.6788 17.0887 42.4408 17.042C42.2075 17 41.9811 16.9393 41.7618 16.86C41.5471 16.7807 41.3465 16.6873 41.1598 16.58C40.9778 16.4727 40.8168 16.356 40.6768 16.23L41.0758 15.572C41.1271 15.4927 41.1878 15.432 41.2578 15.39C41.3278 15.348 41.4165 15.327 41.5238 15.327C41.6311 15.327 41.7315 15.3573 41.8248 15.418C41.9228 15.4787 42.0348 15.544 42.1608 15.614C42.2868 15.684 42.4338 15.7493 42.6018 15.81C42.7745 15.8707 42.9915 15.901 43.2528 15.901C43.4581 15.901 43.6331 15.8777 43.7778 15.831C43.9271 15.7797 44.0485 15.7143 44.1418 15.635C44.2398 15.5557 44.3098 15.4647 44.3518 15.362C44.3985 15.2547 44.4218 15.145 44.4218 15.033C44.4218 14.865 44.3705 14.7273 44.2678 14.62C44.1698 14.5127 44.0368 14.4193 43.8688 14.34C43.7055 14.2607 43.5165 14.1907 43.3018 14.13C43.0918 14.0647 42.8748 13.9947 42.6508 13.92C42.4315 13.8453 42.2145 13.759 41.9998 13.661C41.7898 13.5583 41.6008 13.43 41.4328 13.276C41.2695 13.122 41.1365 12.933 41.0338 12.709C40.9358 12.485 40.8868 12.2143 40.8868 11.897C40.8868 11.603 40.9451 11.323 41.0618 11.057C41.1785 10.791 41.3488 10.56 41.5728 10.364C41.8015 10.1633 42.0838 10.0047 42.4198 9.888C42.7605 9.76667 43.1525 9.706 43.5958 9.706C44.0905 9.706 44.5408 9.78767 44.9468 9.951C45.3528 10.1143 45.6911 10.329 45.9618 10.595L45.5698 11.218ZM49.7771 17.112C49.1565 17.112 48.6781 16.937 48.3421 16.587C48.0061 16.2323 47.8381 15.7447 47.8381 15.124V11.113H47.1101C47.0168 11.113 46.9351 11.0827 46.8651 11.022C46.7998 10.9613 46.7671 10.8703 46.7671 10.749V10.063L47.9221 9.874L48.2861 7.914C48.3048 7.82067 48.3468 7.74833 48.4121 7.697C48.4821 7.64567 48.5685 7.62 48.6711 7.62H49.5671V9.881H51.4571V11.113H49.5671V15.005C49.5671 15.229 49.6231 15.404 49.7351 15.53C49.8471 15.656 49.9965 15.719 50.1831 15.719C50.2905 15.719 50.3791 15.7073 50.4491 15.684C50.5238 15.656 50.5868 15.628 50.6381 15.6C50.6941 15.572 50.7431 15.5463 50.7851 15.523C50.8271 15.495 50.8691 15.481 50.9111 15.481C50.9625 15.481 51.0045 15.495 51.0371 15.523C51.0698 15.5463 51.1048 15.5837 51.1421 15.635L51.6601 16.475C51.4081 16.685 51.1188 16.8437 50.7921 16.951C50.4655 17.0583 50.1271 17.112 49.7771 17.112ZM55.8982 9.706C56.4349 9.706 56.9202 9.79233 57.3542 9.965C57.7929 10.1377 58.1662 10.3827 58.4742 10.7C58.7822 11.0173 59.0202 11.4047 59.1882 11.862C59.3562 12.3193 59.4402 12.8303 59.4402 13.395C59.4402 13.9643 59.3562 14.4777 59.1882 14.935C59.0202 15.3923 58.7822 15.782 58.4742 16.104C58.1662 16.426 57.7929 16.6733 57.3542 16.846C56.9202 17.0187 56.4349 17.105 55.8982 17.105C55.3615 17.105 54.8739 17.0187 54.4352 16.846C53.9965 16.6733 53.6209 16.426 53.3082 16.104C53.0002 15.782 52.7599 15.3923 52.5872 14.935C52.4192 14.4777 52.3352 13.9643 52.3352 13.395C52.3352 12.8303 52.4192 12.3193 52.5872 11.862C52.7599 11.4047 53.0002 11.0173 53.3082 10.7C53.6209 10.3827 53.9965 10.1377 54.4352 9.965C54.8739 9.79233 55.3615 9.706 55.8982 9.706ZM55.8982 15.775C56.4955 15.775 56.9365 15.5743 57.2212 15.173C57.5105 14.7717 57.6552 14.1837 57.6552 13.409C57.6552 12.6343 57.5105 12.044 57.2212 11.638C56.9365 11.232 56.4955 11.029 55.8982 11.029C55.2915 11.029 54.8435 11.2343 54.5542 11.645C54.2649 12.051 54.1202 12.639 54.1202 13.409C54.1202 14.179 54.2649 14.767 54.5542 15.173C54.8435 15.5743 55.2915 15.775 55.8982 15.775ZM60.7892 17V9.818H61.8042C61.9816 9.818 62.1052 9.85067 62.1752 9.916C62.2452 9.98133 62.2919 10.0933 62.3152 10.252L62.4202 11.12C62.6769 10.6767 62.9779 10.3267 63.3232 10.07C63.6686 9.81333 64.0559 9.685 64.4852 9.685C64.8399 9.685 65.1339 9.76667 65.3672 9.93L65.1432 11.225C65.1292 11.309 65.0989 11.3697 65.0522 11.407C65.0056 11.4397 64.9426 11.456 64.8632 11.456C64.7932 11.456 64.6976 11.4397 64.5762 11.407C64.4549 11.3743 64.2939 11.358 64.0932 11.358C63.7339 11.358 63.4259 11.4583 63.1692 11.659C62.9126 11.855 62.6956 12.1443 62.5182 12.527V17H60.7892ZM69.0521 18.974C69.0007 19.0953 68.9331 19.1863 68.8491 19.247C68.7697 19.3123 68.6461 19.345 68.4781 19.345H67.1901L68.5341 16.468L65.6291 9.818H67.1411C67.2811 9.818 67.3884 9.85067 67.4631 9.916C67.5377 9.98133 67.5937 10.056 67.6311 10.14L69.1641 13.864C69.2154 13.9853 69.2597 14.1113 69.2971 14.242C69.3344 14.3727 69.3671 14.5033 69.3951 14.634C69.4324 14.4987 69.4721 14.368 69.5141 14.242C69.5607 14.116 69.6097 13.9877 69.6611 13.857L71.1031 10.14C71.1404 10.0467 71.2011 9.96967 71.2851 9.909C71.3737 9.84833 71.4717 9.818 71.5791 9.818H72.9651L69.0521 18.974Z" fill="#303030"/>
</svg>
