<?xml version="1.0" encoding="UTF-8"?><svg version="1.1" width="18px" height="16px" viewBox="0 0 18.0 16.0" xmlns="http://www.w3.org/2000/svg" xmlns:xlink="http://www.w3.org/1999/xlink"><defs><clipPath id="i0"><path d="M390,0 L390,844 L0,844 L0,0 L390,0 Z"></path></clipPath><clipPath id="i1"><path d="M6.27174,0 C7.20344019,0 8.10531176,0.351132937 8.81874,0.991690217 L9,1.15447057 L9.18126,0.991690217 C9.89468824,0.351132937 10.7965598,0 11.72826,0 L16.56,0 C17.35529,0 18,0.689165438 18,1.53929409 L18,12.121941 C18,12.9720696 17.35529,13.661235 16.56,13.661235 L11.72826,13.661235 C10.8586823,13.6612369 10.0132813,13.9672017 9.32256,14.5318983 C9.2295,14.6079009 9.117,14.6531177 9,14.6531177 C8.883,14.6531177 8.7705,14.6079009 8.67744,14.5318983 C7.98671865,13.9672017 7.14131766,13.6612369 6.27174,13.661235 L1.44,13.661235 C0.64470996,13.661235 0,12.9720696 0,12.121941 L0,1.53929409 C0,0.689165438 0.64470996,0 1.44,0 Z"></path></clipPath><clipPath id="i2"><path d="M6.27174,0 C7.20346272,0 8.10533685,0.351255959 8.81874,0.991882629 L9,1.15447057 L9.18126,0.991882629 C9.89466315,0.351255959 10.7965373,0 11.72826,0 L16.56,0 C17.35529,0 18,0.689165438 18,1.53929409 L18,12.121941 C18,12.9720696 17.35529,13.661235 16.56,13.661235 L11.72826,13.661235 C10.8586823,13.6612369 10.0132813,13.9672017 9.32256,14.5318983 C9.2295,14.6079009 9.117,14.6531177 9,14.6531177 C8.883,14.6531177 8.7705,14.6079009 8.67744,14.5318983 C7.98671865,13.9672017 7.14131766,13.6612369 6.27174,13.661235 L1.44,13.661235 C0.64470996,13.661235 0,12.9720696 0,12.121941 L0,1.53929409 C0,0.689165438 0.64470996,0 1.44,0 Z"></path></clipPath><clipPath id="i3"><path d="M14.22,7.50405869 C14.5182338,7.50405869 14.76,7.76249572 14.76,8.08129397 C14.76,8.40009221 14.5182338,8.65852925 14.22,8.65852925 L10.62,8.65852925 C10.3217662,8.65852925 10.08,8.40009221 10.08,8.08129397 C10.08,7.76249572 10.3217662,7.50405869 10.62,7.50405869 L14.22,7.50405869 Z M4.14,6.9268234 C4.43823376,6.9268234 4.68,7.18526044 4.68,7.50405869 C4.68,7.82285693 4.43823376,8.08129397 4.14,8.08129397 L0.54,8.08129397 C0.241766235,8.08129397 0,7.82285693 0,7.50405869 C0,7.18526044 0.241766235,6.9268234 0.54,6.9268234 L4.14,6.9268234 Z M14.22,4.04064698 C14.5182338,4.04064698 14.76,4.29908402 14.76,4.61788227 C14.76,4.93668051 14.5182338,5.19511755 14.22,5.19511755 L10.62,5.19511755 C10.3217662,5.19511755 10.08,4.93668051 10.08,4.61788227 C10.08,4.29908402 10.3217662,4.04064698 10.62,4.04064698 L14.22,4.04064698 Z M4.14,3.4634117 C4.43823376,3.4634117 4.68,3.72184874 4.68,4.04064698 C4.68,4.35944523 4.43823376,4.61788227 4.14,4.61788227 L0.54,4.61788227 C0.241766235,4.61788227 0,4.35944523 0,4.04064698 C0,3.72184874 0.241766235,3.4634117 0.54,3.4634117 L4.14,3.4634117 Z M14.22,0.577235284 C14.5182338,0.577235284 14.76,0.835672323 14.76,1.15447057 C14.76,1.47326881 14.5182338,1.73170585 14.22,1.73170585 L10.62,1.73170585 C10.3217662,1.73170585 10.08,1.47326881 10.08,1.15447057 C10.08,0.835672323 10.3217662,0.577235284 10.62,0.577235284 L14.22,0.577235284 Z M4.14,0 C4.43823376,0 4.68,0.258437039 4.68,0.577235284 C4.68,0.896033528 4.43823376,1.15447057 4.14,1.15447057 L0.54,1.15447057 C0.396783095,1.15447057 0.259431983,1.09365488 0.158162338,0.985402267 C0.0568926938,0.877149652 0,0.730327599 0,0.577235284 C0,0.258437039 0.241766235,0 0.54,0 L4.14,0 Z"></path></clipPath></defs><g transform="translate(-28.0 -312.0)"><g clip-path="url(#i0)"><g transform="translate(16.0 300.0)"><g transform="translate(12.0 12.0)"><g transform="translate(0.0 1.346882328182498)"><g clip-path="url(#i1)"><polygon points="0,0 18,0 18,14.6531177 0,14.6531177 0,0" stroke="none" fill="#303030"></polygon></g></g><g clip-path="url(#i2)"><polygon points="0,0 18,0 18,14.6531177 0,14.6531177 0,0" stroke="none" fill="#FF9419"></polygon></g><g transform="translate(1.6200000000000658 2.3089411340267034)"><g clip-path="url(#i3)"><polygon points="0,0 14.76,0 14.76,8.65852925 0,8.65852925 0,0" stroke="none" fill="#FFFFFF"></polygon></g></g></g></g></g></g></svg>