<?xml version="1.0" encoding="UTF-8"?>
<svg width="240px" height="240px" viewBox="0 0 240 240" version="1.1" xmlns="http://www.w3.org/2000/svg" xmlns:xlink="http://www.w3.org/1999/xlink">
    <!-- Generator: Sketch 64 (93537) - https://sketch.com -->
    <title>No Search Result</title>
    <desc>Created with Sketch.</desc>
    <g id="Symbols" stroke="none" stroke-width="1" fill="none" fill-rule="evenodd">
        <g id="Atoms/Artwork/Beep/No-Search-Result" fill-rule="nonzero">
            <g id="No-Search-Result">
                <g transform="translate(20.000000, 24.000000)">
                    <path d="M80.6391753,7.76632302 L80.0549828,4.02749141 C79.8094395,2.36516283 78.6957063,0.960103687 77.1333159,0.34158618 C75.5709254,-0.276931328 73.797242,-0.0149396769 72.4803949,1.02887141 C71.1635478,2.0726825 70.5035975,3.73973329 70.7491409,5.40206186 L71.4364261,9.83505155 C28.7597256,21.5814859 0.463508252,62.0116615 4.04123711,106.130584 L51.6426117,93.7594502 L182.872852,67.7044674 L182.769759,67.3539519 C167.917526,25.6082474 125.037801,0.240549828 80.6391753,7.76632302 Z" id="Path" fill="#EEEFF6"></path>
                    <ellipse id="Oval" fill="#D3D9EB" transform="translate(93.477393, 87.080423) rotate(-12.220000) translate(-93.477393, -87.080423) " cx="93.4773933" cy="87.0804226" rx="91.4639175" ry="15.024055"></ellipse>
                    <rect id="Rectangle" fill="#EEEFF6" x="0.412371134" y="148.378007" width="199.360825" height="6.50859107"></rect>
                    <path d="M174.33677,157.580756 C188.471934,146.214 192.102084,126.185242 182.855401,110.5806 C173.608718,94.9759578 154.29745,88.5413606 137.53893,95.4809583 C120.78041,102.420556 111.671504,120.623769 116.163665,138.197229 C120.655826,155.770689 137.382827,167.369679 155.415808,165.415808 C159.72405,164.959267 163.914744,163.729997 167.786942,161.786942 L182.646048,184.941581 C183.807554,186.754062 186.218447,187.281781 188.030928,186.120275 C189.843409,184.958769 190.371128,182.547876 189.209622,180.735395 L174.33677,157.580756 Z" id="Path" fill="#A9B2C9"></path>
                    <path d="M127.333333,144.329897 C118.838488,131.395189 122.762887,114.089347 136.082474,105.731959 C139.835466,103.36945 144.078573,101.895529 148.487973,101.42268 C151.554322,101.098503 154.652515,101.256195 157.670103,101.890034 C165.03754,103.391491 171.502955,107.7669 175.635739,114.04811 C184.130584,126.982818 180.206186,144.28866 166.886598,152.646048 C153.56701,161.003436 135.828179,157.257732 127.333333,144.329897 Z" id="Path" fill="#FFFFFF"></path>
                    <path d="M93.7457045,116.838488 C93.5395097,116.638191 93.4230145,116.363064 93.4226804,116.075601 C93.4226804,115.312715 93.4226804,114.701031 93.4776632,114.329897 C93.624792,112.704714 94.1881435,111.144846 95.1134021,109.800687 C96.2369071,108.239103 97.4948512,106.778784 98.8728522,105.436426 C99.8560418,104.481481 100.774459,103.462037 101.621993,102.38488 C102.191695,101.662484 102.542319,100.791886 102.632302,99.8762887 C102.831263,98.5197303 102.278699,97.1620018 101.189003,96.3298969 C100.041212,95.4457212 98.6235766,94.9845042 97.1752577,95.024055 C93.6517755,95.024055 91.5257732,96.7857961 90.7972509,100.309278 C90.6521314,101.060699 89.9813082,101.59444 89.2164948,101.56701 L84.467354,101.56701 C84.1257164,101.574882 83.7973875,101.434528 83.5670103,101.182131 C83.3255354,100.913329 83.1996139,100.560255 83.2164948,100.199313 C83.2897275,98.1936369 83.9230207,96.2485222 85.0446735,94.5841924 C86.2805602,92.7580385 87.9850457,91.2980684 89.9793814,90.3573883 C94.7581564,88.2688766 100.179959,88.2093509 105.003436,90.1924399 C106.748994,90.9814966 108.227195,92.2614897 109.257732,93.8762887 C111.00536,96.7485618 111.04752,100.345284 109.367698,103.257732 C108.30836,104.913877 107.093217,106.465025 105.738832,107.890034 C104.770988,108.896394 103.868787,109.963884 103.037801,111.085911 C102.420089,111.941176 101.984951,112.914388 101.75945,113.945017 C101.61512,114.859107 101.5189,115.477663 101.484536,115.800687 C101.358867,116.184128 101.155295,116.537454 100.886598,116.838488 C100.634318,117.068197 100.299153,117.184884 99.9587629,117.161512 L94.556701,117.161512 C94.2535241,117.169528 93.9603454,117.052754 93.7457045,116.838488 Z M93.4707904,127.085911 C93.2198991,126.843035 93.0806012,126.507227 93.0859107,126.158076 L93.0859107,121.305842 C93.0859107,120.58085 93.6736331,119.993126 94.3986254,119.993126 L99.7938144,119.993126 C100.150103,119.992762 100.492613,120.130752 100.749141,120.378007 C101.015266,120.612395 101.165865,120.951241 101.161512,121.305842 L101.161512,126.158076 C101.166821,126.507227 101.027524,126.843035 100.776632,127.085911 C100.514765,127.341419 100.159408,127.478095 99.7938144,127.463918 L94.3986254,127.463918 C94.050343,127.471851 93.7143706,127.334973 93.4707904,127.085911 L93.4707904,127.085911 Z" id="Shape" fill="#A9B2C9"></path>
                </g>
            </g>
        </g>
    </g>
</svg>