<?xml version="1.0" encoding="UTF-8"?>
<svg width="240px" height="240px" viewBox="0 0 240 240" version="1.1" xmlns="http://www.w3.org/2000/svg" xmlns:xlink="http://www.w3.org/1999/xlink">
    <title>Search Null</title>
    <g id="Symbols" stroke="none" stroke-width="1" fill="none" fill-rule="evenodd">
        <g id="Atoms/Artwork/Beep/Search-Null" fill-rule="nonzero">
            <g id="Search-Null">
                <g transform="translate(20.000000, 64.000000)">
                    <path d="M95.9022941,25.8194577 L95.3181017,22.080626 C95.0725583,20.4182975 93.9588252,19.0132383 92.3964347,18.3947208 C90.8340443,17.7762033 89.0603608,18.038195 87.7435137,19.082006 C86.4266666,20.1258171 85.7667164,21.7928679 86.0122597,23.4551965 L86.699545,27.8881862 C44.0228445,39.6346205 15.7266271,80.0647961 19.304356,124.183719 L66.9057305,111.812585 L198.135971,85.757602 L198.032878,85.4070865 C183.180645,43.6613821 140.30092,18.2936845 95.9022941,25.8194577 Z" id="Path" fill="#EEEFF6" transform="translate(108.567986, 71.124086) rotate(12.000000) translate(-108.567986, -71.124086) "></path>
                    <rect id="Rectangle" fill="#EEEFF6" x="0.412371134" y="108.378007" width="199.360825" height="6.50859107"></rect>
                    <path d="M174.33677,117.580756 C188.471934,106.214 192.102084,86.1852423 182.855401,70.5806001 C173.608718,54.9759578 154.29745,48.5413606 137.53893,55.4809583 C120.78041,62.4205561 111.671504,80.6237691 116.163665,98.197229 C120.655826,115.770689 137.382827,127.369679 155.415808,125.415808 C159.72405,124.959267 163.914744,123.729997 167.786942,121.786942 L182.646048,144.941581 C183.807554,146.754062 186.218447,147.281781 188.030928,146.120275 C189.843409,144.958769 190.371128,142.547876 189.209622,140.735395 L174.33677,117.580756 Z" id="Path" fill="#A9B2C9"></path>
                    <path d="M127.333333,104.329897 C118.838488,91.395189 122.762887,74.0893471 136.082474,65.7319588 C139.835466,63.3694503 144.078573,61.8955291 148.487973,61.4226804 C151.554322,61.0985027 154.652515,61.2561951 157.670103,61.8900344 C165.03754,63.3914915 171.502955,67.7669003 175.635739,74.04811 C184.130584,86.9828179 180.206186,104.28866 166.886598,112.646048 C153.56701,121.003436 135.828179,117.257732 127.333333,104.329897 Z" id="Path" fill="#FFFFFF"></path>
                </g>
            </g>
        </g>
    </g>
</svg>