<svg xmlns="http://www.w3.org/2000/svg" width="154" height="168" xmlns:v="https://vecta.io/nano"><defs><clipPath id="A"><path d="M414 0v812H0V0h414z"/></clipPath><clipPath id="B"><path d="M28.003 0a7.91 7.91 0 0 1 .22 2.44c-.269 4.194-3.929 7.365-8.12 7.365H0L27.447.212c.187-.067.369-.141.555-.212z"/></clipPath><clipPath id="C"><path d="M35.601 0l14.644 42.124.108.291H7.868c-4.518 0-8.149-3.82-7.85-8.416.269-4.194 3.929-7.365 8.12-7.365h8.721c2.988 0 5.413-2.431 5.413-5.428l-.004-.218c-.114-2.896-2.493-5.21-5.409-5.21h-8.99c-4.344 0-7.867-3.533-7.867-7.889l.004-.246A7.88 7.88 0 0 1 7.868 0h27.733z"/></clipPath><clipPath id="D"><path d="M10.682 0l5.488 15.781H7.868c-4.518 0-8.149-3.82-7.85-8.416C.287 3.171 3.946 0 8.137 0h2.545z"/></clipPath><clipPath id="E"><path d="M66.896 0c5.127 0 9.935 3.217 11.717 8.337l25.18 72.431a26.26 26.26 0 0 0-5.09 2.81L77.565 22.747l-3.005-8.641a10.6 10.6 0 0 0-13.508-6.542l-5.944 2.078c.377 3.807-1.857 7.523-5.62 8.836l-20.032 7.003c-3.764 1.313-7.817-.2-9.881-3.421l-5.45 1.908C8.59 25.902 5.672 31.966 7.6 37.515l37.374 107.502c1.927 5.544 7.975 8.475 13.508 6.542l46.924-16.405a10.56 10.56 0 0 0 4.883-3.52 26.8 26.8 0 0 0 3.627.254 26.54 26.54 0 0 0 5.111-.499c-.195.698-.452 1.384-.771 2.049-1.442 2.988-3.958 5.237-7.084 6.33l-54.509 19.057a12.29 12.29 0 0 1-9.471-.544c-2.98-1.446-5.223-3.969-6.313-7.103L.69 35.578c-2.247-6.475 1.173-13.574 7.627-15.831L62.826.694A12.34 12.34 0 0 1 66.896 0z"/></clipPath><clipPath id="F"><path d="M54.046.596a10.6 10.6 0 0 1 13.508 6.542l3.005 8.641 21.139 60.827C84.879 81.414 80.42 89.357 80.42 98.351c0 13.437 9.952 24.539 22.863 26.313-1.21 1.571-2.872 2.818-4.883 3.52L51.476 144.59a10.6 10.6 0 0 1-13.508-6.542L.594 30.546C-1.333 24.997 1.584 18.933 7.118 17l5.45-1.908c2.064 3.221 6.118 4.734 9.881 3.421l20.032-7.003c3.764-1.313 6.002-5.029 5.62-8.836zm8.932 56.431a1.88 1.88 0 0 0-2.321-.982L37.18 64.249a1.89 1.89 0 0 0-1.144 2.436 1.88 1.88 0 0 0 2.379 1.122l23.476-8.204a1.89 1.89 0 0 0 1.144-2.436zM35.44 45.558L33.927 48.7l-3.134-1.517-1.173 2.436 3.134 1.517-1.513 3.142 2.429 1.176 1.513-3.142 3.134 1.517 1.173-2.436-3.134-1.517 1.513-3.142-2.429-1.176zm18.78-6.563l-1.513 3.142-3.134-1.517-1.173 2.436 3.134 1.517-1.513 3.142 2.429 1.176 1.513-3.142 3.134 1.517 1.173-2.436-3.134-1.517 1.513-3.142-2.429-1.176z"/></clipPath><clipPath id="G"><path d="M5.819 0l2.429 1.176-1.513 3.138 3.129 1.517-1.173 2.436-3.129-1.513L4.05 9.892 1.621 8.716l1.513-3.142L0 4.061l1.173-2.44 3.134 1.517L5.819 0z"/></clipPath><clipPath id="H"><path d="M5.819 0l2.429 1.176-1.513 3.142 3.129 1.517-1.173 2.436-3.129-1.517L4.05 9.896 1.621 8.72l1.513-3.142L0 4.061l1.173-2.436 3.134 1.517L5.819 0z"/></clipPath><clipPath id="I"><path d="M24.739.107c.966-.341 2.023.162 2.379 1.122l.046.142a1.89 1.89 0 0 1-1.19 2.294L2.498 11.869c-.966.341-2.023-.162-2.379-1.122-.369-.989.149-2.086 1.144-2.436z"/></clipPath><clipPath id="J"><path d="M65.119.884C73.35-1.992 82.382 2.38 85.25 10.635l4.021 11.567 12.26 35.27 8.903 25.611c2.201-.594 4.51-.914 6.897-.914 14.631 0 26.494 11.895 26.494 26.567 0 11.571-7.382 21.413-17.686 25.054-.232 1.559-.7 3.092-1.405 4.551-1.749 3.633-4.746 6.405-8.472 7.864-.182.075-.369.145-.555.212l-27.447 9.593-27.062 9.46c-1.704.599-3.461.894-5.214.894-2.35 0-4.688-.532-6.864-1.588a15.72 15.72 0 0 1-7.942-8.766c-.033-.1-.075-.191-.108-.291l-14.644-42.124-3.772-10.852-5.488-15.781L.882 40.119c-2.868-8.254 1.492-17.311 9.724-20.187zm5.193 2.527a12.34 12.34 0 0 0-4.07.694L11.733 23.162c-6.458 2.257-9.877 9.36-7.627 15.831l40.188 115.599a12.33 12.33 0 0 0 6.313 7.103 12.29 12.29 0 0 0 9.471.544l54.509-19.057a12.32 12.32 0 0 0 7.084-6.33c.319-.665.576-1.351.771-2.049-1.654.324-3.361.499-5.106.495a26.86 26.86 0 0 1-3.631-.254c-12.915-1.779-22.863-12.876-22.863-26.313 0-8.994 4.46-16.941 11.278-21.746a26.26 26.26 0 0 1 5.09-2.81L82.03 11.749c-1.782-5.121-6.59-8.337-11.717-8.337zm51.467 92.703a2.45 2.45 0 0 0-2.906 1.653l-6.404 20.47a2.46 2.46 0 0 0 1.604 3.076 2.45 2.45 0 0 0 3.067-1.608l6.404-20.47a2.46 2.46 0 0 0-1.604-3.076zm7.461 4.205h-1.699l-.167.005c-1.435.087-2.577 1.286-2.577 2.746a2.75 2.75 0 0 0 2.744 2.751h1.699a2.01 2.01 0 1 1 0 4.023h-4.609c-1.513 0-2.744 1.234-2.744 2.751a2.75 2.75 0 0 0 2.744 2.751h4.605c4.141 0 7.498-3.367 7.502-7.51l-.004-.243a7.51 7.51 0 0 0-7.494-7.275zm-17.023-.017h-4.605c-4.141 0-7.498 3.367-7.498 7.519l.004.243a7.51 7.51 0 0 0 7.494 7.275h1.699l.167-.005c1.435-.087 2.577-1.286 2.577-2.746a2.75 2.75 0 0 0-2.744-2.751h-1.699a2.01 2.01 0 1 1 0-4.023h4.609a2.75 2.75 0 0 0 2.744-2.751 2.76 2.76 0 0 0-2.748-2.76z"/></clipPath><clipPath id="K"><path d="M12.103 0a2.76 2.76 0 0 1 2.748 2.76 2.75 2.75 0 0 1-2.744 2.751H7.498a2.01 2.01 0 1 0 0 4.023h1.699c1.513 0 2.744 1.234 2.744 2.751a2.75 2.75 0 0 1-2.744 2.751H7.498C3.357 15.037 0 11.671 0 7.519l.004-.243A7.51 7.51 0 0 1 7.498 0z"/></clipPath><clipPath id="L"><path d="M7.353 0c4.141 0 7.498 3.367 7.498 7.519s-3.357 7.523-7.502 7.51H2.744C1.231 15.029 0 13.795 0 12.278a2.75 2.75 0 0 1 2.744-2.751h4.609a2.01 2.01 0 0 0 0-4.023H5.654c-1.513 0-2.744-1.234-2.744-2.751A2.75 2.75 0 0 1 5.654 0z"/></clipPath><clipPath id="M"><path d="M6.517 1.722C6.919.429 8.295-.294 9.584.114l.158.055c1.189.463 1.835 1.781 1.446 3.02l-6.404 20.47c-.402 1.293-1.778 2.016-3.067 1.608s-2.01-1.783-1.604-3.076z"/></clipPath></defs><g clip-path="url(#A)" transform="translate(-130 -238)"><g clip-path="url(#B)" transform="translate(228.379 385.109)"><path fill="#eeeff6" d="M0 0h28.239v9.805H0V0z"/></g><g clip-path="url(#C)" transform="translate(130.942 352.499)"><path fill="#eeeff6" d="M0 0h50.352v42.415H0V0z"/></g><g clip-path="url(#D)" transform="translate(146.601 325.866)"><path fill="#eeeff6" d="M0 0h16.17v15.781H0V0z"/></g><g clip-path="url(#E)" transform="translate(143.528 242.32)"><path fill="#eeeff6" d="M0 0h119.026v159.523H0V0z"/></g><g clip-path="url(#F)" transform="translate(150.53 249.293)"><path fill="#fff" d="M0 0h103.283v145.185H0V0z"/></g><g clip-path="url(#G)" transform="translate(180.15 294.856)"><path fill="#eeeff6" d="M0 0h9.865v9.892H0V0z"/></g><g clip-path="url(#H)" transform="translate(198.93 288.289)"><path fill="#eeeff6" d="M0 0h9.865v9.896H0V0z"/></g><g clip-path="url(#I)" transform="translate(186.451 305.231)"><path fill="#eeeff6" d="M0 0h27.236v11.976H0V0z"/></g><g clip-path="url(#J)" transform="translate(140.116 238.905)"><path fill="#d3d9eb" d="M0 0h143.825v166.362H0V0z"/></g><g clip-path="url(#K)" transform="translate(240.23 339.211)"><path fill="#fff" d="M0 0h14.851v15.037H0V0z"/></g><g clip-path="url(#L)" transform="translate(261.998 339.211)"><path fill="#fff" d="M0 0h14.851v15.029H0V0z"/></g><g clip-path="url(#M)" transform="translate(252.472 334.95)"><path fill="#fff" d="M0 0h11.302v25.381H0V0z"/></g></g></svg>