<?xml version="1.0" encoding="UTF-8"?><svg version="1.1" width="140px" height="140px" viewBox="0 0 140.0 140.0" xmlns="http://www.w3.org/2000/svg" xmlns:xlink="http://www.w3.org/1999/xlink"><defs><clipPath id="i0"><path d="M414,0 L414,812 L0,812 L0,0 L414,0 Z"></path></clipPath><clipPath id="i1"><path d="M6.91783301,0.126953342 L39.6555905,7.23021602 C42.6810329,7.88451804 44.6435797,10.9022313 44.1285721,14.0220189 L44.0875532,14.2450039 C43.4264317,17.442736 40.39017,19.4902957 37.2926933,18.8204151 L4.55493578,11.7171524 C1.52949344,11.0628504 -0.433053359,8.0451371 0.081954217,4.92534957 L0.122973095,4.70236453 C0.771851609,1.5046324 3.82035633,-0.542927302 6.91783301,0.126953342 Z"></path></clipPath><clipPath id="i2"><path d="M53.7015186,4.91291136 C82.1619801,10.9782555 104.289807,20.2993509 103.113053,25.725603 C101.936299,31.1518552 77.9159607,30.6212883 49.4554992,24.5559442 C20.9950377,18.4785418 -1.12065765,9.15744639 0.0439648169,3.74325255 C1.20858728,-1.67094129 25.2410571,-1.15243275 53.7015186,4.91291136 Z"></path></clipPath><linearGradient id="i3" x1="5.4369367px" y1="36.9672919px" x2="233.691678px" y2="-73.0518075px" gradientUnits="userSpaceOnUse"><stop stop-color="#2F2921" offset="0%"></stop><stop stop-color="#4C3820" offset="16.75%"></stop><stop stop-color="#975E1C" offset="53.22%"></stop><stop stop-color="#FF9319" offset="100%"></stop></linearGradient><clipPath id="i4"><path d="M102.886,22.692 L102.747395,23.0164509 C95.6601507,39.0251962 69.9470217,52.9749167 42.1693246,47.0169398 C13.8368125,40.9252849 -3.36075655,17.7552402 0.552173493,0 C-0.607213187,5.426891 21.4090568,14.7698459 49.7415688,20.8615008 C76.6574552,26.6370907 99.5841457,27.4058297 102.813909,22.8050212 L102.886,22.692 Z"></path></clipPath><linearGradient id="i5" x1="286.382409px" y1="71.2657138px" x2="-180.920753px" y2="-12.9377166px" gradientUnits="userSpaceOnUse"><stop stop-color="#2F2921" offset="0%"></stop><stop stop-color="#4C3820" offset="16.75%"></stop><stop stop-color="#975E1C" offset="53.22%"></stop><stop stop-color="#FF9319" offset="100%"></stop></linearGradient><clipPath id="i6"><path d="M0.968597966,0 L3.15789474,1.80098684 L1.22069881,3.15789474 L0,1.68996711 L0.968597966,0 Z"></path></clipPath><clipPath id="i7"><path d="M1.87418248,3.29049138 C1.87418248,3.29049138 4.66034968,-5.25812148 6.55835004,5.20236064 C8.4563504,15.6628428 25.4653536,17.7208422 21.5111862,20.8869951 C20.0025193,22.0925687 18.1045189,20.2537645 18.1045189,20.2537645 C18.1045189,20.2537645 18.4938523,22.9449945 17.5448521,22.9449945 C16.5958519,22.9449945 14.2963515,21.2036104 14.2963515,21.2036104 C14.2963515,21.2036104 15.160185,24.5280709 13.4203513,24.6863786 C11.6805177,24.8446862 10.4881841,22.384829 10.4881841,22.384829 C10.4881841,22.384829 10.1718507,25.8675972 8.74835045,25.7092895 C7.32485018,25.5509819 5.74318321,23.0911246 5.74318321,23.0911246 C5.74318321,23.0911246 3.21251607,33.2228139 0.840015619,22.2995864 C-1.53248483,11.3763588 1.87418248,3.29049138 1.87418248,3.29049138 Z"></path></clipPath><linearGradient id="i8" x1="27.2244106px" y1="46.5692444px" x2="-0.902129711px" y2="2.73020409px" gradientUnits="userSpaceOnUse"><stop stop-color="#FFFFFF" offset="0%"></stop><stop stop-color="#FFF1E2" offset="15.29%"></stop><stop stop-color="#FFCF97" offset="48.6%"></stop><stop stop-color="#FF9720" offset="97.11%"></stop><stop stop-color="#FF9319" offset="100%"></stop></linearGradient><clipPath id="i9"><path d="M0.0564601186,35.0498459 C-1.2174879,13.5833861 19.1779299,-3.90293398 50.0221713,0.758491046 C80.8664128,5.41991608 84.2105263,27.113471 84.2105263,27.113471 C79.8987023,35.3606076 61.352959,33.4960376 53.0600474,31.9422293 C44.7671358,30.3884209 31.6969191,24.3285684 18.7124489,27.9023276 C5.7157292,31.4760868 12.8939363,43.763125 9.78256326,44.0738867 C9.74215581,44.0779226 9.70177523,44.0820109 9.6614196,44.0861277 L9.41957002,44.1109807 C9.1779894,44.1357949 8.93716993,44.1599201 8.69670014,44.1782045 L8.45633166,44.1943513 C5.81322522,44.346352 3.19583202,43.5838395 0.0564601186,35.0498459 Z"></path></clipPath><linearGradient id="i10" x1="-8.94239019px" y1="96.3941993px" x2="123.902214px" y2="-88.6066444px" gradientUnits="userSpaceOnUse"><stop stop-color="#FFFFFF" offset="0%"></stop><stop stop-color="#FF9319" offset="100%"></stop></linearGradient><clipPath id="i11"><path d="M0,25.2631579 C4.57733698,6.84265929 29.3141791,-1.06048499 33.9996421,0.11348897 C36.9447903,0.851415458 42.3012921,4.81230924 45.8740975,7.65288374 L46.3498483,8.03288279 C48.2054757,9.52183928 49.4736842,10.6187405 49.4736842,10.6187405 C14.1467345,11.8735613 1.06365297,24.2154212 0.0629003471,25.2007623 L0.0159936239,25.2473561 C0.00554086041,25.257823 0.000240280156,25.2631579 0,25.2631579 Z"></path></clipPath><linearGradient id="i12" x1="11.5637228px" y1="-10.9656785px" x2="26.5104701px" y2="21.8186941px" gradientUnits="userSpaceOnUse"><stop stop-color="#FFFFFF" offset="0%"></stop><stop stop-color="#FFF1E2" offset="15.29%"></stop><stop stop-color="#FFCF97" offset="48.6%"></stop><stop stop-color="#FF9720" offset="97.11%"></stop><stop stop-color="#FF9319" offset="100%"></stop></linearGradient><clipPath id="i13"><path d="M7.36842105,0 C7.36842105,0 1.20613768,6.67788303 1.13517089,17.8947368 C1.13517089,17.8823013 -3.93895496,7.37427307 7.36842105,0 Z"></path></clipPath><linearGradient id="i14" x1="0.623501548px" y1="8.01907157px" x2="5.26230764px" y2="9.19296059px" gradientUnits="userSpaceOnUse"><stop stop-color="#2F2921" offset="0%"></stop><stop stop-color="#4C3820" offset="16.75%"></stop><stop stop-color="#975E1C" offset="53.22%"></stop><stop stop-color="#FF9319" offset="100%"></stop></linearGradient><clipPath id="i15"><path d="M3.15789474,0 C4.90195184,0 6.31578947,1.41383763 6.31578947,3.15789474 C6.31578947,4.90195184 4.90195184,6.31578947 3.15789474,6.31578947 C1.41383763,6.31578947 0,4.90195184 0,3.15789474 C0,1.41383763 1.41383763,0 3.15789474,0 Z"></path></clipPath><clipPath id="i16"><path d="M1.12440191,0 C1.74539194,0 2.24880383,0.503411884 2.24880383,1.12440191 C2.24880383,1.74539194 1.74539194,2.24880383 1.12440191,2.24880383 C0.503411884,2.24880383 0,1.74539194 0,1.12440191 C0,0.503411884 0.503411884,0 1.12440191,0 Z"></path></clipPath><clipPath id="i17"><path d="M24.2266649,0.00107961394 C27.0494272,6.55727806 23.90757,14.1119434 17.2188505,16.8787795 C10.5301309,19.6456155 2.82276237,16.5660067 0,10.0098083 C0.0704356584,9.93501476 5.62898304,7.61491575 11.4033201,5.22746235 L12.5857728,4.7388706 C18.4963726,2.29811835 24.2566801,-0.0577614172 24.2266649,0.00107961394 Z"></path></clipPath><clipPath id="i18"><path d="M20.9988975,0.00100936078 C23.4412006,5.67903811 20.7288941,12.2352366 14.9238219,14.6291512 C9.11874975,17.0230659 2.4423031,14.3644973 0,8.67443887 C0.0591985971,8.60480801 4.95554938,6.55916253 10.0047178,4.47212645 L10.7441676,4.16663563 C15.9203407,2.02927542 21.0170902,-0.0524875202 20.9988975,0.00100936078 Z"></path></clipPath><clipPath id="i19"><path d="M19.3788773,0.000863950632 C21.6370872,5.24582271 19.1211468,11.2847431 13.7701712,13.4982119 C8.4191956,15.7116808 2.2582099,13.2455878 0,8.00062903 C0.0590341057,7.94276454 4.55638679,6.06736925 9.20316074,4.14705273 L9.93747833,3.84372998 C14.710485,1.87306532 19.4031124,-0.0466458372 19.3788773,0.000863950632 Z"></path></clipPath><clipPath id="i20"><path d="M0.968597966,0 L3.15789474,1.80626664 L1.20743034,3.15789474 L0,1.69567889 L0.968597966,0 Z"></path></clipPath><clipPath id="i21"><path d="M0.530263158,0 C1.225,0 1.225,1.05263158 0.530263158,1.05263158 C-0.175,1.05263158 -0.175,0 0.530263158,0 Z"></path></clipPath><clipPath id="i22"><path d="M6.31578947,0 C9.80390368,0 12.6315789,2.82767526 12.6315789,6.31578947 C12.6315789,9.80390368 9.80390368,12.6315789 6.31578947,12.6315789 C2.82767526,12.6315789 0,9.80390368 0,6.31578947 C0,2.82767526 2.82767526,0 6.31578947,0 Z"></path></clipPath></defs><g transform="translate(-137.0 -192.0)"><g clip-path="url(#i0)"><g transform="translate(137.0 192.0)"><g transform="translate(0.0 4.999999999999801)"><g transform="translate(95.78947368421052 89.47368421052632)"><g clip-path="url(#i1)"><polygon points="4.4408921e-15,5.32907052e-15 44.2105263,5.32907052e-15 44.2105263,18.9473684 4.4408921e-15,18.9473684 4.4408921e-15,5.32907052e-15" stroke="none" fill="#2F2921"></polygon></g></g><g transform="translate(10.526315789473678 70.52631578947368)"><g clip-path="url(#i2)"><polygon points="1.42108547e-14,-6.21724894e-15 103.157895,-6.21724894e-15 103.157895,29.4736842 1.42108547e-14,29.4736842 1.42108547e-14,-6.21724894e-15" stroke="none" fill="url(#i3)"></polygon></g></g><g transform="translate(10.526315789473678 73.6842105263158)"><g clip-path="url(#i4)"><polygon points="-1.22124533e-15,0 103.157895,0 103.157895,48.4210526 -1.22124533e-15,48.4210526 -1.22124533e-15,0" stroke="none" fill="url(#i5)"></polygon></g></g><g transform="translate(83.1578947368421 68.42105263157895)"><g clip-path="url(#i6)"><polygon points="0,0 3.15789474,0 3.15789474,3.15789474 0,3.15789474 0,0" stroke="none" fill="#28550A"></polygon></g></g><g transform="translate(20.0 41.05263157894737)"><g clip-path="url(#i7)"><polygon points="-4.4408921e-16,0 22.1052632,0 22.1052632,27.3684211 -4.4408921e-16,27.3684211 -4.4408921e-16,0" stroke="none" fill="url(#i8)"></polygon></g></g><g transform="translate(14.736842105263158 6.315789473684212)"><g clip-path="url(#i9)"><polygon points="7.10542736e-15,-1.77635684e-15 84.2105263,-1.77635684e-15 84.2105263,44.2105263 7.10542736e-15,44.2105263 7.10542736e-15,-1.77635684e-15" stroke="none" fill="url(#i10)"></polygon></g></g><g transform="translate(21.052631578947373 0.0)"><g clip-path="url(#i11)"><polygon points="0,6.10622664e-16 49.4736842,6.10622664e-16 49.4736842,25.2631579 0,25.2631579 0,6.10622664e-16" stroke="none" fill="url(#i12)"></polygon></g></g><g transform="translate(68.42105263157896 14.736842105263158)"><g clip-path="url(#i13)"><polygon points="-8.8817842e-16,0 7.36842105,0 7.36842105,17.8947368 -8.8817842e-16,17.8947368 -8.8817842e-16,0" stroke="none" fill="url(#i14)"></polygon></g></g><g transform="translate(81.05263157894737 20.0)"><g clip-path="url(#i15)"><polygon points="0,0 6.31578947,0 6.31578947,6.31578947 0,6.31578947 0,0" stroke="none" fill="#2F2921"></polygon></g><g transform="translate(3.5885167464117984 1.315789473684092)"><g clip-path="url(#i16)"><polygon points="0,0 2.24880383,0 2.24880383,2.24880383 0,2.24880383 0,0" stroke="none" fill="#FFFFFF"></polygon></g></g></g><g transform="translate(47.36842105263158 66.31578947368422)"><g clip-path="url(#i17)"><polygon points="0,1.77635684e-15 25.2631579,1.77635684e-15 25.2631579,17.8947368 0,17.8947368 0,1.77635684e-15" stroke="none" fill="#FFC82B"></polygon></g><g transform="translate(1.620020143697193 0.6617049588494739)"><g clip-path="url(#i18)"><polygon points="0,-3.55271368e-15 21.8963579,-3.55271368e-15 21.8963579,15.5088306 0,15.5088306 0,-3.55271368e-15" stroke="none" fill="#FFFFFF"></polygon></g></g><g transform="translate(2.4177573356692754 0.9866528608852674)"><g clip-path="url(#i19)"><polygon points="0,-5.32907052e-15 20.2076905,-5.32907052e-15 20.2076905,14.3106042 0,14.3106042 0,-5.32907052e-15" stroke="none" fill="#FFC82B"></polygon></g></g></g><g transform="translate(0.0 23.15789473684211)"><g clip-path="url(#i20)"><polygon points="0,0 3.15789474,0 3.15789474,3.15789474 0,3.15789474 0,0" stroke="none" fill="#28550A"></polygon></g></g><g transform="translate(51.57894736842105 58.94736842105264)"><g clip-path="url(#i21)"><polygon points="0.00131578947,0 1.05131579,0 1.05131579,1.05263158 0.00131578947,1.05263158 0.00131578947,0" stroke="none" fill="#28550A"></polygon></g></g><g transform="translate(47.36842105263158 44.210526315789465)"><path d="M0,7.36842105 C0,3.30068072 3.30068072,0 7.36842105,0" stroke="#E52443" stroke-width="2.2117" fill="none" stroke-linecap="round" stroke-linejoin="round"></path></g><g transform="translate(83.1578947368421 91.57894736842105)"><path d="M10.5263158,1.18546154 C7.32367832,4.22405835 2.61391734,3.69264456 0,0" stroke="#FFC82B" stroke-width="2.2152" fill="none" stroke-linecap="round" stroke-linejoin="round"></path></g><g transform="translate(14.736842105263161 13.684210526315788)"><path d="M1.14259583,9.47368421 C-0.867275695,6.73995945 -0.155706272,2.98848434 2.72802244,1.08316102 C5.61175116,-0.822162304 9.56907584,-0.147606843 11.5789474,2.58611792" stroke="#539925" stroke-width="2.2117" fill="none" stroke-linecap="round" stroke-linejoin="round"></path></g><g transform="translate(15.789473684209952 57.89473684210498)"><path d="M0.0330383567,0 C1.3450984,1.83713466 -0.880717744,3.48339819 0.431342298,5.32053285 C1.74340234,7.15766751 3.96921848,5.52333343 5.28127853,7.36046809 C6.59333857,9.19760275 4.36752242,10.8438663 5.67958247,12.6810009 C6.99164251,14.5181356 9.21745865,12.8838015 10.5295187,14.7209362 C11.8415787,16.5700003 9.61576259,18.2043344 10.9395375,20.0533985 C12.2515975,21.9024626 14.4774136,20.2561991 15.7894737,22.1052632" stroke="#539925" stroke-width="2.2117" fill="none" stroke-linecap="round" stroke-linejoin="round"></path></g><g transform="translate(1.0526315789466034 35.78947368421086)"><g clip-path="url(#i22)"><polygon points="0,0 12.6315789,0 12.6315789,12.6315789 0,12.6315789 0,0" stroke="none" fill="#E52443"></polygon></g></g></g></g></g></g></svg>