<?xml version="1.0" encoding="UTF-8"?>
<svg width="140px" height="140px" viewBox="0 0 140 140" version="1.1" xmlns="http://www.w3.org/2000/svg" xmlns:xlink="http://www.w3.org/1999/xlink">
    <title>27CB68F8-DFAA-4905-BE24-AA5F18A19FEE</title>
    <g id="Pay-Later-Phase-2" stroke="none" stroke-width="1" fill="none" fill-rule="evenodd">
        <g id="01g.-Table-Summary--Copy-31" transform="translate(-137.000000, -156.000000)">
            <g id="Group-6" transform="translate(59.000000, 156.000000)">
                <g id="Atoms/Artwork/Beep/Order-Success" transform="translate(78.000000, 0.000000)">
                    <g id="Order-Success" transform="translate(16.333333, 4.083333)">
                        <path d="M109.97945,51.2575569 C108.938062,52.2411568 108.100997,52.3189801 106.943168,52.4249062 C105.572227,52.5502882 103.849763,52.7059348 102.010857,54.4418265 C100.171951,56.1777182 99.9324755,57.8595659 99.7435317,59.1998559 C99.5853462,60.3304553 99.4754952,61.1389528 98.4231224,62.129038 C97.3817348,63.1126379 96.54467,63.1904612 95.3868402,63.2963873 C94.0158995,63.4217693 92.2934355,63.5774158 90.4545294,65.3133075 C88.6156233,67.0491992 88.3761481,68.7310469 88.1872043,70.0713369 L91.3245495,70.4950415 C91.4827349,69.364442 91.592586,68.5559445 92.6449587,67.5658594 C93.6863464,66.5822595 94.5234112,66.5044362 95.681241,66.39851 C97.0521817,66.2731281 98.7746457,66.1174815 100.613552,64.3815898 C102.452458,62.6456981 102.691933,60.9638504 102.880877,59.6235604 C103.039062,58.492961 103.148913,57.6844635 104.201286,56.6943783 C105.242674,55.7107784 106.079739,55.6329551 107.237568,55.527029 C108.608509,55.401647 110.330973,55.2460005 112.169879,53.5101088 C114.008785,51.7742171 114.248261,50.0923694 114.437204,48.7520794 L111.299859,48.3283748 C111.139477,49.4589743 111.029626,50.2674717 109.97945,51.2575569 Z" id="Path" fill="#EEEFF6" fill-rule="nonzero"></path>
                        <g id="Group" transform="translate(22.985865, 7.637777)">
                            <path d="M66.4854167,54.1800003 L66.4854167,105.617037 C66.4839884,111.656997 61.5987809,116.552593 55.573066,116.552593 L10.9097642,116.552593 C4.88505931,116.551162 0.00142782441,111.655985 -5.32907052e-14,105.617037 L-5.32907052e-14,10.9355559 C-5.32907052e-14,4.8960153 4.88446779,1.30266168e-14 10.9097642,1.30266168e-14 L55.573066,1.30266168e-14 C58.4669635,1.30266168e-14 61.2425692,1.15114458 63.2891063,3.20203361 C65.3356434,5.25292264 66.4854167,8.03481695 66.4854167,10.9355559 L66.4854167,54.1800003 Z" id="Path-2" fill="#EEEFF6" fill-rule="nonzero"></path>
                            <path d="M66.4854167,23.6392596 L66.4854167,105.617037 C66.4839884,111.656997 61.5987809,116.552593 55.573066,116.552593 L10.9097642,116.552593 C4.88505931,116.551162 0.00142782441,111.655985 1.07765648e-13,105.617037 L1.07765648e-13,10.9355559 C1.07765648e-13,4.8960153 4.88446779,4.06193597e-13 10.9097642,4.06193597e-13 L55.573066,4.06193597e-13 C58.4669635,4.06193597e-13 61.2425692,1.15114458 63.2891063,3.20203361 C65.3356434,5.25292264 66.4854167,8.03481695 66.4854167,10.9355559 L66.4854167,23.6392596" id="Path" stroke="#D3D9EB" stroke-width="4.53333333" stroke-linecap="round" stroke-linejoin="round"></path>
                            <path d="M60.4566675,54.0711118 L60.4566675,102.052223 C60.4573532,104.233972 59.5933586,106.326636 58.0547523,107.869852 C56.5161461,109.413068 54.4289627,110.281112 52.2523589,110.281112 L13.8043636,110.281112 C9.27182086,110.281112 5.59746855,106.598074 5.59746855,102.054816 L5.59746855,14.0051859 C5.59678259,11.8232256 6.46121467,9.73043522 8.00045478,8.18755625 C9.5396949,6.64467727 11.6275495,5.7788892 13.8043636,5.7788892 L18.2712111,5.7788892 C18.9764534,8.7217078 21.6016202,10.7967945 24.6210146,10.7981489 L41.0322174,10.7981489 C44.0516117,10.7967945 46.6767785,8.7217078 47.3820208,5.7788892 L52.2523589,5.7788892 C54.4287249,5.7788892 56.5159149,6.64566882 58.0545955,8.1884732 C59.5932761,9.73127759 60.4573532,11.8236749 60.4566675,14.0051859 L60.4566675,54.0711118 L60.4566675,54.0711118 Z" id="Path" fill="#FFFFFF" fill-rule="nonzero"></path>
                        </g>
                        <path d="M101.263656,87.3351094 C101.263656,89.3901584 102.922581,91.0336011 104.996989,91.0336011 C107.071398,91.0336011 108.730323,89.3901584 108.730323,87.3351094 C108.730323,87.1054449 108.706237,86.8787632 108.664086,86.6610294 C107.230968,86.3269721 106.129032,85.187598 105.861075,83.7410106 C105.581075,83.6753922 105.292043,83.6366176 104.993978,83.6366176 C102.922581,83.6366176 101.263656,85.2800603 101.263656,87.3351094 Z" id="Path" fill="#FFFFFF" fill-rule="nonzero"></path>
                        <path d="M108.667097,86.6610294 C108.944086,86.7266478 109.236129,86.7624397 109.534194,86.7624397 C111.608602,86.7624397 113.267527,85.118997 113.267527,83.063948 C113.267527,81.0357428 111.581505,79.3654563 109.534194,79.3654563 C107.459785,79.3654563 105.80086,81.0088989 105.80086,83.063948 C105.80086,83.296595 105.824946,83.5202941 105.864086,83.7410106 C106.132043,85.187598 107.233978,86.3269721 108.667097,86.6610294 Z" id="Path" fill="#D3D9EB" fill-rule="nonzero"></path>
                        <path d="M72.9716129,7.42680995 C75.0460215,7.42680995 76.7049462,5.78336727 76.7049462,3.72831825 C76.7049462,1.70011312 75.0189247,0.029826546 72.9716129,0.029826546 C70.8972043,0.029826546 69.2382755,1.67326923 69.2382755,3.72831825 C69.2352688,5.78336727 70.8972043,7.42680995 72.9716129,7.42680995 Z" id="Path" fill="#D3D9EB" fill-rule="nonzero"></path>
                        <path d="M58.3965591,12.5897851 C60.0554839,12.5897851 61.3862366,11.2744344 61.3862366,9.62800905 C61.3862366,8.00544495 60.0374194,6.66623303 58.3965591,6.66623303 C56.7376344,6.66623303 55.4068817,7.98158371 55.4068817,9.62800905 C55.4068817,11.2744344 56.7346237,12.5897851 58.3965591,12.5897851 Z" id="Path" fill="#FFFFFF" fill-rule="nonzero"></path>
                        <path d="M18.1156989,81.9424698 C16.4146237,81.8679035 15.1952688,81.8171983 13.5815054,80.430264 C11.9797849,79.0552602 11.747957,77.8532504 11.4348387,76.1889291 C11.0645161,74.2173944 10.5978495,71.7447738 7.76473118,69.3168929 C4.9316129,66.8890121 2.40258065,66.7697059 0.382365591,66.6832089 L0.177634409,71.2884276 C1.87870968,71.362994 3.09806452,71.4136991 4.71182796,72.8006335 C6.31354839,74.1756373 6.54537634,75.3776471 6.85849462,77.0419683 C7.2288172,79.013503 7.69548387,81.4891063 10.5286022,83.9140045 C13.3587097,86.3418854 15.8907527,86.4611916 17.9109677,86.5476885 C19.4524731,86.6162896 20.5965591,86.6669947 21.9995699,87.7049585 L21.9995699,82.5360181 C20.5664516,82.0558107 19.2597849,81.993175 18.1156989,81.9424698 Z" id="Path" fill="#D3D9EB" fill-rule="nonzero"></path>
                        <path d="M6.93978495,24.1087971 L9.20989247,24.1087971 L9.20989247,26.3577187 C9.20989247,27.0317986 9.76086022,27.5776244 10.4412903,27.5776244 C11.1217204,27.5776244 11.6726882,27.0317986 11.6726882,26.3577187 L11.6726882,24.1087971 L13.963871,24.1087971 C14.6443011,24.1087971 15.1952688,23.5629713 15.1952688,22.8888914 C15.1952688,22.2148115 14.6443011,21.6689857 13.963871,21.6689857 L11.6726882,21.6689857 L11.6726882,19.3991855 C11.6726882,18.7251056 11.1217204,18.1792798 10.4412903,18.1792798 C9.76086022,18.1792798 9.20989247,18.7251056 9.20989247,19.3991855 L9.20989247,21.6689857 L6.93978495,21.6689857 C6.25935484,21.6689857 5.7083871,22.2148115 5.7083871,22.8888914 C5.7083871,23.5629713 6.25935484,24.1087971 6.93978495,24.1087971 Z" id="Path" fill="#D3D9EB" fill-rule="nonzero"></path>
                        <g id="Food" transform="translate(39.666667, 68.250000)" fill-rule="nonzero">
                            <path d="M32.6666667,17.6944444 L30.1538462,17.6944444 L30.1538462,16.4305556 C30.1538462,9.191 24.6231282,3.23302778 17.5897436,2.59223611 L17.5897436,0 L15.0769231,0 L15.0769231,2.59223611 C8.04353846,3.23302778 2.51282051,9.191 2.51282051,16.4305556 L2.51282051,17.6944444 L0,17.6944444 L0,20.2222222 L32.6666667,20.2222222 L32.6666667,17.6944444 Z M5.18518519,16.3851852 C5.18518519,10.2102519 10.3033086,5.18518519 16.5925926,5.18518519 C22.8818765,5.18518519 28,10.2102519 28,16.3851852 L28,17.6296296 L5.18518519,17.6296296 L5.18518519,16.3851852 Z" id="Shape" fill="#D3D9EB"></path>
                            <path d="M8.81481481,12.211739 L11.0353877,13.4814815 C12.1809519,11.5261794 14.310444,10.312194 16.5925926,10.312194 L16.5925926,7.77777778 C13.3970715,7.77777778 10.4170653,9.47710385 8.81481481,12.211739 Z" id="Path" fill="#EEEFF6"></path>
                        </g>
                        <path d="M47.2529369,35.6403964 C46.2419236,36.5417535 45.3652717,37.5882072 44.6516153,38.7445824 C43.3410426,40.8726647 42.5833333,43.3744803 42.5833333,46.0565675 C42.5833333,52.4122345 46.8366373,57.7742103 52.6560206,59.4692014 C53.6251836,59.7506007 54.6383994,59.9330706 55.6824523,59.9990235 C55.9798091,60.0188094 56.2815712,60.032 56.5833333,60.032 C56.8850954,60.032 57.1868576,60.0188094 57.4842144,59.9990235 C64.7969897,59.5351544 70.5833333,53.4718788 70.5833333,46.0565675 C70.5833333,38.3378725 64.3146109,32.0833333 56.5833333,32.0833333 C54.0987518,32.0833333 51.7661527,32.7318708 49.7419236,33.8662617 C48.8454479,34.3675042 48.0106461,34.9632793 47.2529369,35.6403964 Z M62.8850954,40.8726647 L62.8850954,40.8726647 C63.6273862,41.6135363 63.6273862,42.8138802 62.8850954,43.5547518 L57.3168135,49.112388 L54.6295888,51.7944751 L51.9423642,49.112388 L50.2815712,47.4547702 C49.5392805,46.7138986 49.5392805,45.5135547 50.2815712,44.7726831 L50.2815712,44.7726831 C51.023862,44.0318115 52.2265051,44.0318115 52.9687959,44.7726831 L54.6295888,46.4303009 L60.1978708,40.8726647 C60.9379589,40.1317931 62.1428047,40.1317931 62.8850954,40.8726647 Z" id="Shape" fill="#8BEA81" fill-rule="nonzero"></path>
                        <path d="M101.76043,102.313552 C99.4963441,102.922014 98.2378495,102.385136 96.5036559,101.642455 C94.4473118,100.759589 91.864086,99.6560068 87.8658065,100.729762 C84.7978495,101.552975 83.0997849,103.056233 81.8713978,104.514751 C81.4980645,104.959167 81.1668817,105.397617 80.8567742,105.812206 C80.3630108,106.474355 79.9294624,107.05299 79.4055914,107.545128 C78.7402151,108.171486 77.9273118,108.657658 76.6507527,109.000664 C76.1449462,109.137866 75.6933333,109.212432 75.271828,109.245241 C73.8055914,109.358582 72.7427957,108.908201 71.3939785,108.332549 C69.3376344,107.449683 66.7544086,106.346101 62.756129,107.419857 C58.7548387,108.493612 57.0808602,110.721655 55.7501075,112.505283 L59.8929032,115.538643 C61.015914,114.038367 61.8137634,112.958646 64.0989247,112.350185 C66.3630108,111.741723 67.6215054,112.278601 69.3556989,113.021282 C70.9032258,113.683431 72.7488172,114.473835 75.271828,114.366459 C76.1027957,114.330667 77.0030108,114.199431 77.9935484,113.933974 C78.5023656,113.796772 78.972043,113.641674 79.4086022,113.471663 C80.3810753,113.092866 81.1849462,112.63652 81.8713978,112.141399 C83.3045161,111.106418 84.2137634,109.901425 84.9995699,108.851531 C86.1225806,107.351256 86.9204301,106.271535 89.2055914,105.663073 C91.4696774,105.054612 92.728172,105.591489 94.4623656,106.33417 C96.5187097,107.217036 99.1019355,108.320618 103.100215,107.246863 C107.101505,106.173107 108.775484,103.945064 110.106237,102.161437 L105.963441,99.1280769 C104.843441,100.62537 104.045591,101.702108 101.76043,102.313552 Z M101.630968,26.2397059 L101.630968,23.9699057 C101.630968,23.2958258 101.08,22.75 100.39957,22.75 C99.7191398,22.75 99.168172,23.2958258 99.168172,23.9699057 L99.168172,26.2397059 L96.8980645,26.2397059 C96.2176344,26.2397059 95.6666667,26.7855317 95.6666667,27.4596116 C95.6666667,28.1336916 96.2176344,28.6795173 96.8980645,28.6795173 L99.168172,28.6795173 L99.168172,30.9284389 C99.168172,31.6025189 99.7191398,32.1483446 100.39957,32.1483446 C101.08,32.1483446 101.630968,31.6025189 101.630968,30.9284389 L101.630968,28.6795173 L103.922151,28.6795173 C104.602581,28.6795173 105.153548,28.1336916 105.153548,27.4596116 C105.153548,27.010225 103.979355,26.6035897 101.630968,26.2397059 Z" id="Path-3" fill="#D3D9EB" fill-rule="nonzero"></path>
                    </g>
                </g>
            </g>
        </g>
    </g>
</svg>