<svg xmlns="http://www.w3.org/2000/svg" viewBox="0 0 30 30"><circle fill="#2EA1DB" cx="15" cy="15" r="15"/><g fill="#5FC5ED"><path d="M8.7 22.4c-.1 0-.2 0-.4-.1-.5-.2-.7-.8-.5-1.3l.4-1c.2-.5.8-.7 1.3-.5.5.2.7.8.5 1.3l-.4 1c-.1.4-.5.6-.9.6zM10.7 27.2c-.1 0-.2 0-.3-.1-.5-.2-.8-.8-.6-1.3L12 20c.2-.5.8-.8 1.3-.6.5.2.8.8.6 1.3l-2.2 5.8c-.2.5-.6.7-1 .7zM14.5 27.4c-.1 0-.2 0-.3-.1-.5-.2-.8-.8-.6-1.3l2.3-6c.2-.5.8-.8 1.3-.6.5.2.8.8.6 1.3l-2.3 6c-.3.5-.6.7-1 .7zM19.1 25c-.1 0-.2 0-.4-.1-.5-.2-.7-.8-.5-1.3l1.5-3.6c.2-.5.8-.7 1.3-.5.5.2.7.8.5 1.3L20 24.4c-.1.4-.5.6-.9.6z"/></g><path fill="#FFF" d="M3.9 14.5v.2c0 1.5 1.2 2.7 2.7 2.7h9.7c1.5 0 2.7-1.2 2.7-2.7v-.2c0-1.4-1.1-2.5-2.4-2.6.1-.3.1-.6.1-.9 0-2-1.6-3.6-3.6-3.6-1.4 0-2.7.9-3.2 2.1-.4-.2-.8-.4-1.3-.4-1.5 0-2.7 1.2-2.7 2.7v.1c-1.2.3-2 1.4-2 2.6z"/><g><path fill="#FFF" d="M23.5 10.4c.1-.4.2-.8.2-1.2 0-2.5-2-4.5-4.5-4.5-1.6 0-2.9.8-3.7 2 1.5.8 2.5 2.4 2.5 4.2v.1c1.3.6 2.3 2 2.3 3.5v.2c0 1-.4 2-1.1 2.7h4c1.9 0 3.4-1.5 3.4-3.4v-.2c0-1.8-1.4-3.2-3.1-3.4z"/></g></svg>