<svg xmlns="http://www.w3.org/2000/svg" width="27" height="21" fill-rule="nonzero"><path d="M20.356 11.157h1.915l.032.001.032.002.032.003.032.003.032.004.032.005.032.007.032.008h.032l.032.01.032.013.032.014.032.016.032.018.032.02.032.02.032.024.032.026.032.03.032.032.032.035.032.04.032.045.032.052.032.062.032.078c.013.036.023.073.032.11a.98.98 0 0 1 .022.209c0 .073-.008.143-.022.2-.008.038-.02.076-.032.11l-.032.078-.032.062-.032.052-.032.045-.032.04-.032.035-.032.032-.032.03-.032.026-.032.024-.032.02-.032.02-.032.017-.032.016-.032.014-.032.013h-.032l-.032.01-.032.008-.013.003-.05.01-.032.004-.032.003-.032.003-.032.002-.032.001h-.017-1.898v-1.797zm2.548-2.033c.013.06.02.124.02.19s-.007.13-.02.19c-.008.04-.02.076-.032.112a.81.81 0 0 1-.032.076l-.032.06-.032.05-.032.042-.032.037-.032.033-.032.03-.032.026-.032.024-.032.02-.032.02-.032.017-.032.015-.032.014-.032.012-.032.01-.032.01-.032.008-.032.006-.008.001-.024.004-.032.004-.032.003h-.032l-.032.002-.032.001h-.005-1.72V8.486l1.757.001.032.002.032.002.032.003.032.003.024.003.008.001.032.007.032.008.032.01.032.01.032.012.032.014.032.016.032.017.032.02.032.02.032.024.032.026.032.03.032.033.032.037.032.042.032.05.032.06a.81.81 0 0 1 .032.076c.013.036.023.073.032.112h0zM26.83.527h.013v17.027l-.013.302-.032.26-.032.17-.032.137-.032.116-.032.104-.032.093-.032.085-.032.08-.032.074-.032.07-.032.066-.032.062-.032.06-.032.057-.032.054-.032.052-.032.05-.032.048-.032.047-.032.045-.032.043-.032.042-.032.04-.032.04-.032.04-.032.037-.032.036-.032.035-.032.034-.032.034-.032.032-.032.032-.032.03-.032.03-.032.03-.032.028-.032.028-.032.027-.032.026-.032.025-.032.025-.032.024-.032.024-.032.023-.032.023-.032.022-.032.022-.032.02-.032.02-.032.02-.032.02-.032.02-.032.018-.032.018-.063.035-.032.016-.032.016-.032.016-.032.015-.032.015-.032.014-.032.014-.063.027-.032.013-.032.012-.032.012-.063.023-.032.01-.032.01-.032.01-.032.01-.032.01-.032.01-.032.01-.032.008-.032.008-.032.008-.063.014-.032.007-.032.006-.032.006-.063.01-.032.005-.063.01-.063.008-.032.003-.063.006-.032.002-.032.002-.032.002-.063.003-.032.001H23.6h-.032-4.816v-6.942l5.196-.002.032-.001.032-.002.032-.002.032-.002.032-.003.032-.003.032-.003.032-.004.032-.004.032-.004.032-.005.032-.005.032-.006.032-.006.032-.006.032-.007.032-.007.032-.007.032-.008.032-.008.032-.01.032-.01.032-.01.032-.01.032-.01.032-.01.032-.012.032-.013.032-.013.032-.013.032-.014.032-.015.032-.015.032-.016.032-.017.032-.018.032-.018.032-.02.032-.02.032-.02.032-.022.032-.023.032-.024.032-.025.032-.026.032-.028.032-.03.032-.03.032-.032.032-.034.032-.036.032-.04.032-.04.032-.044.032-.048.032-.052.032-.058.032-.065.032-.074.032-.088.032-.112a1.59 1.59 0 0 0 .032-.171 1.71 1.71 0 0 0 .014-.219c0-.073-.005-.144-.014-.213-.008-.057-.018-.112-.032-.166l-.032-.108-.032-.085-.032-.072-.032-.063-.032-.056-.032-.05-.032-.047-.032-.043-.032-.04-.032-.037-.032-.035-.032-.033-.032-.03-.032-.03-.032-.028-.032-.027-.032-.025-.032-.024-.032-.023-.032-.022-.032-.02-.032-.02-.032-.02-.032-.018-.032-.018-.032-.017-.032-.016-.032-.016-.032-.015-.032-.014-.032-.014-.032-.013-.032-.013-.032-.012-.032-.012-.032-.01-.032-.01-.032-.01-.032-.01-.032-.01-.032-.01-.032-.008-.032-.008-.032-.007-.032-.007-.032-.007-.032-.006-.032-.006-.032-.006-.032-.005-.032-.005-.032-.004-.032-.004-.032-.004-.032-.003-.032-.003-.032-.003-.03-.002v-.04l.03-.005.032-.005.032-.006.032-.006.032-.007.032-.007.032-.008.032-.008.032-.01.032-.01.032-.01.032-.01.032-.01.032-.01.032-.012.032-.013.032-.013.032-.014.032-.015.032-.015.032-.016.032-.017.032-.018.032-.02.032-.02.032-.02.032-.022.032-.023.032-.024.032-.025.032-.027.032-.028.032-.03.032-.032.032-.033.032-.036.032-.038.032-.04.032-.044.032-.048.032-.052.032-.058.032-.065.032-.075.032-.1.032-.116c.015-.064.025-.13.032-.195l.008-.158-.008-.165c-.007-.068-.017-.135-.032-.198l-.032-.117-.032-.1-.032-.074-.032-.064-.032-.057-.032-.05-.032-.046-.032-.043-.032-.04-.032-.037-.032-.034-.032-.032-.032-.03-.032-.03-.032-.027-.032-.026-.032-.024-.032-.023-.032-.022-.032-.02-.032-.02-.032-.02-.032-.018-.032-.017-.032-.017-.032-.016-.032-.015-.032-.014-.032-.014-.032-.013-.032-.013-.032-.012-.032-.01-.032-.01h-.032-.032l-.032-.01-.032-.01-.032-.008-.032-.008-.032-.007-.032-.007-.032-.007-.032-.006-.032-.006-.032-.005-.032-.005-.032-.005-.032-.004-.032-.004-.032-.004-.032-.003-.032-.003-.032-.003-.032-.002-.044-.003-.02-.001h-.032l-.032-.002-.032-.002-.032-.002-.032-.001-.032-.001h-.032-.032-.032-.017-4.64V3.932c0-.238.024-.47.068-.694l.032-.143.032-.12.032-.106.032-.096.032-.087.032-.08.032-.075.032-.07.032-.066.032-.063.032-.06.032-.057.032-.055.032-.053.032-.05.032-.05.032-.047.032-.045.032-.044.032-.043.032-.04.032-.04.032-.04.032-.037.032-.037.032-.035.032-.034.032-.034.032-.032.032-.032.032-.03.032-.03.032-.03.032-.03.032-.028.032-.027.032-.026.032-.026.032-.025.032-.025.032-.024.032-.023.032-.023.032-.022.032-.022.032-.02.032-.02.032-.02.032-.02.032-.02.063-.037.032-.017.032-.017.032-.017.032-.016.032-.016.032-.015.032-.015.063-.03.032-.014.032-.013.032-.013.032-.013L20.9.73l.063-.023.032-.01.032-.01.032-.01.063-.02.032-.01.032-.01.032-.008.063-.016.032-.007.032-.007.032-.007.032-.006.032-.006.032-.006.032-.005.032-.005.032-.005.032-.005.032-.004.032-.004.032-.004.063-.006.032-.002.063-.004h.032.032l.032-.001h.032.032 4.81z" fill="#54b230"/><path d="M.61 12.342v-8.4c0-.237.023-.47.068-.692l.032-.143.032-.12.032-.106.032-.096.032-.087.032-.08.032-.075.032-.07.032-.066.032-.063.032-.06.032-.057.032-.055.032-.053.032-.05.032-.05.032-.047.032-.045.032-.044.032-.043.032-.04.032-.04.032-.04.032-.037.032-.037.032-.035.032-.034.032-.034.032-.032.032-.032.032-.03.032-.03.032-.03.032-.03.032-.028.032-.027.032-.026.032-.026.032-.025.032-.025.032-.024.032-.023.032-.023.032-.022.032-.022.032-.02.032-.02.032-.02.032-.02.032-.02L2.32.94l.032-.017.032-.017.032-.017.032-.016.032-.016.032-.015.032-.015.063-.03.032-.014.032-.013L2.7.758l.063-.025L2.825.7h.032l.032-.01.032-.01.063-.02.032-.01.032-.01.032-.01.063-.016.032-.007L3.205.6l.032-.007.032-.006L3.3.582 3.33.576 3.363.57l.032-.005.063-.01.032-.004.063-.007.032-.003h.032l.032-.003L3.7.532 3.742.53h.032l.032-.001h.032.032 4.83v17.027a3.57 3.57 0 0 1-.027.437l-.032.205-.032.153-.032.127-.032.1-.032.098-.032.09-.032.082-.032.077-.032.072-.032.068-.032.064-.032.06-.032.058-.032.056-.032.053-.032.05-.032.05-.032.047-.032.046-.032.044-.032.043-.032.04-.032.04-.032.04-.032.038-.032.037-.032.035-.032.035-.032.034-.032.033-.032.032-.032.03-.032.03-.032.03-.032.03-.032.028-.032.028-.032.026-.032.026-.032.025-.032.025-.032.024-.032.024-.032.023-.032.023-.063.043-.063.04-.032.02-.032.02-.032.02-.032.018-.032.018-.032.017-.032.017-.032.016-.032.016-.063.03-.032.015-.032.014-.032.014-.032.013-.032.013-.063.025-.032.012-.032.012-.032.01-.063.02-.032.01-.032.01-.032.01-.032.01-.032.01-.063.016-.032.008-.063.014-.032.006-.032.006-.032.006-.032.005-.032.005-.032.005-.032.005-.032.004-.063.008-.032.003-.063.006-.063.004-.032.002-.063.003-.032.001-.06.001H.61v-7.177l.068.018.032.008.032.008.032.008.032.008.032.008.032.008.032.007.032.007.032.007.032.007.032.007.032.007.032.007.032.007.032.007.032.007.032.006.063.013.032.006.032.006.032.006.032.006.032.006.032.006.032.006.032.006.032.006.032.006.032.005.032.005.032.005.032.005.032.005.032.005.032.005.032.005.032.005.032.005.032.005.063.01.063.01.032.004.063.01.063.008.063.008.063.008.063.007.032.004.032.004.032.003.063.007.063.006.032.003.063.006.095.008.063.005.032.002.032.003.032.002.063.005.063.004.032.002.063.004.063.004.032.002.063.003.032.001.063.003.032.001.032.001.032.001.032.001h.032.032l.032.001.032.001.095.002h.032.032.032.063.032.032l.095-.001.126-.002.032-.001H4.3l.063-.002.032-.001.126-.006h.032l.032-.002.063-.004.032-.002.095-.007.032-.003.063-.006.032-.003.032-.003.032-.003.063-.007.032-.004.095-.012.032-.004.063-.01.032-.004.095-.015.032-.005.095-.017.032-.006.063-.012.032-.006.063-.014.032-.007.095-.022.032-.008.032-.008.032-.008.032-.01.063-.018.032-.01.032-.01.032-.01.032-.01.063-.02.032-.01.063-.022.032-.012.032-.012.032-.012.063-.026.032-.013.032-.014.032-.014.063-.03.032-.015.032-.016.032-.016.063-.034.032-.018.032-.018.032-.02.032-.02.032-.02.032-.02.032-.02.032-.022.032-.022.032-.023.032-.024.032-.025.032-.025.032-.026.032-.027.032-.028.032-.03.032-.03.032-.032.032-.033.032-.034.032-.037.032-.038.032-.04.032-.042.032-.044.032-.047.032-.05.032-.052.032-.056.032-.06.032-.065.032-.072.032-.08.032-.088.032-.102.032-.122.032-.154.032-.236.016-.34V7.47H5.227l-.024 3.95-.008.182a1.96 1.96 0 0 1-.032.222l-.032.13-.032.1-.032.083-.032.072-.032.064-.032.057-.032.052-.032.047-.032.044-.032.04-.032.038-.032.035-.032.033-.032.03-.032.03-.032.028-.032.026-.032.025-.032.023-.032.022-.032.02-.032.02-.032.02-.032.018-.032.017-.032.016-.032.015-.032.014-.032.013-.032.013-.032.012-.032.01-.032.01-.032.01-.032.01-.032.01-.032.008-.032.008-.032.007-.032.007-.032.006-.032.006-.032.005-.032.004-.032.004-.032.004-.032.003-.032.003h-.032l-.032.002-.032.002-.032.001-.032.001h-.032-.032-.032-.032l-.032-.001-.032-.001-.032-.001-.032-.001-.032-.002h-.032l-.032-.002-.032-.002-.032-.002-.032-.003-.032-.003-.032-.003-.032-.003-.032-.003-.032-.004-.032-.004-.032-.004-.032-.004-.032-.004-.032-.005-.032-.005-.032-.005-.032-.005-.032-.005-.032-.006-.032-.006-.032-.006L2.478 13l-.032-.006-.032-.006L2.383 13l-.032-.007-.032-.007-.032-.007-.032-.007-.032-.008-.032-.008-.032-.008-.032-.008-.032-.008-.032-.01-.032-.01-.032-.01-.032-.01-.032-.01-.032-.01-.032-.01-.032-.01-.032-.01-.032-.01-.032-.01-.032-.01-.032-.01-.032-.01-.032-.01-.032-.01-.032-.01-.032-.01-.032-.012-.032-.012-.032-.012-.032-.012-.032-.012-.032-.012-.032-.013-.032-.013-.032-.013-.032-.013-.032-.013-.032-.013-.032-.013-.032-.014-.032-.014-.032-.014-.032-.014-.032-.014-.032-.014-.032-.014-.032-.015-.032-.015-.032-.015-.032-.015-.032-.015-.032-.015-.032-.016-.068-.034z" fill="#006cb9"/><path d="M9.75 8.332l-.068.06V3.932c0-.237.023-.47.068-.692l.032-.143.032-.12.032-.106.032-.096.032-.087.032-.08.032-.075.032-.07.032-.066.032-.063.032-.06.032-.057.032-.055.032-.053.032-.05.032-.05.032-.047.032-.045.032-.044.032-.043.032-.04.032-.04.032-.04.032-.037.032-.037.032-.035.032-.034.032-.034.032-.032.032-.032.032-.03.032-.03.032-.03.032-.03.032-.028.032-.027.032-.026.032-.026.032-.025.032-.025.032-.024.032-.023.032-.023.032-.022.032-.022.032-.02.032-.02.032-.02.063-.04.063-.037.032-.017.032-.017.032-.017.032-.016.032-.016.032-.015.032-.015.063-.03.032-.014.032-.013.032-.013.063-.025.063-.023h.032l.032-.01.032-.01.032-.01.032-.01.032-.01.032-.01.032-.01.063-.016.032-.007.032-.007.032-.007.063-.013.032-.006.032-.005.032-.005.032-.005.032-.005.032-.004.063-.008.032-.003h.032l.032-.003.063-.004.032-.001h.032l.032-.001h.032.032 4.83v17.027c0 .148-.01.294-.027.437l-.032.205-.032.153-.032.127-.032.1-.032.098-.032.09-.032.082-.032.077-.032.072-.032.068-.032.064-.032.06-.032.058-.032.055-.032.053-.032.05-.032.05-.032.047-.032.046-.032.044-.032.043-.032.04-.032.04-.032.04-.032.038-.032.037-.032.035-.032.035-.032.034-.032.033-.032.032-.032.03-.032.03-.032.03-.032.03-.032.028-.032.028-.032.026-.032.026-.032.025-.032.025-.032.024-.032.024-.032.023-.032.023-.063.043-.063.04-.032.02-.032.02-.032.02-.032.018-.032.018-.032.017-.032.017-.032.016-.032.016-.063.03-.032.015-.032.014-.032.014-.032.013-.032.013-.063.025-.032.012-.032.012-.032.01-.032.01-.032.01-.032.01-.032.01-.032.01-.063.018-.063.016-.032.008-.063.014-.032.006-.032.006-.032.006-.063.01-.032.005-.032.005-.032.004-.063.008-.032.003-.032.003-.032.003-.063.004-.032.002-.032.001-.032.001-.032.001-.06.001H9.68v-7.862l.068.06.032.026.032.026.032.025.032.024.032.024.032.023.032.022.032.022.032.02.032.02.032.02.032.02.032.02.032.02.032.02.032.018.032.018.032.017.032.017.032.017.032.016.032.016.032.016.032.015.032.015.032.015.032.014.032.014.032.014.032.013.032.013.032.013.032.012.032.012.063.024.063.023.063.022.063.02.032.01.032.01.032.01.032.01.032.01.032.01.032.01.032.01.032.01.032.008.032.008.063.016.032.008.032.008.032.007.032.007.032.007.063.014.032.006.032.006.032.006.032.006.032.006.063.01.032.005.063.01.032.005.032.005.032.005.063.01.063.01.032.004.063.008.032.004.063.007.032.003.032.003.032.003.063.006.032.003.063.006.032.003.032.002.032.003.063.004.032.002.095.006.095.005.032.001.032.001.032.001.095.003.095.002.095.002.095.001h.032.063.032.063.032l.095-.001h.032l.063-.001h.032.032.032l.032-.001.095-.003.1-.005.016-.001.032-.002.032-.002.032-.002.063-.004.063-.004.063-.005.063-.005.032-.003.032-.003.032-.003.063-.006.063-.007.063-.007.032-.004.032-.004.032-.004.032-.004.032-.004.032-.004.032-.004.063-.008.063-.01.032-.004.032-.005.032-.005.063-.01.063-.01.032-.005.032-.005.032-.005.063-.01.032-.005.063-.01.032-.006.032-.006.032-.006.032-.006.032-.006.032-.006.032-.006.032-.006.032-.006.032-.006.032-.006.032-.006.032-.006.032-.006.063-.013.032-.007.032-.007.032-.007.032-.007.032-.007.032-.007.063-.014.032-.007.032-.007.032-.007.032-.007.032-.007.032-.008.032-.008.032-.008.032-.008.032-.008.03-.008v-1.44l-.03.016-.032.016-.032.016-.032.016-.032.016-.032.016-.032.015-.032.015-.032.015-.032.015-.032.015-.032.015-.032.014-.032.014-.032.014-.032.014-.032.014-.032.014-.032.013-.032.013-.032.013-.032.013-.032.013-.032.013-.032.012-.032.012-.032.012-.032.012-.032.012-.032.01-.032.01-.032.01-.032.01-.032.01-.032.01-.032.01-.032.01-.032.01-.032.01-.032.01-.032.01-.032.01-.032.01-.032.01-.032.01-.032.008-.032.008-.032.008-.032.008-.032.008-.032.007-.032.007-.032.007-.032.007-.032.007-.032.007-.032.006-.032.006-.032.006-.032.006-.032.006-.032.005-.032.005-.032.005-.032.005-.032.005-.032.005-.032.004-.032.004-.032.004-.032.004-.032.004-.032.004-.032.003-.032.003-.032.003-.032.003-.032.003-.02.002-.076.005h-.032l-.032.002-.032.002-.063.002-.032.001h-.032-.032c-.01 0-.02 0-.032 0h-.032-.032-.032l-.032-.001-.063-.003-.032-.002h-.032l-.032-.002-.032-.003-.032-.003-.063-.007-.032-.004-.032-.004-.032-.004-.032-.005-.032-.005-.032-.005-.032-.005-.032-.006-.032-.006-.032-.007-.032-.007-.032-.008-.032-.008-.032-.008-.032-.008-.032-.01-.032-.01-.032-.01-.032-.01-.032-.01-.032-.01-.032-.012-.032-.012-.032-.013-.032-.013-.032-.014-.032-.014-.032-.015-.032-.015-.032-.016-.032-.017-.032-.017-.032-.018-.032-.02-.032-.02-.032-.02-.032-.02-.032-.023-.032-.023-.032-.024-.032-.025-.032-.026-.032-.027-.032-.03-.032-.03-.032-.03-.032-.033-.032-.035-.032-.036-.032-.038-.032-.04-.032-.042-.032-.045-.032-.048-.032-.05-.032-.055-.032-.06-.032-.064-.032-.07-.032-.077-.032-.088-.032-.1-.032-.12-.032-.155-.032-.24-.013-.295.013-.295.032-.24.032-.155.032-.12.032-.1.032-.088.032-.077.032-.07.032-.064.032-.06.032-.055.032-.05.032-.048.032-.045.032-.042.032-.04.032-.038.032-.036.032-.035.032-.033.032-.03.032-.03.032-.03.032-.027.032-.026.032-.025.032-.024.032-.023.032-.023.032-.02.032-.02.032-.02.032-.02.032-.018.032-.017.032-.017.032-.016.032-.016.032-.015.032-.014.032-.014.032-.013.032-.013.032-.012.032-.012.032-.01.032-.01.032-.01.032-.01h.032l.032-.01.032-.008.032-.008.032-.008.032-.008.063-.014.063-.012.032-.005.032-.005.032-.005.032-.005.032-.004.032-.004.032-.004.063-.007.032-.003.032-.003.032-.002.032-.002.032-.002.063-.003h.032l.032-.001h.032.063.032.032l.032.001h.063l.032.002.032.002.032.002.076.005.05.004.032.003.032.003.032.003.032.003.032.004.032.004.032.004.032.004.032.004.032.004.032.005.032.005.032.005.032.005.032.005.032.005.032.006.032.006.032.006.032.006.032.006.032.007.032.007.032.007.032.007.032.007.032.007.032.008.032.008.032.008.032.008.032.008.032.01.032.01.032.01.032.01.032.01.032.01.032.01.032.01.032.01.032.01.032.01.032.01.032.01.032.01.032.01.032.01.032.012.032.012.032.012.032.012.032.012.032.013.032.013.032.013.032.013.032.013.032.014.032.014.032.014.032.014.032.014.032.014.032.015.032.015.032.015.032.015.032.015.032.015.032.016.032.016.032.016.032.016.032.016.032.016.03.016V7.703l-.03-.008-.032-.008-.032-.008-.032-.008-.032-.008-.032-.007-.032-.007-.032-.007-.063-.014-.032-.007-.063-.014-.032-.007-.063-.014-.032-.007-.032-.007-.032-.007-.032-.007-.063-.013-.032-.006-.032-.006-.032-.006-.032-.006-.032-.006-.032-.006-.032-.006-.032-.006-.032-.006-.063-.01-.063-.01-.032-.005-.032-.005-.032-.005-.063-.01-.063-.01-.032-.005-.032-.005-.032-.005-.032-.005-.032-.005-.032-.005-.063-.01-.032-.004-.032-.004-.063-.008-.032-.004-.032-.004-.032-.004-.063-.008-.032-.004-.032-.004-.063-.007-.063-.007-.032-.003-.032-.003-.032-.003-.032-.003-.032-.003-.032-.003-.032-.003-.063-.005-.063-.004-.063-.004-.032-.002h-.032l-.048-.002-.015-.001-.095-.004-.032-.001h-.063l-.063-.002-.032-.001-.032-.001-.095-.002-.095-.001h-.032-.063-.032-.063-.032l-.095.001-.032.001-.063.001-.095.002-.063.002-.032.001-.095.004-.032.002-.063.003-.095.006-.032.002-.063.004-.032.003-.032.002-.032.003-.063.006-.032.003-.063.006-.032.003-.032.003-.032.003-.063.007-.032.004-.063.008-.032.004-.063.01-.063.01-.032.005-.032.005-.032.005-.032.005-.032.005-.032.005-.063.01-.032.006-.032.006-.032.006-.032.006-.032.006-.063.014-.032.007-.032.007-.032.007-.063.015-.063.016-.032.008-.032.008-.032.01-.032.01-.032.01-.032.01-.032.01-.032.01-.032.01-.063.02-.063.02-.063.022-.063.023-.063.024-.063.025-.032.013-.032.013-.032.013-.032.014-.032.014-.032.014-.032.015-.032.015-.032.015-.032.016-.032.016-.032.016-.032.017-.032.017-.032.018-.032.018-.032.018-.032.02-.032.02-.032.02-.032.02-.032.02-.032.02-.032.02-.032.022-.032.023-.032.023-.032.024-.032.024-.032.025-.032.026-.032.026h0z" fill="#e10238"/></svg>