<?xml version="1.0" encoding="UTF-8"?>
<svg width="64px" height="48px" viewBox="0 0 64 48" version="1.1" xmlns="http://www.w3.org/2000/svg" xmlns:xlink="http://www.w3.org/1999/xlink">
    <title>F9DEACC7-8DD7-4915-82E3-6B4DB910F947</title>
    <g id="Pay-Later" stroke="none" stroke-width="1" fill="none" fill-rule="evenodd">
        <g id="09---Payment---Default-" transform="translate(-16.000000, -515.000000)">
            <rect fill="#FFFFFF" x="0" y="0" width="414" height="736"></rect>
            <g id="Organisms/Payment" transform="translate(0.000000, 60.000000)">
                <g id="Molecules/Payment/Option-Copy" transform="translate(0.000000, 435.000000)">
                    <g id="Border"></g>
                    <g id="Content" transform="translate(16.000000, 20.000000)" fill="#A9B2C9" fill-rule="nonzero">
                        <g id="Icon" transform="translate(8.000000, 5.600000)">
                            <g id="Group" transform="translate(30.249057, 0.000000)">
                                <path d="M3.3509434,0 C1.60548885,0 0.150943396,1.40606061 0.150943396,3.2 C0.150943396,4.94545455 1.557004,6.4 3.3509434,6.4 C5.09639794,6.4 6.5509434,4.99393939 6.5509434,3.2 C6.5509434,1.45454545 5.14488279,0 3.3509434,0 Z M3.16882958,2.38067633 C3.2208621,2.47342995 3.32492714,2.51980676 3.4810247,2.61256039 C3.79321982,2.75169082 4.05338242,2.89082126 4.20947998,3.02995169 C4.31354502,3.16908213 4.41761006,3.35458937 4.41761006,3.63285024 C4.41761006,3.91111111 4.36557754,4.09661836 4.20947998,4.23574879 C4.05338242,4.37487923 3.84525234,4.46763285 3.58508974,4.51400966 L3.58508974,4.97777778 L3.2208621,4.97777778 L3.2208621,4.51400966 C2.96069949,4.46763285 2.70053689,4.37487923 2.54443933,4.18937198 C2.38834177,4.00386473 2.28427673,3.77198068 2.28427673,3.447343 L3.01273201,3.447343 C3.01273201,3.63285024 3.06476453,3.81835749 3.11679705,3.8647343 C3.16882958,3.95748792 3.27289462,4.00386473 3.42899218,4.00386473 C3.53305722,4.00386473 3.63712226,3.95748792 3.68915478,3.91111111 C3.7411873,3.81835749 3.79321982,3.72560386 3.79321982,3.63285024 C3.79321982,3.49371981 3.7411873,3.40096618 3.68915478,3.35458937 C3.63712226,3.26183575 3.53305722,3.21545894 3.37695966,3.12270531 C3.06476453,2.98357488 2.80460193,2.84444444 2.64850437,2.70531401 C2.49240681,2.56618357 2.44037429,2.33429952 2.44037429,2.05603865 C2.44037429,1.82415459 2.54443933,1.59227053 2.70053689,1.4531401 C2.85663445,1.31400966 3.06476453,1.17487923 3.32492714,1.17487923 L3.32492714,0.711111111 L3.68915478,0.711111111 L3.68915478,1.17487923 C3.94931738,1.22125604 4.15744746,1.31400966 4.31354502,1.49951691 C4.36557754,1.68502415 4.41761006,1.91690821 4.41761006,2.24154589 L3.68915478,2.24154589 C3.68915478,2.05603865 3.63712226,1.91690821 3.58508974,1.82415459 C3.53305722,1.73140097 3.4810247,1.68502415 3.37695966,1.68502415 C3.27289462,1.68502415 3.2208621,1.73140097 3.16882958,1.77777778 C3.11679705,1.8705314 3.11679705,1.96328502 3.11679705,2.05603865 C3.06476453,2.19516908 3.11679705,2.28792271 3.16882958,2.38067633 Z" id="Shape"></path>
                                <path d="M16.1155045,0.160211894 C13.4755045,0.160211894 11.3155045,2.32012752 11.3155045,4.96002439 C11.3155045,7.59992127 13.4755045,9.75983689 16.1155045,9.75983689 C18.7555045,9.75983689 20.9155045,7.59992127 20.9155045,4.96002439 C20.9155045,2.32012752 18.7555045,0.160211894 16.1155045,0.160211894 Z M15.8755045,4.30005018 C15.9355045,4.42004549 16.1155045,4.5400408 16.2955045,4.66003611 C16.7755045,4.90002674 17.0755045,5.08001971 17.3155045,5.32001033 C17.5555045,5.56000096 17.6155045,5.85998924 17.6155045,6.27997283 C17.6155045,6.69995643 17.4955045,6.99994471 17.3155045,7.23993533 C17.0755045,7.47992596 16.8355045,7.65991893 16.4155045,7.65991893 L16.4155045,8.3798908 L15.8755045,8.3798908 L15.8755045,7.65991893 C15.5155045,7.59992127 15.1555045,7.47992596 14.9155045,7.17993768 C14.6755045,6.93994705 14.5555045,6.51996346 14.5555045,5.97998455 L15.5755045,5.97998455 C15.5755045,6.27997283 15.6355045,6.51996346 15.7555045,6.63995877 C15.8755045,6.75995408 15.9955045,6.81995174 16.1755045,6.81995174 C16.2955045,6.81995174 16.4155045,6.75995408 16.5355045,6.63995877 C16.5955045,6.51996346 16.6555045,6.39996814 16.6555045,6.15997752 C16.6555045,5.97998455 16.5955045,5.79999158 16.5355045,5.67999627 C16.4755045,5.56000096 16.2955045,5.44000564 16.1155045,5.32001033 C15.6355045,5.14001736 15.3355045,4.90002674 15.0955045,4.66003611 C14.8555045,4.42004549 14.7955045,4.12005721 14.7955045,3.70007361 C14.7955045,3.34008768 14.9155045,2.98010174 15.0955045,2.74011111 C15.3355045,2.50012049 15.6355045,2.32012752 15.9955045,2.32012752 L15.9955045,1.60015564 L16.4755045,1.60015564 L16.4755045,2.38012518 C16.8355045,2.44012283 17.0755045,2.6201158 17.3155045,2.92010408 C17.4955045,3.22009236 17.6155045,3.5800783 17.6155045,4.00006189 L16.5955045,4.00006189 C16.5955045,3.70007361 16.5355045,3.52008064 16.4755045,3.34008768 C16.4155045,3.22009236 16.2955045,3.10009705 16.1755045,3.10009705 C16.0555045,3.10009705 15.9355045,3.16009471 15.8755045,3.28009002 C15.8155045,3.40008533 15.7555045,3.5800783 15.7555045,3.76007127 C15.7555045,4.06005955 15.8155045,4.18005486 15.8755045,4.30005018 Z" id="Shape"></path>
                            </g>
                            <g id="Bank-Note" transform="translate(0.000000, 10.400000)">
                                <rect id="Rectangle" x="24.8830658" y="14.651542" width="1.36420317" height="2.72840633"></rect>
                                <rect id="Rectangle" x="22.1546594" y="10.5589325" width="1.36420317" height="2.72840633"></rect>
                                <path d="M0.32740876,26.9293705 L48.0745196,26.9293705 L48.0745196,1.00951034 L0.32740876,1.00951034 L0.32740876,26.9293705 Z M4.42001826,9.14623618 C6.50788859,8.84621805 8.16411647,7.18999017 8.46413459,5.10211984 L24.2009642,5.10211984 L39.9377938,5.10211984 C40.2378119,7.18999017 41.8940398,8.84621805 43.9819101,9.14623618 L43.9819101,18.7926447 C41.8940398,19.0926628 40.2378119,20.7488907 39.9377938,22.836761 L24.2009642,22.836761 L8.46413459,22.836761 C8.16411647,20.7488907 6.50788859,19.0926628 4.42001826,18.7926447 L4.42001826,9.14623618 Z" id="Shape"></path>
                                <path d="M15.3336436,13.9694404 C15.3336436,18.8587232 19.3114149,22.836761 24.2009642,22.836761 C29.0905134,22.836761 33.0682848,18.8587232 33.0682848,13.9694404 C33.0682848,9.08015761 29.0905134,5.10211984 24.2009642,5.10211984 C19.3114149,5.10211984 15.3336436,9.08015761 15.3336436,13.9694404 Z M20.7904563,9.19472934 L23.5188626,9.19472934 L23.5188626,8.51262776 L24.2009642,8.51262776 L24.8830658,8.51262776 L24.8830658,9.19472934 L26.9293705,9.19472934 L26.9293705,9.87683093 L26.9293705,10.5589325 L26.4746472,10.5589325 L24.8830658,10.5589325 L24.8830658,12.9462881 L24.8830658,13.2873388 L27.6114721,13.2873388 L27.6114721,18.7441515 L24.8830658,18.7441515 L24.8830658,19.4262531 L24.2009642,19.4262531 L23.5188626,19.4262531 L23.5188626,18.7441515 L21.4725578,18.7441515 L21.4725578,18.0620499 L21.4725578,17.3799483 L21.9272811,17.3799483 L23.5188626,17.3799483 L23.5188626,14.9925928 L23.5188626,14.651542 L20.7904563,14.651542 L20.7904563,9.19472934 Z" id="Shape"></path>
                                <path d="M9.87683093,13.9694404 C9.87683093,12.8413084 8.9589247,11.9231357 7.83052618,11.9231357 C6.70212766,11.9231357 5.78422143,12.8413084 5.78422143,13.9694404 C5.78422143,15.0975725 6.70212766,16.0157452 7.83052618,16.0157452 C8.9589247,16.0157452 9.87683093,15.0975725 9.87683093,13.9694404 Z" id="Path"></path>
                                <path d="M40.5714022,16.0157452 C41.6998007,16.0157452 42.6177069,15.0975725 42.6177069,13.9694404 C42.6177069,12.8413084 41.6998007,11.9231357 40.5714022,11.9231357 C39.4430037,11.9231357 38.5250974,12.8413084 38.5250974,13.9694404 C38.5250974,15.0975725 39.4430037,16.0157452 40.5714022,16.0157452 Z" id="Path"></path>
                            </g>
                        </g>
                    </g>
                </g>
            </g>
        </g>
    </g>
</svg>