<svg width="36" height="39" xmlns="http://www.w3.org/2000/svg"><g fill="none" fill-rule="evenodd"><path d="M13.091 1.002h-1.637a.455.455 0 00-.455.455v10.189c0 .25.203.454.455.454h1.637a.455.455 0 00.455-.454V1.457a.455.455 0 00-.455-.455M9.134 9.553H4.722V1.457a.455.455 0 00-.455-.455H2.63a.455.455 0 00-.455.455v10.188c0 .252.203.455.455.455h6.504a.455.455 0 00.455-.455v-1.637a.455.455 0 00-.455-.455M33.468 3.55a.455.455 0 00.455-.456V1.457a.455.455 0 00-.455-.455h-6.504a.455.455 0 00-.455.455v10.188c0 .252.203.455.455.455h6.504a.455.455 0 00.455-.455v-1.637a.455.455 0 00-.455-.455h-4.412V7.825h4.412a.455.455 0 00.455-.455V5.732a.455.455 0 00-.455-.454h-4.412V3.549h4.412zM24.326 1.002h-1.638a.455.455 0 00-.455.455v5.895l-4.285-6.127c-.121-.173-.302-.223-.504-.223-.025-.004-.051 0-.078 0H15.73a.455.455 0 00-.455.455v10.189c0 .25.204.454.455.454h1.637a.455.455 0 00.455-.454V5.488l4.468 6.388a.588.588 0 00.053.063c.076.091.188.152.314.161h1.67a.455.455 0 00.455-.454V1.457a.455.455 0 00-.455-.455" fill="#000"/><path d="M34.02 37.31H2.246A1.246 1.246 0 011 36.064V17.062c0-.689.558-1.246 1.246-1.246H34.02c.688 0 1.246.557 1.246 1.246v19.002c0 .688-.558 1.246-1.246 1.246" fill="#08BF5B"/><path d="M11.083 24.198c0-.725-.511-1.278-1.207-1.278h-1.49v2.555h1.49c.696 0 1.207-.553 1.207-1.277m2.271 0c0 1.888-1.519 3.407-3.478 3.407h-1.49v2.79c0 .184-.15.333-.335.333H6.448a.334.334 0 01-.334-.334v-9.27c0-.184.15-.334.334-.334h3.428c1.96 0 3.478 1.52 3.478 3.408M19.66 27.179c0-1.065-.71-1.732-1.69-1.732s-1.69.667-1.69 1.732.71 1.732 1.69 1.732 1.69-.667 1.69-1.732m2.13-3.373v6.746a.176.176 0 01-.177.176h-1.777a.176.176 0 01-.177-.176v-.491c-.468.54-1.164.866-2.115.866-1.86 0-3.393-1.633-3.393-3.748s1.533-3.748 3.393-3.748c.951 0 1.647.327 2.115.866v-.491c0-.098.08-.176.177-.176h1.777c.097 0 .176.078.176.176M28.876 23.815l-1.635 4.117-1.69-4.12a.294.294 0 00-.27-.182h-1.813a.176.176 0 00-.163.242l2.82 6.874-1.028 2.588a.176.176 0 00.163.241h1.814c.12 0 .228-.073.272-.185l3.78-9.52a.176.176 0 00-.164-.24h-1.814a.294.294 0 00-.272.185" fill="#FFF"/></g></svg>