<svg xmlns="http://www.w3.org/2000/svg" width="29" height="18" fill-rule="nonzero"><path fill="#ff5f00" d="M10.464 1.86h7.545v13.416h-7.545z"/><path d="M10.943 8.57c-.003-2.618 1.212-5.093 3.294-6.71C10.7-.89 5.624-.488 2.573 2.78s-3.05 8.308 0 11.576 8.128 3.67 11.663.92c-2.08-1.616-3.296-4.09-3.294-6.707z" fill="#eb001b"/><path d="M28.2 8.57c0 3.267-1.885 6.246-4.855 7.674a8.7 8.7 0 0 1-9.098-.967 8.5 8.5 0 0 0 3.295-6.708 8.5 8.5 0 0 0-3.295-6.708 8.7 8.7 0 0 1 9.098-.967C26.304 2.32 28.2 5.3 28.2 8.567v.002zm-.815 5.713v-.63h.12v-.13h-.3v.13h.13v.63h.053zm.584 0v-.76h-.1l-.106.543-.106-.543h-.08v.76h.066v-.57l.1.494h.068l.1-.494v.576l.053-.005z" fill="#f79e1b"/></svg>