<svg xmlns="http://www.w3.org/2000/svg" viewBox="0 0 595.28 602.45"><path d="M454.52 13.03H140.58C68.32 13.03 9.52 71.82 9.52 144.1v313.93c0 72.27 58.8 131.06 131.06 131.06h313.94c72.27 0 131.05-58.8 131.05-131.06V144.1c0-72.27-58.78-131.06-131.05-131.06" fill="#fff"/><path d="M455.5 35.4H139.62c-59.4 0-107.74 48.33-107.74 107.73V459c0 59.4 48.33 107.73 107.74 107.73H455.5c59.4 0 107.73-48.33 107.73-107.73V143.12c0-59.4-48.34-107.73-107.73-107.73" fill="#295daa"/><g fill="#fff"><path d="M242.42 255.3H214.9c-8.07 0-18.53 5.7-21.55 13.3l2.76-14.57h-33.63l-14.94 83.77h33.67l9.3-53.03h36.22l-6.7 38.02c-2.06 11.76 5.93 14.62 9.87 14.62h17.6l11.5-65.14c-.95-9.34-7.25-16.97-16.58-16.97m-104.18-1.26L131.92 290l25.58-35.95zm39.93-131.2H65.54l-4.9 27.76h39.3L84.2 240.03h33.9l15.83-89.44h39.32zm23.3 89.74l4.94-28h-30.18l-4.9 28h30.15m-47.54 27.46c-9.33 0-15.6-7.64-13.97-16.98l8.66-48.98c1.62-9.33 10.63-16.97 19.93-16.97h55.22c9.33 0 15.63 7.64 13.93 16.97l-8.6 48.98c-1.66 9.34-10.64 16.98-19.96 16.98h-55.2z"/><path d="M376.07 212.57l4.95-28h43.7l4.85-27.46h-56.23c-9.33 0-18.36 7.62-20 16.95l-8.63 48.98c-1.65 9.34 4.64 16.97 14 16.97h54.67l4.82-27.45h-42.15zm-68.73 0h-37l9.76-55.46h-29.48l-11.6 65.94c-1.65 9.34 4.63 16.97 13.96 16.97h28.74c9.33 0 16.96-5.55 23-12.73 0 0 3.3 9.6 8.02 11.75 4.76 2.18 19.14 1.67 19.14 1.67l14.76-83.6h-29.5l-9.8 55.45zm212.56-55.05h-27.5c-8.1 0-15.9 5.72-18.93 13.3l7.92-45.04h-31L430.25 240h31.03l9.33-53h33.63l-6.68 38.02c-2.08 11.73 5.93 14.6 9.82 14.6h15.02l11.48-65.15c1.63-9.34-4.64-16.97-13.98-16.97M409.37 365.68c-12.54 0-21-10.32-18.8-22.85L402.2 277c2.2-12.58 14.3-22.85 26.9-22.85h70.24c12.5 0 21.02 10.27 18.8 22.85l-11.62 65.84c-2.22 12.52-14.3 22.85-26.86 22.85H409.4m65.44-30.78l8.86-50h-49.8l-8.84 50h49.77zm-133.57-.01h-49.83l8.83-50h80.77l5.33-30.78h-90.88c-12.58 0-24.64 10.27-26.85 22.85L257 342.82c-2.2 12.52 6.23 22.85 18.8 22.85h70.28c12.57 0 24.67-10.32 26.86-22.85l7.1-40.4h-33.08l-5.7 32.5z"/></g><path d="M272.26 405.14l-42.33 87.25h-26.86l-3.2-52.8-25.64 52.8h-27l-5.16-87.25h19.12l3.34 68.43 32.93-68.43h19.42l3.34 68.43 32.93-68.43h19.1zm79.96 87.26h-18.66l18.5-87.25h18.66l-18.5 87.25zm30.65 0H364.2l18.5-87.25h18.66l-18.5 87.25zm128.98 0h-15.02c-6.98 0-11.83-.68-14.57-2.05-2.73-1.37-4.1-4.12-4.1-8.27 0-2.33.35-5.06 1.06-8.2l14.57-68.74h18.66l-4.7 21.7h18.06l-3.5 15.78h-17.75l-5.3 24.9c-.5 2.53-.76 4.2-.76 5 0 1.72.58 2.83 1.74 3.34s3.5.76 7.06.76h7.9l-3.34 15.77zm-381.42-63.6c-2.73-1.42-7.6-2.12-14.57-2.12h-26.7c-7.7 0-13.53 1.44-17.53 4.32s-6.7 7.66-8.12 14.34l-5.92 28.38a53.39 53.39 0 0 0-.91 4.63c-.2 1.37-.3 2.6-.3 3.72 0 2.03.3 3.67.9 4.93.6 1.27 1.62 2.3 3.03 3.1 1.42.8 3.34 1.36 5.77 1.67 2.43.3 5.46.46 9.1.46h45.37l3.34-15.63H85.67c-3.54 0-5.9-.28-7.06-.83-1.16-.56-1.74-1.7-1.74-3.42 0-1.2.2-2.83.6-4.85l.01-.05h7.9l-.01.05h43.4l4.7-22.15c.7-3.24 1.06-6.02 1.06-8.35 0-4.06-1.37-6.8-4.1-8.2zm-16.4 22.9H93.18v-.02H80.8c.4-2 .88-3.63 1.44-4.84s1.26-2.15 2.13-2.8c.86-.66 1.97-1.1 3.34-1.3s3.06-.3 5.08-.3h14.87c4.86 0 7.28 1.52 7.28 4.55 0 .3-.3 1.88-.9 4.7zM330.9 432c-.66-1.3-1.72-2.35-3.2-3.1-1.46-.76-3.4-1.3-5.76-1.6-2.38-.3-5.34-.46-8.88-.46h-45.22l-3.34 15.78h38.24c3.54 0 5.9.25 7.06.76 1.16.5 1.75 1.62 1.75 3.34 0 .8-.25 2.47-.76 5h-14.95v.02H281.2c-4.35 0-7.97.23-10.85.68s-5.3 1.34-7.2 2.65c-1.92 1.32-3.44 3.2-4.55 5.62s-2.12 5.6-3.03 9.56l-.76 3.64c-.7 3.14-1.06 5.87-1.06 8.2 0 2.12.33 3.85 1 5.16.66 1.32 1.72 2.35 3.2 3.1 1.46.76 3.4 1.3 5.77 1.6s5.33.46 8.88.46h48.25l10.02-47.04c.7-3.13 1.06-5.86 1.06-8.2-.02-2.12-.35-3.84-1-5.16zm-53.48 44.62c-2.73 0-4.1-1.16-4.1-3.5 0-1.42.55-2.7 1.67-3.87 1.1-1.16 2.58-1.75 4.4-1.75h20.18l.01-.05h7.86l-1.95 9.15h-28.07zm193.92-47.82c-2.73-1.42-7.6-2.12-14.57-2.12h-26.7c-7.7 0-13.53 1.44-17.53 4.32s-6.7 7.66-8.12 14.34l-5.92 28.38a53.39 53.39 0 0 0-.91 4.63c-.2 1.37-.3 2.6-.3 3.72 0 2.03.3 3.67.9 4.93.6 1.27 1.62 2.3 3.03 3.1 1.42.8 3.34 1.36 5.77 1.67 2.43.3 5.46.46 9.1.46h45.37l3.34-15.63h-38.24c-3.54 0-5.9-.28-7.06-.83-1.16-.56-1.75-1.7-1.75-3.42 0-1.2.2-2.83.6-4.85l.01-.05h7.9l-.01.05h43.4l4.7-22.15c.7-3.24 1.06-6.02 1.06-8.35.01-4.06-1.35-6.8-4.08-8.2zm-16.4 22.9H435.3v-.02h-13.58c.4-2 .88-3.63 1.44-4.84.55-1.2 1.26-2.15 2.12-2.8s1.97-1.1 3.34-1.3 3.06-.3 5.08-.3h14.87c4.85 0 7.28 1.52 7.28 4.55.01.3-.3 1.88-.9 4.7z" fill="#fddb00"/></svg>