<svg xmlns="http://www.w3.org/2000/svg" width="37" height="13" fill-rule="nonzero"><path d="M12.95 12.04L14.803.353h2.962L15.913 12.04H12.95M26.656.64c-.586-.235-1.507-.5-2.654-.5-2.928 0-5 1.586-5.007 3.857-.02 1.68 1.47 2.617 2.594 3.175 1.154.572 1.542.94 1.537 1.45-.008.783-.92 1.14-1.773 1.14-1.186 0-1.816-.177-2.8-.613l-.38-.186-.414 2.616c.7.325 1.97.608 3.3.623 3.112 0 5.134-1.567 5.158-3.992.01-1.332-.78-2.342-2.488-3.175-1.035-.542-1.67-.9-1.663-1.45.001-.486.537-1.006 1.697-1.006a5.12 5.12 0 0 1 2.217.449l.266.134.4-2.533M30.6 7.896l1.18-3.267c-.017.03.244-.677.394-1.115l.2 1.008.685 3.374H30.6zm3.654-7.53h-2.3c-.7 0-1.24.207-1.552.97l-4.4 10.7h3.1l.623-1.757 3.794.006.36 1.75h2.75L34.254.365zM10.466.362l-2.9 7.967-.3-1.62c-.54-1.866-2.222-3.9-4.103-4.902l2.652 10.22 3.135-.002L13.604.362h-3.14" fill="#26337a"/><path d="M4.876.354H.1L.06.597C3.777 1.565 6.236 3.9 7.256 6.7L6.218 1.34C6.04.6 5.52.38 4.876.354" fill="#ed982d"/></svg>