<?xml version="1.0" encoding="UTF-8"?>
<svg width="32px" height="32px" viewBox="0 0 32 32" version="1.1" xmlns="http://www.w3.org/2000/svg" xmlns:xlink="http://www.w3.org/1999/xlink">
    <!-- Generator: sketchtool 64 (101010) - https://sketch.com -->
    <title>79E2FFE9-87AF-4CE7-B08C-347555C58FF3</title>
    <desc>Created with sketchtool.</desc>
    <defs>
        <path d="M15.82,24.64 L16.42,23.94 C16.9266667,23.34 17.4066667,22.7266667 17.86,22.1 C18.5133333,21.2066667 19.0933333,20.3466667 19.6,19.52 C20.2133333,18.48 20.6933333,17.5133333 21.04,16.62 C21.44,15.5666667 21.64,14.6333333 21.64,13.82 C21.64,12.7533333 21.38,11.7733333 20.86,10.88 C20.34,10 19.64,9.3 18.76,8.78 C17.8666667,8.26 16.8866667,8 15.82,8 C14.7533333,8 13.7733333,8.26 12.88,8.78 C12,9.3 11.3,10 10.78,10.88 C10.26,11.7733333 10,12.7533333 10,13.82 C10,14.6333333 10.2,15.5666667 10.6,16.62 C10.9466667,17.5133333 11.4266667,18.48 12.04,19.52 C12.5466667,20.3466667 13.1266667,21.2066667 13.78,22.1 C14.2333333,22.7266667 14.7133333,23.34 15.22,23.94 L15.22,23.94 L15.82,24.64 Z M15.82,15.88 C15.2466667,15.88 14.76,15.68 14.36,15.28 C13.96,14.88 13.76,14.3933333 13.76,13.82 C13.76,13.4466667 13.8533333,13.1 14.04,12.78 C14.2266667,12.46 14.4766667,12.2066667 14.79,12.02 C15.1033333,11.8333333 15.4466667,11.74 15.82,11.74 C16.1933333,11.74 16.54,11.8333333 16.86,12.02 C17.18,12.2066667 17.4333333,12.46 17.62,12.78 C17.8066667,13.1 17.9,13.4466667 17.9,13.82 C17.9,14.1933333 17.8066667,14.5366667 17.62,14.85 C17.4333333,15.1633333 17.18,15.4133333 16.86,15.6 C16.54,15.7866667 16.1933333,15.88 15.82,15.88 Z" id="path-1"></path>
    </defs>
    <g id="Beep-Delivery-V3" stroke="none" stroke-width="1" fill="none" fill-rule="evenodd">
        <g id="01---Home" transform="translate(-56.000000, -27.000000)">
            <g id="Screen">
                <g id="Molecules/Bars/Merchant/Delivery">
                    <g id="Atoms/Delivery/Address-+-Time">
                        <g id="Delivery-Address">
                            <g id="Variables/Icon/Pin" transform="translate(56.000000, 27.000000)">
                                <g id="Icon">
                                    <mask id="mask-2" fill="white">
                                        <use xlink:href="#path-1"></use>
                                    </mask>
                                    <use id="" fill="#000000" fill-rule="nonzero" xlink:href="#path-1"></use>
                                    <g id="Variables/Palette/Neutrals/05-Manatee" mask="url(#mask-2)" fill="#9E9E9E">
                                        <rect id="Color" x="0" y="0" width="32" height="32"></rect>
                                    </g>
                                </g>
                            </g>
                        </g>
                    </g>
                </g>
            </g>
        </g>
    </g>
</svg>