<svg width="117" height="20" viewBox="0 0 117 20" fill="none" xmlns="http://www.w3.org/2000/svg">
<path d="M3.672 10.818C3.996 10.818 4.28 10.776 4.524 10.692C4.772 10.608 4.978 10.49 5.142 10.338C5.31 10.182 5.436 9.998 5.52 9.786C5.604 9.57 5.646 9.332 5.646 9.072C5.646 8.548 5.482 8.136 5.154 7.836C4.83 7.536 4.336 7.386 3.672 7.386H2.34V10.818H3.672ZM3.672 6.384C4.224 6.384 4.704 6.448 5.112 6.576C5.52 6.704 5.858 6.886 6.126 7.122C6.394 7.354 6.592 7.636 6.72 7.968C6.852 8.3 6.918 8.668 6.918 9.072C6.918 9.476 6.848 9.848 6.708 10.188C6.568 10.524 6.362 10.814 6.09 11.058C5.818 11.302 5.478 11.492 5.07 11.628C4.666 11.76 4.2 11.826 3.672 11.826H2.34V15H1.062V6.384H3.672ZM10.3809 8.808C10.8289 8.808 11.2329 8.882 11.5929 9.03C11.9569 9.174 12.2649 9.384 12.5169 9.66C12.7729 9.932 12.9689 10.262 13.1049 10.65C13.2409 11.034 13.3089 11.466 13.3089 11.946C13.3089 12.426 13.2409 12.86 13.1049 13.248C12.9689 13.636 12.7729 13.966 12.5169 14.238C12.2649 14.51 11.9569 14.72 11.5929 14.868C11.2329 15.012 10.8289 15.084 10.3809 15.084C9.92894 15.084 9.52094 15.012 9.15694 14.868C8.79694 14.72 8.48894 14.51 8.23294 14.238C7.97694 13.966 7.77894 13.636 7.63894 13.248C7.50294 12.86 7.43494 12.426 7.43494 11.946C7.43494 11.466 7.50294 11.034 7.63894 10.65C7.77894 10.262 7.97694 9.932 8.23294 9.66C8.48894 9.384 8.79694 9.174 9.15694 9.03C9.52094 8.882 9.92894 8.808 10.3809 8.808ZM10.3809 14.172C10.9569 14.172 11.3869 13.978 11.6709 13.59C11.9549 13.202 12.0969 12.656 12.0969 11.952C12.0969 11.248 11.9549 10.702 11.6709 10.314C11.3869 9.922 10.9569 9.726 10.3809 9.726C9.79694 9.726 9.36094 9.922 9.07294 10.314C8.78894 10.702 8.64694 11.248 8.64694 11.952C8.64694 12.656 8.78894 13.202 9.07294 13.59C9.36094 13.978 9.79694 14.172 10.3809 14.172ZM22.9992 8.904L21.0372 15H20.1012C19.9892 15 19.9132 14.926 19.8732 14.778L18.5892 10.806C18.5572 10.706 18.5292 10.608 18.5052 10.512C18.4812 10.412 18.4592 10.312 18.4392 10.212C18.4032 10.42 18.3532 10.622 18.2892 10.818L16.9872 14.778C16.9472 14.926 16.8612 15 16.7292 15H15.8412L13.8732 8.904H14.7972C14.8892 8.904 14.9652 8.926 15.0252 8.97C15.0892 9.014 15.1312 9.07 15.1512 9.138L16.2492 12.882C16.2852 13.034 16.3172 13.182 16.3452 13.326C16.3732 13.47 16.3992 13.614 16.4232 13.758C16.4592 13.614 16.4972 13.47 16.5372 13.326C16.5812 13.182 16.6252 13.034 16.6692 12.882L17.8872 9.114C17.9072 9.046 17.9452 8.992 18.0012 8.952C18.0572 8.908 18.1252 8.886 18.2052 8.886H18.7152C18.8032 8.886 18.8752 8.908 18.9312 8.952C18.9912 8.992 19.0312 9.046 19.0512 9.114L20.2392 12.882C20.2832 13.034 20.3252 13.184 20.3652 13.332C20.4052 13.476 20.4412 13.622 20.4732 13.77C20.4972 13.626 20.5252 13.482 20.5572 13.338C20.5892 13.19 20.6252 13.038 20.6652 12.882L21.7812 9.138C21.8012 9.07 21.8412 9.014 21.9012 8.97C21.9652 8.926 22.0372 8.904 22.1172 8.904H22.9992ZM27.9342 11.274C27.9342 11.042 27.9002 10.828 27.8322 10.632C27.7682 10.436 27.6722 10.266 27.5442 10.122C27.4162 9.978 27.2602 9.866 27.0762 9.786C26.8922 9.706 26.6802 9.666 26.4402 9.666C25.9482 9.666 25.5602 9.808 25.2762 10.092C24.9962 10.376 24.8182 10.77 24.7422 11.274H27.9342ZM28.9002 14.13C28.7562 14.298 28.5902 14.444 28.4022 14.568C28.2142 14.688 28.0142 14.786 27.8022 14.862C27.5902 14.938 27.3702 14.994 27.1422 15.03C26.9182 15.066 26.6962 15.084 26.4762 15.084C26.0562 15.084 25.6662 15.014 25.3062 14.874C24.9502 14.73 24.6402 14.522 24.3762 14.25C24.1162 13.974 23.9122 13.634 23.7642 13.23C23.6202 12.822 23.5482 12.354 23.5482 11.826C23.5482 11.402 23.6142 11.008 23.7462 10.644C23.8782 10.276 24.0662 9.956 24.3102 9.684C24.5582 9.412 24.8602 9.198 25.2162 9.042C25.5722 8.886 25.9722 8.808 26.4162 8.808C26.7882 8.808 27.1302 8.87 27.4422 8.994C27.7582 9.114 28.0302 9.29 28.2582 9.522C28.4862 9.754 28.6642 10.04 28.7922 10.38C28.9242 10.72 28.9902 11.108 28.9902 11.544C28.9902 11.724 28.9702 11.846 28.9302 11.91C28.8902 11.97 28.8162 12 28.7082 12H24.7122C24.7242 12.364 24.7762 12.682 24.8682 12.954C24.9602 13.222 25.0862 13.446 25.2462 13.626C25.4102 13.806 25.6042 13.94 25.8282 14.028C26.0522 14.116 26.3022 14.16 26.5782 14.16C26.8382 14.16 27.0622 14.13 27.2502 14.07C27.4422 14.01 27.6062 13.946 27.7422 13.878C27.8822 13.806 27.9982 13.74 28.0902 13.68C28.1862 13.62 28.2702 13.59 28.3422 13.59C28.4382 13.59 28.5122 13.626 28.5642 13.698L28.9002 14.13ZM31.3518 10.074C31.5478 9.674 31.7838 9.36 32.0598 9.132C32.3358 8.904 32.6678 8.79 33.0558 8.79C33.1878 8.79 33.3118 8.806 33.4278 8.838C33.5478 8.866 33.6518 8.91 33.7398 8.97L33.6618 9.852C33.6338 9.96 33.5678 10.014 33.4638 10.014C33.4078 10.014 33.3238 10.004 33.2118 9.984C33.0998 9.96 32.9798 9.948 32.8518 9.948C32.6638 9.948 32.4978 9.976 32.3538 10.032C32.2098 10.084 32.0798 10.164 31.9638 10.272C31.8518 10.376 31.7518 10.506 31.6638 10.662C31.5758 10.814 31.4938 10.988 31.4178 11.184V15H30.2478V8.904H30.9198C31.0478 8.904 31.1338 8.928 31.1778 8.976C31.2258 9.02 31.2598 9.1 31.2798 9.216L31.3518 10.074ZM38.4577 11.274C38.4577 11.042 38.4237 10.828 38.3557 10.632C38.2917 10.436 38.1957 10.266 38.0677 10.122C37.9397 9.978 37.7837 9.866 37.5997 9.786C37.4157 9.706 37.2037 9.666 36.9637 9.666C36.4717 9.666 36.0837 9.808 35.7997 10.092C35.5197 10.376 35.3417 10.77 35.2657 11.274H38.4577ZM39.4237 14.13C39.2797 14.298 39.1137 14.444 38.9257 14.568C38.7377 14.688 38.5377 14.786 38.3257 14.862C38.1137 14.938 37.8937 14.994 37.6657 15.03C37.4417 15.066 37.2197 15.084 36.9997 15.084C36.5797 15.084 36.1897 15.014 35.8297 14.874C35.4737 14.73 35.1637 14.522 34.8997 14.25C34.6397 13.974 34.4357 13.634 34.2877 13.23C34.1437 12.822 34.0717 12.354 34.0717 11.826C34.0717 11.402 34.1377 11.008 34.2697 10.644C34.4017 10.276 34.5897 9.956 34.8337 9.684C35.0817 9.412 35.3837 9.198 35.7397 9.042C36.0957 8.886 36.4957 8.808 36.9397 8.808C37.3117 8.808 37.6537 8.87 37.9657 8.994C38.2817 9.114 38.5537 9.29 38.7817 9.522C39.0097 9.754 39.1877 10.04 39.3157 10.38C39.4477 10.72 39.5137 11.108 39.5137 11.544C39.5137 11.724 39.4937 11.846 39.4537 11.91C39.4137 11.97 39.3397 12 39.2317 12H35.2357C35.2477 12.364 35.2997 12.682 35.3917 12.954C35.4837 13.222 35.6097 13.446 35.7697 13.626C35.9337 13.806 36.1277 13.94 36.3517 14.028C36.5757 14.116 36.8257 14.16 37.1017 14.16C37.3617 14.16 37.5857 14.13 37.7737 14.07C37.9657 14.01 38.1297 13.946 38.2657 13.878C38.4057 13.806 38.5217 13.74 38.6137 13.68C38.7097 13.62 38.7937 13.59 38.8657 13.59C38.9617 13.59 39.0357 13.626 39.0877 13.698L39.4237 14.13ZM44.7012 10.38C44.5092 10.128 44.3012 9.952 44.0772 9.852C43.8572 9.752 43.6092 9.702 43.3332 9.702C42.7972 9.702 42.3812 9.896 42.0852 10.284C41.7932 10.668 41.6472 11.23 41.6472 11.97C41.6472 12.358 41.6792 12.69 41.7432 12.966C41.8112 13.238 41.9072 13.462 42.0312 13.638C42.1592 13.81 42.3152 13.938 42.4992 14.022C42.6832 14.102 42.8912 14.142 43.1232 14.142C43.4632 14.142 43.7572 14.066 44.0052 13.914C44.2532 13.762 44.4852 13.548 44.7012 13.272V10.38ZM45.8772 6.144V15H45.1692C45.0052 15 44.9032 14.922 44.8632 14.766L44.7612 14.064C44.5012 14.372 44.2052 14.62 43.8732 14.808C43.5452 14.992 43.1652 15.084 42.7332 15.084C42.3852 15.084 42.0692 15.016 41.7852 14.88C41.5052 14.744 41.2652 14.546 41.0652 14.286C40.8652 14.022 40.7112 13.696 40.6032 13.308C40.4952 12.92 40.4412 12.474 40.4412 11.97C40.4412 11.518 40.5012 11.098 40.6212 10.71C40.7412 10.322 40.9152 9.986 41.1432 9.702C41.3712 9.418 41.6472 9.196 41.9712 9.036C42.2952 8.872 42.6612 8.79 43.0692 8.79C43.4372 8.79 43.7492 8.85 44.0052 8.97C44.2652 9.09 44.4972 9.26 44.7012 9.48V6.144H45.8772ZM51.7147 13.5C51.9067 13.752 52.1147 13.928 52.3387 14.028C52.5627 14.128 52.8067 14.178 53.0707 14.178C53.6147 14.178 54.0327 13.984 54.3247 13.596C54.6207 13.208 54.7687 12.622 54.7687 11.838C54.7687 11.114 54.6387 10.584 54.3787 10.248C54.1187 9.908 53.7507 9.738 53.2747 9.738C52.9387 9.738 52.6467 9.814 52.3987 9.966C52.1547 10.118 51.9267 10.334 51.7147 10.614V13.5ZM51.7147 9.744C51.9667 9.464 52.2527 9.238 52.5727 9.066C52.8927 8.894 53.2567 8.808 53.6647 8.808C54.0207 8.808 54.3407 8.878 54.6247 9.018C54.9127 9.154 55.1567 9.352 55.3567 9.612C55.5567 9.868 55.7107 10.18 55.8187 10.548C55.9267 10.916 55.9807 11.332 55.9807 11.796C55.9807 12.288 55.9187 12.736 55.7947 13.14C55.6747 13.544 55.5007 13.89 55.2727 14.178C55.0487 14.466 54.7747 14.69 54.4507 14.85C54.1267 15.006 53.7627 15.084 53.3587 15.084C53.1627 15.084 52.9827 15.064 52.8187 15.024C52.6547 14.988 52.5027 14.934 52.3627 14.862C52.2267 14.79 52.1007 14.702 51.9847 14.598C51.8687 14.494 51.7587 14.376 51.6547 14.244L51.6007 14.754C51.5687 14.918 51.4687 15 51.3007 15H50.5447V6.144H51.7147V9.744ZM62.4469 8.904L59.0629 16.77C59.0269 16.858 58.9789 16.926 58.9189 16.974C58.8589 17.022 58.7709 17.046 58.6549 17.046H57.7849L58.9009 14.616L56.3989 8.904H57.4189C57.5189 8.904 57.5969 8.928 57.6529 8.976C57.7089 9.024 57.7489 9.078 57.7729 9.138L59.3209 12.798C59.3529 12.89 59.3829 12.984 59.4109 13.08C59.4429 13.172 59.4689 13.264 59.4889 13.356C59.5169 13.26 59.5469 13.166 59.5789 13.074C59.6109 12.978 59.6449 12.884 59.6809 12.792L61.1749 9.138C61.2029 9.07 61.2469 9.014 61.3069 8.97C61.3669 8.926 61.4349 8.904 61.5109 8.904H62.4469Z" fill="#303030"/>
<path d="M71.0747 7.788C71.0347 7.856 70.9927 7.906 70.9487 7.938C70.9047 7.97 70.8487 7.986 70.7807 7.986C70.7087 7.986 70.6267 7.954 70.5347 7.89C70.4427 7.822 70.3267 7.748 70.1867 7.668C70.0507 7.584 69.8867 7.51 69.6947 7.446C69.5027 7.378 69.2727 7.344 69.0047 7.344C68.7527 7.344 68.5307 7.378 68.3387 7.446C68.1507 7.51 67.9927 7.6 67.8647 7.716C67.7367 7.828 67.6387 7.962 67.5707 8.118C67.5067 8.27 67.4747 8.436 67.4747 8.616C67.4747 8.848 67.5327 9.04 67.6487 9.192C67.7687 9.344 67.9247 9.474 68.1167 9.582C68.3087 9.69 68.5267 9.784 68.7707 9.864C69.0147 9.944 69.2647 10.028 69.5207 10.116C69.7767 10.2 70.0267 10.298 70.2707 10.41C70.5147 10.522 70.7327 10.664 70.9247 10.836C71.1167 11.004 71.2707 11.212 71.3867 11.46C71.5067 11.704 71.5667 12.004 71.5667 12.36C71.5667 12.74 71.5007 13.096 71.3687 13.428C71.2407 13.76 71.0527 14.05 70.8047 14.298C70.5567 14.546 70.2507 14.742 69.8867 14.886C69.5267 15.026 69.1167 15.096 68.6567 15.096C68.3807 15.096 68.1127 15.068 67.8527 15.012C67.5927 14.96 67.3467 14.886 67.1147 14.79C66.8827 14.69 66.6647 14.572 66.4607 14.436C66.2607 14.296 66.0807 14.14 65.9207 13.968L66.2867 13.356C66.3227 13.308 66.3647 13.268 66.4127 13.236C66.4647 13.204 66.5227 13.188 66.5867 13.188C66.6707 13.188 66.7667 13.232 66.8747 13.32C66.9867 13.408 67.1227 13.506 67.2827 13.614C67.4467 13.718 67.6407 13.814 67.8647 13.902C68.0927 13.99 68.3687 14.034 68.6927 14.034C68.9567 14.034 69.1927 14 69.4007 13.932C69.6087 13.86 69.7827 13.76 69.9227 13.632C70.0667 13.5 70.1767 13.342 70.2527 13.158C70.3287 12.974 70.3667 12.77 70.3667 12.546C70.3667 12.294 70.3087 12.088 70.1927 11.928C70.0767 11.768 69.9227 11.634 69.7307 11.526C69.5387 11.418 69.3207 11.326 69.0767 11.25C68.8327 11.174 68.5827 11.096 68.3267 11.016C68.0707 10.932 67.8207 10.836 67.5767 10.728C67.3327 10.62 67.1147 10.48 66.9227 10.308C66.7307 10.132 66.5767 9.914 66.4607 9.654C66.3447 9.39 66.2867 9.066 66.2867 8.682C66.2867 8.374 66.3467 8.076 66.4667 7.788C66.5867 7.5 66.7607 7.246 66.9887 7.026C67.2207 6.802 67.5047 6.624 67.8407 6.492C68.1767 6.356 68.5607 6.288 68.9927 6.288C69.4767 6.288 69.9207 6.366 70.3247 6.522C70.7327 6.674 71.0867 6.894 71.3867 7.182L71.0747 7.788ZM74.5425 15.096C74.0505 15.096 73.6705 14.958 73.4025 14.682C73.1385 14.406 73.0065 14.012 73.0065 13.5V9.852H72.2985C72.2305 9.852 72.1725 9.832 72.1245 9.792C72.0805 9.748 72.0585 9.684 72.0585 9.6V9.126L73.0485 8.988L73.3125 7.17C73.3285 7.102 73.3585 7.05 73.4025 7.014C73.4505 6.974 73.5105 6.954 73.5825 6.954H74.1765V9H75.9045V9.852H74.1765V13.422C74.1765 13.662 74.2345 13.842 74.3505 13.962C74.4705 14.078 74.6225 14.136 74.8065 14.136C74.9145 14.136 75.0065 14.122 75.0825 14.094C75.1625 14.066 75.2305 14.036 75.2865 14.004C75.3425 13.968 75.3905 13.936 75.4305 13.908C75.4705 13.88 75.5065 13.866 75.5385 13.866C75.5785 13.866 75.6085 13.876 75.6285 13.896C75.6525 13.912 75.6765 13.94 75.7005 13.98L76.0485 14.544C75.8565 14.72 75.6285 14.856 75.3645 14.952C75.1005 15.048 74.8265 15.096 74.5425 15.096ZM79.545 8.808C79.993 8.808 80.397 8.882 80.757 9.03C81.121 9.174 81.429 9.384 81.681 9.66C81.937 9.932 82.133 10.262 82.269 10.65C82.405 11.034 82.473 11.466 82.473 11.946C82.473 12.426 82.405 12.86 82.269 13.248C82.133 13.636 81.937 13.966 81.681 14.238C81.429 14.51 81.121 14.72 80.757 14.868C80.397 15.012 79.993 15.084 79.545 15.084C79.093 15.084 78.685 15.012 78.321 14.868C77.961 14.72 77.653 14.51 77.397 14.238C77.141 13.966 76.943 13.636 76.803 13.248C76.667 12.86 76.599 12.426 76.599 11.946C76.599 11.466 76.667 11.034 76.803 10.65C76.943 10.262 77.141 9.932 77.397 9.66C77.653 9.384 77.961 9.174 78.321 9.03C78.685 8.882 79.093 8.808 79.545 8.808ZM79.545 14.172C80.121 14.172 80.551 13.978 80.835 13.59C81.119 13.202 81.261 12.656 81.261 11.952C81.261 11.248 81.119 10.702 80.835 10.314C80.551 9.922 80.121 9.726 79.545 9.726C78.961 9.726 78.525 9.922 78.237 10.314C77.953 10.702 77.811 11.248 77.811 11.952C77.811 12.656 77.953 13.202 78.237 13.59C78.525 13.978 78.961 14.172 79.545 14.172ZM84.883 10.074C85.079 9.674 85.315 9.36 85.591 9.132C85.867 8.904 86.199 8.79 86.587 8.79C86.719 8.79 86.843 8.806 86.959 8.838C87.079 8.866 87.183 8.91 87.271 8.97L87.193 9.852C87.165 9.96 87.099 10.014 86.995 10.014C86.939 10.014 86.855 10.004 86.743 9.984C86.631 9.96 86.511 9.948 86.383 9.948C86.195 9.948 86.029 9.976 85.885 10.032C85.741 10.084 85.611 10.164 85.495 10.272C85.383 10.376 85.283 10.506 85.195 10.662C85.107 10.814 85.025 10.988 84.949 11.184V15H83.779V8.904H84.451C84.579 8.904 84.665 8.928 84.709 8.976C84.757 9.02 84.791 9.1 84.811 9.216L84.883 10.074ZM91.9889 11.274C91.9889 11.042 91.9549 10.828 91.8869 10.632C91.8229 10.436 91.7269 10.266 91.5989 10.122C91.4709 9.978 91.3149 9.866 91.1309 9.786C90.9469 9.706 90.7349 9.666 90.4949 9.666C90.0029 9.666 89.6149 9.808 89.3309 10.092C89.0509 10.376 88.8729 10.77 88.7969 11.274H91.9889ZM92.9549 14.13C92.8109 14.298 92.6449 14.444 92.4569 14.568C92.2689 14.688 92.0689 14.786 91.8569 14.862C91.6449 14.938 91.4249 14.994 91.1969 15.03C90.9729 15.066 90.7509 15.084 90.5309 15.084C90.1109 15.084 89.7209 15.014 89.3609 14.874C89.0049 14.73 88.6949 14.522 88.4309 14.25C88.1709 13.974 87.9669 13.634 87.8189 13.23C87.6749 12.822 87.6029 12.354 87.6029 11.826C87.6029 11.402 87.6689 11.008 87.8009 10.644C87.9329 10.276 88.1209 9.956 88.3649 9.684C88.6129 9.412 88.9149 9.198 89.2709 9.042C89.6269 8.886 90.0269 8.808 90.4709 8.808C90.8429 8.808 91.1849 8.87 91.4969 8.994C91.8129 9.114 92.0849 9.29 92.3129 9.522C92.5409 9.754 92.7189 10.04 92.8469 10.38C92.9789 10.72 93.0449 11.108 93.0449 11.544C93.0449 11.724 93.0249 11.846 92.9849 11.91C92.9449 11.97 92.8709 12 92.7629 12H88.7669C88.7789 12.364 88.8309 12.682 88.9229 12.954C89.0149 13.222 89.1409 13.446 89.3009 13.626C89.4649 13.806 89.6589 13.94 89.8829 14.028C90.1069 14.116 90.3569 14.16 90.6329 14.16C90.8929 14.16 91.1169 14.13 91.3049 14.07C91.4969 14.01 91.6609 13.946 91.7969 13.878C91.9369 13.806 92.0529 13.74 92.1449 13.68C92.2409 13.62 92.3249 13.59 92.3969 13.59C92.4929 13.59 92.5669 13.626 92.6189 13.698L92.9549 14.13ZM101.434 6.384V15H100.156V11.118H95.6624V15H94.3784V6.384H95.6624V10.188H100.156V6.384H101.434ZM108.29 8.904V15H107.588C107.428 15 107.324 14.922 107.276 14.766L107.192 14.154C107.06 14.294 106.922 14.422 106.778 14.538C106.634 14.654 106.48 14.754 106.316 14.838C106.152 14.918 105.978 14.98 105.794 15.024C105.61 15.072 105.412 15.096 105.2 15.096C104.864 15.096 104.568 15.04 104.312 14.928C104.06 14.816 103.848 14.66 103.676 14.46C103.504 14.256 103.374 14.012 103.286 13.728C103.198 13.444 103.154 13.13 103.154 12.786V8.904H104.33V12.786C104.33 13.222 104.43 13.562 104.63 13.806C104.83 14.046 105.136 14.166 105.548 14.166C105.848 14.166 106.128 14.096 106.388 13.956C106.648 13.812 106.892 13.616 107.12 13.368V8.904H108.29ZM111.094 13.5C111.286 13.752 111.494 13.928 111.718 14.028C111.942 14.128 112.186 14.178 112.45 14.178C112.994 14.178 113.412 13.984 113.704 13.596C114 13.208 114.148 12.622 114.148 11.838C114.148 11.114 114.018 10.584 113.758 10.248C113.498 9.908 113.13 9.738 112.654 9.738C112.318 9.738 112.026 9.814 111.778 9.966C111.534 10.118 111.306 10.334 111.094 10.614V13.5ZM111.094 9.744C111.346 9.464 111.632 9.238 111.952 9.066C112.272 8.894 112.636 8.808 113.044 8.808C113.4 8.808 113.72 8.878 114.004 9.018C114.292 9.154 114.536 9.352 114.736 9.612C114.936 9.868 115.09 10.18 115.198 10.548C115.306 10.916 115.36 11.332 115.36 11.796C115.36 12.288 115.298 12.736 115.174 13.14C115.054 13.544 114.88 13.89 114.652 14.178C114.428 14.466 114.154 14.69 113.83 14.85C113.506 15.006 113.142 15.084 112.738 15.084C112.542 15.084 112.362 15.064 112.198 15.024C112.034 14.988 111.882 14.934 111.742 14.862C111.606 14.79 111.48 14.702 111.364 14.598C111.248 14.494 111.138 14.376 111.034 14.244L110.98 14.754C110.948 14.918 110.848 15 110.68 15H109.924V6.144H111.094V9.744Z" fill="#FF9419"/>
</svg>
