<svg xmlns="http://www.w3.org/2000/svg" width="83" height="11" xmlns:v="https://vecta.io/nano"><path d="M1.129 6.053V9H.067V1.119h2.327c.499 0 .932.058 1.301.173s.674.28.916.492.423.469.542.77a2.71 2.71 0 0 1 .179 1.007c0 .367-.064.702-.192 1.007s-.316.567-.564.787a2.63 2.63 0 0 1-.921.514 3.96 3.96 0 0 1-1.259.184H1.129zm0-.847h1.265c.304 0 .573-.04.806-.121s.428-.193.586-.338a1.39 1.39 0 0 0 .357-.52 1.79 1.79 0 0 0 .121-.665c0-.502-.155-.895-.465-1.177s-.778-.424-1.405-.424H1.129v3.245zm7.485-1.865c.407 0 .775.068 1.103.204s.607.328.836.577.405.551.528.905.184.749.184 1.185-.061.836-.184 1.188a2.56 2.56 0 0 1-.528.902c-.229.249-.508.441-.836.575s-.696.201-1.103.201-.775-.067-1.103-.201a2.32 2.32 0 0 1-.839-.575 2.57 2.57 0 0 1-.534-.902c-.125-.352-.187-.748-.187-1.188a3.55 3.55 0 0 1 .187-1.185 2.58 2.58 0 0 1 .534-.905 2.35 2.35 0 0 1 .839-.577c.328-.136.696-.203 1.103-.203zm0 4.972c.55 0 .961-.184 1.232-.553s.407-.883.407-1.543-.136-1.181-.407-1.551-.682-.555-1.232-.555a1.71 1.71 0 0 0-.726.143 1.36 1.36 0 0 0-.514.413c-.138.18-.24.401-.308.663a3.54 3.54 0 0 0-.102.888 3.52 3.52 0 0 0 .102.885c.068.26.17.479.308.657a1.37 1.37 0 0 0 .514.41 1.71 1.71 0 0 0 .726.143zm3.135-4.884h.77c.081 0 .147.02.198.061s.086.088.104.143l1.067 3.586.082.382.066.371.099-.371.115-.382 1.177-3.608a.29.29 0 0 1 .096-.138c.046-.037.104-.055.173-.055h.424c.073 0 .134.018.181.055s.081.083.099.138l1.149 3.608.107.38.091.369.072-.38.093-.369 1.089-3.586c.018-.059.053-.107.105-.146s.112-.058.181-.058h.737L18.223 9h-.776c-.095 0-.161-.062-.198-.187l-1.232-3.779a2.12 2.12 0 0 1-.071-.256l-.055-.256-.055.258c-.018.088-.042.174-.072.258l-1.248 3.773c-.04.125-.115.187-.225.187h-.737L11.75 3.427zm11.358-.088a2.48 2.48 0 0 1 .924.168c.282.112.526.273.732.484a2.19 2.19 0 0 1 .481.781c.115.31.173.663.173 1.059 0 .154-.017.257-.049.308s-.095.077-.187.077h-3.707a3.06 3.06 0 0 0 .143.918 1.88 1.88 0 0 0 .363.652c.154.174.337.304.55.391a1.89 1.89 0 0 0 .715.129 2.09 2.09 0 0 0 .635-.085c.178-.057.331-.118.459-.184l.322-.184c.086-.057.16-.085.223-.085.081 0 .143.031.187.093l.275.357a1.86 1.86 0 0 1-.434.382 2.73 2.73 0 0 1-.542.267 3.44 3.44 0 0 1-.597.157c-.205.035-.409.052-.61.052-.385 0-.74-.065-1.064-.195s-.605-.321-.841-.572-.421-.562-.553-.932-.198-.796-.198-1.276c0-.389.06-.752.179-1.089a2.57 2.57 0 0 1 .514-.877c.223-.247.497-.442.82-.583a2.69 2.69 0 0 1 1.089-.212zm.022.721c-.473 0-.845.137-1.116.41s-.44.652-.506 1.136h3.031c0-.227-.031-.435-.093-.624a1.39 1.39 0 0 0-.275-.49 1.23 1.23 0 0 0-.443-.319c-.174-.075-.373-.113-.597-.113zM26.665 9V3.429h.561c.106 0 .18.02.22.061s.068.11.082.209l.066.869c.191-.389.426-.692.707-.91a1.56 1.56 0 0 1 .987-.327c.154 0 .293.017.418.052s.24.083.346.146l-.127.732c-.026.092-.082.138-.171.138-.051 0-.13-.017-.236-.052s-.255-.052-.445-.052a1.26 1.26 0 0 0-.855.297c-.229.198-.421.486-.575.864V9h-.979zm6.639-5.659a2.48 2.48 0 0 1 .924.168c.282.112.526.273.732.484a2.19 2.19 0 0 1 .481.781c.115.31.173.663.173 1.059 0 .154-.017.257-.05.308s-.095.077-.187.077H31.67a3.06 3.06 0 0 0 .143.918 1.88 1.88 0 0 0 .363.652c.154.174.337.304.55.391a1.89 1.89 0 0 0 .715.129 2.09 2.09 0 0 0 .635-.085c.178-.057.331-.118.459-.184l.322-.184c.086-.057.16-.085.223-.085.081 0 .143.031.187.093l.275.357a1.86 1.86 0 0 1-.434.382 2.73 2.73 0 0 1-.542.267 3.44 3.44 0 0 1-.597.157c-.205.035-.409.052-.611.052-.385 0-.74-.065-1.064-.195s-.605-.321-.841-.572-.421-.562-.553-.932-.198-.796-.198-1.276c0-.389.06-.752.179-1.089a2.57 2.57 0 0 1 .514-.877c.223-.247.497-.442.82-.583a2.69 2.69 0 0 1 1.089-.212zm.022.721c-.473 0-.845.137-1.116.41s-.44.652-.506 1.136h3.031c0-.227-.031-.435-.093-.624a1.39 1.39 0 0 0-.275-.49 1.23 1.23 0 0 0-.443-.319c-.174-.075-.373-.113-.597-.113zM40.784 9c-.139 0-.227-.068-.264-.203l-.088-.677c-.238.29-.511.522-.817.696s-.657.261-1.053.261a2.01 2.01 0 0 1-.869-.184 1.8 1.8 0 0 1-.666-.542 2.58 2.58 0 0 1-.424-.891c-.099-.356-.148-.764-.148-1.226 0-.411.055-.793.165-1.147s.269-.661.476-.921a2.23 2.23 0 0 1 .756-.613c.297-.148.634-.223 1.012-.223.341 0 .633.058.875.173s.458.278.649.487V.899h.979V9h-.583zm-1.898-.715c.319 0 .599-.073.839-.22s.461-.354.663-.622V4.749c-.18-.242-.377-.412-.591-.509s-.452-.146-.712-.146c-.521 0-.92.185-1.199.556s-.418.898-.418 1.584c0 .363.031.674.093.932s.154.471.275.638a1.08 1.08 0 0 0 .445.366c.176.077.378.115.605.115zM45.167 9V.899h.984v3.333c.231-.268.496-.483.795-.646s.641-.245 1.026-.245a2.05 2.05 0 0 1 .874.181c.26.121.482.302.666.542s.325.537.423.891.149.762.149 1.224c0 .411-.055.793-.165 1.147s-.269.66-.476.919a2.22 2.22 0 0 1-.759.61c-.299.148-.635.223-1.009.223-.359 0-.665-.07-.916-.209s-.47-.334-.657-.583l-.049.506c-.029.139-.114.209-.253.209h-.633zm2.486-4.878c-.319 0-.599.073-.839.22s-.461.354-.663.621v2.695c.176.242.371.412.586.511s.454.149.718.149c.521 0 .92-.185 1.199-.556s.418-.898.418-1.584a3.96 3.96 0 0 0-.096-.935 1.83 1.83 0 0 0-.278-.641 1.08 1.08 0 0 0-.446-.366 1.48 1.48 0 0 0-.599-.115zm5.121 6.523a.51.51 0 0 1-.124.176c-.05.044-.126.066-.228.066h-.726l1.017-2.211-2.299-5.247h.847a.29.29 0 0 1 .198.063.39.39 0 0 1 .104.14l1.491 3.509a2.54 2.54 0 0 1 .085.242l.063.248.077-.248.088-.247 1.447-3.504c.022-.059.06-.107.113-.146a.29.29 0 0 1 .173-.058h.781l-3.108 7.216z" fill="#000"/><path d="M59.049 9V1.119h2.514c.484 0 .901.048 1.251.143s.638.231.864.407.392.391.5.646.162.542.162.861c0 .194-.03.381-.091.561s-.152.346-.275.5-.277.292-.462.413-.402.22-.652.297c.576.114 1.01.321 1.303.622s.44.697.44 1.188a2.21 2.21 0 0 1-.184.913c-.123.275-.302.512-.539.71s-.526.351-.869.459A3.9 3.9 0 0 1 61.838 9H59.05zm1.067-3.591v2.745h1.705c.304 0 .566-.035.784-.105a1.46 1.46 0 0 0 .539-.294 1.14 1.14 0 0 0 .311-.451 1.61 1.61 0 0 0 .099-.575c0-.407-.144-.729-.432-.965s-.723-.355-1.306-.355h-1.7zm0-.759h1.408c.301 0 .561-.033.781-.099a1.58 1.58 0 0 0 .547-.275c.145-.117.252-.259.322-.426a1.4 1.4 0 0 0 .105-.547c0-.462-.139-.801-.418-1.018s-.711-.324-1.298-.324h-1.447v2.69zm8.101-1.309a2.48 2.48 0 0 1 .924.168 2.07 2.07 0 0 1 .731.484c.205.211.366.471.481.781s.173.663.173 1.059c0 .154-.016.257-.049.308s-.095.077-.187.077h-3.707a3.06 3.06 0 0 0 .143.918 1.88 1.88 0 0 0 .363.652c.154.174.337.304.55.391a1.89 1.89 0 0 0 .715.129 2.09 2.09 0 0 0 .635-.085c.178-.057.331-.118.459-.184l.322-.184c.086-.057.16-.085.223-.085.081 0 .143.031.187.093l.275.357a1.86 1.86 0 0 1-.434.382 2.73 2.73 0 0 1-.542.267 3.44 3.44 0 0 1-.597.157c-.205.035-.409.052-.611.052-.385 0-.74-.065-1.064-.195s-.605-.321-.841-.572-.421-.562-.553-.932-.198-.796-.198-1.276c0-.389.06-.752.179-1.089a2.57 2.57 0 0 1 .514-.877 2.37 2.37 0 0 1 .819-.583 2.69 2.69 0 0 1 1.089-.212zm.022.721c-.473 0-.845.137-1.117.41s-.44.652-.506 1.136h3.031c0-.227-.031-.435-.094-.624a1.39 1.39 0 0 0-.275-.49 1.23 1.23 0 0 0-.443-.319c-.174-.075-.373-.113-.597-.113zm5.743-.721a2.48 2.48 0 0 1 .924.168 2.07 2.07 0 0 1 .731.484c.205.211.366.471.481.781s.173.663.173 1.059c0 .154-.017.257-.05.308s-.095.077-.187.077h-3.707a3.06 3.06 0 0 0 .143.918 1.88 1.88 0 0 0 .363.652c.154.174.337.304.55.391a1.89 1.89 0 0 0 .715.129 2.09 2.09 0 0 0 .635-.085c.178-.057.331-.118.459-.184l.322-.184c.086-.057.16-.085.223-.085.081 0 .143.031.187.093l.275.357a1.86 1.86 0 0 1-.434.382 2.73 2.73 0 0 1-.542.267 3.44 3.44 0 0 1-.597.157c-.205.035-.409.052-.611.052-.385 0-.74-.065-1.064-.195s-.605-.321-.841-.572-.421-.562-.553-.932-.198-.796-.198-1.276c0-.389.06-.752.179-1.089a2.57 2.57 0 0 1 .514-.877c.223-.247.497-.442.82-.583a2.69 2.69 0 0 1 1.089-.212zm.022.721c-.473 0-.845.137-1.117.41s-.44.652-.506 1.136h3.031c0-.227-.031-.435-.093-.624a1.39 1.39 0 0 0-.275-.49 1.23 1.23 0 0 0-.443-.319c-.174-.075-.373-.113-.597-.113zm3.536 6.825V3.429h.583c.139 0 .227.068.264.204l.083.66a2.97 2.97 0 0 1 .817-.699c.306-.176.659-.264 1.059-.264a2.01 2.01 0 0 1 .869.184 1.79 1.79 0 0 1 .665.544c.183.24.325.538.424.894s.148.765.148 1.227c0 .411-.055.793-.165 1.147s-.268.66-.473.919a2.21 2.21 0 0 1-.756.61 2.23 2.23 0 0 1-1.009.223c-.345 0-.639-.057-.883-.171a1.99 1.99 0 0 1-.646-.484v2.464h-.979zm2.481-6.765c-.319 0-.599.073-.839.22s-.461.354-.663.621v2.695c.18.242.377.412.591.511s.454.149.718.149c.517 0 .915-.185 1.194-.556s.418-.898.418-1.584a3.96 3.96 0 0 0-.096-.935 1.83 1.83 0 0 0-.278-.641 1.08 1.08 0 0 0-.446-.366 1.48 1.48 0 0 0-.599-.115z" fill="#ff9419"/></svg>