<?xml version="1.0" encoding="UTF-8"?><svg version="1.1" width="120px" height="120px" viewBox="0 0 120.0 120.0" xmlns="http://www.w3.org/2000/svg" xmlns:xlink="http://www.w3.org/1999/xlink"><defs><clipPath id="i0"><path d="M414,0 L414,812 L0,812 L0,0 L414,0 Z"></path></clipPath><clipPath id="i1"><path d="M59.127003,7.39804763 C60.1454675,13.1494955 47.5188675,18.9205996 31.2077069,21.9240898 C14.8965463,24.92758 1.08239312,23.9880065 0.0599963604,18.24049 C-0.9624004,12.4929734 11.2001888,4.07612458 27.519214,1.0844282 C43.8382392,-1.90726818 58.1085386,1.64659979 59.127003,7.39804763 Z"></path></clipPath><clipPath id="i2"><path d="M58.5756689,7.20787549 C59.5862688,12.8138663 47.0737053,18.4355823 30.9159042,21.3604471 C14.7581031,24.2853118 1.06978342,23.3732572 0.0591835473,17.7711977 C-0.951416327,12.1691381 11.0971363,3.96850911 27.262802,1.05543813 C43.4284677,-1.85763285 57.565069,1.60581591 58.5756689,7.20787549 Z"></path></clipPath><linearGradient id="i3" x1="20.584467px" y1="-20.7570162px" x2="39.4594841px" y2="51.1158357px" gradientUnits="userSpaceOnUse"><stop stop-color="#2F2921" offset="0%"></stop><stop stop-color="#4C3820" offset="16.75%"></stop><stop stop-color="#975E1C" offset="53.22%"></stop><stop stop-color="#FF9319" offset="100%"></stop></linearGradient><clipPath id="i4"><path d="M33.0664122,4.08657442 C33.636595,7.23159032 26.5820574,10.4159189 17.4709293,12.0591897 C8.35980127,13.7024605 0.62104425,13.1953267 0.03513226,10.0345857 C-0.55077973,6.87384476 6.25995561,2.25853392 15.3710837,0.599538034 C24.4822117,-1.05945786 32.4765679,0.925833434 33.0664122,4.08657442 Z"></path></clipPath><clipPath id="i5"><path d="M22.5718923,0 L22.9427575,0.00220623467 C29.3368148,0.0747207187 33.9338513,1.92365194 34.4238301,4.646761 C34.6558355,5.93621752 34.0581267,7.90185246 29.8741645,9.96183788 C27.0114536,11.3692325 22.8864759,12.6036512 18.2620967,13.4370805 C15.1949064,14.0149771 12.0844609,14.3255474 8.96615079,14.3648601 C3.54351567,14.3648601 0.460596206,13.1265101 0.0437729119,10.8267172 C-0.640446459,7.04090436 6.78765924,2.25654891 15.9459748,0.605415562 C18.132331,0.208357304 20.3501455,0.00393126988 22.5718923,0 Z M22.5718923,0.703697309 C20.3934007,0.707628578 18.2149092,0.908123342 16.0718083,1.29731906 C6.96068023,2.95631495 0.165674064,7.58735087 0.735856873,10.7323668 C1.10156033,12.7333831 4.32997472,13.6729566 8.96615079,13.6729566 C12.0412057,13.6336439 15.1044637,13.3270049 18.1244664,12.7569708 C27.2355944,11.1137 34.2901321,7.92937135 33.7199493,4.78435544 C33.2913291,2.41379971 28.6866114,0.719422388 22.5600954,0.719422388 Z"></path></clipPath><clipPath id="i6"><path d="M2.92150728,0 C4.53504016,7.34571978e-05 5.84311945,0.515823748 5.84311945,1.15196052 C5.84311945,1.78809729 4.53514506,2.30372848 2.92161218,2.30365502 C1.30807929,2.30358156 0,1.78783127 0,1.1516945 C0,0.515557736 1.30797439,-7.34571979e-05 2.92150728,0 Z"></path></clipPath><clipPath id="i7"><path d="M4.11291612,0 C6.3844577,0.000103413498 8.22597974,0.725322352 8.22597974,1.61982184 C8.22597974,2.51432132 6.38460521,3.23937259 4.11306362,3.23926918 C1.84152204,3.23916576 0,2.51394683 0,1.61944734 C0,0.724947858 1.84137454,-0.000103413498 4.11291612,0 Z"></path></clipPath><clipPath id="i8"><path d="M4.11291612,0 C6.3844577,0.000103413498 8.22597974,0.725322352 8.22597974,1.61982184 C8.22597974,2.51432132 6.38460521,3.23937259 4.11306362,3.23926918 C1.84152204,3.23916576 0,2.51394683 0,1.61944734 C0,0.724947858 1.84137454,-0.000103413498 4.11291612,0 Z"></path></clipPath><clipPath id="i9"><path d="M2.92150728,0 C4.53504016,7.34571978e-05 5.84311945,0.515823748 5.84311945,1.15196052 C5.84311945,1.78809729 4.53514506,2.30372848 2.92161218,2.30365502 C1.30807929,2.30358156 0,1.78783127 0,1.1516945 C0,0.515557736 1.30797439,-7.34571979e-05 2.92150728,0 Z"></path></clipPath><clipPath id="i10"><path d="M2.92150728,0 C4.53504016,7.34571979e-05 5.84311945,0.515823748 5.84311945,1.15196052 C5.84311945,1.78809729 4.53514506,2.30372848 2.92161218,2.30365502 C1.30807929,2.30358156 0,1.78783127 0,1.1516945 C0,0.515557736 1.30797439,-7.34571979e-05 2.92150728,0 Z"></path></clipPath><clipPath id="i11"><path d="M4.11291612,0 C6.3844577,0.000103413498 8.22597974,0.725322352 8.22597974,1.61982184 C8.22597974,2.51432132 6.38460521,3.23937259 4.11306362,3.23926918 C1.84152204,3.23916576 0,2.51394683 0,1.61944734 C0,0.724947858 1.84137454,-0.000103413498 4.11291612,0 Z"></path></clipPath><clipPath id="i12"><path d="M4.11291612,0 C6.3844577,0.000103413498 8.22597974,0.725322352 8.22597974,1.61982184 C8.22597974,2.51432132 6.38460521,3.23937259 4.11306362,3.23926918 C1.84152204,3.23916576 0,2.51394683 0,1.61944734 C0,0.724947858 1.84137454,-0.000103413498 4.11291612,0 Z"></path></clipPath><clipPath id="i13"><path d="M2.92150728,0 C4.53504016,7.34571978e-05 5.84311945,0.515823748 5.84311945,1.15196052 C5.84311945,1.78809729 4.53514506,2.30372848 2.92161218,2.30365502 C1.30807929,2.30358156 0,1.78783127 0,1.1516945 C0,0.515557736 1.30797439,-7.34571979e-05 2.92150728,0 Z"></path></clipPath><clipPath id="i14"><path d="M20.9905919,0.525876263 C29.2051567,-0.936556133 36.401257,0.824652774 36.9124553,3.67089217 L61.7095091,84.5331823 L0,84.5331823 L7.16464191,9.0174192 C6.64951124,6.17117981 12.7760272,1.98830866 20.9905919,0.525876263 Z"></path></clipPath><linearGradient id="i15" x1="25.733742px" y1="7.14426516px" x2="30.7116976px" y2="82.39752px" gradientUnits="userSpaceOnUse"><stop stop-color="#FFDCB3" offset="63.77%"></stop><stop stop-color="rgba(255, 200, 136, 0.8353)" offset="69.74%"></stop><stop stop-color="rgba(255, 181, 96, 0.657)" offset="76.2%"></stop><stop stop-color="rgba(255, 167, 65, 0.4809)" offset="82.58%"></stop><stop stop-color="rgba(255, 156, 43, 0.3101)" offset="88.76%"></stop><stop stop-color="rgba(255, 150, 29, 0.1471)" offset="94.67%"></stop><stop stop-color="rgba(255, 147, 25, 0)" offset="100%"></stop></linearGradient><clipPath id="i16"><path d="M19.7506866,0.000275053099 C30.2092976,0.0132710527 38.6151392,0.48515633 38.6151392,1.06537414 C38.6151392,1.65376403 29.9708458,2.13074828 19.3075696,2.13074828 L18.8644526,2.13047322 C8.40584159,2.11747722 0,1.64559194 0,1.06537414 C0,0.476984249 8.64429335,0 19.3075696,0 Z"></path></clipPath><clipPath id="i17"><path d="M14.038294,0.144972445 C17.514443,-0.601968833 20.9316075,1.61133611 21.6787436,5.08264741 C22.4494735,4.46150677 23.4089535,4.12341756 24.3998919,4.12341756 L24.6396563,4.1299488 C25.5955423,4.18208421 26.5094171,4.54497066 27.2390091,5.16913535 C29.0753909,6.73378076 29.2916672,9.48960095 27.7266137,11.325504 L29.4017715,11.325504 L29.5417509,11.3317838 C30.3254846,11.4024428 30.9392989,12.0606515 30.9392989,12.8626305 C30.9392989,13.7117848 30.2511472,14.399757 29.4017715,14.399757 L1.52966285,14.399757 L1.53752744,14.3801007 L1.39754797,14.3738209 C0.613814294,14.3031618 0,13.6449532 0,12.8429742 C0,11.9938199 0.688151666,11.3058476 1.53752744,11.3058476 L4.19575901,11.3058476 L4.19575901,9.41490682 L4.20082745,9.22704876 C4.29839629,7.42345654 5.79240195,5.99077076 7.62078816,5.99077076 C8.0808667,5.98683949 8.53701295,6.08118996 8.95776854,6.26202838 C9.03641444,3.29391962 11.1362601,0.766113086 14.038294,0.144972445 Z"></path></clipPath><linearGradient id="i18" x1="22.0298976px" y1="-52.9672699px" x2="13.7026726px" y2="30.5606571px" gradientUnits="userSpaceOnUse"><stop stop-color="#FF9319" offset="0%"></stop><stop stop-color="#FFFFFF" offset="100%"></stop></linearGradient><clipPath id="i19"><path d="M8.08294539,2.97872551 C9.0699515,0.541338182 11.8461519,-0.638042782 14.2881073,0.348705958 C16.7261303,1.3354547 17.9058189,4.11093123 16.9188128,6.55224983 L18.7237363,6.55224983 C18.7748561,6.54831856 18.825976,6.54831856 18.8770958,6.55224983 C19.7068101,6.5954938 20.3438419,7.29919111 20.3005867,8.12868905 C20.2573314,8.958187 19.5534506,9.59505272 18.7237363,9.55180875 L1.57892908,9.55180875 C1.52780924,9.55574002 1.4766894,9.55574002 1.42556957,9.55180875 C0.595855273,9.50856478 -0.0411765551,8.80486747 0.00207869243,7.97536953 C0.04533394,7.14587158 0.749214787,6.50900586 1.57892908,6.55224983 L3.8753895,6.55224983 C3.8753895,6.17091665 3.95010311,5.78958347 4.09953032,5.43970045 C4.70510379,4.00085568 6.36846467,3.32467726 7.80768473,3.93402409 C7.86666916,3.60772869 7.95711195,3.28536456 8.08294539,2.97872551 Z"></path></clipPath><linearGradient id="i20" x1="18.9472873px" y1="-50.8271108px" x2="8.9546566px" y2="16.0507482px" gradientUnits="userSpaceOnUse"><stop stop-color="#FF9319" offset="0%"></stop><stop stop-color="#FFFFFF" offset="100%"></stop></linearGradient><clipPath id="i21"><path d="M15.1996561,1.29725478 L20.0916516,27.5009644 C20.2901904,28.5650344 19.376912,29.5108744 18.296861,29.3611164 L1.37738624,26.9846934 C0.293364502,26.8309944 -0.318134939,25.6723403 0.170270458,24.7028543 L12.2017205,0.875567771 C12.8886647,-0.48407726 14.9217018,-0.196384253 15.1996561,1.29725478 Z"></path></clipPath><clipPath id="i22"><path d="M1.48546529,0.0122152553 L28.9433785,3.87045434 C29.6144395,3.96503834 30.0829911,4.58377536 29.9876925,5.24980437 L29.9043062,5.83701339 C29.8090076,6.5030424 29.1855958,6.96808041 28.5145347,6.87349641 L1.05662152,3.01525732 C0.385560451,2.92067332 -0.0829910687,2.30193631 0.0123075454,1.63590729 L0.0956938327,1.04869828 C0.190992447,0.382669264 0.814404214,-0.0823687469 1.48546529,0.0122152553 Z"></path></clipPath><clipPath id="i23"><path d="M3.33148072,0 L12.9407576,1.34782203 L14.2947921,8.60714419 L0,6.59723415 L3.33148072,0 Z"></path></clipPath></defs><g transform="translate(-146.0 -169.0)"><g clip-path="url(#i0)"><g transform="translate(146.0 169.0)"><g transform="translate(4.973799150320701e-14 8.571428571428562)"><g transform="translate(23.70101012531972 0.0)"><g clip-path="url(#i1)"><polygon points="-5.689893e-16,2.22044605e-16 59.1845451,2.22044605e-16 59.1845451,23.594928 -5.689893e-16,23.594928 -5.689893e-16,2.22044605e-16" stroke="none" fill="#FFFFFF"></polygon></g></g><g transform="translate(23.70575523364839 0.6029554751943831)"><g clip-path="url(#i2)"><polygon points="1.38777878e-17,-4.4408921e-16 58.6328374,-4.4408921e-16 58.6328374,22.9881892 1.38777878e-17,22.9881892 1.38777878e-17,-4.4408921e-16" stroke="none" fill="url(#i3)"></polygon></g></g><g transform="translate(37.170391624819004 9.892418989974528)"><g clip-path="url(#i4)"><polygon points="-1.31838984e-16,-5.55111512e-16 33.0986885,-5.55111512e-16 33.0986885,12.9746523 -1.31838984e-16,12.9746523 -1.31838984e-16,-5.55111512e-16" stroke="none" fill="#FFFFFF"></polygon></g></g><g transform="translate(36.49719307871185 9.194637963680567)"><g clip-path="url(#i5)"><polygon points="0,0 34.4667753,0 34.4667753,14.3648601 0,14.3648601 0,0" stroke="none" fill="#FFFFFF"></polygon></g></g><g transform="translate(26.585868001415058 17.712046809785168) rotate(-10.218748348810058)"><g clip-path="url(#i6)"><polygon points="1.81892546e-12,0 5.84311945,0 5.84311945,2.30365502 1.81892546e-12,2.30365502 1.81892546e-12,0" stroke="none" fill="#FFFFFF"></polygon></g></g><g transform="translate(36.30942853819559 7.843354150474404) rotate(-10.218748348810058)"><g clip-path="url(#i7)"><polygon points="-8.99077806e-17,0 8.22597974,0 8.22597974,3.23926918 -8.99077806e-17,3.23926918 -8.99077806e-17,0" stroke="none" fill="#FFFFFF"></polygon></g></g><g transform="translate(55.84804052818002 4.317876630554091) rotate(-10.218748348810058)"><g clip-path="url(#i8)"><polygon points="-8.99077806e-17,2.27373675e-13 8.22597974,2.27373675e-13 8.22597974,3.23926918 -8.99077806e-17,3.23926918 -8.99077806e-17,2.27373675e-13" stroke="none" fill="#FFFFFF"></polygon></g></g><g transform="translate(73.57551960385845 9.245737117614286) rotate(-10.218748348810058)"><g clip-path="url(#i9)"><polygon points="1.81892546e-12,0 5.84311945,0 5.84311945,2.30365502 1.81892546e-12,2.30365502 1.81892546e-12,0" stroke="none" fill="#FFFFFF"></polygon></g></g><g transform="translate(26.19263847818952 18.105134485096606) rotate(-10.218748348810058)"><g clip-path="url(#i10)"><polygon points="-6.39392711e-17,0 5.84311945,0 5.84311945,2.30365502 -6.39392711e-17,2.30365502 -6.39392711e-17,0" stroke="none" fill="#FFC82B"></polygon></g></g><g transform="translate(35.91619901496986 8.236481138484805) rotate(-10.218748348810058)"><g clip-path="url(#i11)"><polygon points="1.8188995e-12,0 8.22597974,0 8.22597974,3.23926918 1.8188995e-12,3.23926918 1.8188995e-12,0" stroke="none" fill="#FFC82B"></polygon></g></g><g transform="translate(55.45481100495448 4.710964305865696) rotate(-10.218748348810058)"><g clip-path="url(#i12)"><polygon points="-8.99077806e-17,0 8.22597974,0 8.22597974,3.23926918 -8.99077806e-17,3.23926918 -8.99077806e-17,0" stroke="none" fill="#FFC82B"></polygon></g></g><g transform="translate(73.18229008063267 9.638824792925885) rotate(-10.218748348810058)"><g clip-path="url(#i13)"><polygon points="-6.39392711e-17,0 5.84311945,0 5.84311945,2.30365502 -6.39392711e-17,2.30365502 -6.39392711e-17,0" stroke="none" fill="#FFC82B"></polygon></g></g><g transform="translate(32.0660140162603 11.365612838690609)"><g clip-path="url(#i14)"><polygon points="0,1.33226763e-15 61.7095091,1.33226763e-15 61.7095091,84.5331823 0,84.5331823 0,1.33226763e-15" stroke="none" fill="url(#i15)"></polygon></g></g><g transform="translate(43.68594642758087 100.7263945821268)"><g clip-path="url(#i16)"><polygon points="0,0 38.6151392,0 38.6151392,2.13074828 0,2.13074828 0,0" stroke="none" fill="#FF9319"></polygon></g></g><g transform="translate(89.06070111259876 10.81087442536229)"><g clip-path="url(#i17)"><polygon points="0,8.8817842e-16 30.9392989,8.8817842e-16 30.9392989,14.399757 0,14.399757 0,8.8817842e-16" stroke="none" fill="url(#i18)"></polygon></g></g><g transform="translate(0.0 40.44547930201678)"><g clip-path="url(#i19)"><polygon points="2.70616862e-16,-1.05471187e-15 20.3026654,-1.05471187e-15 20.3026654,9.5547572 2.70616862e-16,9.5547572 2.70616862e-16,-1.05471187e-15" stroke="none" fill="url(#i20)"></polygon></g></g><g transform="translate(44.57142857142857 35.99999999999999)"><g transform="translate(5.178759476487976 0.0)"><g clip-path="url(#i21)"><polygon points="-4.4408921e-15,-4.4408921e-16 20.1189557,-4.4408921e-16 20.1189557,29.3767965 -4.4408921e-15,29.3767965 -4.4408921e-15,-4.4408921e-16" stroke="none" fill="#FF9319"></polygon></g></g><g transform="translate(0.0 24.828574050596686)"><g clip-path="url(#i22)"><polygon points="3.99680289e-15,3.99680289e-15 30,3.99680289e-15 30,6.88571166 3.99680289e-15,6.88571166 3.99680289e-15,3.99680289e-15" stroke="none" fill="#FF9319"></polygon></g></g><g transform="translate(9.347600951336847 10.184209978626459)"><g clip-path="url(#i23)"><polygon points="0,0 14.2947921,0 14.2947921,8.60714419 0,8.60714419 0,0" stroke="none" fill="#FFFFFF"></polygon></g></g></g></g></g></g></g></svg>