<svg width="98" height="136" viewBox="0 0 98 136" fill="none" xmlns="http://www.w3.org/2000/svg">
<g clip-path="url(#clip0_5980_2711)">
<path d="M28.8267 43.6582C28.7589 43.7063 28.6882 43.7239 28.6147 43.7115C28.5411 43.699 28.4802 43.6588 28.4322 43.5912L27.9803 42.9545C27.4735 43.231 27.0009 43.3928 26.5627 43.4403C26.1243 43.4876 25.7359 43.442 25.3969 43.3032C25.0577 43.1646 24.7839 42.9612 24.5753 42.6929C24.5405 42.6438 24.5287 42.585 24.5403 42.5166C24.5519 42.4481 24.5855 42.3944 24.6408 42.3551L25.6282 41.6543C25.7081 41.5976 25.7817 41.571 25.8487 41.5741C25.9157 41.5773 25.9853 41.5906 26.057 41.6135C26.1743 41.6876 26.3156 41.74 26.4808 41.7708C26.6461 41.8016 26.8345 41.7901 27.0467 41.737C27.2587 41.6836 27.4877 41.5698 27.7337 41.3951C28.1335 41.1114 28.3876 40.834 28.4961 40.5627C28.6042 40.2918 28.5798 40.0453 28.4226 39.8238C28.3091 39.6638 28.1636 39.5729 27.986 39.5508C27.8085 39.5288 27.5761 39.5597 27.2885 39.6434C27.0011 39.7273 26.6306 39.8605 26.1777 40.0433C25.6464 40.2725 25.1651 40.422 24.7338 40.4921C24.3026 40.5623 23.9169 40.5307 23.5772 40.3973C23.2371 40.2639 22.9363 40.0127 22.6743 39.6435C22.3295 39.1576 22.2106 38.6219 22.3181 38.0368C22.4255 37.452 22.7585 36.9008 23.317 36.3843L22.8651 35.7475C22.8171 35.6799 22.7994 35.6093 22.8117 35.5355C22.8242 35.4619 22.8643 35.4011 22.9321 35.353L23.5873 34.888C23.6487 34.8444 23.7164 34.829 23.7901 34.8412C23.8637 34.8537 23.9246 34.8939 23.9726 34.9615L24.4376 35.6167C24.9102 35.3833 25.356 35.2587 25.7753 35.2433C26.1946 35.228 26.5635 35.2853 26.8825 35.415C27.2013 35.545 27.4424 35.7185 27.6058 35.9356C27.6408 35.9849 27.654 36.0427 27.6455 36.1086C27.6371 36.1748 27.6049 36.2276 27.5496 36.2668L26.5067 37.007C26.4514 37.0463 26.3904 37.0711 26.3237 37.0815C26.257 37.092 26.1833 37.0795 26.1028 37.0441C25.9585 36.906 25.7515 36.8423 25.4818 36.8535C25.2122 36.8645 24.9355 36.9704 24.6527 37.1712C24.3511 37.3852 24.1505 37.6107 24.0508 37.8482C23.9509 38.0855 23.9819 38.3182 24.1434 38.5457C24.2482 38.6934 24.3827 38.7852 24.5471 38.8213C24.7116 38.8573 24.9255 38.8395 25.1893 38.7679C25.453 38.6965 25.796 38.5802 26.2183 38.419C26.8384 38.1456 27.372 37.9657 27.8197 37.8793C28.2672 37.7931 28.6558 37.8156 28.9852 37.9473C29.3146 38.0789 29.6102 38.3293 29.8722 38.6984C30.1342 39.0676 30.2601 39.4341 30.276 39.8343C30.2919 40.2347 30.1973 40.6325 29.9921 41.028C29.787 41.4234 29.4857 41.8037 29.0882 42.169L29.5401 42.8057C29.5881 42.8733 29.6056 42.9441 29.5934 43.0177C29.5809 43.0913 29.5437 43.1501 29.4823 43.1937L28.8271 43.6587L28.8267 43.6582Z" fill="white"/>
<path d="M27.4189 26.2313L28.5983 27.3287C28.8443 27.5578 29.2002 27.6246 29.5127 27.5007L30.7166 27.0232L29.8686 28.002C29.6484 28.2562 29.5943 28.6141 29.7291 28.922L30.3758 30.3975L29.1964 29.3001C28.9504 29.071 28.5945 29.0042 28.282 29.1281L27.0781 29.6056L27.9262 28.6267C28.1463 28.3726 28.2005 28.0147 28.0656 27.7067L27.4189 26.2313Z" fill="#52A1FF"/>
<path d="M22.8813 48.379L23.8553 49.2854C24.0585 49.4745 24.3524 49.5297 24.6104 49.4274L25.6048 49.0331L24.9044 49.8415C24.7226 50.0513 24.6777 50.347 24.7892 50.6012L25.3233 51.8197L24.3494 50.9133C24.1461 50.7242 23.8523 50.669 23.5943 50.7714L22.5999 51.1657L23.3003 50.3572C23.4821 50.1474 23.5269 49.8518 23.4155 49.5975L22.8813 48.379Z" fill="#52A1FF"/>
<path d="M16.216 35.922C15.9413 36.117 16.2438 36.5443 16.519 36.349C16.7942 36.1536 16.4912 35.7267 16.216 35.922Z" fill="#91F7E7"/>
<path d="M28.8371 48.3146C28.5624 48.5095 28.8649 48.9369 29.1401 48.7416C29.4153 48.5462 29.1123 48.1192 28.8371 48.3146Z" fill="#52A1FF"/>
<path d="M23.8686 28.975C23.6718 29.1147 23.6062 29.4213 23.7594 29.6181C23.9131 29.8153 24.1916 29.8769 24.4025 29.7272C24.5992 29.5876 24.6649 29.2809 24.5116 29.0842C24.358 28.8869 24.0794 28.8254 23.8686 28.975Z" fill="#91F7E7"/>
<path d="M36.5086 40.4106C36.3551 40.5196 36.3038 40.759 36.4234 40.9125C36.5434 41.0665 36.7608 41.1145 36.9253 40.9977C37.0789 40.8888 37.1301 40.6493 37.0105 40.4958C36.8905 40.3418 36.6732 40.2938 36.5086 40.4106Z" fill="#52A1FF"/>
<path d="M16.5272 42.5638C16.2895 42.7325 16.21 43.1033 16.3953 43.341C16.581 43.5794 16.9175 43.6539 17.1724 43.4729C17.4101 43.3043 17.4895 42.9336 17.3044 42.6958C17.1186 42.4574 16.782 42.383 16.5272 42.5638Z" fill="#91F7E7"/>
<path d="M32.8886 34.1631C35.4785 37.8123 34.9848 42.608 31.787 44.8775C31.0749 45.383 29.6643 46.3841 29.6643 46.3841C29.6643 46.3841 25.1081 47.7298 21.3111 42.3799C17.5141 37.0299 20.2899 33.172 20.2899 33.172C20.2899 33.172 21.7638 32.1259 22.4126 31.6654C25.6087 29.3971 30.3 30.5157 32.8886 34.1631Z" fill="url(#paint0_linear_5980_2711)"/>
<path d="M29.6657 46.3831C32.8632 44.1138 33.3564 39.3168 30.7672 35.6687C28.1781 32.0206 23.4871 30.9029 20.2896 33.1722C17.0921 35.4416 16.5989 40.2386 19.1881 43.8867C21.7772 47.5348 26.4682 48.6525 29.6657 46.3831Z" fill="url(#paint1_linear_5980_2711)"/>
<path d="M22.3922 36.1342L25.137 37.5895L27.7668 36.5074L27.5707 39.5316L29.6643 41.9337L26.8013 42.3466L25.465 44.9141L23.8885 42.145L20.9706 41.3308L22.8601 39.2054L22.3922 36.1342Z" fill="white"/>
</g>
<g clip-path="url(#clip1_5980_2711)">
<path d="M65.4309 35.3332C65.3131 35.2603 65.2402 35.1631 65.2115 35.0423C65.1829 34.9212 65.2051 34.8016 65.2778 34.6841L65.9621 33.5772C65.2088 32.9785 64.6538 32.3579 64.2966 31.716C63.9396 31.0738 63.7576 30.4478 63.7507 29.8374C63.7435 29.2268 63.8781 28.6743 64.1546 28.1801C64.2074 28.0948 64.29 28.0385 64.4026 28.012C64.5152 27.9854 64.6195 28.002 64.7157 28.0615L66.4322 29.1227C66.571 29.2086 66.6597 29.3044 66.6984 29.4091C66.7369 29.5142 66.7617 29.6296 66.773 29.7545C66.7354 29.9826 66.7465 30.2336 66.8065 30.5071C66.8664 30.7809 67.0063 31.0628 67.2255 31.354C67.445 31.6448 67.7683 31.9225 68.196 32.187C68.891 32.6166 69.4818 32.8268 69.9685 32.8173C70.4547 32.8075 70.8173 32.6103 71.0554 32.2252C71.2273 31.9472 71.2724 31.6647 71.1912 31.3777C71.1098 31.091 70.9115 30.7542 70.5964 30.367C70.2812 29.9802 69.8364 29.4979 69.2619 28.9212C68.5654 28.2542 68.0235 27.6122 67.6361 26.9957C67.2487 26.3791 67.0469 25.7665 67.0313 25.1584C67.0156 24.5498 67.2061 23.925 67.6028 23.2833C68.125 22.4387 68.8704 21.9086 69.8384 21.694C70.8059 21.4796 71.8681 21.6332 73.0234 22.1555L73.7078 21.0486C73.7804 20.9311 73.8773 20.8581 73.9986 20.8292C74.1197 20.8006 74.2391 20.8227 74.3569 20.8955L75.4959 21.5998C75.6026 21.6657 75.6702 21.7597 75.6993 21.8807C75.7279 22.0018 75.7056 22.1214 75.633 22.2389L74.9287 23.378C75.5938 23.952 76.0743 24.5556 76.3699 25.1894C76.6654 25.8231 76.8168 26.4267 76.8246 27.0005C76.8318 27.5743 76.7219 28.057 76.4947 28.4487C76.4417 28.5344 76.3616 28.5921 76.2547 28.6218C76.1477 28.6518 76.0458 28.6368 75.9497 28.5773L74.1367 27.4564C74.0406 27.397 73.9628 27.3194 73.9035 27.2238C73.8443 27.1281 73.8157 27.007 73.8178 26.8604C73.9362 26.5493 73.8996 26.1902 73.7075 25.7833C73.5156 25.3766 73.1736 25.0206 72.6818 24.7166C72.1576 24.3925 71.6813 24.2309 71.252 24.2318C70.8228 24.2324 70.4859 24.431 70.2413 24.8265C70.0826 25.0832 70.0288 25.3492 70.0802 25.6251C70.1315 25.9009 70.2977 26.2178 70.5788 26.5763C70.8593 26.9348 71.2606 27.386 71.7819 27.9297C72.6039 28.7043 73.2263 29.4067 73.6494 30.0381C74.072 30.6691 74.2896 31.2803 74.3012 31.8714C74.3127 32.4625 74.1202 33.0788 73.7235 33.7205C73.3267 34.3622 72.8456 34.7932 72.2417 35.0773C71.6372 35.3615 70.9651 35.4743 70.2249 35.4159C69.4847 35.3575 68.7055 35.1417 67.8867 34.7684L67.2024 35.8753C67.1297 35.9928 67.0325 36.0657 66.9115 36.0947C66.7904 36.1233 66.676 36.1043 66.5694 36.0384L65.4303 35.3341L65.4309 35.3332Z" fill="white"/>
<path d="M91.2739 21.8665L90.3542 24.389C90.1622 24.9153 90.2904 25.5051 90.6834 25.9045L92.1976 27.443L90.1446 26.776C89.6116 26.603 89.0271 26.752 88.6417 27.1588L86.7961 29.1089L87.7158 26.5863C87.9078 26.06 87.7795 25.4702 87.3866 25.0708L85.8724 23.5323L87.9254 24.1993C88.4583 24.3723 89.0429 24.2234 89.4283 23.8165L91.2739 21.8665Z" fill="#52A1FF"/>
<path d="M54.3266 29.2681L53.5669 31.3514C53.4085 31.7861 53.5144 32.273 53.8389 32.6028L55.0893 33.8735L53.3937 33.3227C52.9537 33.1798 52.4708 33.3027 52.1527 33.6387L50.6286 35.2493L51.3882 33.166C51.5467 32.7314 51.4408 32.2444 51.1163 31.9147L49.8658 30.6439L51.5614 31.1947C52.0014 31.3376 52.4844 31.2147 52.8024 30.8787L54.3266 29.2681Z" fill="#52A1FF"/>
<path d="M69.128 10.955C68.6505 10.6598 68.1907 11.4015 68.6691 11.6973C69.1475 11.9931 69.6064 11.2508 69.128 10.955Z" fill="#91F7E7"/>
<path d="M58.2901 38.3711C57.8126 38.0758 57.3528 38.8175 57.8312 39.1133C58.3096 39.4091 58.7686 38.6669 58.2901 38.3711Z" fill="#52A1FF"/>
<path d="M84.7579 18.1956C84.4158 17.9841 83.9024 18.0822 83.6998 18.4451C83.4967 18.809 83.5829 19.2766 83.9494 19.5032C84.2915 19.7146 84.8048 19.6165 85.0074 19.2536C85.2106 18.8897 85.1243 18.4222 84.7579 18.1956Z" fill="#91F7E7"/>
<path d="M75.4013 45.0199C75.1344 44.8549 74.7336 44.9315 74.5756 45.2147C74.417 45.4988 74.4843 45.8636 74.7703 46.0404C75.0372 46.2055 75.4381 46.1289 75.5961 45.8457C75.7547 45.5615 75.6874 45.1967 75.4013 45.0199Z" fill="#52A1FF"/>
<path d="M59.1326 15.7409C58.7195 15.4855 58.0986 15.6039 57.8539 16.0425C57.6085 16.4824 57.7124 17.0473 58.1556 17.3213C58.5687 17.5767 59.1893 17.4581 59.4343 17.0196C59.6797 16.5798 59.5755 16.0147 59.1326 15.7409Z" fill="#91F7E7"/>
<path d="M82.6415 35.4081C78.7194 41.7517 71.0367 44.1051 65.4778 40.6682C64.2399 39.9028 61.7878 38.3867 61.7878 38.3867C61.7878 38.3867 56.7659 32.265 62.5159 22.965C68.2658 13.6649 75.9895 15.4235 75.9895 15.4235C75.9895 15.4235 78.5517 17.0076 79.6795 17.7049C85.2354 21.14 86.5616 29.0678 82.6415 35.4081Z" fill="url(#paint2_linear_5980_2711)"/>
<path d="M61.7914 38.3888C67.3497 41.8254 75.0342 39.4703 78.955 33.1287C82.8759 26.7871 81.5484 18.8602 75.9901 15.4237C70.4317 11.9871 62.7473 14.3421 58.8264 20.6837C54.9056 27.0254 56.233 34.9522 61.7914 38.3888Z" fill="url(#paint3_linear_5980_2711)"/>
<path d="M72.8074 20.5721L72.3539 25.73L75.7214 29.0653L70.9512 30.7264L68.6217 35.4988L66.1305 31.3714L61.322 30.9855L64.5502 26.7688L63.9073 21.761L68.396 23.2829L72.8074 20.5721Z" fill="white"/>
</g>
<path d="M56.6417 112.975C56.3646 112.975 56.1384 112.886 55.9624 112.711C55.7865 112.535 55.6985 112.308 55.6985 112.031V109.429C53.7874 109.203 52.1904 108.731 50.9076 108.014C49.6248 107.297 48.6569 106.424 48.0032 105.393C47.3487 104.362 46.9967 103.28 46.9473 102.149C46.9473 101.948 47.0287 101.765 47.1923 101.602C47.356 101.438 47.5508 101.357 47.777 101.357H51.813C52.1395 101.357 52.3911 101.427 52.5671 101.564C52.7431 101.702 52.9067 101.872 53.0573 102.073C53.2332 102.501 53.5161 102.916 53.9059 103.318C54.2957 103.721 54.8302 104.053 55.5094 104.318C56.1886 104.582 57.0307 104.714 58.0364 104.714C59.6705 104.714 60.8965 104.45 61.7147 103.922C62.5313 103.394 62.9407 102.677 62.9407 101.772C62.9407 101.118 62.7204 100.59 62.2804 100.187C61.8405 99.7852 61.1489 99.4209 60.2057 99.0936C59.2625 98.7671 57.9986 98.4144 56.4148 98.0377C54.5284 97.6356 52.9314 97.1134 51.6239 96.4721C50.3164 95.8307 49.3289 95.0009 48.6627 93.9828C47.9959 92.964 47.6628 91.7008 47.6628 90.1919C47.6628 88.2059 48.3733 86.5202 49.7943 85.1371C51.2145 83.7547 53.1831 82.8987 55.6977 82.5722V79.9696C55.6977 79.6932 55.7857 79.4671 55.9617 79.2903C56.1377 79.1144 56.3639 79.0264 56.6409 79.0264H59.3192C59.5701 79.0264 59.7839 79.1151 59.9606 79.2903C60.1366 79.4663 60.2246 79.6932 60.2246 79.9696V82.6479C61.9597 82.9249 63.412 83.4463 64.5813 84.2135C65.7506 84.9807 66.6429 85.8483 67.2596 86.8162C67.8755 87.7848 68.1962 88.7215 68.2217 89.6269C68.2217 89.8283 68.1461 90.0108 67.9955 90.1737C67.845 90.3373 67.6559 90.4188 67.4298 90.4188H63.1669C62.9407 90.4188 62.7269 90.3686 62.5255 90.2683C62.3241 90.1679 62.1481 89.9919 61.9975 89.7403C61.8717 89.0865 61.4318 88.5142 60.6769 88.0241C59.9228 87.534 58.9665 87.2882 57.8103 87.2882C56.5777 87.2882 55.5974 87.5143 54.868 87.9674C54.1386 88.4197 53.7743 89.112 53.7743 90.0421C53.7743 90.6457 53.9626 91.1547 54.34 91.57C54.7175 91.9852 55.3334 92.3495 56.1886 92.6637C57.0431 92.9786 58.2001 93.324 59.6588 93.7007C61.8717 94.1537 63.6694 94.694 65.0533 95.3231C66.4357 95.9521 67.4487 96.7629 68.0901 97.7563C68.7315 98.7497 69.0522 100 69.0522 101.509C69.0522 103.018 68.6871 104.258 67.9584 105.376C67.2291 106.495 66.2044 107.394 64.8838 108.073C63.5632 108.752 62.0106 109.205 60.2253 109.431V112.034C60.2253 112.31 60.1366 112.536 59.9614 112.713C59.7854 112.889 59.5708 112.977 59.32 112.977H56.6417V112.975Z" fill="white"/>
<path d="M86.4384 62.8877L87.527 68.1461C87.7539 69.2435 88.5924 70.1118 89.681 70.3779L93.8748 71.4026L89.681 72.4272C88.5924 72.6933 87.7546 73.5616 87.527 74.659L86.4384 79.9174L85.3497 74.659C85.1229 73.5616 84.2844 72.6933 83.1958 72.4272L79.002 71.4026L83.1958 70.3779C84.2844 70.1118 85.1221 69.2435 85.3497 68.1461L86.4384 62.8877Z" fill="#52A1FF"/>
<path d="M31.3737 114.336L32.2725 118.679C32.4601 119.585 33.1524 120.302 34.0513 120.522L37.5149 121.368L34.0513 122.214C33.1524 122.434 32.4601 123.151 32.2725 124.057L31.3737 128.4L30.4749 124.057C30.2872 123.151 29.5949 122.434 28.6961 122.214L25.2324 121.368L28.6961 120.522C29.5949 120.302 30.2872 119.585 30.4749 118.679L31.3737 114.336Z" fill="#52A1FF"/>
<path d="M37.2902 67.6172C36.1674 67.6172 36.1652 69.3625 37.2902 69.3625C38.4152 69.3625 38.4152 67.6172 37.2902 67.6172Z" fill="#91F7E7"/>
<path d="M47.6906 125.653C46.5678 125.653 46.5656 127.399 47.6906 127.399C48.8156 127.399 48.8156 125.653 47.6906 125.653Z" fill="#52A1FF"/>
<path d="M71.4937 63.4961C70.6894 63.4961 69.9193 64.2029 69.9564 65.0334C69.9935 65.8661 70.6319 66.5707 71.4937 66.5707C72.298 66.5707 73.0681 65.8639 73.031 65.0334C72.9939 64.2008 72.3554 63.4961 71.4937 63.4961Z" fill="#91F7E7"/>
<path d="M83.7888 118.969C83.1612 118.969 82.5598 119.521 82.5889 120.169C82.618 120.819 83.1161 121.369 83.7888 121.369C84.4164 121.369 85.0178 120.817 84.9887 120.169C84.9596 119.519 84.4615 118.969 83.7888 118.969Z" fill="#52A1FF"/>
<path d="M25.3205 86.2715C24.349 86.2715 23.4174 87.126 23.4625 88.1295C23.5076 89.1359 24.2784 89.9875 25.3205 89.9875C26.2921 89.9875 27.2229 89.133 27.1785 88.1295C27.1334 87.123 26.3619 86.2715 25.3205 86.2715Z" fill="#91F7E7"/>
<path d="M85.999 95C85.999 109.916 75.405 122 62.3339 122C59.423 122 53.6572 122 53.6572 122C53.6572 122 38.6758 116.868 38.6758 95C38.6758 73.132 53.6642 68 53.6642 68C53.6642 68 59.6889 68 62.3409 68C75.405 68 85.999 80.0914 85.999 95Z" fill="url(#paint4_linear_5980_2711)"/>
<path d="M53.6651 122C66.735 122 77.3302 109.912 77.3302 95C77.3302 80.0883 66.735 68 53.6651 68C40.5952 68 30 80.0883 30 95C30 109.912 40.5952 122 53.6651 122Z" fill="url(#paint5_linear_5980_2711)"/>
<path d="M53.6652 80.1064L58.3184 89.3577L67.555 91.4897L61.1874 99.3323L62.244 109.901L53.6652 105.5L45.0794 109.901L46.136 99.3323L39.7754 91.4897L49.0119 89.3577L53.6652 80.1064Z" fill="white"/>
<defs>
<linearGradient id="paint0_linear_5980_2711" x1="13.5376" y1="33.9669" x2="37.887" y2="39.8556" gradientUnits="userSpaceOnUse">
<stop stop-color="#419FE7"/>
<stop offset="1" stop-color="#4099C9"/>
</linearGradient>
<linearGradient id="paint1_linear_5980_2711" x1="12.0475" y1="35.4982" x2="35.7065" y2="41.22" gradientUnits="userSpaceOnUse">
<stop stop-color="#91F7E7"/>
<stop offset="1" stop-color="#52A1FF"/>
</linearGradient>
<linearGradient id="paint2_linear_5980_2711" x1="70.3884" y1="5.57304" x2="77.145" y2="46.7749" gradientUnits="userSpaceOnUse">
<stop stop-color="#419FE7"/>
<stop offset="1" stop-color="#4099C9"/>
</linearGradient>
<linearGradient id="paint3_linear_5980_2711" x1="67.072" y1="4.27925" x2="73.637" y2="44.313" gradientUnits="userSpaceOnUse">
<stop stop-color="#91F7E7"/>
<stop offset="1" stop-color="#52A1FF"/>
</linearGradient>
<linearGradient id="paint4_linear_5980_2711" x1="33.7758" y1="57.1343" x2="88.6039" y2="120.117" gradientUnits="userSpaceOnUse">
<stop stop-color="#419FE7"/>
<stop offset="1" stop-color="#4099C9"/>
</linearGradient>
<linearGradient id="paint5_linear_5980_2711" x1="26.7731" y1="58.4217" x2="80.0468" y2="119.619" gradientUnits="userSpaceOnUse">
<stop stop-color="#91F7E7"/>
<stop offset="1" stop-color="#52A1FF"/>
</linearGradient>
<clipPath id="clip0_5980_2711">
<rect width="24" height="24" fill="white" transform="translate(9.48047 36.4287) rotate(-35.3643)"/>
</clipPath>
<clipPath id="clip1_5980_2711">
<rect width="40" height="40" fill="white" transform="translate(63.9785 0.942383) rotate(31.7274)"/>
</clipPath>
</defs>
</svg>
