<svg width="34" height="33" viewBox="0 0 34 33" fill="none" xmlns="http://www.w3.org/2000/svg">
<path d="M30.3703 12.9325L16.4857 8.14819L15.4142 11.258C15.2933 11.6081 14.9652 11.8283 14.6145 11.8283C14.5233 11.8283 14.43 11.8133 14.3391 11.7821C13.8973 11.63 13.663 11.1485 13.8148 10.707L14.8863 7.59714L9.1139 5.60802C8.19598 5.29185 7.19587 5.77961 6.8794 6.69722L5.90179 9.53496L6.8713 9.86883C8.40206 10.3962 9.21529 12.0646 8.68764 13.5957C8.26918 14.81 7.13288 15.5728 5.91649 15.5728C5.59942 15.5728 5.27755 15.5209 4.96108 15.412L3.99157 15.0782L3.01395 17.9159C2.69778 18.8338 3.18524 19.8339 4.10285 20.1504L9.91153 22.1521C9.91393 22.069 9.92893 21.9847 9.95742 21.9013L11.0595 18.703C11.2116 18.2612 11.6928 18.0263 12.1346 18.179C12.5765 18.3308 12.8108 18.8122 12.6587 19.2541L11.5566 22.4524C11.5281 22.5352 11.4879 22.6111 11.4384 22.678L25.3592 27.4748C26.2771 27.7907 27.2772 27.3033 27.5937 26.3856L28.5716 23.5479L27.6021 23.2137C26.0714 22.6864 25.2581 21.0182 25.7855 19.4875C26.3128 17.9567 27.9813 17.1435 29.5123 17.6708L30.4819 18.005L31.4595 15.1673C31.7756 14.2493 31.2879 13.2489 30.3703 12.9328V12.9325ZM14.5875 13.6563L13.4857 16.8549C13.3648 17.2053 13.0366 17.4251 12.686 17.4251C12.5945 17.4251 12.5015 17.4101 12.4106 17.3787C11.9687 17.2266 11.7345 16.7451 11.8862 16.3035L12.9883 13.1049C13.1404 12.6634 13.6219 12.4288 14.0634 12.5809C14.5053 12.733 14.7396 13.2144 14.5875 13.656V13.6563Z" fill="url(#paint0_linear_327_1268)"/>
<path d="M27.2533 2.84109L27.9031 5.97911C28.0387 6.63395 28.5387 7.1523 29.1885 7.31099L31.6911 7.92263L29.1885 8.53428C28.539 8.69296 28.0387 9.21132 27.9031 9.86616L27.2533 13.0042L26.6036 9.86616C26.468 9.21132 25.968 8.69296 25.3182 8.53428L22.8156 7.92263L25.3182 7.31099C25.9677 7.1523 26.468 6.63395 26.6036 5.97911L27.2533 2.84109Z" fill="url(#paint1_linear_327_1268)"/>
<path d="M7.03068 21.7781L7.56703 24.3695C7.67892 24.9104 8.09198 25.3381 8.62833 25.4692L10.6951 25.9744L8.62833 26.4795C8.09198 26.6106 7.67892 27.0387 7.56703 27.5792L7.03068 30.1707L6.49433 27.5792C6.38244 27.0384 5.96937 26.6106 5.43302 26.4795L3.36621 25.9744L5.43302 25.4692C5.96937 25.3381 6.38244 24.9101 6.49433 24.3695L7.03068 21.7781Z" fill="url(#paint2_linear_327_1268)"/>
<path d="M16.4672 5.15173C16.0041 5.15173 16.0032 5.87167 16.4672 5.87167C16.9313 5.87167 16.9313 5.15173 16.4672 5.15173Z" fill="url(#paint3_linear_327_1268)"/>
<path d="M11.8394 29.0916C11.3762 29.0916 11.3753 29.8115 11.8394 29.8115C12.3035 29.8115 12.3035 29.0916 11.8394 29.0916Z" fill="url(#paint4_linear_327_1268)"/>
<path d="M22.8159 3.09213C22.4842 3.09213 22.1665 3.38371 22.1818 3.72628C22.1971 4.06974 22.4605 4.36042 22.8159 4.36042C23.1477 4.36042 23.4654 4.06884 23.4501 3.72628C23.4348 3.38281 23.1714 3.09213 22.8159 3.09213Z" fill="url(#paint5_linear_327_1268)"/>
<path d="M31.8174 20.9772C31.5585 20.9772 31.3104 21.2049 31.3224 21.4722C31.3344 21.7404 31.5399 21.9671 31.8174 21.9671C32.0763 21.9671 32.3243 21.7395 32.3124 21.4722C32.3004 21.204 32.0949 20.9772 31.8174 20.9772Z" fill="url(#paint6_linear_327_1268)"/>
<path d="M3.76976 12.4868C3.369 12.4868 2.98474 12.8393 3.00333 13.2533C3.02193 13.6684 3.3399 14.0197 3.76976 14.0197C4.17053 14.0197 4.55449 13.6672 4.53619 13.2533C4.5176 12.8381 4.19933 12.4868 3.76976 12.4868Z" fill="url(#paint7_linear_327_1268)"/>
<defs>
<linearGradient id="paint0_linear_327_1268" x1="7.60894" y1="5.74571" x2="27.6765" y2="28.2479" gradientUnits="userSpaceOnUse">
<stop stop-color="#E7A6FF"/>
<stop offset="1" stop-color="#52A1FF"/>
</linearGradient>
<linearGradient id="paint1_linear_327_1268" x1="14.9875" y1="-5.83112" x2="39.288" y2="21.4175" gradientUnits="userSpaceOnUse">
<stop stop-color="#E7A6FF"/>
<stop offset="1" stop-color="#52A1FF"/>
</linearGradient>
<linearGradient id="paint2_linear_327_1268" x1="-2.0498" y1="15.7927" x2="18.0181" y2="38.2949" gradientUnits="userSpaceOnUse">
<stop stop-color="#E7A6FF"/>
<stop offset="1" stop-color="#52A1FF"/>
</linearGradient>
<linearGradient id="paint3_linear_327_1268" x1="9.68003" y1="-2.09891" x2="29.7479" y2="20.4032" gradientUnits="userSpaceOnUse">
<stop stop-color="#E7A6FF"/>
<stop offset="1" stop-color="#52A1FF"/>
</linearGradient>
<linearGradient id="paint4_linear_327_1268" x1="-1.79077" y1="14.1679" x2="18.2769" y2="36.6701" gradientUnits="userSpaceOnUse">
<stop stop-color="#E7A6FF"/>
<stop offset="1" stop-color="#52A1FF"/>
</linearGradient>
<linearGradient id="paint5_linear_327_1268" x1="16.009" y1="-3.90683" x2="36.0765" y2="18.5953" gradientUnits="userSpaceOnUse">
<stop stop-color="#E7A6FF"/>
<stop offset="1" stop-color="#52A1FF"/>
</linearGradient>
<linearGradient id="paint6_linear_327_1268" x1="13.2782" y1="0.684092" x2="33.346" y2="23.1863" gradientUnits="userSpaceOnUse">
<stop stop-color="#E7A6FF"/>
<stop offset="1" stop-color="#52A1FF"/>
</linearGradient>
<linearGradient id="paint7_linear_327_1268" x1="1.73865" y1="10.9756" x2="21.8062" y2="33.4777" gradientUnits="userSpaceOnUse">
<stop stop-color="#E7A6FF"/>
<stop offset="1" stop-color="#52A1FF"/>
</linearGradient>
</defs>
</svg>
