<svg width="33" height="32" viewBox="0 0 33 32" fill="none" xmlns="http://www.w3.org/2000/svg">
<path d="M27.875 2.75488L28.3104 4.85826C28.4012 5.2972 28.7366 5.64451 29.172 5.75097L30.8495 6.16083L29.172 6.57068C28.7366 6.67714 28.4015 7.02446 28.3104 7.4634L27.875 9.56677L27.4395 7.4634C27.3488 7.02446 27.0134 6.67714 26.5779 6.57068L24.9004 6.16083L26.5779 5.75097C27.0134 5.64451 27.3485 5.2972 27.4395 4.85826L27.875 2.75488Z" fill="#FF9419"/>
<path d="M5.84908 23.334L6.20861 25.0711C6.28366 25.4336 6.56058 25.7204 6.92011 25.8082L8.30559 26.1468L6.92011 26.4854C6.56058 26.5733 6.28366 26.8601 6.20861 27.2225L5.84908 28.9597L5.48955 27.2225C5.4145 26.8601 5.13758 26.5733 4.77805 26.4854L3.39258 26.1468L4.77805 25.8082C5.13758 25.7204 5.4145 25.4336 5.48955 25.0711L5.84908 23.334Z" fill="#FF9419"/>
<path d="M8.21412 4.64648C7.765 4.64648 7.76413 5.3446 8.21412 5.3446C8.66412 5.3446 8.66412 4.64648 8.21412 4.64648Z" fill="#FFBD17"/>
<path d="M12.3762 27.8613C11.9271 27.8613 11.9262 28.5594 12.3762 28.5594C12.8262 28.5594 12.8262 27.8613 12.3762 27.8613Z" fill="#FFBD17"/>
<path d="M21.8967 2.99805C21.575 2.99805 21.2669 3.28078 21.2818 3.61297C21.2966 3.94603 21.552 4.2279 21.8967 4.2279C22.2184 4.2279 22.5265 3.94516 22.5116 3.61297C22.4968 3.27991 22.2414 2.99805 21.8967 2.99805Z" fill="#FFBD17"/>
<path d="M26.8143 25.1875C26.5633 25.1875 26.3228 25.4083 26.3344 25.6675C26.346 25.9275 26.5453 26.1474 26.8143 26.1474C27.0654 26.1474 27.3059 25.9266 27.2943 25.6675C27.2827 25.4074 27.0834 25.1875 26.8143 25.1875Z" fill="#FFBD17"/>
<path d="M3.42743 12.1084C3.03881 12.1084 2.66619 12.4502 2.68422 12.8516C2.70226 13.2542 3.01059 13.5948 3.42743 13.5948C3.81605 13.5948 4.18838 13.253 4.17063 12.8516C4.1526 12.449 3.84397 12.1084 3.42743 12.1084Z" fill="#FFBD17"/>
<path d="M25.8409 21.882L8.03736 22.9963C7.05762 23.0579 6.21395 22.3467 6.14962 21.4102L5.50388 11.9269C5.43956 10.9881 6.18179 10.1796 7.15905 10.118L24.9626 9.00372C25.9424 8.94208 26.786 9.65333 26.8504 10.5898L27.4961 20.0731C27.5604 21.0095 26.8207 21.8204 25.8409 21.882Z" fill="url(#paint0_linear_5980_479)"/>
<path d="M26.9501 12.0378L5.60156 13.373L5.77705 15.9494L27.1256 14.6142L26.9501 12.0378Z" fill="white"/>
<path d="M25.3765 20.5256L23.1325 20.6654C22.8331 20.6844 22.5733 20.4663 22.5535 20.1794L22.5461 20.0561C22.5263 19.7693 22.7539 19.5203 23.0533 19.5014L25.2973 19.3615C25.5967 19.3425 25.8565 19.5606 25.8763 19.8475L25.8837 19.9708C25.9035 20.2577 25.6758 20.5066 25.3765 20.5256Z" fill="white"/>
<defs>
<linearGradient id="paint0_linear_5980_479" x1="6.03881" y1="8.42253" x2="23.9907" y2="22.5823" gradientUnits="userSpaceOnUse">
<stop stop-color="#FFBD17"/>
<stop offset="0.6011" stop-color="#FF9419"/>
<stop offset="0.9465" stop-color="#FFBD17"/>
</linearGradient>
</defs>
</svg>
