<svg width="35" height="34" viewBox="0 0 35 34" fill="none" xmlns="http://www.w3.org/2000/svg">
<path d="M17.7518 28.9363C24.3925 28.9363 29.7758 23.553 29.7758 16.9123C29.7758 10.2716 24.3925 4.88828 17.7518 4.88828C11.1111 4.88828 5.72778 10.2716 5.72778 16.9123C5.72778 23.553 11.1111 28.9363 17.7518 28.9363Z" fill="#FF9419"/>
<path d="M29.7701 2.91231L30.2304 5.13564C30.3263 5.59961 30.6808 5.96674 31.1411 6.07927L32.9143 6.5125L31.1411 6.94573C30.6808 7.05826 30.3266 7.42538 30.2304 7.88936L29.7701 10.1127L29.3098 7.88936C29.2138 7.42538 28.8593 7.05826 28.399 6.94573L26.6259 6.5125L28.399 6.07927C28.8593 5.96674 29.2135 5.59961 29.3098 5.13564L29.7701 2.91231Z" fill="#FF9419"/>
<path d="M6.49394 24.6662L6.87398 26.5024C6.9533 26.8855 7.24602 27.1887 7.62605 27.2816L9.09054 27.6395L7.62605 27.9974C7.24602 28.0902 6.9533 28.3934 6.87398 28.7765L6.49394 30.6127L6.1139 28.7765C6.03458 28.3934 5.74186 28.0902 5.36183 27.9974L3.89734 27.6395L5.36183 27.2816C5.74186 27.1887 6.03458 26.8855 6.1139 26.5024L6.49394 24.6662Z" fill="#FF9419"/>
<path d="M8.99397 4.91328C8.51924 4.91328 8.51831 5.65122 8.99397 5.65122C9.46963 5.65122 9.46963 4.91328 8.99397 4.91328Z" fill="#FF9419"/>
<path d="M13.3885 29.4494C12.9138 29.4494 12.9128 30.1873 13.3885 30.1873C13.8642 30.1873 13.8642 29.4494 13.3885 29.4494Z" fill="#FF9419"/>
<path d="M23.4541 3.1711C23.1141 3.1711 22.7885 3.46996 22.8041 3.82109C22.8198 4.17315 23.0898 4.47109 23.4541 4.47109C23.7942 4.47109 24.1198 4.17223 24.1041 3.82109C24.0884 3.46904 23.8185 3.1711 23.4541 3.1711Z" fill="#FF9419"/>
<path d="M28.6531 26.6232C28.3878 26.6232 28.1335 26.8566 28.1458 27.1306C28.1581 27.4055 28.3687 27.6379 28.6531 27.6379C28.9185 27.6379 29.1728 27.4045 29.1605 27.1306C29.1482 26.8557 28.9376 26.6232 28.6531 26.6232Z" fill="#FF9419"/>
<path d="M3.93164 12.798C3.52086 12.798 3.12699 13.1593 3.14605 13.5836C3.16511 14.0092 3.49103 14.3692 3.93164 14.3692C4.34242 14.3692 4.73599 14.008 4.71723 13.5836C4.69817 13.1581 4.37194 12.798 3.93164 12.798Z" fill="#FF9419"/>
</svg>
