<svg width="81" height="80" viewBox="0 0 81 80" fill="none" xmlns="http://www.w3.org/2000/svg">
<path d="M39.1397 56.9746C38.8626 56.9746 38.6365 56.8858 38.4605 56.7106C38.2845 56.5346 38.1965 56.3077 38.1965 56.0314V53.4287C36.2854 53.2025 34.6885 52.7306 33.4057 52.0143C32.1229 51.2973 31.155 50.4239 30.5012 49.3927C29.8467 48.3615 29.4948 47.2802 29.4453 46.1486C29.4453 45.9479 29.5268 45.7654 29.6904 45.6018C29.854 45.4381 30.0489 45.3567 30.2751 45.3567H34.3111C34.6376 45.3567 34.8892 45.4265 35.0652 45.564C35.2411 45.7021 35.4048 45.8723 35.5553 46.073C35.7313 46.5006 36.0142 46.9158 36.404 47.318C36.7937 47.7208 37.3282 48.0532 38.0074 48.3179C38.6867 48.5819 39.5288 48.7142 40.5345 48.7142C42.1685 48.7142 43.3946 48.4502 44.2127 47.9223C45.0294 47.3943 45.4388 46.6773 45.4388 45.7719C45.4388 45.1182 45.2184 44.5902 44.7785 44.1874C44.3385 43.7852 43.6469 43.4209 42.7037 43.0936C41.7606 42.7671 40.4967 42.4144 38.9128 42.0377C37.0264 41.6356 35.4295 41.1134 34.122 40.4721C32.8145 39.8307 31.8269 39.0009 31.1608 37.9828C30.4939 36.964 30.1609 35.7008 30.1609 34.1919C30.1609 32.2059 30.8714 30.5202 32.2923 29.1371C33.7126 27.7547 35.6811 26.8987 38.1958 26.5722V23.9696C38.1958 23.6932 38.2838 23.4671 38.4598 23.2903C38.6358 23.1144 38.8619 23.0264 39.139 23.0264H41.8173C42.0682 23.0264 42.282 23.1151 42.4587 23.2903C42.6347 23.4663 42.7227 23.6932 42.7227 23.9696V26.6479C44.4578 26.9249 45.91 27.4463 47.0793 28.2135C48.2487 28.9807 49.141 29.8483 49.7577 30.8162C50.3736 31.7848 50.6943 32.7215 50.7197 33.6269C50.7197 33.8283 50.6441 34.0108 50.4936 34.1737C50.3431 34.3373 50.154 34.4188 49.9278 34.4188H45.6649C45.4388 34.4188 45.225 34.3686 45.0235 34.2683C44.8221 34.1679 44.6461 33.9919 44.4956 33.7403C44.3698 33.0865 43.9298 32.5142 43.175 32.0241C42.4209 31.534 41.4646 31.2882 40.3083 31.2882C39.0757 31.2882 38.0954 31.5143 37.366 31.9674C36.6367 32.4197 36.2723 33.112 36.2723 34.0421C36.2723 34.6457 36.4607 35.1547 36.8381 35.57C37.2155 35.9852 37.8315 36.3495 38.6867 36.6637C39.5411 36.9786 40.6981 37.324 42.1569 37.7007C44.3698 38.1537 46.1674 38.694 47.5513 39.3231C48.9337 39.9521 49.9467 40.7629 50.5881 41.7563C51.2295 42.7497 51.5502 44.0005 51.5502 45.5094C51.5502 47.0184 51.1852 48.2575 50.4565 49.376C49.7271 50.4951 48.7025 51.394 47.3819 52.0732C46.0613 52.7524 44.5087 53.2047 42.7234 53.4309V56.0336C42.7234 56.3099 42.6347 56.536 42.4594 56.7128C42.2834 56.8887 42.0689 56.9767 41.818 56.9767H39.1397V56.9746Z" fill="white"/>
<path d="M68.9403 6.8877L70.029 12.1461C70.2558 13.2435 71.0943 14.1118 72.1829 14.3779L76.3767 15.4026L72.1829 16.4272C71.0943 16.6933 70.2566 17.5616 70.029 18.659L68.9403 23.9174L67.8517 18.659C67.6248 17.5616 66.7863 16.6933 65.6977 16.4272L61.5039 15.4026L65.6977 14.3779C66.7863 14.1118 67.6241 13.2435 67.8517 12.1461L68.9403 6.8877Z" fill="#52A1FF"/>
<path d="M13.8717 58.3359L14.7706 62.6788C14.9582 63.5849 15.6505 64.3019 16.5493 64.5216L20.013 65.368L16.5493 66.2145C15.6505 66.4341 14.9582 67.1511 14.7706 68.0572L13.8717 72.4001L12.9729 68.0572C12.7853 67.1511 12.093 66.4341 11.1942 66.2145L7.73047 65.368L11.1942 64.5216C12.093 64.3019 12.7853 63.5849 12.9729 62.6788L13.8717 58.3359Z" fill="#52A1FF"/>
<path d="M19.7882 11.6172C18.6654 11.6172 18.6632 13.3625 19.7882 13.3625C20.9132 13.3625 20.9132 11.6172 19.7882 11.6172Z" fill="#91F7E7"/>
<path d="M30.1906 69.6533C29.0678 69.6533 29.0656 71.3986 30.1906 71.3986C31.3156 71.3986 31.3156 69.6533 30.1906 69.6533Z" fill="#52A1FF"/>
<path d="M53.9917 7.49609C53.1874 7.49609 52.4173 8.20294 52.4544 9.03341C52.4915 9.86606 53.13 10.5707 53.9917 10.5707C54.796 10.5707 55.5661 9.86388 55.529 9.03341C55.492 8.20076 54.8535 7.49609 53.9917 7.49609Z" fill="#91F7E7"/>
<path d="M66.2907 62.9688C65.6632 62.9688 65.0618 63.5207 65.0909 64.1686C65.1199 64.8188 65.6181 65.3685 66.2907 65.3685C66.9183 65.3685 67.5197 64.8166 67.4906 64.1686C67.4616 63.5185 66.9634 62.9688 66.2907 62.9688Z" fill="#52A1FF"/>
<path d="M7.82052 30.2715C6.84898 30.2715 5.91742 31.126 5.96251 32.1295C6.0076 33.1359 6.77844 33.9875 7.82052 33.9875C8.79207 33.9875 9.7229 33.133 9.67854 32.1295C9.63345 31.123 8.86188 30.2715 7.82052 30.2715Z" fill="#91F7E7"/>
<path d="M68.499 39C68.499 53.9162 57.905 66 44.8339 66C41.923 66 36.1572 66 36.1572 66C36.1572 66 21.1758 60.868 21.1758 39C21.1758 17.132 36.1642 12 36.1642 12C36.1642 12 42.1889 12 44.8409 12C57.905 12 68.499 24.0914 68.499 39Z" fill="url(#paint0_linear_2401_1962)"/>
<path d="M36.1651 66C49.235 66 59.8302 53.9117 59.8302 39C59.8302 24.0883 49.235 12 36.1651 12C23.0952 12 12.5 24.0883 12.5 39C12.5 53.9117 23.0952 66 36.1651 66Z" fill="url(#paint1_linear_2401_1962)"/>
<path d="M36.1632 24.1064L40.8165 33.3577L50.053 35.4897L43.6854 43.3323L44.742 53.9009L36.1632 49.4998L27.5774 53.9009L28.6341 43.3323L22.2734 35.4897L31.51 33.3577L36.1632 24.1064Z" fill="white"/>
<defs>
<linearGradient id="paint0_linear_2401_1962" x1="16.2758" y1="1.13427" x2="71.1039" y2="64.1173" gradientUnits="userSpaceOnUse">
<stop stop-color="#419FE7"/>
<stop offset="1" stop-color="#4099C9"/>
</linearGradient>
<linearGradient id="paint1_linear_2401_1962" x1="9.27311" y1="2.42172" x2="62.5468" y2="63.6191" gradientUnits="userSpaceOnUse">
<stop stop-color="#91F7E7"/>
<stop offset="1" stop-color="#52A1FF"/>
</linearGradient>
</defs>
</svg>
