<svg width="41" height="40" viewBox="0 0 41 40" fill="none" xmlns="http://www.w3.org/2000/svg">
<path d="M34.7192 3.4436L35.2635 6.07282C35.3769 6.6215 35.7962 7.05564 36.3405 7.18872L38.4374 7.70104L36.3405 8.21335C35.7962 8.34643 35.3773 8.78057 35.2635 9.32925L34.7192 11.9585L34.1749 9.32925C34.0614 8.78057 33.6422 8.34643 33.0979 8.21335L31.001 7.70104L33.0979 7.18872C33.6422 7.05564 34.0611 6.6215 34.1749 6.07282L34.7192 3.4436Z" fill="white"/>
<path d="M7.18586 29.168L7.63528 31.3394C7.72909 31.7925 8.07524 32.151 8.52465 32.2608L10.2565 32.684L8.52465 33.1072C8.07524 33.2171 7.72909 33.5756 7.63528 34.0286L7.18586 36.2001L6.73645 34.0286C6.64264 33.5756 6.29649 33.2171 5.84708 33.1072L4.11523 32.684L5.84708 32.2608C6.29649 32.151 6.64264 31.7925 6.73645 31.3394L7.18586 29.168Z" fill="white"/>
<path d="M10.1441 5.80811C9.58271 5.80811 9.58162 6.68075 10.1441 6.68075C10.7066 6.68075 10.7066 5.80811 10.1441 5.80811Z" fill="white"/>
<path d="M15.3453 34.8262C14.7839 34.8262 14.7828 35.6988 15.3453 35.6988C15.9078 35.6988 15.9078 34.8262 15.3453 34.8262Z" fill="white"/>
<path d="M27.2459 3.74805C26.8437 3.74805 26.4587 4.10147 26.4772 4.5167C26.4958 4.93303 26.815 5.28536 27.2459 5.28536C27.648 5.28536 28.0331 4.93194 28.0145 4.5167C27.996 4.10038 27.6767 3.74805 27.2459 3.74805Z" fill="white"/>
<path d="M33.3944 31.4841C33.0806 31.4841 32.7799 31.7601 32.7945 32.0841C32.809 32.4091 33.0581 32.684 33.3944 32.684C33.7082 32.684 34.0089 32.408 33.9943 32.0841C33.9798 31.759 33.7307 31.4841 33.3944 31.4841Z" fill="white"/>
<path d="M4.16026 15.1353C3.67449 15.1353 3.20871 15.5625 3.23126 16.0643C3.2538 16.5675 3.63922 16.9933 4.16026 16.9933C4.64604 16.9933 5.11145 16.566 5.08927 16.0643C5.06672 15.561 4.68094 15.1353 4.16026 15.1353Z" fill="white"/>
<path fill-rule="evenodd" clip-rule="evenodd" d="M33.5 19.5C33.5 26.9558 27.4558 33 20 33C12.5442 33 6.5 26.9558 6.5 19.5C6.5 12.0442 12.5442 6 20 6C27.4558 6 33.5 12.0442 33.5 19.5ZM22.6801 16.1576L20 11.5L17.3199 16.1576L12 17.2309L15.6635 21.1793L15.0549 26.5L20 24.2843L24.9411 26.5L24.3325 21.1793L28 17.2309L22.6801 16.1576Z" fill="white"/>
</svg>
