<svg width="41" height="40" viewBox="0 0 41 40" fill="none" xmlns="http://www.w3.org/2000/svg">
<path d="M34.4692 3.4436L35.0135 6.07282C35.1269 6.6215 35.5462 7.05564 36.0905 7.18872L38.1874 7.70104L36.0905 8.21335C35.5462 8.34643 35.1273 8.78057 35.0135 9.32925L34.4692 11.9585L33.9249 9.32925C33.8114 8.78057 33.3922 8.34643 32.8479 8.21335L30.751 7.70104L32.8479 7.18872C33.3922 7.05564 33.8111 6.6215 33.9249 6.07282L34.4692 3.4436Z" fill="#0089C7"/>
<path d="M6.93586 29.168L7.38528 31.3394C7.47909 31.7925 7.82524 32.151 8.27465 32.2608L10.0065 32.684L8.27465 33.1072C7.82524 33.2171 7.47909 33.5756 7.38528 34.0286L6.93586 36.2001L6.48645 34.0286C6.39264 33.5756 6.04649 33.2171 5.59708 33.1072L3.86523 32.684L5.59708 32.2608C6.04649 32.151 6.39264 31.7925 6.48645 31.3394L6.93586 29.168Z" fill="#0089C7"/>
<path d="M9.89412 5.80811C9.33271 5.80811 9.33162 6.68075 9.89412 6.68075C10.4566 6.68075 10.4566 5.80811 9.89412 5.80811Z" fill="#0089C7"/>
<path d="M15.0953 34.8262C14.5339 34.8262 14.5328 35.6988 15.0953 35.6988C15.6578 35.6988 15.6578 34.8262 15.0953 34.8262Z" fill="#0089C7"/>
<path d="M26.9959 3.74805C26.5937 3.74805 26.2087 4.10147 26.2272 4.5167C26.2458 4.93303 26.565 5.28536 26.9959 5.28536C27.398 5.28536 27.7831 4.93194 27.7645 4.5167C27.746 4.10038 27.4267 3.74805 26.9959 3.74805Z" fill="#0089C7"/>
<path d="M33.1444 31.4841C32.8306 31.4841 32.5299 31.7601 32.5445 32.0841C32.559 32.4091 32.8081 32.684 33.1444 32.684C33.4582 32.684 33.7589 32.408 33.7443 32.0841C33.7298 31.759 33.4807 31.4841 33.1444 31.4841Z" fill="#0089C7"/>
<path d="M3.91026 15.1353C3.42449 15.1353 2.95871 15.5625 2.98126 16.0643C3.0038 16.5675 3.38922 16.9933 3.91026 16.9933C4.39604 16.9933 4.86145 16.566 4.83927 16.0643C4.81672 15.561 4.43094 15.1353 3.91026 15.1353Z" fill="#0089C7"/>
<path fill-rule="evenodd" clip-rule="evenodd" d="M33.25 19.5C33.25 26.9558 27.2058 33 19.75 33C12.2942 33 6.25 26.9558 6.25 19.5C6.25 12.0442 12.2942 6 19.75 6C27.2058 6 33.25 12.0442 33.25 19.5ZM22.4301 16.1576L19.75 11.5L17.0699 16.1576L11.75 17.2309L15.4135 21.1793L14.8049 26.5L19.75 24.2843L24.6911 26.5L24.0825 21.1793L27.75 17.2309L22.4301 16.1576Z" fill="#0089C7"/>
</svg>
