<svg width="41" height="40" viewBox="0 0 41 40" fill="none" xmlns="http://www.w3.org/2000/svg">
<path fill-rule="evenodd" clip-rule="evenodd" d="M34.7193 20.0003C34.7193 27.8533 28.3532 34.2194 20.5002 34.2194C12.6472 34.2194 6.28113 27.8533 6.28113 20.0003C6.28113 12.1473 12.6472 5.78125 20.5002 5.78125C28.3532 5.78125 34.7193 12.1473 34.7193 20.0003ZM19.4821 28.3554C19.5701 28.443 19.6832 28.4874 19.8217 28.4874V28.4885H21.1608C21.2863 28.4885 21.3935 28.4445 21.4815 28.3565C21.5692 28.2681 21.6135 28.155 21.6135 28.0169V26.7155C22.5062 26.6025 23.2825 26.3763 23.9428 26.0367C24.6031 25.6971 25.1154 25.2477 25.4801 24.6881C25.8444 24.1289 26.0269 23.5093 26.0269 22.7548C26.0269 22.0003 25.8666 21.3749 25.5459 20.8782C25.2252 20.3816 24.7187 19.9761 24.0275 19.6616C23.3355 19.3471 22.4367 19.077 21.3303 18.8504C20.6009 18.6621 20.0224 18.4894 19.5952 18.3319C19.1676 18.1749 18.8596 17.9927 18.6709 17.7851C18.4822 17.5775 18.388 17.3229 18.388 17.0211C18.388 16.5561 18.5702 16.2099 18.9349 15.9838C19.2995 15.7573 19.7897 15.6442 20.406 15.6442C20.9841 15.6442 21.4623 15.7671 21.8393 16.0121C22.2167 16.2572 22.4367 16.5434 22.4996 16.8702C22.5749 16.9961 22.6629 17.084 22.7636 17.1342C22.8643 17.1844 22.9712 17.2095 23.0843 17.2095H25.2157C25.3288 17.2095 25.4234 17.1688 25.4986 17.087C25.5739 17.0055 25.6117 16.9142 25.6117 16.8135C25.599 16.3608 25.4386 15.8925 25.1307 15.4082C24.8223 14.9242 24.3762 14.4905 23.7915 14.1069C23.2068 13.7233 22.4807 13.4626 21.6132 13.324V11.9849C21.6132 11.8467 21.5692 11.7333 21.4812 11.6453C21.3928 11.5576 21.2859 11.5133 21.1605 11.5133H19.8213C19.6828 11.5133 19.5697 11.5573 19.4817 11.6453C19.3937 11.7336 19.3497 11.8467 19.3497 11.9849V13.2862C18.0924 13.4495 17.1081 13.8774 16.398 14.5686C15.6875 15.2602 15.3323 16.103 15.3323 17.096C15.3323 17.8505 15.4988 18.4821 15.8322 18.9915C16.1653 19.5006 16.6591 19.9154 17.3128 20.2361C17.9666 20.5568 18.7651 20.8179 19.7082 21.019C20.5002 21.2073 21.1321 21.3837 21.6037 21.5469C22.0753 21.7105 22.4211 21.8927 22.6411 22.0938C22.861 22.2952 22.9712 22.5592 22.9712 22.8861C22.9712 23.3388 22.7665 23.6973 22.3582 23.9612C21.9491 24.2252 21.3361 24.3572 20.5191 24.3572C20.0162 24.3572 19.5952 24.291 19.2556 24.159C18.9159 24.0267 18.6487 23.8605 18.4538 23.6591C18.2589 23.458 18.1175 23.2504 18.0295 23.0366C17.9542 22.9362 17.8724 22.8512 17.7844 22.7821C17.6964 22.7134 17.5706 22.6784 17.4074 22.6784H15.3894C15.2763 22.6784 15.1788 22.7192 15.097 22.801C15.0152 22.8828 14.9745 22.9741 14.9745 23.0744C14.9992 23.6402 15.1752 24.1809 15.5024 24.6964C15.8293 25.212 16.3133 25.6487 16.9547 26.0072C17.5961 26.3654 18.3945 26.6014 19.3501 26.7144V28.0158C19.3501 28.1539 19.3941 28.2674 19.4821 28.3554Z" fill="#FFCC00"/>
<path d="M34.7189 3.44385L35.2633 6.07306C35.3767 6.62174 35.7959 7.05588 36.3403 7.18896L38.4372 7.70128L36.3403 8.2136C35.7959 8.34667 35.3771 8.78082 35.2633 9.32949L34.7189 11.9587L34.1746 9.32949C34.0612 8.78082 33.642 8.34667 33.0976 8.2136L31.0007 7.70128L33.0976 7.18896C33.642 7.05588 34.0608 6.62174 34.1746 6.07306L34.7189 3.44385Z" fill="#FFCC00"/>
<path d="M7.18574 29.168L7.63516 31.3394C7.72897 31.7925 8.07512 32.151 8.52453 32.2608L10.2564 32.684L8.52453 33.1072C8.07512 33.2171 7.72897 33.5756 7.63516 34.0286L7.18574 36.2001L6.73633 34.0286C6.64252 33.5756 6.29637 33.2171 5.84696 33.1072L4.11511 32.684L5.84696 32.2608C6.29637 32.151 6.64252 31.7925 6.73633 31.3394L7.18574 29.168Z" fill="#FFCC00"/>
<path d="M10.144 5.80811C9.58259 5.80811 9.5815 6.68075 10.144 6.68075C10.7065 6.68075 10.7065 5.80811 10.144 5.80811Z" fill="#FFCC00"/>
<path d="M15.3452 34.8262C14.7838 34.8262 14.7827 35.6988 15.3452 35.6988C15.9077 35.6988 15.9077 34.8262 15.3452 34.8262Z" fill="#FFCC00"/>
<path d="M27.2457 3.74805C26.8436 3.74805 26.4585 4.10147 26.4771 4.5167C26.4956 4.93303 26.8149 5.28536 27.2457 5.28536C27.6479 5.28536 28.0329 4.93194 28.0144 4.5167C27.9959 4.10038 27.6766 3.74805 27.2457 3.74805Z" fill="#FFCC00"/>
<path d="M33.3944 31.4839C33.0806 31.4839 32.7799 31.7599 32.7945 32.0838C32.809 32.4089 33.0581 32.6838 33.3944 32.6838C33.7082 32.6838 34.0089 32.4078 33.9943 32.0838C33.9798 31.7588 33.7307 31.4839 33.3944 31.4839Z" fill="#FFCC00"/>
<path d="M4.1599 15.1357C3.67412 15.1357 3.20835 15.563 3.23089 16.0647C3.25343 16.568 3.63885 16.9938 4.1599 16.9938C4.64567 16.9938 5.11108 16.5665 5.0889 16.0647C5.06636 15.5615 4.68058 15.1357 4.1599 15.1357Z" fill="#FFCC00"/>
</svg>
