<svg width="41" height="40" viewBox="0 0 41 40" fill="none" xmlns="http://www.w3.org/2000/svg">
<path d="M34.7202 3.44336L35.2645 6.07258C35.3779 6.62125 35.7972 7.0554 36.3415 7.18847L38.4384 7.70079L36.3415 8.21311C35.7972 8.34619 35.3783 8.78033 35.2645 9.32901L34.7202 11.9582L34.1758 9.32901C34.0624 8.78033 33.6432 8.34619 33.0989 8.21311L31.002 7.70079L33.0989 7.18847C33.6432 7.0554 34.062 6.62125 34.1758 6.07258L34.7202 3.44336Z" fill="#FC7118"/>
<path d="M7.18586 29.1675L7.63528 31.3389C7.72909 31.792 8.07524 32.1505 8.52465 32.2603L10.2565 32.6835L8.52465 33.1068C8.07524 33.2166 7.72909 33.5751 7.63528 34.0281L7.18586 36.1996L6.73645 34.0281C6.64264 33.5751 6.29649 33.2166 5.84708 33.1068L4.11523 32.6835L5.84708 32.2603C6.29649 32.1505 6.64264 31.792 6.73645 31.3389L7.18586 29.1675Z" fill="#FC7118"/>
<path d="M10.1451 5.80762C9.58369 5.80762 9.5826 6.68026 10.1451 6.68026C10.7076 6.68026 10.7076 5.80762 10.1451 5.80762Z" fill="#FC7118"/>
<path d="M15.3453 34.8262C14.7839 34.8262 14.7828 35.6988 15.3453 35.6988C15.9078 35.6988 15.9078 34.8262 15.3453 34.8262Z" fill="#FC7118"/>
<path d="M27.2468 3.74756C26.8447 3.74756 26.4596 4.10098 26.4782 4.51622C26.4967 4.93254 26.816 5.28487 27.2468 5.28487C27.649 5.28487 28.034 4.93145 28.0155 4.51622C27.997 4.09989 27.6777 3.74756 27.2468 3.74756Z" fill="#FC7118"/>
<path d="M33.3954 31.4839C33.0816 31.4839 32.7809 31.7599 32.7954 32.0838C32.81 32.4089 33.059 32.6838 33.3954 32.6838C33.7092 32.6838 34.0099 32.4078 33.9953 32.0838C33.9808 31.7588 33.7317 31.4839 33.3954 31.4839Z" fill="#FC7118"/>
<path d="M4.16026 15.1348C3.67449 15.1348 3.20871 15.562 3.23126 16.0638C3.2538 16.567 3.63922 16.9928 4.16026 16.9928C4.64604 16.9928 5.11145 16.5655 5.08927 16.0638C5.06672 15.5605 4.68094 15.1348 4.16026 15.1348Z" fill="#FC7118"/>
<path fill-rule="evenodd" clip-rule="evenodd" d="M9.9217 28.7453L32.1762 27.3525C33.4008 27.2754 34.3255 26.2619 34.2451 25.0913L33.7805 18.2675L7.09721 19.9364L7.56203 26.7628C7.64244 27.9333 8.69702 28.8224 9.9217 28.7453ZM6.87792 16.7159L6.75486 14.9087C6.67445 13.7351 7.60223 12.7246 8.82382 12.6475L31.0783 11.2547C32.303 11.1776 33.3575 12.0667 33.438 13.2372L33.5612 15.047L6.87792 16.7159ZM31.5941 25.6571L28.7891 25.832C28.4149 25.8557 28.0902 25.583 28.0655 25.2245L28.0562 25.0704C28.0314 24.7118 28.316 24.4006 28.6902 24.3769L31.4952 24.202C31.8694 24.1783 32.1941 24.451 32.2188 24.8096L32.2281 24.9637C32.2529 25.3223 31.9683 25.6334 31.5941 25.6571Z" fill="#FC7118"/>
</svg>
