<svg width="41" height="40" viewBox="0 0 41 40" fill="none" xmlns="http://www.w3.org/2000/svg">
<path d="M36.6529 15.6758L19.8232 9.87665L18.5244 13.6461C18.3778 14.0705 17.9801 14.3373 17.555 14.3373C17.4445 14.3373 17.3314 14.3192 17.2212 14.2813C16.6856 14.097 16.4017 13.5134 16.5856 12.9782L17.8844 9.20871L10.8876 6.79766C9.77499 6.41442 8.56274 7.00564 8.17913 8.1179L6.99415 11.5576L8.16932 11.9623C10.0248 12.6015 11.0105 14.6239 10.3709 16.4797C9.86371 17.9516 8.48638 18.8762 7.01197 18.8762C6.62764 18.8762 6.23749 18.8133 5.85389 18.6813L4.67873 18.2766L3.49374 21.7163C3.1105 22.8289 3.70136 24.0412 4.81362 24.4248L11.8544 26.8511C11.8573 26.7504 11.8755 26.6482 11.9101 26.5471L13.2459 22.6704C13.4303 22.1348 14.0135 21.8501 14.5491 22.0352C15.0847 22.2192 15.3687 22.8027 15.1843 23.3383L13.8484 27.2151C13.8139 27.3154 13.7652 27.4074 13.7052 27.4885L30.5789 33.3029C31.6915 33.6858 32.9038 33.0949 33.2874 31.9826L34.4727 28.543L33.2976 28.1379C31.4421 27.4987 30.4564 25.4767 31.0956 23.6212C31.7348 21.7658 33.7572 20.78 35.613 21.4192L36.7882 21.8243L37.9732 18.3846C38.3564 17.272 37.7652 16.0594 36.6529 15.6761V15.6758ZM17.5223 16.5531L16.1868 20.4302C16.0402 20.8549 15.6425 21.1214 15.2174 21.1214C15.1065 21.1214 14.9938 21.1033 14.8836 21.0651C14.348 20.8807 14.0641 20.2972 14.248 19.7619L15.5839 15.8848C15.7683 15.3496 16.3518 15.0653 16.8871 15.2496C17.4227 15.434 17.7066 16.0175 17.5223 16.5528V16.5531Z" fill="#E42F90"/>
<path d="M32.8755 3.4436L33.663 7.24726C33.8274 8.041 34.4335 8.66931 35.2211 8.86166L38.2546 9.60304L35.2211 10.3444C34.4339 10.5368 33.8274 11.1651 33.663 11.9588L32.8755 15.7625L32.0879 11.9588C31.9236 11.1651 31.3174 10.5368 30.5299 10.3444L27.4963 9.60304L30.5299 8.86166C31.3171 8.66931 31.9236 8.041 32.0879 7.24726L32.8755 3.4436Z" fill="#E42F90"/>
<path d="M8.3628 26.3977L9.01292 29.5389C9.14855 30.1945 9.64923 30.7129 10.2994 30.8718L12.8046 31.4842L10.2994 32.0965C9.64923 32.2554 9.14855 32.7742 9.01292 33.4294L8.3628 36.5706L7.71268 33.4294C7.57705 32.7739 7.07637 32.2554 6.42625 32.0965L3.92102 31.4842L6.42625 30.8718C7.07637 30.7129 7.57705 30.1941 7.71268 29.5389L8.3628 26.3977Z" fill="#E42F90"/>
<path d="M19.8013 6.24463C19.2399 6.24463 19.2389 7.11728 19.8013 7.11728C20.3638 7.11728 20.3638 6.24463 19.8013 6.24463Z" fill="#E42F90"/>
<path d="M14.1921 35.2627C13.6307 35.2627 13.6296 36.1353 14.1921 36.1353C14.7546 36.1353 14.7546 35.2627 14.1921 35.2627Z" fill="#E42F90"/>
<path d="M27.4959 3.74805C27.0937 3.74805 26.7087 4.10147 26.7272 4.5167C26.7458 4.93303 27.065 5.28536 27.4959 5.28536C27.898 5.28536 28.2831 4.93194 28.2645 4.5167C28.246 4.10038 27.9267 3.74805 27.4959 3.74805Z" fill="#E42F90"/>
<path d="M38.4073 25.4268C38.0935 25.4268 37.7928 25.7027 37.8074 26.0267C37.8219 26.3518 38.071 26.6266 38.4073 26.6266C38.7211 26.6266 39.0218 26.3507 39.0073 26.0267C38.9927 25.7016 38.7437 25.4268 38.4073 25.4268Z" fill="#E42F90"/>
<path d="M4.41002 15.1353C3.92424 15.1353 3.45847 15.5625 3.48101 16.0643C3.50355 16.5675 3.88897 16.9933 4.41002 16.9933C4.89579 16.9933 5.3612 16.566 5.33902 16.0643C5.31648 15.561 4.9307 15.1353 4.41002 15.1353Z" fill="#E42F90"/>
</svg>
