<svg width="98" height="136" viewBox="0 0 98 136" fill="none" xmlns="http://www.w3.org/2000/svg">
<g clip-path="url(#clip0_5980_1891)">
<path d="M27.4189 26.2283L28.5983 27.3258C28.8443 27.5548 29.2002 27.6217 29.5127 27.4978L30.7166 27.0203L29.8686 27.9991C29.6484 28.2533 29.5943 28.6111 29.7291 28.9191L30.3758 30.3946L29.1964 29.2972C28.9504 29.0681 28.5945 29.0013 28.282 29.1252L27.0781 29.6027L27.9262 28.6238C28.1463 28.3697 28.2005 28.0118 28.0656 27.7038L27.4189 26.2283Z" fill="#FF9419"/>
<path d="M22.8813 48.377L23.8553 49.2834C24.0585 49.4725 24.3524 49.5278 24.6104 49.4254L25.6048 49.0311L24.9044 49.8396C24.7226 50.0494 24.6777 50.345 24.7892 50.5993L25.3233 51.8178L24.3494 50.9114C24.1461 50.7223 23.8523 50.6671 23.5943 50.7694L22.5999 51.1637L23.3003 50.3552C23.4821 50.1455 23.5269 49.8498 23.4155 49.5956L22.8813 48.377Z" fill="#FF9419"/>
<path d="M16.216 35.92C15.9413 36.115 16.2438 36.5424 16.519 36.347C16.7942 36.1517 16.4912 35.7247 16.216 35.92Z" fill="#FFBD17"/>
<path d="M28.8371 48.3126C28.5624 48.5076 28.8649 48.9349 29.1401 48.7396C29.4153 48.5443 29.1123 48.1173 28.8371 48.3126Z" fill="#FFBD17"/>
<path d="M23.8686 28.9731C23.6718 29.1127 23.6062 29.4194 23.7594 29.6161C23.9131 29.8134 24.1916 29.8749 24.4025 29.7253C24.5992 29.5856 24.6649 29.279 24.5116 29.0823C24.358 28.885 24.0794 28.8235 23.8686 28.9731Z" fill="#FFBD17"/>
<path d="M36.5086 40.4087C36.3551 40.5176 36.3038 40.7571 36.4234 40.9106C36.5434 41.0646 36.7608 41.1126 36.9253 40.9958C37.0789 40.8868 37.1301 40.6473 37.0105 40.4939C36.8905 40.3399 36.6732 40.2919 36.5086 40.4087Z" fill="#FFBD17"/>
<path d="M16.5272 42.5619C16.2895 42.7306 16.21 43.1014 16.3953 43.339C16.581 43.5774 16.9175 43.6519 17.1724 43.471C17.4101 43.3023 17.4895 42.9316 17.3044 42.6938C17.1186 42.4554 16.782 42.3811 16.5272 42.5619Z" fill="#FFBD17"/>
<path d="M34.478 38.811L24.0727 47.2207C23.5002 47.6836 22.6755 47.6149 22.2296 47.07L17.7182 41.5502C17.2713 41.0039 17.3744 40.1873 17.9453 39.7253L28.3506 31.3157C28.9231 30.8527 29.7478 30.9215 30.1936 31.4663L34.7051 36.9861C35.1509 37.531 35.0504 38.348 34.478 38.811Z" fill="url(#paint0_linear_5980_1891)"/>
<path d="M30.8838 32.3089L18.4062 42.3926L19.6319 43.8922L32.1095 33.8085L30.8838 32.3089Z" fill="white"/>
<path d="M33.6048 38.1828L32.2931 39.2424C32.1182 39.3839 31.8646 39.3633 31.728 39.1964L31.67 39.1243C31.5333 38.9574 31.5645 38.7063 31.7393 38.5648L33.0511 37.5052C33.226 37.3636 33.4795 37.3843 33.6162 37.5511L33.6742 37.6233C33.8108 37.7902 33.7797 38.0412 33.6048 38.1828Z" fill="white"/>
</g>
<g clip-path="url(#clip1_5980_1891)">
<path d="M91.2739 21.8674L90.3542 24.39C90.1622 24.9163 90.2904 25.5061 90.6834 25.9055L92.1976 27.444L90.1446 26.777C89.6116 26.604 89.0271 26.7529 88.6417 27.1598L86.7961 29.1098L87.7158 26.5873C87.9078 26.0609 87.7795 25.4712 87.3866 25.0718L85.8724 23.5333L87.9254 24.2003C88.4583 24.3733 89.0429 24.2243 89.4283 23.8175L91.2739 21.8674Z" fill="#FF9419"/>
<path d="M54.3266 29.2691L53.5669 31.3523C53.4085 31.787 53.5144 32.274 53.8389 32.6037L55.0893 33.8745L53.3937 33.3237C52.9537 33.1808 52.4708 33.3037 52.1527 33.6397L50.6286 35.2503L51.3882 33.167C51.5467 32.7323 51.4408 32.2454 51.1163 31.9156L49.8658 30.6449L51.5614 31.1957C52.0014 31.3386 52.4844 31.2157 52.8024 30.8797L54.3266 29.2691Z" fill="#FF9419"/>
<path d="M69.128 10.956C68.6505 10.6608 68.1907 11.4024 68.6691 11.6983C69.1475 11.9941 69.6064 11.2518 69.128 10.956Z" fill="#FFBD17"/>
<path d="M58.2901 38.372C57.8126 38.0768 57.3528 38.8185 57.8312 39.1143C58.3096 39.4101 58.7686 38.6678 58.2901 38.372Z" fill="#FFBD17"/>
<path d="M84.7579 18.1975C84.4158 17.986 83.9024 18.0842 83.6998 18.4471C83.4967 18.811 83.5829 19.2785 83.9494 19.5051C84.2915 19.7166 84.8048 19.6185 85.0074 19.2555C85.2106 18.8917 85.1243 18.4241 84.7579 18.1975Z" fill="#FFBD17"/>
<path d="M75.4013 45.0208C75.1344 44.8558 74.7336 44.9324 74.5756 45.2156C74.417 45.4998 74.4843 45.8646 74.7703 46.0414C75.0372 46.2064 75.4381 46.1298 75.5961 45.8466C75.7547 45.5625 75.6874 45.1977 75.4013 45.0208Z" fill="#FFBD17"/>
<path d="M59.1326 15.7429C58.7195 15.4874 58.0986 15.6059 57.8539 16.0445C57.6085 16.4844 57.7124 17.0492 58.1556 17.3232C58.5687 17.5787 59.1893 17.46 59.4343 17.0216C59.6797 16.5817 59.5755 16.0167 59.1326 15.7429Z" fill="#FFBD17"/>
<path d="M76.5374 40.866L56.8762 30.3476C55.794 29.7691 55.3646 28.4583 55.9118 27.4204L61.459 16.9133C62.0078 15.8728 63.3283 15.5012 64.4079 16.0781L84.0691 26.5965C85.1513 27.175 85.5808 28.4858 85.0336 29.5237L79.4863 40.0308C78.9391 41.0687 77.6196 41.4445 76.5374 40.866Z" fill="url(#paint1_linear_5980_1891)"/>
<path d="M84.1888 31.1294L60.6133 18.5156L59.1063 21.3702L82.6818 33.984L84.1888 31.1294Z" fill="white"/>
<path d="M76.934 39.1178L74.4562 37.7914C74.1255 37.6148 73.9927 37.2121 74.1602 36.8941L74.2333 36.7581C74.4009 36.4401 74.8065 36.3251 75.1373 36.5017L77.615 37.8281C77.9458 38.0047 78.0786 38.4074 77.9111 38.7254L77.8379 38.8613C77.6704 39.1793 77.2648 39.2944 76.934 39.1178Z" fill="white"/>
</g>
<path d="M86.4384 62.8867L87.527 68.1452C87.7539 69.2425 88.5924 70.1108 89.681 70.3769L93.8748 71.4016L89.681 72.4262C88.5924 72.6924 87.7546 73.5607 87.527 74.658L86.4384 79.9164L85.3497 74.658C85.1229 73.5607 84.2844 72.6924 83.1958 72.4262L79.002 71.4016L83.1958 70.3769C84.2844 70.1108 85.1221 69.2425 85.3497 68.1452L86.4384 62.8867Z" fill="#FF9419"/>
<path d="M31.3737 114.336L32.2725 118.679C32.4601 119.585 33.1524 120.302 34.0513 120.522L37.5149 121.368L34.0513 122.214C33.1524 122.434 32.4601 123.151 32.2725 124.057L31.3737 128.4L30.4749 124.057C30.2872 123.151 29.5949 122.434 28.6961 122.214L25.2324 121.368L28.6961 120.522C29.5949 120.302 30.2872 119.585 30.4749 118.679L31.3737 114.336Z" fill="#FF9419"/>
<path d="M37.2902 67.6152C36.1674 67.6152 36.1652 69.3605 37.2902 69.3605C38.4152 69.3605 38.4152 67.6152 37.2902 67.6152Z" fill="#FFBD17"/>
<path d="M47.6906 125.652C46.5678 125.652 46.5656 127.398 47.6906 127.398C48.8156 127.398 48.8156 125.652 47.6906 125.652Z" fill="#FFBD17"/>
<path d="M71.4937 63.4961C70.6894 63.4961 69.9193 64.2029 69.9564 65.0334C69.9935 65.8661 70.6319 66.5707 71.4937 66.5707C72.298 66.5707 73.0681 65.8639 73.031 65.0334C72.9939 64.2008 72.3554 63.4961 71.4937 63.4961Z" fill="#FFBD17"/>
<path d="M83.7888 118.967C83.1612 118.967 82.5598 119.519 82.5889 120.167C82.618 120.817 83.1161 121.367 83.7888 121.367C84.4164 121.367 85.0178 120.815 84.9887 120.167C84.9596 119.517 84.4615 118.967 83.7888 118.967Z" fill="#FFBD17"/>
<path d="M25.3205 86.2695C24.349 86.2695 23.4174 87.124 23.4625 88.1275C23.5076 89.134 24.2784 89.9856 25.3205 89.9856C26.2921 89.9856 27.2229 89.1311 27.1785 88.1275C27.1334 87.1211 26.3619 86.2695 25.3205 86.2695Z" fill="#FFBD17"/>
<path d="M81.3523 110.705L36.8434 113.491C34.394 113.645 32.2849 111.867 32.1241 109.526L30.5097 85.8173C30.3489 83.4702 32.2045 81.4491 34.6476 81.295L79.1566 78.5093C81.6059 78.3552 83.7151 80.1333 83.8759 82.4745L85.4903 106.183C85.6511 108.524 83.8017 110.551 81.3523 110.705Z" fill="url(#paint2_linear_5980_1891)"/>
<path d="M84.1273 86.0934L30.7559 89.4316L31.1946 95.8726L84.566 92.5344L84.1273 86.0934Z" fill="white"/>
<path d="M80.1902 107.315L74.5802 107.665C73.8318 107.713 73.1824 107.167 73.1329 106.45L73.1143 106.142C73.0648 105.425 73.6339 104.802 74.3823 104.755L79.9923 104.405C80.7407 104.358 81.3902 104.903 81.4396 105.62L81.4582 105.928C81.5077 106.646 80.9386 107.268 80.1902 107.315Z" fill="white"/>
<defs>
<linearGradient id="paint0_linear_5980_1891" x1="16.5242" y1="39.1746" x2="33.6504" y2="40.0424" gradientUnits="userSpaceOnUse">
<stop stop-color="#FFBD17"/>
<stop offset="0.6011" stop-color="#FF9419"/>
<stop offset="0.9465" stop-color="#FFBD17"/>
</linearGradient>
<linearGradient id="paint1_linear_5980_1891" x1="64.3314" y1="13.5391" x2="74.1099" y2="40.3944" gradientUnits="userSpaceOnUse">
<stop stop-color="#FFBD17"/>
<stop offset="0.6011" stop-color="#FF9419"/>
<stop offset="0.9465" stop-color="#FFBD17"/>
</linearGradient>
<linearGradient id="paint2_linear_5980_1891" x1="31.847" y1="77.0563" x2="76.7268" y2="112.456" gradientUnits="userSpaceOnUse">
<stop stop-color="#FFBD17"/>
<stop offset="0.6011" stop-color="#FF9419"/>
<stop offset="0.9465" stop-color="#FFBD17"/>
</linearGradient>
<clipPath id="clip0_5980_1891">
<rect width="24" height="24" fill="white" transform="translate(9.48047 36.4277) rotate(-35.3643)"/>
</clipPath>
<clipPath id="clip1_5980_1891">
<rect width="40" height="40" fill="white" transform="translate(63.9785 0.943359) rotate(31.7274)"/>
</clipPath>
</defs>
</svg>
