<svg width="33" height="32" viewBox="0 0 33 32" fill="none" xmlns="http://www.w3.org/2000/svg">
<path d="M15.9559 22.7902C15.8451 22.7902 15.7546 22.7547 15.6842 22.6846C15.6138 22.6142 15.5786 22.5235 15.5786 22.4129V21.3719C14.8142 21.2814 14.1754 21.0926 13.6623 20.8061C13.1492 20.5193 12.762 20.1699 12.5005 19.7575C12.2387 19.345 12.0979 18.9125 12.0781 18.4598C12.0781 18.3796 12.1107 18.3065 12.1762 18.2411C12.2416 18.1756 12.3196 18.1431 12.41 18.1431H14.0244C14.155 18.1431 14.2557 18.171 14.3261 18.226C14.3965 18.2812 14.4619 18.3493 14.5221 18.4296C14.5925 18.6006 14.7057 18.7667 14.8616 18.9276C15.0175 19.0887 15.2313 19.2217 15.503 19.3275C15.7747 19.4331 16.1115 19.4861 16.5138 19.4861C17.1674 19.4861 17.6578 19.3805 17.9851 19.1693C18.3117 18.9581 18.4755 18.6713 18.4755 18.3092C18.4755 18.0477 18.3874 17.8365 18.2114 17.6753C18.0354 17.5145 17.7588 17.3687 17.3815 17.2378C17.0042 17.1072 16.4987 16.9662 15.8651 16.8155C15.1106 16.6546 14.4718 16.4458 13.9488 16.1892C13.4258 15.9327 13.0308 15.6008 12.7643 15.1935C12.4976 14.786 12.3644 14.2807 12.3644 13.6771C12.3644 12.8827 12.6485 12.2085 13.2169 11.6552C13.785 11.1023 14.5724 10.7599 15.5783 10.6293V9.58821C15.5783 9.47768 15.6135 9.38721 15.6839 9.31653C15.7543 9.24613 15.8448 9.21094 15.9556 9.21094H17.0269C17.1273 9.21094 17.2128 9.24642 17.2835 9.31653C17.3539 9.38692 17.3891 9.47768 17.3891 9.58821V10.6595C18.0831 10.7704 18.664 10.9789 19.1317 11.2858C19.5995 11.5927 19.9564 11.9397 20.2031 12.3269C20.4494 12.7143 20.5777 13.089 20.5879 13.4511C20.5879 13.5317 20.5576 13.6047 20.4974 13.6699C20.4372 13.7353 20.3616 13.7679 20.2711 13.7679H18.566C18.4755 13.7679 18.39 13.7478 18.3094 13.7077C18.2288 13.6676 18.1584 13.5972 18.0982 13.4965C18.0479 13.235 17.8719 13.0061 17.57 12.81C17.2683 12.614 16.8858 12.5157 16.4233 12.5157C15.9303 12.5157 15.5382 12.6061 15.2464 12.7873C14.9547 12.9683 14.8089 13.2452 14.8089 13.6172C14.8089 13.8587 14.8843 14.0623 15.0352 14.2284C15.1862 14.3945 15.4326 14.5402 15.7747 14.6659C16.1164 14.7918 16.5792 14.93 17.1628 15.0807C18.0479 15.2619 18.767 15.478 19.3205 15.7296C19.8735 15.9812 20.2787 16.3056 20.5352 16.7029C20.7918 17.1003 20.9201 17.6006 20.9201 18.2042C20.9201 18.8077 20.7741 19.3034 20.4826 19.7508C20.1908 20.1984 19.781 20.558 19.2527 20.8297C18.7245 21.1013 18.1035 21.2823 17.3894 21.3727V22.4138C17.3894 22.5243 17.3539 22.6148 17.2838 22.6855C17.2134 22.7559 17.1276 22.7911 17.0272 22.7911H15.9559V22.7902Z" fill="white"/>
<path d="M27.875 2.75488L28.3104 4.85826C28.4012 5.2972 28.7366 5.64451 29.172 5.75097L30.8495 6.16083L29.172 6.57068C28.7366 6.67715 28.4015 7.02446 28.3104 7.4634L27.875 9.56677L27.4395 7.4634C27.3488 7.02446 27.0134 6.67715 26.5779 6.57068L24.9004 6.16083L26.5779 5.75097C27.0134 5.64451 27.3485 5.2972 27.4395 4.85826L27.875 2.75488Z" fill="#52A1FF"/>
<path d="M5.84908 23.334L6.20861 25.0711C6.28366 25.4336 6.56058 25.7204 6.92011 25.8082L8.30559 26.1468L6.92011 26.4854C6.56058 26.5733 6.28366 26.8601 6.20861 27.2225L5.84908 28.9597L5.48955 27.2225C5.4145 26.8601 5.13758 26.5733 4.77805 26.4854L3.39258 26.1468L4.77805 25.8082C5.13758 25.7204 5.4145 25.4336 5.48955 25.0711L5.84908 23.334Z" fill="#52A1FF"/>
<path d="M8.21412 4.64648C7.765 4.64648 7.76413 5.3446 8.21412 5.3446C8.66412 5.3446 8.66412 4.64648 8.21412 4.64648Z" fill="#91F7E7"/>
<path d="M12.3762 27.8613C11.9271 27.8613 11.9262 28.5594 12.3762 28.5594C12.8262 28.5594 12.8262 27.8613 12.3762 27.8613Z" fill="#52A1FF"/>
<path d="M21.8967 2.99805C21.575 2.99805 21.2669 3.28078 21.2818 3.61297C21.2966 3.94603 21.552 4.2279 21.8967 4.2279C22.2184 4.2279 22.5265 3.94516 22.5116 3.61297C22.4968 3.27991 22.2414 2.99805 21.8967 2.99805Z" fill="#91F7E7"/>
<path d="M26.8143 25.1875C26.5633 25.1875 26.3228 25.4083 26.3344 25.6675C26.346 25.9275 26.5453 26.1474 26.8143 26.1474C27.0654 26.1474 27.3059 25.9266 27.2943 25.6675C27.2827 25.4074 27.0834 25.1875 26.8143 25.1875Z" fill="#52A1FF"/>
<path d="M3.42743 12.1084C3.03881 12.1084 2.66619 12.4502 2.68422 12.8516C2.70226 13.2542 3.01059 13.5948 3.42743 13.5948C3.81605 13.5948 4.18838 13.253 4.17063 12.8516C4.1526 12.449 3.84397 12.1084 3.42743 12.1084Z" fill="#91F7E7"/>
<path d="M27.7008 15.5998C27.7008 21.5663 23.4632 26.3998 18.2347 26.3998C17.0704 26.3998 14.764 26.3998 14.764 26.3998C14.764 26.3998 8.77148 24.347 8.77148 15.5998C8.77148 6.8526 14.7668 4.7998 14.7668 4.7998C14.7668 4.7998 17.1767 4.7998 18.2375 4.7998C23.4632 4.7998 27.7008 9.63635 27.7008 15.5998Z" fill="url(#paint0_linear_5980_1250)"/>
<path d="M14.7668 26.3998C19.9948 26.3998 24.2329 21.5645 24.2329 15.5998C24.2329 9.63513 19.9948 4.7998 14.7668 4.7998C9.53888 4.7998 5.30078 9.63513 5.30078 15.5998C5.30078 21.5645 9.53888 26.3998 14.7668 26.3998Z" fill="url(#paint1_linear_5980_1250)"/>
<path d="M14.7669 9.64258L16.6282 13.3431L20.3228 14.1959L17.7757 17.3329L18.1984 21.5603L14.7669 19.7999L11.3325 21.5603L11.7552 17.3329L9.21094 14.1959L12.9056 13.3431L14.7669 9.64258Z" fill="white"/>
<defs>
<linearGradient id="paint0_linear_5980_1250" x1="6.81148" y1="0.453512" x2="28.7427" y2="25.6467" gradientUnits="userSpaceOnUse">
<stop stop-color="#419FE7"/>
<stop offset="1" stop-color="#4099C9"/>
</linearGradient>
<linearGradient id="paint1_linear_5980_1250" x1="4.01003" y1="0.968495" x2="25.3195" y2="25.4474" gradientUnits="userSpaceOnUse">
<stop stop-color="#91F7E7"/>
<stop offset="1" stop-color="#52A1FF"/>
</linearGradient>
</defs>
</svg>
