<svg width="80" height="80" viewBox="0 0 80 80" fill="none" xmlns="http://www.w3.org/2000/svg">
<path d="M40 68.4381C55.706 68.4381 68.4381 55.706 68.4381 40C68.4381 24.2941 55.706 11.5619 40 11.5619C24.2941 11.5619 11.5619 24.2941 11.5619 40C11.5619 55.706 24.2941 68.4381 40 68.4381Z" fill="url(#paint0_linear_1_964)"/>
<path d="M38.6416 56.9744C38.3645 56.9744 38.1383 56.8857 37.9624 56.7105C37.7864 56.5345 37.6984 56.3076 37.6984 56.0312V53.4286C35.7873 53.2024 34.1903 52.7305 32.9075 52.0142C31.6247 51.2971 30.6568 50.4238 30.0031 49.3926C29.3486 48.3614 28.9966 47.28 28.9472 46.1485C28.9472 45.9478 29.0286 45.7653 29.1922 45.6016C29.3559 45.438 29.5508 45.3566 29.7769 45.3566H33.8129C34.1394 45.3566 34.391 45.4264 34.567 45.5638C34.743 45.702 34.9066 45.8722 35.0572 46.0729C35.2331 46.5005 35.516 46.9157 35.9058 47.3179C36.2956 47.7207 36.8301 48.0531 37.5093 48.3178C38.1885 48.5817 39.0306 48.7141 40.0363 48.7141C41.6704 48.7141 42.8965 48.4501 43.7146 47.9222C44.5312 47.3942 44.9406 46.6772 44.9406 45.7718C44.9406 45.1181 44.7203 44.5901 44.2803 44.1872C43.8404 43.7851 43.1488 43.4208 42.2056 43.0935C41.2624 42.767 39.9985 42.4143 38.4147 42.0376C36.5283 41.6355 34.9314 41.1133 33.6238 40.4719C32.3163 39.8305 31.3288 39.0008 30.6627 37.9827C29.9958 36.9639 29.6627 35.7007 29.6627 34.1918C29.6627 32.2058 30.3732 30.5201 31.7942 29.137C33.2144 27.7545 35.183 26.8986 37.6977 26.5721V23.9694C37.6977 23.6931 37.7856 23.4669 37.9616 23.2902C38.1376 23.1142 38.3638 23.0262 38.6408 23.0262H41.3191C41.57 23.0262 41.7838 23.115 41.9605 23.2902C42.1365 23.4662 42.2245 23.6931 42.2245 23.9694V26.6477C43.9596 26.9248 45.4119 27.4462 46.5812 28.2134C47.7506 28.9806 48.6428 29.8482 49.2595 30.8161C49.8755 31.7847 50.1962 32.7214 50.2216 33.6267C50.2216 33.8282 50.146 34.0107 49.9954 34.1736C49.8449 34.3372 49.6558 34.4187 49.4297 34.4187H45.1668C44.9406 34.4187 44.7268 34.3685 44.5254 34.2681C44.324 34.1678 44.148 33.9918 43.9974 33.7402C43.8716 33.0864 43.4317 32.5141 42.6768 32.024C41.9227 31.5338 40.9664 31.288 39.8102 31.288C38.5776 31.288 37.5973 31.5142 36.8679 31.9672C36.1385 32.4196 35.7742 33.1119 35.7742 34.042C35.7742 34.6456 35.9625 35.1546 36.34 35.5698C36.7174 35.9851 37.3333 36.3494 38.1885 36.6636C39.043 36.9784 40.2 37.3239 41.6587 37.7005C43.8716 38.1536 45.6693 38.6939 47.0532 39.3229C48.4356 39.952 49.4486 40.7628 50.09 41.7562C50.7314 42.7495 51.0521 44.0003 51.0521 45.5093C51.0521 47.0182 50.687 48.2574 49.9584 49.3758C49.229 50.495 48.2043 51.3938 46.8837 52.0731C45.5631 52.7523 44.0105 53.2046 42.2252 53.4308V56.0334C42.2252 56.3098 42.1365 56.5359 41.9613 56.7126C41.7853 56.8886 41.5708 56.9766 41.3199 56.9766H38.6416V56.9744Z" fill="white"/>
<path d="M68.4382 6.88736L69.5268 12.1458C69.7537 13.2431 70.5921 14.1114 71.6808 14.3776L75.8746 15.4022L71.6808 16.4269C70.5921 16.693 69.7544 17.5613 69.5268 18.6587L68.4382 23.9171L67.3495 18.6587C67.1226 17.5613 66.2842 16.693 65.1955 16.4269L61.0017 15.4022L65.1955 14.3776C66.2842 14.1114 67.1219 13.2431 67.3495 12.1458L68.4382 6.88736Z" fill="url(#paint1_linear_1_964)"/>
<path d="M13.3726 58.3358L14.2714 62.6786C14.4591 63.5847 15.1514 64.3018 16.0502 64.5214L19.5139 65.3678L16.0502 66.2143C15.1514 66.4339 14.4591 67.151 14.2714 68.0571L13.3726 72.3999L12.4738 68.0571C12.2862 67.151 11.5939 66.4339 10.695 66.2143L7.23135 65.3678L10.695 64.5214C11.5939 64.3018 12.2862 63.5847 12.4738 62.6786L13.3726 58.3358Z" fill="url(#paint2_linear_1_964)"/>
<path d="M19.2892 11.6164C18.1663 11.6164 18.1642 13.3617 19.2892 13.3617C20.4141 13.3617 20.4141 11.6164 19.2892 11.6164Z" fill="url(#paint3_linear_1_964)"/>
<path d="M29.6897 69.6526C28.5669 69.6526 28.5647 71.3979 29.6897 71.3979C30.8147 71.3979 30.8147 69.6526 29.6897 69.6526Z" fill="url(#paint4_linear_1_964)"/>
<path d="M53.4926 7.49603C52.6883 7.49603 51.9182 8.20288 51.9553 9.03335C51.9924 9.866 52.6308 10.5707 53.4926 10.5707C54.2969 10.5707 55.067 9.86382 55.0299 9.03335C54.9928 8.2007 54.3543 7.49603 53.4926 7.49603Z" fill="url(#paint5_linear_1_964)"/>
<path d="M65.7889 62.9681C65.1614 62.9681 64.56 63.52 64.5891 64.168C64.6181 64.8181 65.1163 65.3679 65.7889 65.3679C66.4165 65.3679 67.0179 64.8159 66.9888 64.168C66.9598 63.5178 66.4616 62.9681 65.7889 62.9681Z" fill="url(#paint6_linear_1_964)"/>
<path d="M7.32007 30.2707C6.34852 30.2707 5.41697 31.1252 5.46205 32.1287C5.50714 33.1352 6.27798 33.9867 7.32007 33.9867C8.29161 33.9867 9.22244 33.1322 9.17808 32.1287C9.13299 31.1222 8.36143 30.2707 7.32007 30.2707Z" fill="url(#paint7_linear_1_964)"/>
<defs>
<linearGradient id="paint0_linear_1_964" x1="8.61958" y1="0.774476" x2="64.8894" y2="71.1114" gradientUnits="userSpaceOnUse">
<stop stop-color="#FFF143"/>
<stop offset="0.58" stop-color="#FFBD17"/>
<stop offset="0.84" stop-color="#FFCF43"/>
</linearGradient>
<linearGradient id="paint1_linear_1_964" x1="37.9587" y1="-22.6969" x2="94.2285" y2="47.6408" gradientUnits="userSpaceOnUse">
<stop stop-color="#FFF143"/>
<stop offset="0.58" stop-color="#FFBD17"/>
<stop offset="0.84" stop-color="#FFCF43"/>
</linearGradient>
<linearGradient id="paint2_linear_1_964" x1="-19.9909" y1="23.6633" x2="36.2789" y2="94.0001" gradientUnits="userSpaceOnUse">
<stop stop-color="#FFF143"/>
<stop offset="0.58" stop-color="#FFBD17"/>
<stop offset="0.84" stop-color="#FFCF43"/>
</linearGradient>
<linearGradient id="paint3_linear_1_964" x1="9.41077" y1="0.141804" x2="65.6805" y2="70.4787" gradientUnits="userSpaceOnUse">
<stop stop-color="#FFF143"/>
<stop offset="0.58" stop-color="#FFBD17"/>
<stop offset="0.84" stop-color="#FFCF43"/>
</linearGradient>
<linearGradient id="paint4_linear_1_964" x1="-12.5574" y1="17.7161" x2="43.7119" y2="88.0537" gradientUnits="userSpaceOnUse">
<stop stop-color="#FFF143"/>
<stop offset="0.58" stop-color="#FFBD17"/>
<stop offset="0.84" stop-color="#FFCF43"/>
</linearGradient>
<linearGradient id="paint5_linear_1_964" x1="31.9527" y1="-17.8915" x2="88.2225" y2="52.4454" gradientUnits="userSpaceOnUse">
<stop stop-color="#FFF143"/>
<stop offset="0.58" stop-color="#FFBD17"/>
<stop offset="0.84" stop-color="#FFCF43"/>
</linearGradient>
<linearGradient id="paint6_linear_1_964" x1="12.5552" y1="-2.37357" x2="68.825" y2="67.9633" gradientUnits="userSpaceOnUse">
<stop stop-color="#FFF143"/>
<stop offset="0.58" stop-color="#FFBD17"/>
<stop offset="0.84" stop-color="#FFCF43"/>
</linearGradient>
<linearGradient id="paint7_linear_1_964" x1="-7.46695" y1="13.6446" x2="48.8021" y2="83.9814" gradientUnits="userSpaceOnUse">
<stop stop-color="#FFF143"/>
<stop offset="0.58" stop-color="#FFBD17"/>
<stop offset="0.84" stop-color="#FFCF43"/>
</linearGradient>
</defs>
</svg>
