<svg width="44" height="53" viewBox="0 0 44 53" fill="none" xmlns="http://www.w3.org/2000/svg">
<path d="M21.4994 32.2736C14.5952 32.2736 8.9988 30.8627 9 29.1235V39.8501C9 41.5932 14.5952 42.9993 21.4994 43.0002C28.4036 43.0012 34 41.5922 34 39.854V29.1274C34 30.8656 28.4024 32.2746 21.4994 32.2736Z" fill="#F05959"/>
<path d="M21.5 32.5927C28.4036 32.5927 34 31.1948 34 29.4704C34 27.746 28.4036 26.3481 21.5 26.3481C14.5964 26.3481 9 27.746 9 29.4704C9 31.1948 14.5964 32.5927 21.5 32.5927Z" fill="#FFF0F0"/>
<path d="M21.4994 32.2306C14.5952 32.2306 8.9988 30.839 9 29.1235V35.0167C9.09524 35.0691 9.21254 35.0897 9.32666 35.074C9.70735 35.0282 9.98117 34.7521 10.1241 34.4685C10.267 34.1848 10.3174 33.8734 10.4712 33.5935C10.6249 33.3137 10.9287 33.0501 11.3118 33.0358C11.8306 33.0167 12.1993 33.4398 12.3494 33.8352C12.5896 34.4627 12.5548 35.1332 12.544 35.7894C12.5332 36.4456 12.5536 37.1266 12.8838 37.7245C13.2141 38.3224 13.9335 38.8372 14.7597 38.8372C15.5319 38.8372 16.2165 38.3883 16.5815 37.8467C16.9466 37.3052 17.0511 36.6805 17.1388 36.0702C17.2265 35.4599 17.3081 34.8352 17.6348 34.2774C17.7981 33.9985 18.0335 33.733 18.3745 33.5869C18.7156 33.4407 19.1756 33.4426 19.4554 33.6528C20.003 34.0597 19.5599 34.8495 19.9646 35.3519C20.3381 35.8181 21.264 35.7741 21.808 35.4312C22.3521 35.0883 22.6343 34.5544 22.9742 34.073C23.314 33.5916 23.8016 33.1093 24.4873 33.0224C25.3364 32.9116 26.1146 33.4598 26.5121 34.0673C26.9096 34.6748 27.0718 35.3691 27.5053 35.9604C27.9388 36.5516 28.8083 37.0368 29.6346 36.8314C30.4608 36.6261 30.7911 35.8639 30.8908 35.1905C30.958 34.7435 31.0853 32.5821 32.3319 33.1332C32.6766 33.2841 32.8315 33.6107 32.9216 33.9145C33.0116 34.2182 33.0681 34.5458 33.3107 34.7922C33.3924 34.8747 33.4974 34.9406 33.6172 34.9847C33.7369 35.0289 33.8681 35.05 34 35.0463V29.1274C34 30.8418 28.4024 32.2315 21.4994 32.2306Z" fill="#FFD2D4"/>
<path d="M21.5297 22.1435C16.7187 22.1435 12.819 21.0644 12.8198 19.7344V27.9377C12.8198 29.2708 16.7187 30.3461 21.5297 30.3468C26.3408 30.3476 30.2405 29.27 30.2405 27.9407V19.7373C30.2405 21.0667 26.3399 22.1442 21.5297 22.1435Z" fill="#F05959"/>
<path d="M21.5301 22.1433C26.3409 22.1433 30.2408 21.0654 30.2408 19.7357C30.2408 18.4061 26.3409 17.3281 21.5301 17.3281C16.7193 17.3281 12.8193 18.4061 12.8193 19.7357C12.8193 21.0654 16.7193 22.1433 21.5301 22.1433Z" fill="#FFF0F0"/>
<path d="M21.5297 22.1435C16.7187 22.1435 12.819 21.0644 12.8198 19.7344V24.3037C12.8862 24.3444 12.9679 24.3603 13.0474 24.3482C13.3127 24.3126 13.5035 24.0986 13.6031 23.8786C13.7027 23.6587 13.7378 23.4173 13.845 23.2003C13.9521 22.9833 14.1638 22.7789 14.4308 22.7678C14.7923 22.753 15.0492 23.081 15.1538 23.3876C15.3212 23.8742 15.2969 24.3941 15.2894 24.9029C15.2818 25.4116 15.2961 25.9397 15.5262 26.4033C15.7563 26.8669 16.2576 27.266 16.8333 27.266C17.3714 27.266 17.8484 26.918 18.1028 26.4981C18.3572 26.0781 18.4301 25.5938 18.4911 25.1206C18.5522 24.6474 18.6091 24.163 18.8368 23.7305C18.9506 23.5143 19.1146 23.3084 19.3523 23.1951C19.5899 23.0818 19.9104 23.0833 20.1054 23.2462C20.487 23.5617 20.1782 24.1741 20.4602 24.5637C20.7205 24.9251 21.3657 24.891 21.7448 24.6251C22.1239 24.3593 22.3206 23.9453 22.5574 23.572C22.7942 23.1988 23.134 22.8248 23.6118 22.7574C24.2035 22.6715 24.7457 23.0966 25.0227 23.5676C25.2997 24.0386 25.4127 24.577 25.7148 25.0354C26.0169 25.4938 26.6228 25.87 27.1985 25.7108C27.7743 25.5516 28.0044 24.9606 28.0739 24.4385C28.1207 24.0919 28.2095 22.416 29.0781 22.8433C29.3183 22.9603 29.4262 23.2136 29.489 23.4491C29.5518 23.6846 29.5911 23.9386 29.7601 24.1297C29.8171 24.1936 29.8903 24.2447 29.9737 24.279C30.0572 24.3132 30.1486 24.3295 30.2405 24.3267V19.7373C30.2405 21.0667 26.3399 22.1442 21.5297 22.1435Z" fill="#FFD2D4"/>
<path d="M16.209 13.1217C16.2305 13.2444 16.6297 13.2983 17.1019 13.2428C17.5741 13.1873 17.9395 13.0412 17.9179 12.9185L18.9813 19.3272C19.002 19.4499 18.6366 19.5952 18.1643 19.6515C17.6921 19.7078 17.293 19.6515 17.2724 19.5304L16.209 13.1217Z" fill="#FF8E89"/>
<path d="M17.9149 12.9183C17.9365 13.041 17.5711 13.1864 17.0989 13.2427C16.6267 13.2989 16.2275 13.2427 16.206 13.1215C16.1844 13.0004 16.5508 12.8535 17.023 12.7972C17.4952 12.7409 17.8953 12.7948 17.9149 12.9183Z" fill="#FFD2D4"/>
<path d="M16.0368 11.9036C16.038 12.0711 16.1189 12.2313 16.2618 12.3489C16.4046 12.4666 16.5977 12.5321 16.7985 12.531C16.9993 12.5299 17.1914 12.4623 17.3325 12.3431C17.4736 12.2239 17.5522 12.0628 17.551 11.8953C17.5485 11.5464 16.7823 10.3049 16.7823 10.3049C16.7823 10.3049 16.0338 11.5578 16.0368 11.9036Z" fill="#FFC700"/>
<path d="M16.3321 12.0238C16.3324 12.0745 16.3447 12.1245 16.3683 12.1712C16.3919 12.2179 16.4262 12.2602 16.4694 12.2958C16.5126 12.3314 16.5637 12.3595 16.6199 12.3786C16.6762 12.3977 16.7364 12.4073 16.7971 12.407C16.8578 12.4067 16.9178 12.3964 16.9738 12.3767C17.0297 12.357 17.0805 12.3284 17.1232 12.2923C17.1659 12.2563 17.1996 12.2136 17.2225 12.1667C17.2454 12.1198 17.257 12.0696 17.2567 12.019C17.2556 11.8059 16.7878 11.0469 16.7878 11.0469C16.7878 11.0469 16.3301 11.8106 16.3321 12.0238Z" fill="#FF9E00"/>
<path d="M18.6924 17.6093L18.5247 16.5933C18.0392 17.0216 17.5212 17.4236 16.9741 17.7968L17.1334 18.7245C17.6797 18.3795 18.2003 18.007 18.6924 17.6093Z" fill="#FFF7F9"/>
<path d="M18.1036 14.0249C17.6162 14.4463 17.0967 14.841 16.5483 15.2066L16.7067 16.1351C17.254 15.7885 17.7759 15.4147 18.2695 15.0159L18.1036 14.0249Z" fill="#FFF7F9"/>
<path d="M20.2799 12.8318C20.2841 12.9584 20.6718 13.0676 21.1472 13.0764C21.6226 13.0852 22.0049 12.988 22.0007 12.8613L22.1564 19.4677C22.1597 19.5942 21.7775 19.6906 21.302 19.6826C20.8264 19.6746 20.4391 19.5631 20.4356 19.4381L20.2799 12.8318Z" fill="#FF8E89"/>
<path d="M21.998 12.8611C22.0021 12.9878 21.6198 13.0842 21.1442 13.0762C20.6686 13.0682 20.2812 12.9567 20.2768 12.8316C20.2724 12.7065 20.6559 12.6086 21.1315 12.6166C21.6071 12.6246 21.9958 12.7339 21.998 12.8611Z" fill="#FFD2D4"/>
<path d="M20.3505 11.682C20.3553 11.853 20.4395 12.0184 20.5845 12.1418C20.7294 12.2652 20.9234 12.3365 21.1235 12.3399C21.3237 12.3434 21.5138 12.2787 21.6519 12.1602C21.7901 12.0417 21.8649 11.879 21.8601 11.7079C21.85 11.3516 21.0592 10.0664 21.0592 10.0664C21.0592 10.0664 20.34 11.3288 20.3505 11.682Z" fill="#FFC700"/>
<path d="M20.6472 11.8115C20.6486 11.8632 20.662 11.9146 20.6865 11.9628C20.711 12.011 20.7462 12.055 20.79 12.0923C20.8338 12.1296 20.8854 12.1595 20.9419 12.1803C20.9984 12.201 21.0586 12.2123 21.1191 12.2133C21.1796 12.2144 21.2393 12.2052 21.2946 12.1864C21.35 12.1676 21.4 12.1395 21.4418 12.1036C21.4835 12.0678 21.5163 12.025 21.5381 11.9776C21.5599 11.9302 21.5704 11.8792 21.569 11.8275C21.5633 11.6099 21.0803 10.8243 21.0803 10.8243C21.0803 10.8243 20.6406 11.5937 20.6472 11.8115Z" fill="#FF9E00"/>
<path d="M22.1118 17.6965L22.088 16.6492C21.5471 17.0144 20.9778 17.3487 20.3837 17.6499L20.4115 18.607C21.0009 18.334 21.5687 18.0299 22.1118 17.6965Z" fill="#FFF7F9"/>
<path d="M22.0299 14.0024C21.4881 14.3603 20.9183 14.687 20.324 14.9804L20.3508 15.9381C20.9414 15.6637 21.5106 15.3585 22.0553 15.0242L22.0299 14.0024Z" fill="#FFF7F9"/>
<path d="M24.2434 12.94C24.2331 13.0615 24.6049 13.2156 25.0749 13.2852C25.545 13.3548 25.9349 13.3112 25.9451 13.1897L25.3475 19.5196C25.3363 19.6408 24.9466 19.6838 24.4764 19.6149C24.0061 19.5461 23.635 19.3897 23.6458 19.27L24.2434 12.94Z" fill="#FF8E89"/>
<path d="M25.9423 13.1893C25.932 13.3109 25.5422 13.3538 25.0718 13.2849C24.6015 13.2161 24.2302 13.0597 24.2401 12.9396C24.25 12.8196 24.6411 12.7754 25.1115 12.8443C25.5818 12.9132 25.9546 13.0676 25.9423 13.1893Z" fill="#FFD2D4"/>
<path d="M24.5014 11.9312C24.508 12.0974 24.5932 12.2613 24.7382 12.3868C24.8831 12.5123 25.076 12.5892 25.2744 12.6006C25.4728 12.6119 25.6604 12.5568 25.796 12.4473C25.9315 12.3378 26.004 12.183 25.9973 12.0168C25.9835 11.6706 25.1861 10.3917 25.1861 10.3917C25.1861 10.3917 24.4872 11.588 24.5014 11.9312Z" fill="#FFC700"/>
<path d="M24.7968 12.0689C24.7988 12.1192 24.8126 12.1696 24.8373 12.2174C24.8621 12.2651 24.8975 12.3092 24.9413 12.3472C24.9851 12.3851 25.0366 12.4162 25.0927 12.4386C25.1489 12.461 25.2087 12.4743 25.2687 12.4778C25.3287 12.4812 25.3877 12.4747 25.4423 12.4587C25.497 12.4426 25.5462 12.4174 25.5872 12.3843C25.6282 12.3512 25.6602 12.3109 25.6813 12.2658C25.7024 12.2207 25.7122 12.1716 25.7102 12.1214C25.7022 11.91 25.2153 11.1283 25.2153 11.1283C25.2153 11.1283 24.7879 11.8574 24.7968 12.0689Z" fill="#FF9E00"/>
<path d="M25.5044 17.8221L25.6 16.8187C25.0225 17.098 24.4204 17.344 23.7974 17.5552L23.716 18.473C24.3311 18.2881 24.9283 18.0707 25.5044 17.8221Z" fill="#FFF7F9"/>
<path d="M25.8443 14.2833C25.2667 14.5554 24.6649 14.7942 24.0427 14.9979L23.9602 15.9162C24.5767 15.7301 25.1754 15.5118 25.7532 15.2625L25.8443 14.2833Z" fill="#FFF7F9"/>
</svg>
