<svg width="80" height="80" viewBox="0 0 80 80" fill="none" xmlns="http://www.w3.org/2000/svg">
<path d="M40 8.125C33.6957 8.125 27.533 9.99444 22.2912 13.4969C17.0494 16.9994 12.9639 21.9776 10.5514 27.802C8.13881 33.6264 7.50758 40.0354 8.73748 46.2185C9.96739 52.4016 13.0032 58.0812 17.461 62.539C21.9188 66.9968 27.5984 70.0326 33.7815 71.2625C39.9647 72.4924 46.3737 71.8612 52.198 69.4487C58.0224 67.0361 63.0006 62.9506 66.5031 57.7088C70.0056 52.467 71.875 46.3043 71.875 40C71.8651 31.5493 68.5037 23.4475 62.5281 17.4719C56.5525 11.4964 48.4507 8.13492 40 8.125ZM40 68.125C34.4374 68.125 28.9997 66.4755 24.3746 63.3851C19.7495 60.2947 16.1446 55.9021 14.0159 50.763C11.8872 45.6238 11.3302 39.9688 12.4154 34.5131C13.5006 29.0574 16.1793 24.046 20.1126 20.1126C24.046 16.1793 29.0574 13.5006 34.5131 12.4154C39.9688 11.3302 45.6238 11.8872 50.763 14.0159C55.9022 16.1446 60.2947 19.7495 63.3851 24.3746C66.4755 28.9997 68.125 34.4374 68.125 40C68.1167 47.4567 65.1509 54.6056 59.8783 59.8782C54.6056 65.1509 47.4567 68.1167 40 68.125ZM25.625 33.75C25.625 33.1319 25.8083 32.5277 26.1517 32.0138C26.4951 31.4999 26.9831 31.0994 27.5541 30.8629C28.1251 30.6264 28.7535 30.5645 29.3597 30.685C29.9659 30.8056 30.5227 31.1033 30.9597 31.5403C31.3968 31.9773 31.6944 32.5342 31.815 33.1403C31.9355 33.7465 31.8737 34.3749 31.6371 34.9459C31.4006 35.5169 31.0001 36.005 30.4862 36.3483C29.9723 36.6917 29.3681 36.875 28.75 36.875C27.9212 36.875 27.1264 36.5458 26.5403 35.9597C25.9543 35.3737 25.625 34.5788 25.625 33.75ZM54.375 33.75C54.375 34.3681 54.1917 34.9723 53.8484 35.4862C53.505 36.0001 53.0169 36.4006 52.4459 36.6371C51.8749 36.8736 51.2465 36.9355 50.6404 36.815C50.0342 36.6944 49.4773 36.3967 49.0403 35.9597C48.6033 35.5227 48.3056 34.9658 48.1851 34.3597C48.0645 33.7535 48.1264 33.1251 48.3629 32.5541C48.5994 31.9831 49 31.495 49.5139 31.1517C50.0278 30.8083 50.6319 30.625 51.25 30.625C52.0788 30.625 52.8737 30.9542 53.4597 31.5403C54.0458 32.1263 54.375 32.9212 54.375 33.75ZM54.1219 54.0625C54.3461 54.491 54.396 54.9896 54.2612 55.454C54.1265 55.9185 53.8175 56.3129 53.3988 56.5549C52.9801 56.7969 52.4841 56.8678 52.0144 56.7528C51.5447 56.6377 51.1376 56.3456 50.8781 55.9375C48.4281 51.7062 44.5656 49.375 40 49.375C35.4344 49.375 31.5625 51.7062 29.1219 55.9375C28.9572 56.2227 28.7203 56.4595 28.4351 56.6241C28.1498 56.7887 27.8262 56.8752 27.4969 56.875C27.1674 56.8759 26.8437 56.7885 26.5594 56.6219C26.1301 56.3724 25.8173 55.9628 25.6896 55.483C25.5619 55.0032 25.6297 54.4924 25.8781 54.0625C28.9781 48.7 34.125 45.625 40 45.625C45.875 45.625 51.0219 48.7 54.1219 54.0625Z" fill="#FF9419"/>
</svg>
