<svg width="33" height="32" viewBox="0 0 33 32" fill="none" xmlns="http://www.w3.org/2000/svg">
<path d="M16.1928 1C7.90851 1 1.19287 7.71591 1.19287 16.0002C1.19287 24.2842 7.90851 31 16.1928 31C24.4766 31 31.1925 24.2842 31.1925 16.0002C31.1925 7.71598 24.4766 1 16.1928 1Z" fill="#F2F2F3"/>
<path d="M16.1927 6C10.6699 6 6.19287 10.4769 6.19287 16C6.19287 21.5229 10.6699 26 16.1927 26C21.7157 26 26.1929 21.5229 26.1929 16C26.1929 10.4769 21.7157 6 16.1927 6Z" fill="#303030"/>
<path d="M16.1933 8C11.7749 8 8.19287 11.5814 8.19287 15.9997C8.19287 20.4182 11.7749 24 16.1933 24C20.6114 24 24.1934 20.4182 24.1934 15.9997C24.1934 11.5814 20.6114 8 16.1933 8Z" fill="#FF9419"/>
<path d="M6.19829 20.2027C5.85678 20.1061 5.5449 19.9067 5.29595 19.6256C5.047 19.3446 4.87033 18.9924 4.7848 18.6069L4.75491 18.4729L4.72508 18.6069C4.63949 18.9925 4.46277 19.3446 4.21376 19.6257C3.96476 19.9067 3.65283 20.1062 3.31127 20.2027L3.19287 20.2365L3.31133 20.2701C3.65292 20.3666 3.96487 20.5661 4.21388 20.8472C4.46289 21.1282 4.6396 21.4804 4.72515 21.866L4.75498 22L4.78487 21.866C4.87037 21.4804 5.04703 21.1283 5.29598 20.8472C5.54493 20.5661 5.85682 20.3667 6.19836 20.2701L6.31721 20.2365L6.19829 20.2027ZM28.074 9.7298C27.7325 9.63318 27.4207 9.43371 27.1717 9.15265C26.9228 8.8716 26.7461 8.51952 26.6605 8.13397L26.6306 8L26.6008 8.13397C26.5152 8.51953 26.3384 8.87162 26.0895 9.15267C25.8405 9.43373 25.5286 9.63319 25.1871 9.7298L25.0686 9.76333L25.1871 9.79693C25.5286 9.89349 25.8406 10.093 26.0896 10.3741C26.3386 10.6552 26.5153 11.0073 26.6008 11.393L26.6306 11.5269L26.6605 11.393C26.746 11.0074 26.9227 10.6552 27.1716 10.3741C27.4206 10.093 27.7325 9.89351 28.074 9.79693L28.1929 9.76333L28.074 9.7298ZM5.15459 15.7852C4.95463 15.7287 4.77203 15.6119 4.62627 15.4473C4.48051 15.2828 4.37706 15.0766 4.32697 14.8509L4.30945 14.7725L4.292 14.8509C4.24188 15.0766 4.13841 15.2828 3.99263 15.4473C3.84684 15.6119 3.66422 15.7287 3.46425 15.7852L3.39489 15.8049L3.46425 15.8246C3.66426 15.8811 3.84692 15.9979 3.99271 16.1626C4.1385 16.3272 4.24194 16.5334 4.292 16.7592L4.30945 16.8375L4.32697 16.7592C4.377 16.5334 4.48042 16.3272 4.62619 16.1626C4.77196 15.998 4.95459 15.8811 5.15459 15.8246L5.22414 15.8049L5.15459 15.7852Z" fill="#FF9419"/>
<g clip-path="url(#clip0_715_2596)">
<path d="M16.7389 15.667C18.4094 16.534 19.0571 17.095 19.1815 18.2211C19.3244 19.5133 18.2329 20.6424 16.7389 20.8682V21.4545C16.7389 21.5992 16.6815 21.7379 16.5792 21.8402C16.4769 21.9425 16.3381 22 16.1935 22C16.0488 22 15.9101 21.9425 15.8078 21.8402C15.7055 21.7379 15.648 21.5992 15.648 21.4545V20.8717C15.084 20.7929 14.5675 20.5935 14.1044 20.3072C13.7381 20.0808 13.4785 19.8512 13.3304 19.6837C13.2362 19.5751 13.1887 19.4338 13.1981 19.2903C13.2076 19.1469 13.2733 19.013 13.381 18.9177C13.4887 18.8225 13.6296 18.7736 13.7731 18.7817C13.9167 18.7898 14.0512 18.8542 14.1475 18.961C14.1858 19.0015 14.2261 19.0401 14.2683 19.0766C14.3836 19.1789 14.5208 19.2823 14.6774 19.3788C14.975 19.5651 15.3038 19.6961 15.648 19.7655V16.333C13.9776 15.466 13.3298 14.905 13.2055 13.7789C13.0626 12.4867 14.154 11.3576 15.648 11.1318V10.5455C15.648 10.4008 15.7055 10.2621 15.8078 10.1598C15.9101 10.0575 16.0488 10 16.1935 10C16.3381 10 16.4769 10.0575 16.5792 10.1598C16.6815 10.2621 16.7389 10.4008 16.7389 10.5455V11.1283C17.3029 11.2071 17.8195 11.4065 18.2826 11.6928C18.6488 11.9192 18.9085 12.1488 19.0566 12.3163C19.1508 12.4249 19.1983 12.5662 19.1888 12.7097C19.1793 12.8531 19.1136 12.987 19.0059 13.0823C18.8982 13.1775 18.7573 13.2264 18.6138 13.2183C18.4703 13.2102 18.3357 13.1458 18.2395 13.039C18.2012 12.9984 18.1609 12.9598 18.1186 12.9234C17.9911 12.8112 17.8543 12.7101 17.7096 12.6212C17.4119 12.4349 17.0831 12.3039 16.7389 12.2345V15.667ZM16.7389 19.7606C17.6035 19.5727 18.1653 18.9569 18.0971 18.3408C18.0385 17.809 17.6894 17.4414 16.7389 16.906V19.7604V19.7606ZM15.648 12.2396C14.7835 12.4273 14.2216 13.0431 14.2898 13.6592C14.3485 14.191 14.6976 14.5586 15.648 15.094V12.2396Z" fill="#303030"/>
</g>
<defs>
<clipPath id="clip0_715_2596">
<rect width="12" height="12" fill="white" transform="translate(10.1929 10)"/>
</clipPath>
</defs>
</svg>
