<?xml version="1.0" encoding="UTF-8"?><svg version="1.1" width="182px" height="120px" viewBox="0 0 182.0 120.0" xmlns="http://www.w3.org/2000/svg" xmlns:xlink="http://www.w3.org/1999/xlink"><defs><clipPath id="i0"><path d="M414,0 L414,812 L0,812 L0,0 L414,0 Z"></path></clipPath><clipPath id="i1"><path d="M28.8532095,2.97508528 C30.4689818,3.93172256 31.9683019,5.1202719 33.0600399,6.71466736 C32.9727009,6.83062339 32.8416923,6.8596124 32.7106838,6.84511789 C31.6771718,6.75815087 30.7746684,7.13500798 29.8867215,7.61332662 C29.0570006,8.06265624 28.9842181,8.04816174 28.4601839,7.221975 C27.7760281,6.13488719 26.8298552,5.41016198 25.5634391,5.16375541 C22.7831464,4.61296425 20.2357577,6.64219484 20.2066447,9.46862315 C20.1920882,10.4542494 20.5851139,11.3529087 21.0800351,12.1790954 C22.5939118,14.6866446 24.1660145,17.1652049 25.7090042,19.6582596 C25.9710213,20.0641057 26.2330384,20.2815233 26.7134031,19.9771387 C29.3772438,18.3102707 32.0993105,16.7158752 34.7340381,14.9910292 C35.3308549,14.5996776 35.8257761,14.1068645 36.1896888,13.4980953 C36.3352539,13.2951722 36.4517059,13.0922492 36.713723,13.0487657 C38.5332863,19.0929739 37.7035655,24.7458305 33.9334303,29.8334015 C29.0570006,36.4139064 21.0800351,39.1098842 13.2486346,36.631324 C6.8292153,34.6020934 2.59327193,30.2247531 0.700926093,23.7312152 C0.00221378416,21.3106331 -0.1870208,18.8465673 0.191448368,16.3535126 C0.366126445,16.3245236 0.497135003,16.4114906 0.599030548,16.5419412 C1.26862984,17.4406004 2.25847228,17.8319521 3.26287123,18.2088092 C5.85392937,19.2089299 8.44498752,20.2235452 11.0360457,21.223666 C11.880323,21.5570396 11.9239926,21.5425451 12.2442357,20.7308529 C13.3505302,17.8319521 14.6315028,14.9765347 15.5922322,12.0196559 C16.3491705,9.67154621 15.18465,7.38141455 12.855609,6.48275529 C10.7885851,5.68555756 8.41587451,6.68567835 7.36780604,8.80187596 L7.19312796,9.14974406 C6.74187627,10.0484033 6.71276325,10.0628978 5.75203383,9.72952422 C4.87864344,9.42513964 3.99069655,9.25120559 3.07363664,9.52660117 C2.89895857,9.58457918 2.70972398,9.61356819 2.56415892,9.45412864 C4.00525305,6.77264537 6.07227697,4.61296425 8.64877861,3.0475578 C15.3302151,-0.99640886 22.1135471,-1.01090336 28.8532095,2.97508528 Z"></path></clipPath><clipPath id="i2"><path d="M8.41692438,2.02451553 C9.05741066,2.9666583 9.07196717,2.9811528 10.0909226,2.43036164 C11.0079825,1.923054 11.9687119,1.70563643 13.0167804,1.87957048 C15.8552992,2.41586714 17.6748625,4.98139438 16.6704635,8.22816331 C15.9863077,9.54716319 14.8363437,10.3588554 13.5990407,11.1125696 C11.2845561,12.504042 8.98462813,13.9245034 6.69925662,15.3739539 C6.2188919,15.6783385 5.9714313,15.6493494 5.66574466,15.1420418 C4.07908546,12.533031 2.41964372,9.95300931 0.832984522,7.32950405 C-0.870126731,4.51757024 0.119715707,1.44473536 3.06013001,0.285175026 C4.93791934,-0.454044687 7.22329085,0.285175026 8.41692438,2.02451553 Z"></path></clipPath><clipPath id="i3"><path d="M16.3603002,5.80870343 C15.6470314,8.18580212 14.5844064,10.4469448 13.711016,12.7805599 C13.3907729,13.6212412 13.0414167,14.4619224 12.7211736,15.3170982 C12.590165,15.6939553 12.4009304,15.7664278 12.0224613,15.6214828 L2.72085366,11.9833622 C1.86201978,11.6499886 1.27975952,10.9977359 0.697499267,10.3309887 C0.260804074,9.33086794 -0.1322216,8.34524166 0.0424564771,7.21467034 C0.333586606,5.3593738 1.39621158,4.14183545 3.09932283,3.43160475 C4.32206937,3.01126413 5.5157029,3.12722016 6.66566691,3.64902231 C7.13147511,3.86643987 7.29159668,3.70700033 7.45171825,3.28665971 C8.20865659,1.37338516 9.54785518,0.155846807 11.6731051,0.010901765 C14.7590845,-0.206515798 17.2482471,2.86631909 16.3603002,5.80870343 Z"></path></clipPath><clipPath id="i4"><path d="M21.4283959,0.678566331 C21.6467435,5.67917027 17.6873737,10.5638182 12.723605,11.4189939 C7.00289802,12.3901257 1.74799919,9.11436776 0.263235535,3.62095068 C-0.202572671,1.92509369 -0.202572671,1.92509369 1.5442081,1.76565414 C4.60107445,1.49025856 7.65794081,1.21486298 10.7148072,0.924972902 C14.0336906,0.620588314 17.3525741,0.345192735 20.6714576,0.0118191391 C21.2682743,-0.0461588776 21.3992829,0.0987861641 21.4283959,0.678566331 Z"></path></clipPath><clipPath id="i5"><path d="M18.4312226,0 L18.4457792,0.086967025 C18.2711011,2.71047228 18.2711011,2.71047228 15.6945994,2.94238435 C11.0510739,3.36272497 6.40754833,3.76857108 1.77857928,4.21790071 C1.138093,4.27587873 0.803293352,4.13093369 0.541276236,3.53665902 C-0.303001138,1.69585699 -0.317557644,1.71035149 1.64757073,1.52192294 C7.2372692,1.01461529 12.8269677,0.507307646 18.4312226,0 Z"></path></clipPath><clipPath id="i6"><path d="M7.4529313,1.12783529 C7.80319723,1.42678444 7.66496728,1.55446064 7.47814575,1.63803405 L7.37406815,1.68001008 C7.32226391,1.69957554 7.27279453,1.71758043 7.2345837,1.73660447 C4.90554267,2.85268129 2.50371911,3.02661534 0,2.17143959 C1.55754619,-0.2346481 5.29856834,-0.727461242 7.4529313,1.12783529 Z"></path></clipPath><clipPath id="i7"><path d="M27.3516756,0 C31.3256019,0 34.5425898,3.20328542 34.5425898,7.16028506 L34.5425898,15.784515 C34.5425898,19.7415147 31.3256019,22.9448001 27.3516756,22.9448001 L7.19091418,22.9448001 C3.21698792,22.9448001 0,19.7415147 0,15.784515 L0,7.16028506 C0,3.20328542 3.21698792,0 7.19091418,0 Z"></path></clipPath><linearGradient id="i8" x1="38.3091295px" y1="-73.9932262px" x2="-12.9551015px" y2="134.273898px" gradientUnits="userSpaceOnUse"><stop stop-color="#FFFFFF" offset="0%"></stop><stop stop-color="#FFFCF8" offset="9.398953%"></stop><stop stop-color="#FFF2E3" offset="23.23%"></stop><stop stop-color="#FFE3C3" offset="39.79%"></stop><stop stop-color="#FFCE96" offset="58.47%"></stop><stop stop-color="#FFB35D" offset="78.92%"></stop><stop stop-color="#FF9319" offset="100%"></stop></linearGradient><clipPath id="i9"><path d="M1.89234584,0 C2.93745958,0 3.78469167,0.843623373 3.78469167,1.88428554 C3.78469167,2.92494771 2.93745958,3.76857108 1.89234584,3.76857108 C0.84723209,3.76857108 0,2.92494771 0,1.88428554 C0,0.843623373 0.84723209,0 1.89234584,0 Z"></path></clipPath><clipPath id="i10"><path d="M1.89234584,0 C2.93745958,0 3.78469167,0.843623373 3.78469167,1.88428554 C3.78469167,2.92494771 2.93745958,3.76857108 1.89234584,3.76857108 C0.84723209,3.76857108 0,2.92494771 0,1.88428554 C0,0.843623373 0.84723209,0 1.89234584,0 Z"></path></clipPath><clipPath id="i11"><path d="M1.89234584,0 C2.93745958,0 3.78469167,0.843623373 3.78469167,1.88428554 C3.78469167,2.92494771 2.93745958,3.76857108 1.89234584,3.76857108 C0.84723209,3.76857108 0,2.92494771 0,1.88428554 C0,0.843623373 0.84723209,0 1.89234584,0 Z"></path></clipPath><clipPath id="i12"><path d="M8.38469304,0 L10.1169173,10.0301969 L1.25200489,10.0301969 C0.131153891,10.0301969 -0.421993354,8.682208 0.3786145,7.89950477 L8.38469304,0 Z"></path></clipPath><linearGradient id="i13" x1="29.4990803px" y1="-89.9390361px" x2="-21.7651507px" y2="118.328073px" gradientUnits="userSpaceOnUse"><stop stop-color="#FFFFFF" offset="0%"></stop><stop stop-color="#FFFCF8" offset="9.398953%"></stop><stop stop-color="#FFF2E3" offset="23.23%"></stop><stop stop-color="#FFE3C3" offset="39.79%"></stop><stop stop-color="#FFCE96" offset="58.47%"></stop><stop stop-color="#FFB35D" offset="78.92%"></stop><stop stop-color="#FF9319" offset="100%"></stop></linearGradient><clipPath id="i14"><path d="M27.3516756,0 C31.3256019,0 34.5425898,3.20328542 34.5425898,7.16028506 L34.5425898,15.784515 C34.5425898,19.7415147 31.3256019,22.9448001 27.3516756,22.9448001 L7.19091418,22.9448001 C3.21698792,22.9448001 0,19.7415147 0,15.784515 L0,7.16028506 C0,3.20328542 3.21698792,0 7.19091418,0 L27.3516756,0 Z"></path></clipPath><clipPath id="i15"><path d="M1.89234584,0 C2.93745958,0 3.78469167,0.843623373 3.78469167,1.88428554 C3.78469167,2.92494771 2.93745958,3.76857108 1.89234584,3.76857108 C0.84723209,3.76857108 0,2.92494771 0,1.88428554 C0,0.843623373 0.84723209,0 1.89234584,0 Z"></path></clipPath><linearGradient id="i16" x1="-0.915939055px" y1="32.5812683px" x2="5.69144845px" y2="-39.7904143px" gradientUnits="userSpaceOnUse"><stop stop-color="#2F2921" offset="0%"></stop><stop stop-color="#352C21" offset="10.06%"></stop><stop stop-color="#493620" offset="24.87%"></stop><stop stop-color="#69481F" offset="42.6%"></stop><stop stop-color="#985E1C" offset="62.6%"></stop><stop stop-color="#D17C1B" offset="84.2%"></stop><stop stop-color="#FF9319" offset="100%"></stop></linearGradient><clipPath id="i17"><path d="M1.89234584,0 C2.93745958,0 3.78469167,0.843623373 3.78469167,1.88428554 C3.78469167,2.92494771 2.93745958,3.76857108 1.89234584,3.76857108 C0.84723209,3.76857108 0,2.92494771 0,1.88428554 C0,0.843623373 0.84723209,0 1.89234584,0 Z"></path></clipPath><linearGradient id="i18" x1="-0.973684716px" y1="33.273091px" x2="5.63370279px" y2="-39.0985916px" gradientUnits="userSpaceOnUse"><stop stop-color="#2F2921" offset="0%"></stop><stop stop-color="#352C21" offset="10.06%"></stop><stop stop-color="#493620" offset="24.87%"></stop><stop stop-color="#69481F" offset="42.6%"></stop><stop stop-color="#985E1C" offset="62.6%"></stop><stop stop-color="#D17C1B" offset="84.2%"></stop><stop stop-color="#FF9319" offset="100%"></stop></linearGradient><clipPath id="i19"><path d="M1.89234584,0 C2.93745958,0 3.78469167,0.843623373 3.78469167,1.88428554 C3.78469167,2.92494771 2.93745958,3.76857108 1.89234584,3.76857108 C0.84723209,3.76857108 0,2.92494771 0,1.88428554 C0,0.843623373 0.84723209,0 1.89234584,0 Z"></path></clipPath><linearGradient id="i20" x1="-1.03955291px" y1="33.9852784px" x2="5.5678346px" y2="-38.3864186px" gradientUnits="userSpaceOnUse"><stop stop-color="#2F2921" offset="0%"></stop><stop stop-color="#352C21" offset="10.06%"></stop><stop stop-color="#493620" offset="24.87%"></stop><stop stop-color="#69481F" offset="42.6%"></stop><stop stop-color="#985E1C" offset="62.6%"></stop><stop stop-color="#D17C1B" offset="84.2%"></stop><stop stop-color="#FF9319" offset="100%"></stop></linearGradient><clipPath id="i21"><path d="M1.73222427,0 L9.73830281,7.89950477 C10.5389107,8.682208 9.98576342,10.0301969 8.86491242,10.0301969 L0,10.0301969 L1.73222427,0 Z"></path></clipPath><clipPath id="i22"><path d="M16.6817564,0 C24.7897305,0 31.3692714,6.55151588 31.3692714,14.6249547 L31.3692714,32.8155574 C31.3692714,40.8889963 24.7897305,47.4260176 16.6817564,47.4260176 L14.687515,47.4260176 C6.57954091,47.4260176 0,40.8745018 0,32.8010629 L0,14.6249547 C0,6.55151588 6.57954091,0 14.687515,0 L16.6817564,0 Z"></path></clipPath><linearGradient id="i23" x1="15.6793953px" y1="-100.061273px" x2="15.6793953px" y2="77.6440005px" gradientUnits="userSpaceOnUse"><stop stop-color="#FFFFFF" offset="0%"></stop><stop stop-color="#FFFCF8" offset="9.398953%"></stop><stop stop-color="#FFF2E3" offset="23.23%"></stop><stop stop-color="#FFE3C3" offset="39.79%"></stop><stop stop-color="#FFCE96" offset="58.47%"></stop><stop stop-color="#FFB35D" offset="78.92%"></stop><stop stop-color="#FF9319" offset="100%"></stop></linearGradient><clipPath id="i24"><path d="M13.4356554,0 C19.9715268,0 25.2555387,5.27599952 25.2555387,11.7695374 L25.2555387,26.4089866 C25.2555387,32.917019 19.9715268,38.178524 13.4356554,38.178524 L11.8198832,38.178524 C5.28401184,38.178524 0,32.9025245 0,26.4089866 L0,11.7695374 C0,5.26150501 5.29856834,0 11.8198832,0 L13.4356554,0 Z"></path></clipPath><linearGradient id="i25" x1="12.6324565px" y1="-81.1550767px" x2="12.6324565px" y2="86.1966276px" gradientUnits="userSpaceOnUse"><stop stop-color="#FFFFFF" offset="0%"></stop><stop stop-color="#FFFCF8" offset="9.398953%"></stop><stop stop-color="#FFF2E3" offset="23.23%"></stop><stop stop-color="#FFE3C3" offset="39.79%"></stop><stop stop-color="#FFCE96" offset="58.47%"></stop><stop stop-color="#FFB35D" offset="78.92%"></stop><stop stop-color="#FF9319" offset="100%"></stop></linearGradient><clipPath id="i26"><path d="M71.0648644,0 L71.0648644,44.4111608 L0,44.4111608 L0,0 L71.0648644,0 Z"></path></clipPath><linearGradient id="i27" x1="35.5363916px" y1="70.6106707px" x2="35.5363916px" y2="-38.9536853px" gradientUnits="userSpaceOnUse"><stop stop-color="#FFFFFF" offset="11.68%"></stop><stop stop-color="#FFFCF8" offset="16.54%"></stop><stop stop-color="#FFF2E3" offset="23.69%"></stop><stop stop-color="#FFE3C3" offset="32.25%"></stop><stop stop-color="#FFCE96" offset="41.91%"></stop><stop stop-color="#FFB35D" offset="52.49%"></stop><stop stop-color="#FF9319" offset="63.38%"></stop></linearGradient><clipPath id="i28"><path d="M9.34535249,0 L9.34535249,11.3202078 C9.35943139,13.8144703 7.3785202,15.8566185 4.8873798,15.9681466 L4.67263857,15.9729436 C2.09613693,15.9729436 0,13.885735 0,11.3202078 L0,0 L9.34535249,0 Z"></path></clipPath><clipPath id="i29"><path d="M9.34527713,0 L9.34527713,13.1465153 C9.34527713,15.6407779 7.36397487,17.682926 4.88620045,17.7944541 L4.67263857,17.7992511 C2.09613693,17.7992511 0,15.7120425 0,13.1465153 L0,0 L9.34527713,0 Z"></path></clipPath><linearGradient id="i30" x1="4.66978549px" y1="-22.5541297px" x2="4.66978549px" y2="96.0156975px" gradientUnits="userSpaceOnUse"><stop stop-color="#FFFFFF" offset="0%"></stop><stop stop-color="#FFFCF8" offset="9.398953%"></stop><stop stop-color="#FFF2E3" offset="23.23%"></stop><stop stop-color="#FFE3C3" offset="39.79%"></stop><stop stop-color="#FFCE96" offset="58.47%"></stop><stop stop-color="#FFB35D" offset="78.92%"></stop><stop stop-color="#FF9319" offset="100%"></stop></linearGradient><clipPath id="i31"><path d="M9.34527713,0 L9.34527713,14.4365262 C9.34527713,16.9307887 7.37773391,18.9729369 4.88734704,19.084465 L4.67263857,19.089262 C2.09613693,19.089262 0,17.0020534 0,14.4365262 L0,0 L9.34527713,0 Z"></path></clipPath><clipPath id="i32"><path d="M9.34527713,0 L9.34527713,16.1468776 C9.34527713,18.6411402 7.36397487,20.6832884 4.88620045,20.7948165 L4.67263857,20.7996135 C2.09613693,20.7996135 0,18.7124049 0,16.1468776 L0,0 L9.34527713,0 Z"></path></clipPath><linearGradient id="i33" x1="4.66624826px" y1="-19.5537674px" x2="4.66624826px" y2="99.0160599px" gradientUnits="userSpaceOnUse"><stop stop-color="#FFFFFF" offset="0%"></stop><stop stop-color="#FFFCF8" offset="9.398953%"></stop><stop stop-color="#FFF2E3" offset="23.23%"></stop><stop stop-color="#FFE3C3" offset="39.79%"></stop><stop stop-color="#FFCE96" offset="58.47%"></stop><stop stop-color="#FFB35D" offset="78.92%"></stop><stop stop-color="#FF9319" offset="100%"></stop></linearGradient><clipPath id="i34"><path d="M9.34527713,0 L9.34527713,17.24846 C9.34527713,19.7427226 7.36397487,21.7848707 4.88620045,21.8963988 L4.67263857,21.9011958 C2.09613693,21.9011958 0,19.8139872 0,17.24846 L0,0 L9.34527713,0 Z"></path></clipPath><clipPath id="i35"><path d="M9.34535249,0 L9.34535249,19.1327455 C9.35943139,21.6270081 7.3785202,23.6691562 4.8873798,23.7806843 L4.67263857,23.7854813 C2.09613693,23.7854813 0,21.6982727 0,19.1327455 L0,0 L9.34535249,0 Z"></path></clipPath><linearGradient id="i36" x1="4.67726754px" y1="-16.5678995px" x2="4.67726754px" y2="102.001928px" gradientUnits="userSpaceOnUse"><stop stop-color="#FFFFFF" offset="0%"></stop><stop stop-color="#FFFCF8" offset="9.398953%"></stop><stop stop-color="#FFF2E3" offset="23.23%"></stop><stop stop-color="#FFE3C3" offset="39.79%"></stop><stop stop-color="#FFCE96" offset="58.47%"></stop><stop stop-color="#FFB35D" offset="78.92%"></stop><stop stop-color="#FF9319" offset="100%"></stop></linearGradient><clipPath id="i37"><path d="M9.34527713,0 L9.34527713,21.5388332 C9.34527713,24.0330958 7.36397487,26.0752439 4.88620045,26.186772 L4.67263857,26.191569 C2.09613693,26.191569 0,24.1043604 0,21.5388332 L0,0 L9.34527713,0 Z"></path></clipPath><clipPath id="i38"><path d="M9.34527713,0 L9.34527713,22.9158111 C9.34527713,25.4100737 7.36397487,27.4522218 4.88620045,27.5637499 L4.67263857,27.5685469 C2.09613693,27.5685469 0,25.4813383 0,22.9158111 L0,1.3769779 L9.34527713,0 Z"></path></clipPath><linearGradient id="i39" x1="4.6737303px" y1="-12.7848339px" x2="4.6737303px" y2="105.784993px" gradientUnits="userSpaceOnUse"><stop stop-color="#FFFFFF" offset="0%"></stop><stop stop-color="#FFFCF8" offset="9.398953%"></stop><stop stop-color="#FFF2E3" offset="23.23%"></stop><stop stop-color="#FFE3C3" offset="39.79%"></stop><stop stop-color="#FFCE96" offset="58.47%"></stop><stop stop-color="#FFB35D" offset="78.92%"></stop><stop stop-color="#FF9319" offset="100%"></stop></linearGradient><clipPath id="i40"><path d="M71.0648644,0 L71.0648644,4.26138423 L0,4.26138423 L0,0 L71.0648644,0 Z"></path></clipPath><clipPath id="i41"><path d="M17.0311125,0 L17.0311125,28.3367556 L0,28.3367556 L0,0 L17.0311125,0 Z"></path></clipPath><linearGradient id="i42" x1="8.51548348px" y1="93.3946274px" x2="8.51548348px" y2="-126.749873px" gradientUnits="userSpaceOnUse"><stop stop-color="#2F2921" offset="0%"></stop><stop stop-color="#352C21" offset="10.06%"></stop><stop stop-color="#493620" offset="24.87%"></stop><stop stop-color="#69481F" offset="42.6%"></stop><stop stop-color="#985E1C" offset="62.6%"></stop><stop stop-color="#D17C1B" offset="84.2%"></stop><stop stop-color="#FF9319" offset="100%"></stop></linearGradient><clipPath id="i43"><path d="M80.043425,1.62059251 C80.2181031,2.67869132 79.5048343,3.6643176 78.4422093,3.85274615 L2.2534546,16.5354373 C2.15155906,16.5499318 2.04966351,16.5644263 1.93321146,16.5644263 C1.00159505,16.5644263 0.186430686,15.8976791 0.0263091152,14.9555363 C-0.148368962,13.8974375 0.564899853,12.9118113 1.62752482,12.7233827 L77.801723,0.0261970537 C78.8497915,-0.147736996 79.8541904,0.562493708 80.043425,1.62059251 Z"></path></clipPath><linearGradient id="i44" x1="40.0232801px" y1="127.604402px" x2="40.0232801px" y2="-102.924048px" gradientUnits="userSpaceOnUse"><stop stop-color="#2F2921" offset="0%"></stop><stop stop-color="#352C21" offset="10.06%"></stop><stop stop-color="#493620" offset="24.87%"></stop><stop stop-color="#69481F" offset="42.6%"></stop><stop stop-color="#985E1C" offset="62.6%"></stop><stop stop-color="#D17C1B" offset="84.2%"></stop><stop stop-color="#FF9319" offset="100%"></stop></linearGradient><clipPath id="i45"><path d="M138.505159,0 C139.132908,0 139.645513,0.471354481 139.707137,1.07965655 L139.713349,1.20304385 C139.698792,1.85529653 139.160202,2.40608769 138.505159,2.40608769 L1.20819003,2.40608769 C0.580440694,2.40608769 0.0678355945,1.93473321 0.00621210285,1.32643114 L0,1.20304385 C0,0.536296654 0.538590738,0 1.20819003,0 L138.505159,0 Z"></path></clipPath><linearGradient id="i46" x1="69.8510119px" y1="60.0506873px" x2="69.8510119px" y2="-170.477763px" gradientUnits="userSpaceOnUse"><stop stop-color="#2F2921" offset="0%"></stop><stop stop-color="#352C21" offset="10.06%"></stop><stop stop-color="#493620" offset="24.87%"></stop><stop stop-color="#69481F" offset="42.6%"></stop><stop stop-color="#985E1C" offset="62.6%"></stop><stop stop-color="#D17C1B" offset="84.2%"></stop><stop stop-color="#FF9319" offset="100%"></stop></linearGradient><clipPath id="i47"><path d="M16.8810306,0.0941824772 C25.3820304,1.05081975 31.350198,8.5299839 30.3749121,16.9947743 C29.4287392,25.1841692 21.8011298,31.2138829 13.6203732,30.2572456 C5.20671248,29.3006084 -0.848794203,21.8214442 0.0973787157,13.5595768 C1.05810814,5.19624794 8.56926546,-0.833465789 16.8810306,0.0941824772 Z"></path></clipPath><clipPath id="i48"><path d="M2.15405758,0.455520562 C2.48885723,0.788894157 2.73631784,1.16575127 2.80910037,1.6440699 C4.11918595,3.81824553 7.13238278,4.97780586 9.67977141,4.29656417 C10.8297354,3.99217958 11.9069169,3.54284995 12.6638552,2.58621267 C12.8239768,2.12238854 13.1878895,1.83249846 13.5663586,1.57159738 C14.0903929,1.22372928 14.5853141,1.25271829 15.0074528,1.6440699 C15.4878175,2.07890503 15.5751565,2.62969619 15.2403569,3.18048735 C15.0511223,3.49936644 14.8473312,3.83274003 14.4834185,4.00667408 C12.9986549,5.42713549 11.2518741,6.35478376 9.18485019,6.57220132 C5.77862769,6.93456392 3.05656098,5.65904756 0.974980561,2.97756429 C0.873085016,2.84711375 0.771189471,2.71666321 0.669293926,2.58621267 C0.36360729,2.3398061 0.188929213,1.991938 0.0724771616,1.6440699 C-0.131313929,1.02080622 0.101590174,0.48450957 0.683850432,0.165630478 C1.22244117,-0.124259605 1.70280588,-0.0372925801 2.15405758,0.455520562 Z"></path></clipPath><clipPath id="i49"><path d="M4.92930637,0.482006217 C6.1374964,1.22122593 6.73431316,2.5257313 6.50140906,3.9172037 C6.28306146,5.14923656 5.14765396,6.27980788 3.8666814,6.49722545 C3.32809066,6.56969797 2.78949992,6.49722545 2.26546569,6.3377859 C2.46925678,6.07688483 2.67304787,5.81598375 2.86228245,5.54058817 C3.21163861,5.03328053 3.13885607,4.46799486 2.68760437,4.09113775 C2.25090918,3.69978614 1.77054447,3.69978614 1.29017976,4.12012676 C0.999049628,4.38102784 0.722476005,4.65642342 0.431345877,4.931819 C-0.456601016,3.07652246 0.125659241,1.64156655 1.27562325,0.713918284 C2.35280473,-0.155751966 3.77934236,-0.228224487 4.92930637,0.482006217 Z"></path></clipPath><clipPath id="i50"><path d="M4.28900923,0.181616841 C6.60349375,0.935331057 7.01107593,3.61681433 5.91933795,5.16772627 C5.84655542,5.2691878 5.8028859,5.41413284 5.73010337,5.54458338 C5.48264276,5.18222078 5.26429516,4.80536367 4.98772154,4.45749557 C4.62380888,3.97917693 4.12888766,3.89220991 3.66307945,4.16760549 C3.15360173,4.47199007 2.96436714,4.95030871 3.18271474,5.51559437 C3.3137233,5.84896797 3.47384487,6.16784706 3.61940993,6.48672615 C1.45049048,6.57369318 0.213187428,5.18222078 0.0239528443,3.63130883 C-0.107055714,2.44275949 0.300526467,1.50061672 1.21758637,0.761397007 C2.13464628,0.0221772948 3.15360173,-0.195240268 4.28900923,0.181616841 Z"></path></clipPath><clipPath id="i51"><path d="M4.2314075,0.0213724981 C6.31298792,0.224295556 7.78319507,2.05060308 7.60851699,4.1957897 C7.59396048,4.42770176 7.63763,4.74658086 7.23004782,4.65961383 C6.92436119,4.58714131 6.51677901,4.77556986 6.47310949,4.16680069 C6.32754442,2.71735027 5.41048452,1.7752075 4.04217291,1.63026246 C2.71753083,1.48531742 1.48022778,2.29700965 1.15998464,3.63050404 C1.06294126,4.04601316 0.86238495,4.04279215 0.653202561,3.99877181 L0.527417093,3.97048713 C0.46476589,3.95692027 0.403046302,3.94648423 0.344820277,3.94938313 C-0.120987929,3.97837214 0.0100206284,3.63050404 0.0391336413,3.38409746 C0.315707264,1.26789986 2.13527057,-0.196045064 4.2314075,0.0213724981 Z"></path></clipPath><clipPath id="i52"><path d="M4.25325008,0.0270221697 C6.36394352,0.287923245 7.81959416,2.12872527 7.61580307,4.25941739 C7.58669006,4.49132945 7.58669006,4.78121954 7.2373339,4.6652635 C6.96076028,4.57829648 6.49495207,4.88268107 6.45128255,4.23042838 C6.36394352,2.78097796 5.40321409,1.79535168 4.078572,1.63591213 C2.7102604,1.47647259 1.56029639,2.2301868 1.16727072,3.6071647 C0.99259264,4.21593387 0.614123472,3.9695273 0.279323824,3.9550328 C-0.230153901,3.94053829 0.13375876,3.54918668 0.0318632147,3.38974714 C0.33754985,1.24456052 2.20078267,-0.219384401 4.25325008,0.0270221697 Z"></path></clipPath><clipPath id="i53"><path d="M69.7984484,0 C71.254099,0 72.433176,1.17405484 72.433176,2.62350525 L72.433176,15.8714821 C72.433176,17.3209325 71.254099,18.4949873 69.7984484,18.4949873 L28.5889786,18.4949873 L19.8987443,24.2493055 C19.6076142,24.437734 19.287371,24.5391956 18.9671279,24.5391956 C18.0355115,24.5391956 17.2785731,23.7854813 17.2785731,22.8578331 L17.2785731,18.4949873 L2.63472767,18.4949873 C1.17907702,18.4949873 0,17.3209325 0,15.8714821 L0,2.62350525 C0,1.17405484 1.17907702,0 2.63472767,0 L69.7984484,0 Z"></path></clipPath><linearGradient id="i54" x1="36.220186px" y1="-5.32287943px" x2="36.220186px" y2="101.506979px" gradientUnits="userSpaceOnUse"><stop stop-color="#FFFFFF" offset="0%"></stop><stop stop-color="#FFFCF8" offset="9.398953%"></stop><stop stop-color="#FFF2E3" offset="23.23%"></stop><stop stop-color="#FFE3C3" offset="39.79%"></stop><stop stop-color="#FFCE96" offset="58.47%"></stop><stop stop-color="#FFB35D" offset="78.92%"></stop><stop stop-color="#FF9319" offset="100%"></stop></linearGradient><clipPath id="i55"><path d="M69.9003439,0 C71.4142206,0 72.6369671,1.21753835 72.6369671,2.72496678 L72.6369671,15.9729436 C72.6369671,17.480372 71.4142206,18.6979104 69.9003439,18.6979104 L28.7199872,18.6979104 L20.0443094,24.437734 C19.7386227,24.6406571 19.4038231,24.7421186 19.0544669,24.7421186 C18.0646245,24.7421186 17.2640166,23.9449209 17.2640166,22.9592946 L17.2640166,18.6979104 L2.73662321,18.6979104 C1.22274654,18.6979104 0,17.480372 0,15.9729436 L0,2.72496678 C0,1.21753835 1.22274654,0 2.73662321,0 Z M69.9003439,0.188428554 L2.73662321,0.188428554 C1.33919859,0.188428554 0.20379109,1.31899988 0.20379109,2.71047228 L0.20379109,15.9584491 C0.20379109,17.3499215 1.33919859,18.4804928 2.73662321,18.4804928 L17.4823642,18.4804928 L17.4823642,22.9448001 C17.4823642,23.8724484 18.2393026,24.5247011 19.0690234,24.5247011 C19.3601536,24.5247011 19.6658402,24.4522285 19.9424138,24.2638 L28.6617612,18.4804928 L69.9003439,18.4804928 C71.2977685,18.4804928 72.433176,17.3499215 72.433176,15.9584491 L72.433176,2.71047228 C72.433176,1.31899988 71.2977685,0.188428554 69.9003439,0.188428554 Z"></path></clipPath><clipPath id="i56"><path d="M5.802355,0.282642831 L7.18522311,3.03659862 L10.256646,3.50042276 C10.6787847,3.55840077 10.8389062,4.08020292 10.5477761,4.37009301 L8.33518712,6.52977413 L8.84466485,9.57362 C8.91744738,9.99396062 8.48075219,10.3128397 8.10228302,10.1099167 L5.3511033,8.68945525 L2.59992359,10.1099167 C2.22145442,10.2983452 1.78475923,9.99396062 1.85754176,9.57362 L2.36701948,6.52977413 L0.154430504,4.37009301 C-0.151256131,4.08020292 0.0234219462,3.55840077 0.445560633,3.50042276 L3.51698349,3.03659862 L4.8998516,0.282642831 C5.05997317,-0.0942142771 5.61312042,-0.0942142771 5.802355,0.282642831 Z"></path></clipPath><clipPath id="i57"><path d="M5.802355,0.282642831 L7.18522311,3.03659862 L10.256646,3.50042276 C10.6787847,3.55840077 10.8389062,4.08020292 10.5477761,4.37009301 L8.33518712,6.52977413 L8.84466485,9.57362 C8.91744738,9.99396062 8.48075219,10.3128397 8.10228302,10.1099167 L5.3511033,8.68945525 L2.59992359,10.1099167 C2.22145442,10.2983452 1.78475923,9.99396062 1.85754176,9.57362 L2.36701948,6.52977413 L0.154430504,4.37009301 C-0.151256131,4.08020292 0.0234219462,3.55840077 0.445560633,3.50042276 L3.51698349,3.03659862 L4.8998516,0.282642831 C5.05997317,-0.0942142771 5.61312042,-0.0942142771 5.802355,0.282642831 Z"></path></clipPath><clipPath id="i58"><path d="M5.81691151,0.282642831 L7.19977962,3.03659862 L10.2712025,3.50042276 C10.6933412,3.55840077 10.8534627,4.08020292 10.5623326,4.37009301 L8.34974363,6.52977413 L8.85922135,9.57362 C8.93200389,9.99396062 8.49530869,10.3128397 8.11683953,10.1099167 L5.36565981,8.68945525 L2.61448009,10.1099167 C2.23601092,10.2983452 1.79931573,9.99396062 1.87209826,9.57362 L2.38157599,6.52977413 L0.154430504,4.37009301 C-0.151256131,4.08020292 0.0234219462,3.55840077 0.445560633,3.50042276 L3.51698349,3.03659862 L4.8998516,0.282642831 C5.07452968,-0.0942142771 5.62767693,-0.0942142771 5.81691151,0.282642831 Z"></path></clipPath><clipPath id="i59"><path d="M5.802355,0.282642831 L7.18522311,3.03659862 L10.256646,3.50042276 C10.6787847,3.55840077 10.8389062,4.08020292 10.5477761,4.37009301 L8.33518712,6.52977413 L8.84466485,9.57362 C8.91744738,9.99396062 8.48075219,10.3128397 8.10228302,10.1099167 L5.3511033,8.68945525 L2.59992359,10.1099167 C2.22145442,10.2983452 1.78475923,9.99396062 1.85754176,9.57362 L2.36701948,6.52977413 L0.154430504,4.37009301 C-0.151256131,4.08020292 0.0234219462,3.55840077 0.445560633,3.50042276 L3.51698349,3.03659862 L4.8998516,0.282642831 C5.05997317,-0.0942142771 5.61312042,-0.0942142771 5.802355,0.282642831 Z"></path></clipPath></defs><g transform="translate(-116.0 -65.0)"><g clip-path="url(#i0)"><g transform="translate(116.00000000000011 65.0)"><g transform="translate(23.247953824415475 20.88286857691807)"><g transform="translate(0.5206074054171879 7.105427357601002e-15)"><g clip-path="url(#i1)"><polygon points="1.55431223e-15,-3.55271368e-15 37.6395297,-3.55271368e-15 37.6395297,37.5402965 1.55431223e-15,37.5402965 1.55431223e-15,-3.55271368e-15" stroke="none" fill="#FFC82B"></polygon></g></g><g transform="translate(20.56386689996373 4.82060236931627)"><g clip-path="url(#i2)"><polygon points="-6.10622664e-15,-3.94129174e-15 16.9495202,-3.94129174e-15 16.9495202,15.5703213 -6.10622664e-15,15.5703213 -6.10622664e-15,-3.94129174e-15" stroke="none" fill="#E52443"></polygon></g></g><g transform="translate(-8.881784197001252e-15 6.0225238965150965)"><g clip-path="url(#i3)"><polygon points="3.44169138e-15,-3.75741105e-15 16.5422955,-3.75741105e-15 16.5422955,15.6910191 3.44169138e-15,15.6910191 3.44169138e-15,-3.75741105e-15" stroke="none" fill="#E52443"></polygon></g></g><g transform="translate(9.03715903742413 21.86409957717114)"><g clip-path="url(#i4)"><polygon points="-4.6629367e-15,-3.33934269e-15 21.4370123,-3.33934269e-15 21.4370123,11.5887091 -4.6629367e-15,11.5887091 -4.6629367e-15,-3.33934269e-15" stroke="none" fill="#2F2921"></polygon></g></g><g transform="translate(10.651464173172181 23.2673911162816)"><g clip-path="url(#i5)"><polygon points="6.99440506e-15,0 18.4457792,0 18.4457792,4.22968613 6.99440506e-15,4.22968613 6.99440506e-15,0" stroke="none" fill="#FDFDFD"></polygon></g></g><g transform="translate(16.62231731051211 29.43029142114064)"><g clip-path="url(#i6)"><polygon points="0,3.99680289e-15 7.66911557,3.99680289e-15 7.66911557,2.71082713 0,2.71082713 0,3.99680289e-15" stroke="none" fill="#E52443"></polygon></g></g></g><g transform="translate(143.8472512918152 45.7446551515884)"><g transform="translate(3.6101589297315293 0.0)"><g clip-path="url(#i7)"><polygon points="0,0 34.5425898,0 34.5425898,22.9448001 0,22.9448001 0,0" stroke="none" fill="url(#i8)"></polygon></g><g transform="translate(7.496600815804204 9.580867254499319)"><g transform="translate(15.633687914900438 0.0)"><g clip-path="url(#i9)"><polygon points="0,0 3.78469167,0 3.78469167,3.76857108 0,3.76857108 0,0" stroke="none" fill="#FF9319"></polygon></g></g><g transform="translate(7.933296008957852 0.0)"><g clip-path="url(#i10)"><polygon points="0,0 3.78469167,0 3.78469167,3.76857108 0,3.76857108 0,0" stroke="none" fill="#FF9319"></polygon></g></g><g clip-path="url(#i11)"><polygon points="0,0 3.78469167,0 3.78469167,3.76857108 0,3.76857108 0,0" stroke="none" fill="#FF9319"></polygon></g></g></g><g transform="translate(0.0 12.9146032129484)"><g clip-path="url(#i12)"><polygon points="1.33226763e-15,0 10.1169173,0 10.1169173,10.0301969 1.33226763e-15,10.0301969 1.33226763e-15,0" stroke="none" fill="url(#i13)"></polygon></g></g></g><g transform="translate(0.0 70.22587268993841)"><g clip-path="url(#i14)"><polygon points="0,0 34.5425898,0 34.5425898,22.9448001 0,22.9448001 0,0" stroke="none" fill="#FF9319"></polygon></g><g transform="translate(7.627609373750294 9.580867254499326)"><g clip-path="url(#i15)"><polygon points="0,0 3.78469167,0 3.78469167,3.76857108 0,3.76857108 0,0" stroke="none" fill="url(#i16)"></polygon></g><g transform="translate(7.700391905942563 0.0)"><g clip-path="url(#i17)"><polygon points="0,0 3.78469167,0 3.78469167,3.76857108 0,3.76857108 0,0" stroke="none" fill="url(#i18)"></polygon></g></g><g transform="translate(15.633687914900412 0.0)"><g clip-path="url(#i19)"><polygon points="0,0 3.78469167,0 3.78469167,3.76857108 0,3.76857108 0,0" stroke="none" fill="url(#i20)"></polygon></g></g></g><g transform="translate(28.021274894025442 12.9146032129484)"><g clip-path="url(#i21)"><polygon points="0,0 10.1169173,0 10.1169173,10.0301969 0,10.0301969 0,0" stroke="none" fill="#FF9319"></polygon></g></g></g><g transform="translate(25.67767735743419 39.45404034303658)"><g transform="translate(19.202835889982573 0.0)"><g transform="translate(56.97136230245116 0.0)"><g clip-path="url(#i22)"><polygon points="0,0 31.3692714,0 31.3692714,47.4260176 0,47.4260176 0,0" stroke="none" fill="url(#i23)"></polygon></g></g><g transform="translate(76.04038573682692 32.72859040946973)"><g clip-path="url(#i24)"><polygon points="0,0 25.2555387,0 25.2555387,38.178524 0,38.178524 0,0" stroke="none" fill="url(#i25)"></polygon></g></g><g transform="translate(80.30544212329411 57.49969803116318)"><path d="M0,0 L7.52571383,4.75419737 L15.6773574,1.08708781" stroke="#4A3620" stroke-width="11.5994" fill="none" stroke-miterlimit="10"></path></g><g transform="translate(87.75837341978298 62.25389539799496)"><path d="M0.0727825322,0 L0.0727825322,15.8859766" stroke="#4A3620" stroke-width="11.5994" fill="none" stroke-miterlimit="10"></path></g><g transform="translate(0.0 10.583779996717709)"><g transform="translate(5.761572651967342 23.30437074612564)"><g clip-path="url(#i26)"><polygon points="0,0 71.0648644,0 71.0648644,44.4111608 0,44.4111608 0,0" stroke="none" fill="url(#i27)"></polygon></g></g><g transform="translate(3.8546703085297658 11.27393228737455)"><g transform="translate(0.0 1.8263075250634326)"><g clip-path="url(#i28)"><polygon points="0,0 9.34542707,0 9.34542707,15.9729436 0,15.9729436 0,0" stroke="none" fill="#E52443"></polygon></g></g><g transform="translate(9.359833639926403 1.5987211554602254e-14)"><g clip-path="url(#i29)"><polygon points="0,0 9.34527713,0 9.34527713,17.7992511 0,17.7992511 0,0" stroke="none" fill="url(#i30)"></polygon></g></g></g><g transform="translate(22.55978108194413 8.273569924770392)"><g transform="translate(0.0 1.7103514917260476)"><g clip-path="url(#i31)"><polygon points="0,0 9.34527713,0 9.34527713,19.089262 0,19.089262 0,0" stroke="none" fill="#E52443"></polygon></g></g><g transform="translate(9.35983363992639 0.0)"><g clip-path="url(#i32)"><polygon points="0,0 9.34527713,0 9.34527713,20.7996135 0,20.7996135 0,0" stroke="none" fill="url(#i33)"></polygon></g></g></g><g transform="translate(41.2648918553585 5.287702066333397)"><g transform="translate(-1.687538997430238e-14 1.8842855417320763)"><g clip-path="url(#i34)"><polygon points="0,0 9.34527713,0 9.34527713,21.9011958 0,21.9011958 0,0" stroke="none" fill="#E52443"></polygon></g></g><g transform="translate(9.34527713348795 -1.5987211554602254e-14)"><g clip-path="url(#i35)"><polygon points="0,0 9.34542707,0 9.34542707,23.7854813 0,23.7854813 0,0" stroke="none" fill="url(#i36)"></polygon></g></g></g><g transform="translate(59.970002628772875 1.504636478702018)"><g transform="translate(0.0 1.3769778958811454)"><g clip-path="url(#i37)"><polygon points="0,0 9.34527713,0 9.34527713,26.191569 0,26.191569 0,0" stroke="none" fill="#E52443"></polygon></g></g><g transform="translate(9.345277133487958 0.0)"><g clip-path="url(#i38)"><polygon points="0,0 9.34527713,0 9.34527713,27.5685469 0,27.5685469 0,0" stroke="none" fill="url(#i39)"></polygon></g></g></g><g transform="translate(5.761572651967342 63.454147289186366)"><g clip-path="url(#i40)"><polygon points="0,0 71.0648644,0 71.0648644,4.26138423 0,4.26138423 0,0" stroke="none" fill="#FF9319"></polygon></g></g><g transform="translate(13.62208612873292 39.37877586751708)"><g clip-path="url(#i41)"><polygon points="0,0 17.0311125,0 17.0311125,28.3367556 0,28.3367556 0,0" stroke="none" fill="url(#i42)"></polygon></g></g><g transform=""><g clip-path="url(#i43)"><polygon points="6.47745746e-15,6.44623244e-15 80.0697341,6.44623244e-15 80.0697341,16.5644263 6.47745746e-15,16.5644263 6.47745746e-15,6.44623244e-15" stroke="none" fill="url(#i44)"></polygon></g></g></g></g><g transform="translate(0.0 78.13987196521319)"><g clip-path="url(#i45)"><polygon points="0,0 139.713349,0 139.713349,2.40608769 0,2.40608769 0,0" stroke="none" fill="url(#i46)"></polygon></g></g></g><g transform="translate(135.4964787585377 19.92272777765932)"><g transform=""><g clip-path="url(#i47)"><polygon points="-8.8817842e-15,0 30.4792359,0 30.4792359,30.3570962 -8.8817842e-15,30.3570962 -8.8817842e-15,0" stroke="none" fill="#FFC82B"></polygon></g></g><g transform="translate(6.982911631684065 18.293088778747318)"><g clip-path="url(#i48)"><polygon points="-1.63757896e-14,-2.77555756e-16 15.4413587,-2.77555756e-16 15.4413587,6.63264552 -1.63757896e-14,6.63264552 -1.63757896e-14,-2.77555756e-16" stroke="none" fill="#2F2921"></polygon></g></g><g transform="translate(19.21542098590193 15.94748245637561)"><g clip-path="url(#i49)"><polygon points="5.93969318e-15,1.44328993e-15 6.55106253,1.44328993e-15 6.55106253,6.5253842 5.93969318e-15,6.5253842 5.93969318e-15,1.44328993e-15" stroke="none" fill="#F68849"></polygon></g></g><g transform="translate(4.061908635505292 14.39257529956387)"><g clip-path="url(#i50)"><polygon points="-1.48631107e-14,1.11022302e-16 6.49721478,1.11022302e-16 6.49721478,6.49059717 -1.48631107e-14,6.49059717 -1.48631107e-14,1.11022302e-16" stroke="none" fill="#F68849"></polygon></g></g><g transform="translate(17.56972231980525 10.40739145027649)"><g clip-path="url(#i51)"><polygon points="-1.2490009e-14,3.10862447e-15 7.62258812,3.10862447e-15 7.62258812,4.67426506 -1.2490009e-14,4.67426506 -1.2490009e-14,3.10862447e-15" stroke="none" fill="#2F2921"></polygon></g></g><g transform="translate(5.655213973320522 9.15521442033495)"><g clip-path="url(#i52)"><polygon points="-5.49560397e-15,2.22044605e-15 7.63481257,2.22044605e-15 7.63481257,4.69166265 -5.49560397e-15,4.69166265 -5.49560397e-15,2.22044605e-15" stroke="none" fill="#2F2921"></polygon></g></g></g><g transform="translate(61.42845717027912 -8.881784197001252e-15)"><g transform="translate(0.10189554506915499 0.10146152917018725)"><g clip-path="url(#i53)"><polygon points="0,0 72.433176,0 72.433176,24.5391956 0,24.5391956 0,0" stroke="none" fill="url(#i54)"></polygon></g></g><g clip-path="url(#i55)"><polygon points="0,0 72.6369671,0 72.6369671,24.7421186 0,24.7421186 0,0" stroke="none" fill="#FFFFFF"></polygon></g><g transform="translate(6.133980277226648 3.97874139388815)"><g transform="translate(51.41358074062222 4.440892098500626e-15)"><g clip-path="url(#i56)"><polygon points="-1.05748743e-14,-1.05471187e-15 10.6957459,-1.05471187e-15 10.6957459,10.1726257 -1.05748743e-14,10.1726257 -1.05748743e-14,-1.05471187e-15" stroke="none" fill="#FFC82B"></polygon></g></g><g transform="translate(38.560185555466646 4.440892098500626e-15)"><g clip-path="url(#i56)"><polygon points="-1.05748743e-14,-1.05471187e-15 10.6957459,-1.05471187e-15 10.6957459,10.1726257 -1.05748743e-14,10.1726257 -1.05748743e-14,-1.05471187e-15" stroke="none" fill="#FFC82B"></polygon></g></g><g transform="translate(25.70679037031112 4.440892098500626e-15)"><g clip-path="url(#i57)"><polygon points="2.55351296e-15,-1.05471187e-15 10.6957459,-1.05471187e-15 10.6957459,10.1726257 2.55351296e-15,10.1726257 2.55351296e-15,-1.05471187e-15" stroke="none" fill="#FFC82B"></polygon></g></g><g transform="translate(12.838838678717089 4.440892098500626e-15)"><g clip-path="url(#i58)"><polygon points="2.58126853e-15,-4.99600361e-16 10.7103024,-4.99600361e-16 10.7103024,10.1726257 2.58126853e-15,10.1726257 2.58126853e-15,-4.99600361e-16" stroke="none" fill="#FFC82B"></polygon></g></g><g transform=""><g clip-path="url(#i59)"><polygon points="2.55351296e-15,-1.05471187e-15 10.6957459,-1.05471187e-15 10.6957459,10.1726257 2.55351296e-15,10.1726257 2.55351296e-15,-1.05471187e-15" stroke="none" fill="#FFC82B"></polygon></g></g></g></g></g></g></g></svg>