<svg xmlns="http://www.w3.org/2000/svg" width="160" height="160" fill-rule="nonzero"><circle fill="#d9dde8" cx="70.521" cy="97.141" r="50.192"/><path d="M55.452 24.155S56.1 29.14 52 30.073s2.575.164 3.507 6.96c.877 6.795 1.808-2.904 5.205-5.48 3.452-2.575-2.52-.932-3.178-4.712s-1.918-5.205-2.082-2.685zm72.822 2.465s1.15 9.15-6.3 10.85c-7.507 1.7 4.767.33 6.4 12.712 1.644 12.438 3.288-5.315 9.6-10.082s-4.603-1.644-5.863-8.658-3.507-9.425-3.836-4.822zM97.48 96.428c-2.96-1.04-17.863-11.452-26.4-19.288-8.493-7.836-24.493-.548-25.15 3.452-.493 2.795-1.425 8.1-1.425 12.986-2.685-.986-2.685-3.178-3.233-3.562-1.096-.767-4-13.534-4.712-16.438s-3.068-4.438-5.534-4.548-1.04 2.74 0 7.342c1.04 4.712-1.26 19.9 5.26 22.96 4.1 1.918 10.192 6.96 14.795 10.63 5.6 8.932 13.315 20.822 14.795 27.616.493 2.3.493 5.096.055 10.4h17.6c1.973-13.973 4.877-24.932 3.616-28.877-2.082-6.575-6.4-12.658-6.4-12.658 2.96 0 3.452-.712 3.452-.712l1.75 2.26c3.452 5.753 9.534 2.247 8.493.877s-4.877-8.33-4.877-8.33c6.74 2.63 10.904-3.068 7.945-4.1z" fill="#fff"/><path d="M109.26 85.798L48 100.757a4.98 4.98 0 0 1-6.027-3.671l-9.315-39.068a4.98 4.98 0 0 1 3.671-6.027l61.26-14.904a4.98 4.98 0 0 1 6.027 3.671l9.37 39.068c.603 2.63-1.04 5.315-3.726 5.973z" fill="#a9b2c9"/><g fill="#d9dde8"><path d="M34.947 67.65L63.5 60.77l.834 3.463L35.78 71.11zM73.95 42.735l3.463-.83L89.156 90.87l-3.463.83z"/><path d="M68.274 68.428h-.548c-2.74-.22-4.658-1.918-5.37-4.822-.603-2.466.22-4.055 1.096-4.932 3.67-3.945 14.356-2.247 16.438-1.863l2.192.384-.877 2.027c-1.753 4.33-7.945 9.205-12.932 9.205zm4.055-8.712c-2.795 0-5.315.384-6.247 1.37-.164.164-.493.548-.22 1.644.438 1.808 1.425 2.082 2.192 2.137 2.63.22 6.466-2.3 8.603-4.877-1.425-.22-2.904-.274-4.33-.274z"/><path d="M74.85 76.922c.658-2.356 2.74-16.822 2.96-18.41l3.562.493c-.603 4.274-2.137 16.164-2.96 17.37l-3.562.548z"/><path d="M91.178 78.95c-3.78-5.753-10.52-15.616-13.04-19.178l2.904-2.082c.932 1.37 9.37 13.315 13.534 20.1l-3.397 1.15z"/><path d="M88.932 63.333c-3.9 0-8.164-1.37-10.52-3.397l-1.7-1.425 1.753-1.37c1.7-1.315 10.41-7.67 15.507-5.808 1.15.438 2.63 1.425 3.233 3.945.658 2.96-.274 5.315-2.63 6.74-1.534.877-3.562 1.315-5.644 1.315zm-6.082-4.877c3.068 1.37 7.616 1.863 9.863.493.658-.384 1.37-1.096.986-2.904-.22-1.096-.712-1.26-.932-1.315-1.973-.712-6.41 1.425-9.918 3.726z"/><path d="M94.86 53.25l11.136-2.67.83 3.463-11.136 2.67z"/></g><path d="M55.014 114.182s-7.178-25.205-10.74-27.78.658-7.342 5.534-4.22 10.74 18.96 12.658 22.137c0 0 4.055 1.425 7.945 7.78 3.945 6.3-11.836 10.247-15.397 2.082zm-18.137 3.78s.712 5.753-4 6.795 3.123.164 4 8c1.26 10.74 2.082-3.342 6.027-6.356 3.945-2.96-2.904-1.04-3.67-5.425s-2.137-5.918-2.356-3.014zm68.876-12.877s.877 6.85-4.712 8.1 3.562.22 4.767 9.534 2.466-4 7.178-7.562-3.452-1.26-4.384-6.466c-.986-5.205-2.63-7.068-2.85-3.616z" fill="#fff"/><circle fill="#ff9419" cx="95.946" cy="32.429" r="20.822"/><path fill="#fff" d="M91.946 43.99l-9.205-9.205 3.123-3.123 6.082 6.082 14.192-14.247 3.123 3.123z"/></svg>