<?xml version="1.0" encoding="UTF-8"?>
<svg width="40px" height="40px" viewBox="0 0 40 40" version="1.1" xmlns="http://www.w3.org/2000/svg" xmlns:xlink="http://www.w3.org/1999/xlink">
    <title>CA2F87AC-2866-4405-A4E8-94693589D668</title>
    <defs>
        <path d="M27.275,29.375 C27.8416667,29.375 28.3333333,29.1666667 28.75,28.75 C29.1666667,28.3333333 29.375,27.8416667 29.375,27.275 L29.375,27.275 L29.375,12.725 C29.375,12.1583333 29.1666667,11.6666667 28.75,11.25 C28.3333333,10.8333333 27.8416667,10.625 27.275,10.625 L27.275,10.625 L12.725,10.625 C12.1583333,10.625 11.6666667,10.8333333 11.25,11.25 C10.8333333,11.6666667 10.625,12.1583333 10.625,12.725 L10.625,12.725 L10.625,27.275 C10.625,27.8416667 10.8333333,28.3333333 11.25,28.75 C11.6666667,29.1666667 12.1583333,29.375 12.725,29.375 L12.725,29.375 L27.275,29.375 Z M27.275,26.25 L12.725,26.25 L16.35,21.55 L18.975,24.675 L22.6,20 L27.275,26.25 Z" id="path-1"></path>
    </defs>
    <g id="Pre-Order-V3" stroke="none" stroke-width="1" fill="none" fill-rule="evenodd">
        <g id="12---Order-Status---Feedback---Food-Damaged" transform="translate(-71.000000, -589.000000)">
            <g id="Screen" transform="translate(0.000000, 60.000000)">
                <g id="Rating" transform="translate(16.000000, 28.000000)">
                    <g id="Uploader" transform="translate(16.000000, 448.000000)">
                        <g id="Variables/Icon/Image" transform="translate(39.000000, 53.000000)">
                            <g id="Icon">
                                <mask id="mask-2" fill="white">
                                    <use xlink:href="#path-1"></use>
                                </mask>
                                <use id="" fill="#000000" fill-rule="nonzero" xlink:href="#path-1"></use>
                                <g id="Variables/Palette/Neutrals/05-Manatee" mask="url(#mask-2)" fill="#9E9E9E">
                                    <rect id="Color" x="0" y="0" width="40" height="40"></rect>
                                </g>
                            </g>
                        </g>
                    </g>
                </g>
            </g>
        </g>
    </g>
</svg>