<svg xmlns="http://www.w3.org/2000/svg" width="42" height="32"><path d="M39.375 9.042H34.02L26.93.902C25.986-.18 24.327-.307 23.23.622S22 3.18 22.944 4.265l4.16 4.777h-12.2l4.16-4.777C20 3.18 19.872 1.55 18.77.622a2.66 2.66 0 0 0-3.702.28l-7.09 8.14H2.625C1.175 9.042 0 10.198 0 11.625s1.175 2.583 2.625 2.583h.03c0 .08-.023.14-.01.212l2.26 13.342C5.22 29.638 6.852 31 8.786 31h24.427c1.934 0 3.567-1.362 3.884-3.238l2.26-13.342c.012-.07-.01-.13-.01-.212h.03c1.45 0 2.625-1.157 2.625-2.583s-1.175-2.583-2.625-2.583zM14.81 24.37c0 .7-.542 1.25-1.212 1.25s-1.212-.56-1.212-1.25v-6.245c0-.7.542-1.25 1.212-1.25s1.212.56 1.212 1.25v6.245zm4.898-.376c0 .7-.542 1.25-1.212 1.25s-1.212-.56-1.212-1.25v-6.245c0-.7.542-1.25 1.212-1.25s1.212.56 1.212 1.25v6.245zm4.828.416c0 .7-.542 1.25-1.212 1.25s-1.212-.56-1.212-1.25v-6.245c0-.7.542-1.25 1.212-1.25s1.212.56 1.212 1.25v6.245zm5.703-.307c0 .7-.542 1.25-1.212 1.25s-1.212-.56-1.212-1.25v-6.245c0-.7.542-1.25 1.212-1.25s1.212.56 1.212 1.25V24.1z" fill="#fff" fill-rule="evenodd"/></svg>