<?xml version="1.0" encoding="UTF-8"?>
<svg width="60px" height="60px" viewBox="0 0 60 60" version="1.1" xmlns="http://www.w3.org/2000/svg" xmlns:xlink="http://www.w3.org/1999/xlink">
    <!-- Generator: sketchtool 55.1 (78136) - https://sketchapp.com -->
    <title>68F302AD-D57C-4C21-898B-8B5FAC105397</title>
    <desc>Created with sketchtool.</desc>
    <g id="Credit-card" stroke="none" stroke-width="1" fill="none" fill-rule="evenodd">
        <g id="Select-Payment" transform="translate(-20.000000, -379.000000)" fill-rule="nonzero">
            <g id="Payment-Option" transform="translate(0.000000, 359.000000)">
                <g id="payment-beep" transform="translate(20.000000, 20.000000)">
                    <g id="Beep-Pilot-logo-Emblem_main_Emblem">
                        <path d="M54.7056,60 L5.2944,60 C2.3712,60 0,57.6288 0,54.7056 L0,5.2944 C0,2.3712 2.3712,0 5.2944,0 L54.7056,0 C57.6288,0 60,2.3712 60,5.2944 L60,54.7056 C60,57.6288 57.6288,60 54.7056,60 Z" id="Path" fill="#FF9419"></path>
                        <path d="M28.3770771,10.5617969 C28.2906845,10.4704935 28.2930843,10.3239276 28.3842764,10.2374296 C28.4394717,10.1845698 28.5138653,10.165348 28.5810595,10.1773616 C29.9633404,10.4152309 31.2016338,11.0399383 32.3271368,11.8472524 C33.4406409,12.6665801 34.4317555,13.7045553 35.1612927,14.9323455 C35.9028288,16.1505248 36.3707885,17.5609218 36.4667803,18.9857351 C36.5651718,20.4081456 36.2963949,21.8305562 35.6460509,23.0487355 C35.6028547,23.1280253 35.5044631,23.1592606 35.42527,23.1160117 C35.3796739,23.0919844 35.3508764,23.0487355 35.3412772,23.0030838 L35.3412772,22.9982783 C35.0892989,21.6671712 34.8589187,20.4730191 34.4821512,19.355754 C34.1101832,18.2408917 33.6278248,17.2077219 33.0350758,16.217801 C32.4471265,15.2254774 31.7319881,14.2884164 30.9496555,13.363369 C30.1673229,12.4383216 29.3009975,11.5300933 28.3938756,10.5786159 L28.3770771,10.5617969 Z M26.9060036,14.7425306 C27.4315583,15.504193 27.9355149,16.1625384 28.3914757,16.8040648 C28.852236,17.4431885 29.2578011,18.0606876 29.6129705,18.6805895 C29.9801388,19.3004914 30.2681141,19.9300042 30.5392907,20.619585 C30.8440645,21.3091658 31.0048506,22.0636201 31.3312225,22.967043 L31.3384219,22.9886675 C31.3528206,23.0319164 31.3816182,23.07036 31.4224147,23.0967899 C31.5256058,23.1688715 31.6695934,23.1448443 31.7415872,23.0415273 C32.2935396,22.2510323 32.6199115,21.273125 32.5791151,20.275996 L32.5743155,19.8987689 C32.5623165,19.7738274 32.5383186,19.6536914 32.5191202,19.5287499 C32.4783237,19.2812697 32.4303279,19.0313867 32.3631336,18.7911147 C32.2791409,18.5556481 32.1927483,18.3177787 32.1015562,18.0847149 C32.0031646,17.8540537 31.8759756,17.6402116 31.7535861,17.421564 C31.2424302,16.5685982 30.5440903,15.8525875 29.7449591,15.3311971 C28.9386285,14.8194176 28.0483052,14.4566068 27.0571905,14.4253715 C27.0187939,14.4229688 26.9779974,14.4349824 26.9420005,14.4590096 C26.8556079,14.5190776 26.8340098,14.6392136 26.8940046,14.7257115 L26.9060036,14.7425306 Z M52.1590291,29.7835608 C52.0390394,30.6605539 51.8182584,31.5663795 51.4942863,32.4962324 C51.1703142,33.4260853 50.7575498,34.2790511 50.2559929,35.0527271 C49.7544361,35.8264031 49.1664868,36.4583186 48.4945446,36.9508764 C47.8226025,37.4434341 47.0690673,37.6885116 46.2339393,37.6885116 C45.7539806,37.6885116 45.3124186,37.5827919 44.9140529,37.3761579 C44.5132874,37.1671212 44.1605178,36.8956138 43.8509444,36.5616356 C43.3709858,37.9407973 42.9486221,39.207031 42.5862533,40.3555314 C42.2214847,41.5040319 41.9311097,42.414663 41.7151283,43.0826193 C41.6119372,43.3757512 41.3335612,43.6160233 40.8824,43.8034355 C40.4288391,43.9908477 40.0040757,44.0869565 39.6081098,44.0869565 C39.3369331,44.0869565 39.1089527,44.0389021 38.9217689,43.945196 C38.7369848,43.8514899 38.6577916,43.6881049 38.6889889,43.4598464 C38.6985881,43.3973757 38.7153866,43.3445159 38.7417844,43.3036696 C38.8785726,42.9072207 39.1017534,42.2584862 39.4113267,41.3598687 C39.7209,40.4612512 40.0616707,39.4424976 40.4360385,38.3036081 C40.5056325,38.0897659 40.5776263,37.8711184 40.6496201,37.6500681 C42.1350922,35.8264031 42.939023,33.7864934 43.1958008,33.0632745 C42.9822192,33.428488 42.7614382,33.7937015 42.5310581,34.1613178 C42.1470911,34.7716088 41.7247275,35.32904 41.2639672,35.8384167 C41.2471686,35.8576385 41.2375695,35.8720548 41.2375695,35.8720548 C41.2375695,35.8696521 41.2399693,35.8672494 41.2399693,35.8648467 C41.1487771,35.9657609 41.0551852,36.0690779 40.9615932,36.1675895 C40.3808432,36.7634642 39.7352988,37.2440083 39.0273598,37.6092218 C38.3194207,37.9744353 37.549087,38.1570421 36.713959,38.1570421 C36.0252183,38.1570421 35.4564672,38.0369061 35.0077059,37.796634 C34.5589445,37.556362 34.2085747,37.2271892 33.9517968,36.8091159 C33.6950189,36.3910425 33.5390323,35.8888739 33.4814373,35.3050128 C33.4670385,35.1680577 33.4598391,35.0286999 33.4550396,34.8845367 C33.1214683,35.3434563 32.7638991,35.7711406 32.3799321,36.1651867 C31.7991821,36.7610614 31.1536377,37.2416056 30.4456987,37.6068191 C29.7377596,37.9720326 28.967426,38.1546394 28.1322979,38.1546394 C27.4435572,38.1546394 26.8748061,38.0345034 26.4284446,37.7942313 C25.9796832,37.5539592 25.6293134,37.2247865 25.3725355,36.8067131 C25.1157576,36.3886397 24.959771,35.8864711 24.902176,35.30261 C24.8445809,34.7187489 24.8637793,34.0892361 24.9525716,33.4212798 C25.0797607,32.4794133 25.3413382,31.5135197 25.7373041,30.5211961 C26.13327,29.5288725 26.6084291,28.6350604 27.1651811,27.8397599 C27.7219332,27.0444594 28.3362803,26.3933221 29.013022,25.8791399 C29.687364,25.3673604 30.3809043,25.1102693 31.0912431,25.1102693 C31.487209,25.1102693 31.8831749,25.1679346 32.2743412,25.2832652 C32.6655075,25.3985958 33.0182772,25.5763971 33.3302503,25.8166692 C33.6422234,26.0569412 33.8846026,26.3548786 34.0549879,26.7104812 C34.2253732,27.0660839 34.2781687,27.4841572 34.2133743,27.9647014 C34.1029838,28.7792236 33.8270075,29.4760126 33.3830458,30.0502628 C32.939084,30.6245131 32.415929,31.1050572 31.8087813,31.4918952 C31.2040334,31.8787332 30.54649,32.1766706 29.8409507,32.3857072 C29.1330117,32.5947439 28.4634694,32.7196854 27.8323237,32.7629344 C27.712334,33.6399274 27.8443227,34.3727572 28.22349,34.959021 C28.6026574,35.5452848 29.1690086,35.836014 29.9201439,35.836014 C30.337708,35.836014 30.7144755,35.7471134 31.0528464,35.569312 C31.3888175,35.3915107 31.7247885,35.1200033 32.05596,34.7547897 C32.3871315,34.3895762 32.7255024,33.935462 33.0710726,33.3900445 C33.2822544,33.0560663 33.5150344,32.6812419 33.7598133,32.2751821 C33.9014011,31.6985292 34.0837854,31.1146681 34.3189652,30.5211961 C34.7149311,29.5288725 35.1900902,28.6350604 35.7468422,27.8397599 C36.3035943,27.0444594 36.9179414,26.3933221 37.5946831,25.8791399 C38.2690251,25.3673604 38.9625653,25.1102693 39.6729042,25.1102693 C40.0688701,25.1102693 40.464836,25.1679346 40.8560023,25.2832652 C41.2471686,25.3985958 41.5999383,25.5763971 41.9119114,25.8166692 C42.2238845,26.0569412 42.4662637,26.3548786 42.636649,26.7104812 C42.8070343,27.0660839 42.8598298,27.4841572 42.7950354,27.9647014 C42.6846449,28.7792236 42.4086686,29.4760126 41.9647069,30.0502628 C41.5207451,30.6245131 40.9975901,31.1050572 40.3904424,31.4918952 C39.7856945,31.8787332 39.1281511,32.1766706 38.4226118,32.3857072 C37.7146728,32.5947439 37.0451304,32.7196854 36.4139848,32.7629344 C36.2939951,33.6399274 36.4259838,34.3727572 36.8051511,34.959021 C37.1843185,35.5452848 37.7506697,35.836014 38.501805,35.836014 C38.9193691,35.836014 39.2961366,35.7471134 39.6345075,35.569312 C39.9704786,35.3915107 40.3064496,35.1200033 40.6376211,34.7547897 C40.9687926,34.3895762 41.3071635,33.935462 41.6527337,33.3900445 C41.9311097,32.9527493 42.2382833,32.4505807 42.5742544,31.8883441 C42.6630467,31.6264475 42.7494393,31.3693564 42.8358318,31.1146681 C43.217399,29.997403 43.5533701,29.0098848 43.8485446,28.1521136 C44.1413194,27.2943423 44.354901,26.6888567 44.4868897,26.3332541 C44.5204868,26.2299371 44.6116789,26.1506473 44.7532667,26.0977875 C44.8948546,26.0449276 45.0508411,26.0184977 45.2188267,26.0184977 C45.5739961,26.0184977 45.9267657,26.1122038 46.2771355,26.299616 C46.6275054,26.4870282 46.7786924,26.7585356 46.7306965,27.1141383 C46.7210973,27.176609 46.7114981,27.2558988 46.6994992,27.3496049 C46.6875002,27.443311 46.6635023,27.5322117 46.632305,27.6163069 C46.8530859,27.3664239 47.1122636,27.1189437 47.4050384,26.8786717 C47.6978132,26.6383996 48.0193855,26.419752 48.3721551,26.2203262 C48.722525,26.0209004 49.0776944,25.8599181 49.4400632,25.7349767 C49.802432,25.6100352 50.1600012,25.5475644 50.5151706,25.5475644 C50.7023545,25.5475644 50.9063369,25.5787998 51.1295177,25.6412705 C51.6502729,25.809461 51.9886438,26.2803942 52.1446303,27.0516675 C52.2934175,27.830149 52.3006169,28.7383774 52.1590291,29.7835608 Z M36.7787529,31.4150079 C37.3307053,31.3525371 37.8298623,31.1699304 38.2786236,30.8671876 C38.7273849,30.5644448 39.1185512,30.2136476 39.4545223,29.8171988 C39.7904933,29.4207499 40.0592702,29.007482 40.2632526,28.577395 C40.467235,28.1497108 40.5896245,27.7772891 40.6328207,27.4649354 C40.664018,27.2342743 40.6472195,27.0420566 40.5872247,26.8858798 C40.52483,26.729703 40.40964,26.6504132 40.2440542,26.6504132 C39.9296813,26.6504132 39.6009097,26.8017846 39.2577392,27.1045274 C38.9145688,27.4072701 38.5857971,27.7941081 38.2714242,28.2650413 C37.9570513,28.7359746 37.6690761,29.247754 37.4050989,29.8003797 C37.1411216,30.3530054 36.9323396,30.8912148 36.7787529,31.4150079 Z M28.1970918,31.4150079 C28.7490442,31.3525371 29.2482012,31.1699304 29.6969626,30.8671876 C30.1457239,30.5644448 30.5368902,30.2136476 30.8728612,29.8171988 C31.2088323,29.4207499 31.4776091,29.007482 31.6815915,28.577395 C31.8855739,28.1497108 32.0079634,27.7772891 32.0511597,27.4649354 C32.082357,27.2342743 32.0655584,27.0420566 32.0055636,26.8858798 C31.943169,26.729703 31.8279789,26.6504132 31.6623932,26.6504132 C31.3480203,26.6504132 31.0192486,26.8017846 30.6760782,27.1045274 C30.3329077,27.4072701 30.0041361,27.7941081 29.6897632,28.2650413 C29.3753903,28.7359746 29.0874151,29.247754 28.8234378,29.8003797 C28.5594606,30.3530054 28.3506786,30.8912148 28.1970918,31.4150079 Z M48.9433043,27.6211123 C48.6721277,27.6211123 48.3841525,27.7724837 48.0841783,28.0752265 C47.7818044,28.3779693 47.48423,28.7648073 47.1914552,29.2357405 C46.8986805,29.7066738 46.6131051,30.2232587 46.3395286,30.787898 C46.0635524,31.3525374 45.8187735,31.9003576 45.6003923,32.4337616 C45.3820111,32.9671656 45.197227,33.4477097 45.0436403,33.8753939 C44.8924533,34.3030782 44.7844626,34.6010155 44.7196682,34.769206 C44.8756547,34.9998672 45.0868365,35.1872794 45.348414,35.3338453 C45.6099915,35.4804113 45.8883675,35.5524929 46.1811423,35.5524929 C46.3275297,35.5524929 46.4883158,35.5212575 46.6635007,35.4587868 C46.9250782,35.3746916 47.2154532,35.112795 47.5370255,34.6754999 C47.856198,34.235802 48.1633715,33.7192171 48.4513467,33.1233424 C48.7393219,32.5274677 48.9937,31.8907468 49.2120811,31.2107768 C49.4304623,30.5308069 49.5744499,29.9205159 49.6488435,29.3775011 C49.8048301,28.2049734 49.5696503,27.6211123 48.9433043,27.6211123 Z M19.7354212,37.5755845 C18.7323076,37.9768388 17.6428014,38.2363326 16.4645029,38.3540659 C15.2862044,38.4717992 14.05991,38.4357584 12.7880195,38.2483462 C11.8449007,38.1065857 11.1489607,37.8182592 10.7025991,37.3809641 C10.2538378,36.9436689 9.97066216,36.4487085 9.85307228,35.89368 C9.73548241,35.3386516 9.72828303,34.7619986 9.83627373,34.1589158 C9.90346794,33.7792859 9.98266112,33.4356969 10.0738533,33.116135 C10.100251,33.1137323 11.3409441,32.9743745 12.1184772,32.5827311 C11.9528914,32.5827311 11.7777065,32.5587039 11.5881229,32.5130522 C11.2353532,32.4649978 10.8345878,32.3592781 10.3858264,32.1958931 C8.9483502,31.6072265 7.94763638,30.69179 7.38128516,29.4519861 C6.81493393,28.2121823 6.81493393,26.804188 7.38128516,25.2231979 C7.89964052,23.8320227 8.64837603,22.6450787 9.62509192,21.6647687 C10.6018078,20.6868614 11.7225113,19.9011718 12.9848026,19.3101025 C14.2446941,18.721436 15.6053769,18.3249871 17.0692508,18.1231585 C18.5307249,17.9237327 19.9921991,17.904511 21.4536732,18.0702987 C22.7255637,18.2120592 23.7742734,18.5075938 24.5998023,18.9544999 C25.4253312,19.4038086 26.0492774,19.9276017 26.4740408,20.5306846 C26.8988043,21.1313647 27.133984,21.7752938 27.1819799,22.4600692 C27.2299757,23.1448446 27.1003869,23.8055927 26.7932134,24.4423137 C26.4860398,25.1030619 26.0516772,25.6292577 25.485326,26.0184984 C24.9189748,26.4077391 24.3406246,26.7080792 23.7526752,26.9219213 C23.0687341,27.1814152 22.3511959,27.3592165 21.595261,27.4529226 C22.1832104,27.6187103 22.7327631,27.9022314 23.2391194,28.3034857 C23.7454758,28.70474 24.1414417,29.1876869 24.4246174,29.7547289 C24.707793,30.321771 24.8493808,30.9416729 24.8493808,31.6120319 C24.8493808,32.282391 24.6597971,32.9743745 24.2830295,33.6831771 C23.8102703,34.5793919 23.186324,35.3530679 22.408791,36.0018025 C21.6264583,36.650537 20.736135,37.1743301 19.7354212,37.5755845 Z M20.4049634,33.9138378 C20.8417258,33.3371849 21.1417,32.8350163 21.3072857,32.4097348 C21.7536473,31.3237051 21.8256411,30.3626169 21.5184675,29.5240675 C21.211294,28.6879207 20.5633498,28.0680189 19.5746349,27.6667645 L19.5746349,27.6667645 L19.5746349,27.6667645 C19.5746349,27.6667645 18.4347331,27.3568136 18.1635565,26.8618532 C17.88998,26.36449 18.9938849,26.5759294 20.2177795,26.3260465 C20.4529593,26.2587703 20.7193363,26.1770778 21.0265099,26.0737608 C21.3792795,25.9560275 21.7392485,25.8022534 22.1040171,25.6148412 C22.4687857,25.4250263 22.8119561,25.1847543 23.1287288,24.8892196 C23.4479014,24.593685 23.6998796,24.2452905 23.8894633,23.8440362 C24.2422329,23.0655548 24.3358249,22.4096121 24.1726389,21.8786109 C24.0070532,21.3476096 23.7118786,20.9103145 23.289515,20.5691282 C22.8647516,20.2279419 22.3703941,19.9804617 21.8040429,19.8266876 C21.2376917,19.6729134 20.7313353,19.5744019 20.2849738,19.5263475 L20.107389,19.5263475 C18.8570967,19.4086142 17.750792,19.5143339 16.7836753,19.8459093 C15.8165586,20.1774847 15.0630235,20.4946439 14.5206702,20.8021921 C14.1894987,21.0136315 13.9063231,21.21546 13.6711434,21.4028722 C13.4359636,21.5926871 13.2583789,21.7464612 13.140789,21.8641945 C12.5048438,22.479291 11.9984874,23.0559439 11.6217199,23.5989587 C11.2449523,24.1419736 10.9545773,24.6489476 10.7553945,25.1198808 C10.5538118,25.5932167 10.4314224,26.0160956 10.3834265,26.3933227 C10.3354306,26.7705498 10.3234317,27.1021252 10.3474296,27.3856462 C10.3714275,28.0704216 10.6306052,28.6711017 11.1249626,29.1900893 C11.5257281,28.3179018 11.9504915,27.4793523 12.3968531,26.6768437 C12.8432147,25.874335 13.2871764,25.1246863 13.721539,24.4303 C13.7767343,24.3438021 13.8295297,24.2573042 13.8823252,24.1732089 C14.4990721,23.2073153 15.2838045,22.3567522 16.2341226,21.7176286 C17.0668509,21.1577947 18.1251598,20.6748479 19.2434635,20.7397213 C19.3682527,20.7661513 19.4882424,20.7973866 19.6058322,20.8358302 C19.6994242,20.8598574 19.7834169,20.9199254 19.853011,21.0136315 C19.9010068,21.0833104 19.9178054,21.172211 19.9058064,21.2779307 C19.8938074,21.3836504 19.829013,21.5206055 19.7114231,21.6839905 C19.4522455,22.0371904 19.0970761,22.5153318 18.6507145,23.1184146 C18.2019532,23.7190948 17.7195947,24.4038701 17.2012393,25.1703379 C16.682884,25.9368058 16.1405307,26.7753552 15.5741795,27.6835836 C15.0078282,28.5918119 14.4654749,29.519262 13.9471196,30.4611285 C14.2758913,30.5091829 14.719853,30.5308074 15.2718055,30.5308074 C15.8261578,30.5308074 16.3493127,30.4010605 16.8460699,30.1415666 C16.9396619,30.0718878 17.0236546,30.0358469 17.0932486,30.0358469 C17.2348364,30.0358469 17.3044304,30.1415666 17.3044304,30.3554088 C17.2804325,30.5908754 17.2228375,30.8623828 17.1268457,31.169931 C17.0332538,31.4774792 16.8436701,31.7610003 16.5604945,32.0204941 C16.2773189,32.2799879 15.8765534,32.49383 15.3581981,32.657215 C14.8398427,32.8230027 14.1439026,32.8686544 13.2727777,32.7989755 C13.0615959,33.2002298 12.8528138,33.637525 12.653631,34.1084582 C12.4520484,34.5817941 12.3464574,35.0359083 12.3344585,35.4708007 C12.3224595,35.9080958 12.4352498,36.285323 12.6704295,36.6024821 C12.9056093,36.9220439 13.3423717,37.1166642 13.9783169,37.1863431 C14.8974377,37.256022 15.7685627,37.1334833 16.5940916,36.8139215 C17.4196205,36.4943596 18.1491577,36.0762863 18.7851029,35.5572986 C19.4330471,35.0407137 19.9706008,34.4904907 20.4049634,33.9138378 Z" id="Shape" fill="#FFFFFF"></path>
                    </g>
                </g>
            </g>
        </g>
    </g>
</svg>